<?xml version="1.0" encoding="iso-8859-1"?>
<!-- Generator: Adobe Illustrator 22.1.0, SVG Export Plug-In . SVG Version: 6.00 Build 0)  -->
<svg version="1.1" id="Layer_1" xmlns="http://www.w3.org/2000/svg" xmlns:xlink="http://www.w3.org/1999/xlink" x="0px" y="0px"
	 viewBox="0 0 100 100" style="enable-background:new 0 0 100 100;" xml:space="preserve">
<path style="fill:#C7EDE6;" d="M87.215,56.71C88.35,54.555,89,52.105,89,49.5c0-6.621-4.159-12.257-10.001-14.478
	C78.999,35.015,79,35.008,79,35c0-11.598-9.402-21-21-21c-9.784,0-17.981,6.701-20.313,15.757C36.211,29.272,34.638,29,33,29
	c-7.692,0-14.023,5.793-14.89,13.252C12.906,43.353,9,47.969,9,53.5C9,59.851,14.149,65,20.5,65c0.177,0,0.352-0.012,0.526-0.022
	C21.022,65.153,21,65.324,21,65.5C21,76.822,30.178,86,41.5,86c6.437,0,12.175-2.972,15.934-7.614C59.612,80.611,62.64,82,66,82
	c4.65,0,8.674-2.65,10.666-6.518C77.718,75.817,78.837,76,80,76c6.075,0,11-4.925,11-11C91,61.689,89.53,58.727,87.215,56.71z"/>
<g>
	<path style="fill:#FDFCEF;" d="M77.5,60.5V61h3v-0.5c0,0,4.242,0,5.5,0c2.485,0,4.5-2.015,4.5-4.5c0-2.333-1.782-4.229-4.055-4.455
		C86.467,51.364,86.5,51.187,86.5,51c0-2.485-2.015-4.5-4.5-4.5c-1.438,0-2.703,0.686-3.527,1.736
		C78.333,45.6,76.171,43.5,73.5,43.5c-2.761,0-5,2.239-5,5c0,0.446,0.077,0.87,0.187,1.282C68.045,49.005,67.086,48.5,66,48.5
		c-1.781,0-3.234,1.335-3.455,3.055C62.364,51.533,62.187,51.5,62,51.5c-2.485,0-4.5,2.015-4.5,4.5s2.015,4.5,4.5,4.5s9.5,0,9.5,0
		H77.5z"/>
	<path style="fill:#472B29;" d="M73.5,43c-3.033,0-5.5,2.467-5.5,5.5c0,0.016,0,0.031,0,0.047C67.398,48.192,66.71,48,66,48
		c-1.831,0-3.411,1.261-3.858,3.005C62.095,51.002,62.048,51,62,51c-2.757,0-5,2.243-5,5s2.243,5,5,5h15.5
		c0.276,0,0.5-0.224,0.5-0.5S77.776,60,77.5,60H62c-2.206,0-4-1.794-4-4s1.794-4,4-4c0.117,0,0.23,0.017,0.343,0.032l0.141,0.019
		c0.021,0.003,0.041,0.004,0.062,0.004l0.495-0.437C63.232,50.125,64.504,49,66,49c0.885,0,1.723,0.401,2.301,1.1
		c0.098,0.118,0.241,0.182,0.386,0.182c0.078,0,0.156-0.018,0.228-0.056c0.209-0.107,0.314-0.346,0.254-0.573
		C69.054,49.218,69,48.852,69,48.5c0-2.481,2.019-4.5,4.5-4.5c2.381,0,4.347,1.872,4.474,4.263c0.011,0.208,0.15,0.387,0.349,0.45
		c0.05,0.016,0.101,0.024,0.152,0.024c0.15,0,0.296-0.069,0.392-0.192C79.638,47.563,80.779,47,82,47c2.206,0,4,1.794,4,4
		c0,0.117-0.017,0.23-0.032,0.343l-0.019,0.141c-0.016,0.134,0.022,0.268,0.106,0.373c0.084,0.105,0.207,0.172,0.34,0.185
		C88.451,52.247,90,53.949,90,56c0,2.206-1.794,4-4,4h-5.5c-0.276,0-0.5,0.224-0.5,0.5s0.224,0.5,0.5,0.5H86c2.757,0,5-2.243,5-5
		c0-2.397-1.689-4.413-4.003-4.877C86.999,51.082,87,51.041,87,51c0-2.757-2.243-5-5-5c-1.176,0-2.293,0.416-3.183,1.164
		C78.219,44.76,76.055,43,73.5,43L73.5,43z"/>
	<path style="fill:#472B29;" d="M72,50c-1.403,0-2.609,0.999-2.913,2.341C68.72,52.119,68.301,52,67.875,52
		c-1.202,0-2.198,0.897-2.353,2.068C65.319,54.022,65.126,54,64.938,54c-1.529,0-2.811,1.2-2.918,2.732
		C62.01,56.87,62.114,56.99,62.251,57c0.006,0,0.012,0,0.018,0c0.13,0,0.24-0.101,0.249-0.232c0.089-1.271,1.151-2.268,2.419-2.268
		c0.229,0,0.47,0.042,0.738,0.127c0.022,0.007,0.045,0.01,0.067,0.01c0.055,0,0.11-0.02,0.156-0.054
		C65.962,54.537,66,54.455,66,54.375c0-1.034,0.841-1.875,1.875-1.875c0.447,0,0.885,0.168,1.231,0.473
		c0.047,0.041,0.106,0.063,0.165,0.063c0.032,0,0.063-0.006,0.093-0.019c0.088-0.035,0.148-0.117,0.155-0.212
		C69.623,51.512,70.712,50.5,72,50.5c0.208,0,0.425,0.034,0.682,0.107c0.023,0.007,0.047,0.01,0.07,0.01
		c0.109,0,0.207-0.073,0.239-0.182c0.038-0.133-0.039-0.271-0.172-0.309C72.517,50.04,72.256,50,72,50L72,50z"/>
	<path style="fill:#472B29;" d="M85.883,51.5c-1.326,0-2.508,0.897-2.874,2.182c-0.038,0.133,0.039,0.271,0.172,0.309
		C83.205,53.997,83.228,54,83.25,54c0.109,0,0.209-0.072,0.24-0.182C83.795,52.748,84.779,52,85.883,52
		c0.117,0,0.23,0.014,0.342,0.029c0.012,0.002,0.023,0.003,0.035,0.003c0.121,0,0.229-0.092,0.246-0.217
		c0.019-0.137-0.077-0.263-0.214-0.281C86.158,51.516,86.022,51.5,85.883,51.5L85.883,51.5z"/>
</g>
<g>
	<path style="fill:#FFFFFF;" d="M26.5,43h-10c-0.276,0-0.5-0.224-0.5-0.5s0.224-0.5,0.5-0.5h10c0.276,0,0.5,0.224,0.5,0.5
		S26.777,43,26.5,43z"/>
	<path style="fill:#FFFFFF;" d="M29.5,43h-1c-0.276,0-0.5-0.224-0.5-0.5s0.224-0.5,0.5-0.5h1c0.276,0,0.5,0.224,0.5,0.5
		S29.777,43,29.5,43z"/>
	<path style="fill:#FFFFFF;" d="M34.491,45H25.5c-0.276,0-0.5-0.224-0.5-0.5s0.224-0.5,0.5-0.5h8.991c0.276,0,0.5,0.224,0.5,0.5
		S34.767,45,34.491,45z"/>
	<path style="fill:#FFFFFF;" d="M23.5,45h-1c-0.276,0-0.5-0.224-0.5-0.5s0.224-0.5,0.5-0.5h1c0.276,0,0.5,0.224,0.5,0.5
		S23.777,45,23.5,45z"/>
	<path style="fill:#FFFFFF;" d="M20.5,45h-2c-0.276,0-0.5-0.224-0.5-0.5s0.224-0.5,0.5-0.5h2c0.276,0,0.5,0.224,0.5,0.5
		S20.777,45,20.5,45z"/>
	<path style="fill:#FFFFFF;" d="M26.5,47h-2c-0.276,0-0.5-0.224-0.5-0.5s0.224-0.5,0.5-0.5h2c0.276,0,0.5,0.224,0.5,0.5
		S26.776,47,26.5,47z"/>
	<path style="fill:#FFFFFF;" d="M29.5,38c-0.177,0-0.823,0-1,0c-0.276,0-0.5,0.224-0.5,0.5c0,0.276,0.224,0.5,0.5,0.5
		c0.177,0,0.823,0,1,0c0.276,0,0.5-0.224,0.5-0.5C30,38.224,29.776,38,29.5,38z"/>
	<path style="fill:#FFFFFF;" d="M29.5,40c-0.177,0-4.823,0-5,0c-0.276,0-0.5,0.224-0.5,0.5c0,0.276,0.224,0.5,0.5,0.5
		c0.177,0,4.823,0,5,0c0.276,0,0.5-0.224,0.5-0.5C30,40.224,29.776,40,29.5,40z"/>
	<path style="fill:#FFFFFF;" d="M34.5,42c-0.177,0-2.823,0-3,0c-0.276,0-0.5,0.224-0.5,0.5c0,0.276,0.224,0.5,0.5,0.5
		c0.177,0,2.823,0,3,0c0.276,0,0.5-0.224,0.5-0.5C35,42.224,34.776,42,34.5,42z"/>
</g>
<g>
	<path style="fill:#FFFFFF;" d="M72.5,24h-10c-0.276,0-0.5-0.224-0.5-0.5s0.224-0.5,0.5-0.5h10c0.276,0,0.5,0.224,0.5,0.5
		S72.776,24,72.5,24z"/>
	<path style="fill:#FFFFFF;" d="M76.5,24h-2c-0.276,0-0.5-0.224-0.5-0.5s0.224-0.5,0.5-0.5h2c0.276,0,0.5,0.224,0.5,0.5
		S76.776,24,76.5,24z"/>
	<path style="fill:#FFFFFF;" d="M81.5,26h-10c-0.276,0-0.5-0.224-0.5-0.5s0.224-0.5,0.5-0.5h10c0.276,0,0.5,0.224,0.5,0.5
		S81.777,26,81.5,26z"/>
	<path style="fill:#FFFFFF;" d="M69.5,26h-1c-0.276,0-0.5-0.224-0.5-0.5s0.224-0.5,0.5-0.5h1c0.276,0,0.5,0.224,0.5,0.5
		S69.776,26,69.5,26z"/>
	<path style="fill:#FFFFFF;" d="M66.47,26H64.5c-0.276,0-0.5-0.224-0.5-0.5s0.224-0.5,0.5-0.5h1.97c0.276,0,0.5,0.224,0.5,0.5
		S66.746,26,66.47,26z"/>
	<path style="fill:#FFFFFF;" d="M75.5,22h-5c-0.276,0-0.5-0.224-0.5-0.5s0.224-0.5,0.5-0.5h5c0.276,0,0.5,0.224,0.5,0.5
		S75.777,22,75.5,22z"/>
	<path style="fill:#FFFFFF;" d="M72.5,28h-2c-0.276,0-0.5-0.224-0.5-0.5s0.224-0.5,0.5-0.5h2c0.276,0,0.5,0.224,0.5,0.5
		S72.776,28,72.5,28z"/>
</g>
<g>
	<g>
		<path style="fill:#FDFCEF;" d="M53.632,34.879c0.065,0,0.131,0.001,0.196,0.003c1.577,0.051,3.022,0.735,4.069,1.926
			c1.957,2.224,1.779,5.675-0.404,7.856L33.222,68.832c-0.465,0.464-0.722,1.083-0.722,1.74s0.256,1.276,0.722,1.74l2.392,2.39
			c0.931,0.93,2.557,0.929,3.485,0.001L63.29,50.618c5.38-5.375,5.641-14.163,0.582-19.59c-2.612-2.801-6.155-4.381-9.978-4.449
			c-3.831-0.054-7.438,1.401-10.125,4.084l-1.547,1.545c-0.435,0.434-0.674,1.013-0.674,1.629c0,0.617,0.24,1.195,0.674,1.63
			l2.614,2.611c0.869,0.868,2.395,0.869,3.264,0l1.546-1.545C50.719,35.462,52.128,34.879,53.632,34.879z"/>
		<path style="fill:#EE3E54;" d="M33.152,69.814l9.018,1.129l6.26-6.234l-2.959-0.367l0.089-0.492l-3-0.37l-0.086,0.49l-3.254-0.404
			l-5.648,5.618C33.389,69.373,33.247,69.586,33.152,69.814z"/>
		<path style="fill:#EE3E54;" d="M53.63,34.38h0.2c0.802,0.024,1.581,0.202,2.296,0.518l0.883-7.396
			c-1.002-0.254-2.053-0.396-3.131-0.421c-1.924-0.021-3.755,0.327-5.469,1.055l0.67,3.359L48.6,31.6l0.41,2l0.48-0.097l0.449,2.118
			C51.011,34.809,52.288,34.38,53.63,34.38z"/>
		<path style="fill:#EE3E54;" d="M58.995,43.458l3.558,0.436L62.44,44.37l2,0.25l0.128-0.486l1.86,0.225
			c0.444-1.502,0.633-3.046,0.563-4.596c-0.002-0.009-0.006-0.061-0.01-0.115L66.97,39.5c-0.078-1.202-0.315-2.392-0.705-3.527
			l-7.321,1.431c0.435,0.731,0.704,1.563,0.784,2.441c0.042,0.457,0.034,0.914-0.021,1.375c-0.087,0.76-0.332,1.531-0.706,2.227
			C58.999,43.451,58.997,43.455,58.995,43.458z"/>
		<path style="fill:#EE3E54;" d="M45.983,56.818l9.215,1.148l6.254-6.227l-6.063-0.759l0.171-0.48l-3.054-0.335L45.983,56.818z"/>
	</g>
	<g>
		<path style="fill:#472B29;" d="M43.25,70.57l-0.9,0.89l-9.82-1.22c0.04-0.35,0.16-0.68,0.34-0.97L43.25,70.57z"/>
		<polygon style="fill:#472B29;" points="56.28,57.6 55.38,58.49 44.91,57.19 45.81,56.29 		"/>
		<path style="fill:#472B29;" d="M66.59,35.4l-8.49,1.66c0.23,0.28,0.42,0.59,0.58,0.91l8.23-1.61L66.59,35.4z"/>
		<path style="fill:#472B29;" d="M57.56,27.13l-1.03,8.54c-0.3-0.18-0.62-0.34-0.95-0.45l1-8.33
			C56.91,26.96,57.24,27.04,57.56,27.13z"/>
		<path style="fill:#472B29;" d="M49.61,36.57l-0.6-2.97c-0.06-0.27,0.12-0.54,0.39-0.59c0.27-0.05,0.53,0.12,0.59,0.39l0.5,2.44
			L49.61,36.57z"/>
		<path style="fill:#472B29;" d="M49.19,31.99C49.16,32,49.12,32,49.09,32c-0.23,0-0.44-0.16-0.49-0.4l-0.76-3.76
			c0.31-0.15,0.62-0.27,0.94-0.39l0.8,3.95C49.64,31.67,49.46,31.94,49.19,31.99z"/>
		<path style="fill:#472B29;" d="M67.07,43.93c-0.08,0.33-0.18,0.66-0.29,0.98l-2.34-0.29c-0.28-0.04-0.47-0.29-0.44-0.56
			c0.04-0.28,0.29-0.47,0.56-0.44L67.07,43.93z"/>
		<path style="fill:#472B29;" d="M63,43.93c-0.04,0.25-0.25,0.44-0.5,0.44h-0.06l-4.27-0.53c0.22-0.3,0.4-0.62,0.54-0.95l3.85,0.48
			C62.84,43.41,63.03,43.66,63,43.93z"/>
		<path style="fill:#472B29;" d="M62.53,51.37l-0.9,0.9l-6.19-0.77c-0.28-0.04-0.47-0.29-0.44-0.56c0.04-0.27,0.29-0.47,0.56-0.44
			L62.53,51.37z"/>
		<path style="fill:#472B29;" d="M49.5,64.34l-0.89,0.9l-3.17-0.4c-0.28-0.03-0.47-0.28-0.44-0.55c0.04-0.28,0.28-0.47,0.56-0.44
			L49.5,64.34z"/>
		<path style="fill:#472B29;" d="M43,64.03c-0.04,0.26-0.25,0.44-0.5,0.44h-0.06l-4.3-0.54l0.89-0.89l3.53,0.44
			C42.84,63.51,43.03,63.76,43,64.03z"/>
		<path style="fill:#472B29;" d="M53.706,27.477L53.706,27.477l0.171,0.001c3.576,0.063,6.891,1.542,9.335,4.163
			c4.732,5.076,4.481,13.304-0.559,18.339L38.463,74.066c-0.295,0.295-0.688,0.457-1.106,0.457s-0.812-0.163-1.107-0.458
			l-2.392-2.39c-0.295-0.295-0.458-0.687-0.458-1.103c0-0.417,0.163-0.809,0.456-1.103L58.13,45.301
			c2.518-2.516,2.713-6.507,0.444-9.087c-1.213-1.38-2.888-2.172-4.716-2.231c-0.075-0.003-0.15-0.004-0.224-0.004
			c-1.743,0-3.385,0.681-4.623,1.917l-1.547,1.545c-0.245,0.245-0.607,0.385-0.995,0.385c-0.388,0-0.751-0.141-0.996-0.385
			l-2.614-2.611c-0.265-0.265-0.41-0.617-0.41-0.993s0.146-0.729,0.41-0.992l1.547-1.545C46.873,28.834,50.176,27.477,53.706,27.477
			 M53.706,26.077c-3.888,0-7.536,1.48-10.29,4.231l-1.547,1.545c-1.094,1.094-1.094,2.873,0,3.966l2.614,2.611
			c0.531,0.53,1.258,0.795,1.986,0.795s1.455-0.265,1.985-0.795l1.546-1.545c0.976-0.975,2.26-1.508,3.633-1.508
			c0.059,0,0.118,0.001,0.178,0.003c1.438,0.047,2.756,0.67,3.711,1.757c1.783,2.027,1.614,5.178-0.382,7.173L32.869,68.477
			C32.308,69.037,32,69.781,32,70.572c0,0.791,0.308,1.535,0.869,2.094l2.391,2.389c0.56,0.56,1.305,0.868,2.097,0.868
			s1.537-0.308,2.096-0.866l24.19-24.085c5.569-5.564,5.836-14.663,0.595-20.285c-2.705-2.901-6.375-4.538-10.335-4.609
			C53.837,26.077,53.772,26.077,53.706,26.077L53.706,26.077z"/>
	</g>
</g>
<g>
	<path style="fill:#FDFCEF;" d="M33.5,70.5c0,0,1.567,0,3.5,0s3.5-1.567,3.5-3.5c0-1.781-1.335-3.234-3.055-3.455
		C37.473,63.366,37.5,63.187,37.5,63c0-1.933-1.567-3.5-3.5-3.5c-1.032,0-1.95,0.455-2.59,1.165
		c-0.384-1.808-1.987-3.165-3.91-3.165c-2.209,0-4,1.791-4,4c0,0.191,0.03,0.374,0.056,0.558C23.128,61.714,22.592,61.5,22,61.5
		c-1.228,0-2.245,0.887-2.455,2.055C19.366,63.527,19.187,63.5,19,63.5c-1.933,0-3.5,1.567-3.5,3.5s1.567,3.5,3.5,3.5s7.5,0,7.5,0
		V71h7V70.5z"/>
	<path style="fill:#472B29;" d="M35.25,66C35.112,66,35,65.888,35,65.75c0-1.223,0.995-2.218,2.218-2.218
		c0.034,0.009,0.737-0.001,1.244,0.136c0.133,0.036,0.212,0.173,0.176,0.306c-0.036,0.134-0.173,0.213-0.306,0.176
		c-0.444-0.12-1.1-0.12-1.113-0.118c-0.948,0-1.719,0.771-1.719,1.718C35.5,65.888,35.388,66,35.25,66z"/>
	<circle style="fill:#472B29;" cx="28.5" cy="70.5" r="0.5"/>
	<path style="fill:#472B29;" d="M37,71h-3.5c-0.276,0-0.5-0.224-0.5-0.5s0.224-0.5,0.5-0.5H37c1.654,0,3-1.346,3-3
		c0-1.496-1.125-2.768-2.618-2.959c-0.134-0.018-0.255-0.088-0.336-0.196s-0.115-0.244-0.094-0.377C36.975,63.314,37,63.16,37,63
		c0-1.654-1.346-3-3-3c-0.85,0-1.638,0.355-2.219,1c-0.125,0.139-0.321,0.198-0.5,0.148c-0.182-0.049-0.321-0.195-0.36-0.379
		C30.58,59.165,29.141,58,27.5,58c-1.93,0-3.5,1.57-3.5,3.5c0,0.143,0.021,0.28,0.041,0.418c0.029,0.203-0.063,0.438-0.242,0.54
		c-0.179,0.102-0.396,0.118-0.556-0.01C22.878,62.155,22.449,62,22,62c-0.966,0-1.792,0.691-1.963,1.644
		c-0.048,0.267-0.296,0.446-0.569,0.405C19.314,64.025,19.16,64,19,64c-1.654,0-3,1.346-3,3s1.346,3,3,3h7.5
		c0.276,0,0.5,0.224,0.5,0.5S26.776,71,26.5,71H19c-2.206,0-4-1.794-4-4s1.794-4,4-4c0.059,0,0.116,0.002,0.174,0.006
		C19.588,61.82,20.711,61,22,61c0.349,0,0.689,0.061,1.011,0.18C23.176,58.847,25.126,57,27.5,57c1.831,0,3.466,1.127,4.153,2.774
		C32.333,59.276,33.155,59,34,59c2.206,0,4,1.794,4,4c0,0.048-0.001,0.095-0.004,0.142C39.739,63.59,41,65.169,41,67
		C41,69.206,39.206,71,37,71z"/>
	<path style="fill:#472B29;" d="M31.5,70c-0.159,0-0.841,0-1,0c-0.276,0-0.5,0.224-0.5,0.5c0,0.276,0.224,0.5,0.5,0.5
		c0.159,0,0.841,0,1,0c0.276,0,0.5-0.224,0.5-0.5C32,70.224,31.776,70,31.5,70z"/>
</g>
</svg>
