<?xml version="1.0" encoding="iso-8859-1"?>
<!-- Generator: Adobe Illustrator 22.1.0, SVG Export Plug-In . SVG Version: 6.00 Build 0)  -->
<svg version="1.1" id="Layer_1" xmlns="http://www.w3.org/2000/svg" xmlns:xlink="http://www.w3.org/1999/xlink" x="0px" y="0px"
	 viewBox="0 0 100 100" style="enable-background:new 0 0 100 100;" xml:space="preserve">
<path style="fill:#C7EDE6;" d="M87.215,56.71C88.35,54.555,89,52.105,89,49.5c0-6.621-4.159-12.257-10.001-14.478
	C78.999,35.015,79,35.008,79,35c0-11.598-9.402-21-21-21c-9.784,0-17.981,6.701-20.313,15.757C36.211,29.272,34.638,29,33,29
	c-7.692,0-14.023,5.793-14.89,13.252C12.906,43.353,9,47.969,9,53.5C9,59.851,14.149,65,20.5,65c0.177,0,0.352-0.012,0.526-0.022
	C21.022,65.153,21,65.324,21,65.5C21,76.822,30.178,86,41.5,86c6.437,0,12.175-2.972,15.934-7.614C59.612,80.611,62.64,82,66,82
	c4.65,0,8.674-2.65,10.666-6.518C77.718,75.817,78.837,76,80,76c6.075,0,11-4.925,11-11C91,61.689,89.53,58.727,87.215,56.71z"/>
<g>
	<path style="fill:#FDFCEF;" d="M77.5,62.5V63h3v-0.5c0,0,4.242,0,5.5,0c2.485,0,4.5-2.015,4.5-4.5c0-2.333-1.782-4.229-4.055-4.455
		C86.467,53.364,86.5,53.187,86.5,53c0-2.485-2.015-4.5-4.5-4.5c-1.438,0-2.703,0.686-3.527,1.736
		C78.333,47.6,76.171,45.5,73.5,45.5c-2.761,0-5,2.239-5,5l-0.356,0.75c-0.59-0.467-1.331-0.75-2.144-0.75
		c-1.781,0-3.234,1.335-3.455,3.055C62.364,53.533,62.187,53.5,62,53.5c-2.485,0-4.5,2.015-4.5,4.5s2.015,4.5,4.5,4.5s9.5,0,9.5,0
		H77.5z"/>
	<path style="fill:#472B29;" d="M73.5,45c-3.033,0-5.5,2.467-5.5,5.5c0,0.016,0,0.031,0,0.047C67.398,50.192,66.71,50,66,50
		c-1.831,0-3.411,1.261-3.858,3.005C62.095,53.002,62.048,53,62,53c-2.757,0-5,2.243-5,5s2.243,5,5,5h15.5
		c0.276,0,0.5-0.224,0.5-0.5S77.776,62,77.5,62H62c-2.206,0-4-1.794-4-4s1.794-4,4-4c0.117,0,0.23,0.017,0.343,0.032l0.141,0.019
		c0.021,0.003,0.041,0.004,0.062,0.004c0.246,0,0.462-0.185,0.495-0.437C63.232,52.125,64.504,51,66,51c0.842,0,1.641,0.363,2.215,1
		c0.029,0.033,0.922-2.633,1-2.875C69.797,47.314,71.498,46,73.5,46c2.381,0,4.347,1.872,4.474,4.263
		c0.011,0.208,0.15,0.387,0.349,0.45c0.05,0.016,0.101,0.024,0.152,0.024c0.15,0,0.296-0.069,0.392-0.192
		C79.638,49.563,80.779,49,82,49c2.206,0,4,1.794,4,4c0,0.117-0.017,0.23-0.032,0.343l-0.019,0.141
		c-0.016,0.134,0.022,0.268,0.106,0.373c0.084,0.105,0.207,0.172,0.34,0.185C88.451,54.247,90,55.949,90,58c0,2.206-1.794,4-4,4
		h-5.5c-0.276,0-0.5,0.224-0.5,0.5s0.224,0.5,0.5,0.5H86c2.757,0,5-2.243,5-5c0-2.397-1.689-4.413-4.003-4.877
		C86.999,53.082,87,53.041,87,53c0-2.757-2.243-5-5-5c-1.176,0-2.293,0.416-3.183,1.164C78.219,46.76,76.055,45,73.5,45L73.5,45z"/>
	<path style="fill:#472B29;" d="M72,52c-1.403,0-2.609,0.999-2.913,2.341C68.72,54.119,68.301,54,67.875,54
		c-1.202,0-2.198,0.897-2.353,2.068C65.319,56.022,65.126,56,64.937,56c-1.529,0-2.811,1.2-2.918,2.732
		C62.01,58.87,62.114,58.99,62.251,59c0.006,0,0.012,0,0.018,0c0.13,0,0.24-0.101,0.249-0.232c0.089-1.271,1.151-2.268,2.419-2.268
		c0.229,0,0.47,0.042,0.738,0.127c0.022,0.007,0.045,0.01,0.067,0.01c0.055,0,0.11-0.02,0.156-0.054
		C65.962,56.537,66,56.455,66,56.375c0-1.034,0.841-1.875,1.875-1.875c0.447,0,0.885,0.168,1.231,0.473
		c0.047,0.041,0.106,0.063,0.165,0.063c0.032,0,0.063-0.006,0.093-0.019c0.088-0.035,0.148-0.117,0.155-0.212
		C69.623,53.512,70.712,52.5,72,52.5c0.208,0,0.425,0.034,0.682,0.107c0.023,0.007,0.047,0.01,0.07,0.01
		c0.109,0,0.207-0.073,0.239-0.182c0.038-0.133-0.039-0.271-0.172-0.309C72.517,52.04,72.256,52,72,52L72,52z"/>
	<path style="fill:#472B29;" d="M85.883,53.5c-1.326,0-2.508,0.897-2.874,2.182c-0.038,0.133,0.039,0.271,0.172,0.309
		C83.205,55.997,83.228,56,83.25,56c0.109,0,0.209-0.072,0.24-0.182C83.795,54.748,84.779,54,85.883,54
		c0.117,0,0.23,0.014,0.342,0.029c0.012,0.002,0.023,0.003,0.035,0.003c0.121,0,0.229-0.092,0.246-0.217
		c0.019-0.137-0.077-0.263-0.214-0.281C86.158,53.516,86.022,53.5,85.883,53.5L85.883,53.5z"/>
</g>
<g>
	<path style="fill:#FFFFFF;" d="M74.5,75h-12c-0.276,0-0.5-0.224-0.5-0.5s0.224-0.5,0.5-0.5h12c0.276,0,0.5,0.224,0.5,0.5
		S74.777,75,74.5,75z"/>
	<path style="fill:#FFFFFF;" d="M77.5,75h-1c-0.276,0-0.5-0.224-0.5-0.5s0.224-0.5,0.5-0.5h1c0.276,0,0.5,0.224,0.5,0.5
		S77.777,75,77.5,75z"/>
	<path style="fill:#FFFFFF;" d="M76.375,77H73.5c-0.276,0-0.5-0.224-0.5-0.5s0.224-0.5,0.5-0.5h2.875c0.276,0,0.5,0.224,0.5,0.5
		S76.651,77,76.375,77z"/>
	<path style="fill:#FFFFFF;" d="M71.5,77h-1c-0.276,0-0.5-0.224-0.5-0.5s0.224-0.5,0.5-0.5h1c0.276,0,0.5,0.224,0.5,0.5
		S71.777,77,71.5,77z"/>
	<path style="fill:#FFFFFF;" d="M68.5,77h-2c-0.276,0-0.5-0.224-0.5-0.5s0.224-0.5,0.5-0.5h2c0.276,0,0.5,0.224,0.5,0.5
		S68.777,77,68.5,77z"/>
	<path style="fill:#FFFFFF;" d="M74.5,79h-2c-0.276,0-0.5-0.224-0.5-0.5s0.224-0.5,0.5-0.5h2c0.276,0,0.5,0.224,0.5,0.5
		S74.776,79,74.5,79z"/>
	<path style="fill:#FFFFFF;" d="M77.5,70c-0.177,0-0.823,0-1,0c-0.276,0-0.5,0.224-0.5,0.5c0,0.276,0.224,0.5,0.5,0.5
		c0.177,0,0.823,0,1,0c0.276,0,0.5-0.224,0.5-0.5C78,70.224,77.776,70,77.5,70z"/>
	<path style="fill:#FFFFFF;" d="M70.5,72c-0.177,0-0.823,0-1,0c-0.276,0-0.5,0.224-0.5,0.5c0,0.276,0.224,0.5,0.5,0.5
		c0.177,0,0.823,0,1,0c0.276,0,0.5-0.224,0.5-0.5C71,72.224,70.776,72,70.5,72z"/>
	<path style="fill:#FFFFFF;" d="M80.5,72c-0.177,0-7.823,0-8,0c-0.276,0-0.5,0.224-0.5,0.5c0,0.276,0.224,0.5,0.5,0.5
		c0.177,0,7.823,0,8,0c0.276,0,0.5-0.224,0.5-0.5C81,72.224,80.776,72,80.5,72z"/>
	<path style="fill:#FFFFFF;" d="M82.5,74c-0.177,0-2.823,0-3,0c-0.276,0-0.5,0.224-0.5,0.5c0,0.276,0.224,0.5,0.5,0.5
		c0.177,0,2.823,0,3,0c0.276,0,0.5-0.224,0.5-0.5C83,74.224,82.776,74,82.5,74z"/>
</g>
<g>
	<path style="fill:#FFFFFF;" d="M26.5,38h-10c-0.276,0-0.5-0.224-0.5-0.5c0-0.276,0.224-0.5,0.5-0.5h10c0.276,0,0.5,0.224,0.5,0.5
		C27,37.776,26.776,38,26.5,38z"/>
	<path style="fill:#FFFFFF;" d="M33.5,38h-5c-0.276,0-0.5-0.224-0.5-0.5c0-0.276,0.224-0.5,0.5-0.5h5c0.276,0,0.5,0.224,0.5,0.5
		C34,37.776,33.776,38,33.5,38z"/>
	<path style="fill:#FFFFFF;" d="M35.5,40h-10c-0.276,0-0.5-0.224-0.5-0.5s0.224-0.5,0.5-0.5h10c0.276,0,0.5,0.224,0.5,0.5
		S35.777,40,35.5,40z"/>
	<path style="fill:#FFFFFF;" d="M23.5,40h-1c-0.276,0-0.5-0.224-0.5-0.5s0.224-0.5,0.5-0.5h1c0.276,0,0.5,0.224,0.5,0.5
		S23.776,40,23.5,40z"/>
	<path style="fill:#FFFFFF;" d="M31.5,36h-1c-0.276,0-0.5-0.224-0.5-0.5s0.224-0.5,0.5-0.5h1c0.276,0,0.5,0.224,0.5,0.5
		S31.776,36,31.5,36z"/>
	<path style="fill:#FFFFFF;" d="M20.47,40H18.5c-0.276,0-0.5-0.224-0.5-0.5s0.224-0.5,0.5-0.5h1.97c0.276,0,0.5,0.224,0.5,0.5
		S20.746,40,20.47,40z"/>
	<path style="fill:#FFFFFF;" d="M28.5,36h-5c-0.276,0-0.5-0.224-0.5-0.5s0.224-0.5,0.5-0.5h5c0.276,0,0.5,0.224,0.5,0.5
		S28.777,36,28.5,36z"/>
	<path style="fill:#FFFFFF;" d="M26.5,42h-2c-0.276,0-0.5-0.224-0.5-0.5s0.224-0.5,0.5-0.5h2c0.276,0,0.5,0.224,0.5,0.5
		S26.776,42,26.5,42z"/>
</g>
<g>
	<path style="fill:#FDFCEF;" d="M27.5,69.5c0,0,1.567,0,3.5,0s3.5-1.567,3.5-3.5c0-1.781-1.335-3.234-3.055-3.455
		C31.473,62.366,31.5,62.187,31.5,62c0-1.933-1.567-3.5-3.5-3.5c-1.032,0-1.95,0.455-2.59,1.165
		c-0.384-1.808-1.987-3.165-3.91-3.165c-2.209,0-4,1.791-4,4c0,0.191,0.03,0.374,0.056,0.558C17.128,60.714,16.592,60.5,16,60.5
		c-1.228,0-2.245,0.887-2.455,2.055C13.366,62.527,13.187,62.5,13,62.5c-1.933,0-3.5,1.567-3.5,3.5s1.567,3.5,3.5,3.5s7.5,0,7.5,0
		V70h7V69.5z"/>
	<path style="fill:#472B29;" d="M29.25,65C29.112,65,29,64.888,29,64.75c0-1.223,0.995-2.218,2.218-2.218
		c0.034,0.009,0.737-0.001,1.244,0.136c0.133,0.036,0.212,0.173,0.176,0.306c-0.036,0.134-0.173,0.213-0.306,0.176
		c-0.444-0.12-1.1-0.12-1.113-0.118c-0.948,0-1.719,0.771-1.719,1.718C29.5,64.888,29.388,65,29.25,65z"/>
	<circle style="fill:#472B29;" cx="22.5" cy="69.5" r="0.5"/>
	<path style="fill:#472B29;" d="M31,70h-3.5c-0.276,0-0.5-0.224-0.5-0.5s0.224-0.5,0.5-0.5H31c1.654,0,3-1.346,3-3
		c0-1.496-1.125-2.768-2.618-2.959c-0.134-0.018-0.255-0.088-0.336-0.196s-0.115-0.244-0.094-0.377C30.975,62.314,31,62.16,31,62
		c0-1.654-1.346-3-3-3c-0.85,0-1.638,0.355-2.219,1c-0.125,0.139-0.321,0.198-0.5,0.148c-0.182-0.049-0.321-0.195-0.36-0.379
		C24.58,58.165,23.141,57,21.5,57c-1.93,0-3.5,1.57-3.5,3.5c0,0.143,0.021,0.28,0.041,0.418c0.029,0.203-0.063,0.438-0.242,0.54
		c-0.179,0.102-0.396,0.118-0.556-0.01C16.878,61.155,16.449,61,16,61c-0.966,0-1.792,0.691-1.963,1.644
		c-0.048,0.267-0.296,0.446-0.569,0.405C13.314,63.025,13.16,63,13,63c-1.654,0-3,1.346-3,3s1.346,3,3,3h7.5
		c0.276,0,0.5,0.224,0.5,0.5S20.776,70,20.5,70H13c-2.206,0-4-1.794-4-4s1.794-4,4-4c0.059,0,0.116,0.002,0.174,0.006
		C13.588,60.82,14.711,60,16,60c0.349,0,0.689,0.061,1.011,0.18C17.176,57.847,19.126,56,21.5,56c1.831,0,3.466,1.127,4.153,2.774
		C26.333,58.276,27.155,58,28,58c2.206,0,4,1.794,4,4c0,0.048-0.001,0.095-0.004,0.142C33.739,62.59,35,64.169,35,66
		C35,68.206,33.206,70,31,70z"/>
	<path style="fill:#472B29;" d="M25.5,69c-0.159,0-0.841,0-1,0c-0.276,0-0.5,0.224-0.5,0.5c0,0.276,0.224,0.5,0.5,0.5
		c0.159,0,0.841,0,1,0c0.276,0,0.5-0.224,0.5-0.5C26,69.224,25.776,69,25.5,69z"/>
</g>
<g>
	<g>
		<path style="fill:#88AE45;" d="M61.375,34.292L64.93,23.5L77.5,36.07l-10.792,3.555L61.375,34.292z"/>
		<path style="fill:#472B29;" d="M66.708,40.125c-0.131,0-0.258-0.051-0.354-0.146l-5.333-5.333
			c-0.134-0.133-0.181-0.331-0.121-0.51l3.555-10.792c0.054-0.165,0.19-0.29,0.358-0.33c0.173-0.041,0.348,0.011,0.47,0.133
			l12.57,12.57c0.123,0.123,0.173,0.3,0.133,0.469s-0.165,0.305-0.33,0.359L66.864,40.1C66.813,40.117,66.761,40.125,66.708,40.125z
			 M61.946,34.157l4.897,4.897l9.729-3.205L65.15,24.428L61.946,34.157z"/>
	</g>
	<g>
		<path style="fill:#5B7729;" d="M62.986,36.262l5.256-8.886L74.5,26.5l-0.876,6.258l-8.886,5.256L62.986,36.262z"/>
		<path style="fill:#472B29;" d="M64.738,38.514c-0.129,0-0.257-0.05-0.354-0.146l-1.752-1.752
			c-0.161-0.162-0.193-0.412-0.077-0.608l5.256-8.886c0.078-0.131,0.211-0.22,0.361-0.241l6.258-0.876
			c0.154-0.022,0.312,0.03,0.423,0.142c0.111,0.111,0.163,0.268,0.142,0.423l-0.876,6.258c-0.021,0.151-0.109,0.284-0.24,0.361
			l-8.886,5.256C64.914,38.491,64.826,38.514,64.738,38.514z M63.614,36.183l1.203,1.204l8.345-4.936l0.751-5.363l-5.363,0.751
			L63.614,36.183z"/>
	</g>
	<g>
		<path style="fill:#88AE45;" d="M41.625,64.708L38.07,75.5L25.5,62.93l10.792-3.555L41.625,64.708z"/>
		<path style="fill:#472B29;" d="M38.07,76c-0.131,0-0.259-0.052-0.354-0.146l-12.57-12.57c-0.123-0.123-0.173-0.3-0.133-0.469
			s0.165-0.305,0.33-0.359L36.136,58.9c0.177-0.058,0.376-0.012,0.51,0.122l5.333,5.333c0.134,0.133,0.181,0.331,0.121,0.51
			l-3.555,10.792c-0.054,0.165-0.19,0.29-0.358,0.33C38.147,75.996,38.108,76,38.07,76z M26.428,63.151L37.85,74.572l3.204-9.729
			l-4.897-4.897L26.428,63.151z"/>
	</g>
	<g>
		<path style="fill:#5B7729;" d="M40.014,62.738l-5.256,8.886L28.5,72.5l0.876-6.258l8.886-5.256L40.014,62.738z"/>
		<path style="fill:#472B29;" d="M28.5,73c-0.132,0-0.259-0.052-0.354-0.146c-0.111-0.111-0.163-0.268-0.142-0.423l0.876-6.258
			c0.021-0.151,0.109-0.284,0.24-0.361l8.886-5.256c0.195-0.115,0.445-0.084,0.608,0.077l1.752,1.752
			c0.161,0.162,0.193,0.412,0.077,0.608l-5.256,8.886c-0.078,0.131-0.211,0.22-0.361,0.241l-6.258,0.876
			C28.546,72.999,28.523,73,28.5,73z M29.838,66.55l-0.751,5.363l5.363-0.751l4.936-8.345l-1.203-1.204L29.838,66.55z"/>
	</g>
	<g>
		<path style="fill:#678C26;" d="M56.84,31.497c-1.312,0-2.555,0.162-3.654,0.39c-4.434,0.917-9.091,3.475-12.457,6.842
			c-6.924,6.924-10.278,18.515-3.625,25.168c4.003,4.005,9.123,3.959,12.711,3.217c4.434-0.917,9.091-3.475,12.457-6.842
			c6.924-6.924,10.278-18.515,3.625-25.168C63.12,32.327,59.807,31.497,56.84,31.497z"/>
		<path style="fill:#472B29;" d="M56.815,32.4c3.387,0,6.229,1.124,8.445,3.34c6.914,6.914,1.924,18.346-3.625,23.895
			C57.404,63.866,51.34,66.6,46.185,66.6c-3.387,0-6.229-1.124-8.445-3.34c-6.914-6.914-1.924-18.346,3.625-23.895
			C45.596,35.134,51.66,32.4,56.815,32.4 M56.815,31c-5.93,0-12.284,3.219-16.44,7.375c-6.583,6.583-10.816,18.684-3.625,25.875
			c2.651,2.651,5.971,3.75,9.435,3.75c5.93,0,12.285-3.219,16.44-7.375c6.583-6.583,10.816-18.684,3.625-25.875
			C63.599,32.099,60.279,31,56.815,31L56.815,31z"/>
	</g>
	<g>
		<path style="fill:#FDFCEF;" d="M41.046,50.407l0.37-0.032c0.068,0.778,0.223,1.531,0.456,2.25l-0.355,0.115
			c0.206,0.633,0.467,1.24,0.784,1.814l0.325-0.179c1.723,3.129,5.049,5.25,8.873,5.25c5.592,0,10.125-4.533,10.125-10.125
			c0-5.592-4.533-10.125-10.125-10.125c-4.5,0-8.31,2.939-9.628,7l-0.355-0.115C41.185,47.281,41,48.369,41,49.5
			C41,49.806,41.02,50.108,41.046,50.407z"/>
		<path style="fill:#472B29;" d="M51.5,39C57.29,39,62,43.71,62,49.5S57.29,60,51.5,60c-3.827,0-7.353-2.086-9.202-5.444
			c-0.1-0.181-0.034-0.409,0.148-0.509c0.183-0.098,0.409-0.034,0.509,0.148c1.717,3.118,4.991,5.056,8.544,5.056
			c5.376,0,9.75-4.374,9.75-9.75s-4.374-9.75-9.75-9.75c-4.238,0-7.963,2.709-9.271,6.741c-0.064,0.197-0.275,0.303-0.473,0.241
			c-0.197-0.064-0.305-0.275-0.241-0.473C42.924,41.917,46.936,39,51.5,39z"/>
		<path style="fill:#472B29;" d="M41.416,50c0.192,0,0.356,0.147,0.373,0.342c0.065,0.739,0.213,1.469,0.439,2.167
			c0.064,0.197-0.043,0.408-0.241,0.472c-0.2,0.065-0.409-0.044-0.472-0.241c-0.245-0.752-0.404-1.537-0.474-2.333
			c-0.018-0.206,0.134-0.388,0.341-0.406C41.394,50,41.405,50,41.416,50z"/>
		<g>
			<path style="fill:#472B29;" d="M51.146,49.854c-0.195-0.195-0.195-0.512,0-0.707l4.95-4.95c0.195-0.195,0.512-0.195,0.707,0
				c0.195,0.195,0.195,0.512,0,0.707l-4.95,4.95C51.658,50.049,51.342,50.049,51.146,49.854z"/>
			<path style="fill:#472B29;" d="M53.828,47.172v-3.328c0-0.276,0.224-0.5,0.5-0.5s0.5,0.224,0.5,0.5v2.328h2.328
				c0.276,0,0.5,0.224,0.5,0.5s-0.224,0.5-0.5,0.5H53.828z"/>
			<path style="fill:#472B29;" d="M51.146,49.853c-0.06-0.06-0.106-0.136-0.129-0.224l-1.812-6.761
				c-0.071-0.267,0.087-0.541,0.354-0.613c0.267-0.072,0.541,0.086,0.613,0.354l1.812,6.761c0.071,0.267-0.087,0.541-0.354,0.613
				C51.45,50.031,51.268,49.975,51.146,49.853z"/>
			<path style="fill:#472B29;" d="M47.661,44.575c-0.156-0.156-0.195-0.403-0.079-0.603c0.138-0.239,0.444-0.321,0.683-0.183
				l2.017,1.165l1.164-2.017c0.138-0.239,0.444-0.321,0.683-0.183c0.241,0.139,0.321,0.443,0.183,0.683l-1.664,2.883l-2.883-1.665
				C47.726,44.632,47.692,44.605,47.661,44.575z"/>
			<path style="fill:#472B29;" d="M44.385,48.042c-0.122-0.122-0.178-0.304-0.13-0.483c0.071-0.267,0.346-0.425,0.613-0.354
				l6.761,1.812c0.266,0.07,0.425,0.345,0.354,0.613c-0.071,0.267-0.346,0.425-0.613,0.354l-6.761-1.812
				C44.521,48.148,44.446,48.102,44.385,48.042z"/>
			<path style="fill:#472B29;" d="M44.834,50.233c-0.03-0.03-0.057-0.065-0.08-0.104c-0.138-0.239-0.056-0.545,0.183-0.683
				l2.017-1.164l-1.165-2.017c-0.138-0.239-0.056-0.545,0.183-0.683c0.239-0.138,0.544-0.055,0.683,0.183l1.665,2.883l-2.883,1.664
				C45.236,50.427,44.99,50.389,44.834,50.233z"/>
			<path style="fill:#472B29;" d="M46.197,54.803c-0.195-0.195-0.195-0.512,0-0.707l4.95-4.95c0.195-0.195,0.512-0.195,0.707,0
				c0.195,0.195,0.195,0.512,0,0.707l-4.95,4.95C46.708,54.999,46.392,54.999,46.197,54.803z"/>
			<path style="fill:#472B29;" d="M48.318,55.51c-0.09-0.09-0.146-0.215-0.146-0.354v-2.328h-2.328c-0.276,0-0.5-0.224-0.5-0.5
				s0.224-0.5,0.5-0.5h3.328v3.328c0,0.276-0.224,0.5-0.5,0.5C48.533,55.657,48.408,55.601,48.318,55.51z"/>
			<path style="fill:#472B29;" d="M52.958,56.615c-0.06-0.06-0.106-0.136-0.129-0.224l-1.812-6.761
				c-0.071-0.267,0.087-0.541,0.354-0.613c0.267-0.072,0.542,0.087,0.613,0.354l1.812,6.761c0.071,0.267-0.087,0.541-0.354,0.613
				C53.262,56.792,53.08,56.737,52.958,56.615z"/>
			<path style="fill:#472B29;" d="M50.767,56.166c-0.156-0.156-0.195-0.403-0.079-0.603l1.664-2.883l2.883,1.665
				c0.239,0.139,0.321,0.444,0.183,0.683c-0.138,0.239-0.444,0.321-0.683,0.183l-2.017-1.165l-1.164,2.017
				c-0.138,0.239-0.444,0.321-0.683,0.183C50.832,56.224,50.798,56.197,50.767,56.166z"/>
			<path style="fill:#472B29;" d="M51.147,49.854c-0.122-0.122-0.178-0.304-0.13-0.483c0.071-0.267,0.346-0.425,0.613-0.354
				l6.761,1.812c0.267,0.07,0.425,0.345,0.354,0.613c-0.071,0.267-0.346,0.425-0.613,0.354l-6.761-1.812
				C51.283,49.96,51.207,49.914,51.147,49.854z"/>
			<path style="fill:#472B29;" d="M56.425,53.339c-0.03-0.03-0.057-0.065-0.08-0.104l-1.665-2.883l2.883-1.664
				c0.24-0.138,0.546-0.055,0.683,0.183c0.138,0.239,0.056,0.545-0.183,0.683l-2.017,1.164l1.165,2.017
				c0.138,0.239,0.056,0.545-0.183,0.683C56.828,53.533,56.581,53.495,56.425,53.339z"/>
		</g>
	</g>
</g>
</svg>
