<?xml version="1.0" encoding="iso-8859-1"?>
<!-- Generator: Adobe Illustrator 22.1.0, SVG Export Plug-In . SVG Version: 6.00 Build 0)  -->
<svg version="1.1" id="Layer_1" xmlns="http://www.w3.org/2000/svg" xmlns:xlink="http://www.w3.org/1999/xlink" x="0px" y="0px"
	 viewBox="0 0 100 100" style="enable-background:new 0 0 100 100;" xml:space="preserve">
<path style="fill:#C7EDE6;" d="M87.215,56.71C88.35,54.555,89,52.105,89,49.5c0-6.621-4.159-12.257-10.001-14.478
	C78.999,35.015,79,35.008,79,35c0-11.598-9.402-21-21-21c-9.784,0-17.981,6.701-20.313,15.757C36.211,29.272,34.638,29,33,29
	c-7.692,0-14.023,5.793-14.89,13.252C12.906,43.353,9,47.969,9,53.5C9,59.851,14.149,65,20.5,65c0.177,0,0.352-0.012,0.526-0.022
	C21.022,65.153,21,65.324,21,65.5C21,76.822,30.178,86,41.5,86c6.437,0,12.175-2.972,15.934-7.614C59.612,80.611,62.64,82,66,82
	c4.65,0,8.674-2.65,10.666-6.518C77.718,75.817,78.837,76,80,76c6.075,0,11-4.925,11-11C91,61.689,89.53,58.727,87.215,56.71z"/>
<g>
	<path style="fill:#FDFCEF;" d="M77.5,76.5V77h3v-0.5c0,0,4.242,0,5.5,0c2.485,0,4.5-2.015,4.5-4.5c0-2.333-1.782-4.229-4.055-4.455
		C86.467,67.364,86.5,67.187,86.5,67c0-2.485-2.015-4.5-4.5-4.5c-1.438,0-2.703,0.686-3.527,1.736
		C78.333,61.6,76.171,59.5,73.5,59.5c-2.761,0-5,2.239-5,5c0,0.446,0.077,0.87,0.187,1.282C68.045,65.005,67.086,64.5,66,64.5
		c-1.781,0-3.234,1.335-3.455,3.055C62.364,67.533,62.187,67.5,62,67.5c-2.485,0-4.5,2.015-4.5,4.5s2.015,4.5,4.5,4.5s9.5,0,9.5,0
		H77.5z"/>
	<path style="fill:#472B29;" d="M73.5,59c-3.033,0-5.5,2.467-5.5,5.5c0,0.016,0,0.031,0,0.047C67.398,64.192,66.71,64,66,64
		c-1.831,0-3.411,1.261-3.858,3.005C62.095,67.002,62.048,67,62,67c-2.757,0-5,2.243-5,5s2.243,5,5,5h15.5
		c0.276,0,0.5-0.224,0.5-0.5S77.776,76,77.5,76H62c-2.206,0-4-1.794-4-4s1.794-4,4-4c0.117,0,0.23,0.017,0.343,0.032l0.141,0.019
		c0.021,0.003,0.041,0.004,0.062,0.004c0.246,0,0.462-0.185,0.495-0.437C63.232,66.125,64.504,65,66,65
		c0.885,0,1.723,0.401,2.301,1.1c0.098,0.118,0.241,0.182,0.386,0.182c0.078,0,0.156-0.018,0.228-0.056
		c0.209-0.107,0.314-0.346,0.254-0.573C69.054,65.218,69,64.852,69,64.5c0-2.481,2.019-4.5,4.5-4.5c2.381,0,4.347,1.872,4.474,4.263
		c0.011,0.208,0.15,0.387,0.349,0.45c0.05,0.016,0.101,0.024,0.152,0.024c0.15,0,0.296-0.069,0.392-0.192
		C79.638,63.563,80.779,63,82,63c2.206,0,4,1.794,4,4c0,0.117-0.017,0.23-0.032,0.343l-0.019,0.141
		c-0.016,0.134,0.022,0.268,0.106,0.373c0.084,0.105,0.207,0.172,0.34,0.185C88.451,68.247,90,69.949,90,72c0,2.206-1.794,4-4,4
		h-5.5c-0.276,0-0.5,0.224-0.5,0.5s0.224,0.5,0.5,0.5H86c2.757,0,5-2.243,5-5c0-2.397-1.689-4.413-4.003-4.877
		C86.999,67.082,87,67.041,87,67c0-2.757-2.243-5-5-5c-1.176,0-2.293,0.416-3.183,1.164C78.219,60.76,76.055,59,73.5,59L73.5,59z"/>
	<path style="fill:#472B29;" d="M85.883,67.5c-1.326,0-2.508,0.897-2.874,2.182c-0.038,0.133,0.039,0.271,0.172,0.309
		C83.205,69.997,83.228,70,83.25,70c0.109,0,0.209-0.072,0.24-0.182C83.795,68.748,84.779,68,85.883,68
		c0.117,0,0.23,0.014,0.342,0.029c0.012,0.002,0.023,0.003,0.035,0.003c0.121,0,0.229-0.092,0.246-0.217
		c0.019-0.137-0.077-0.263-0.214-0.281C86.158,67.516,86.022,67.5,85.883,67.5L85.883,67.5z"/>
</g>
<g>
	<path style="fill:#FFFFFF;" d="M15.5,51h-10C5.224,51,5,50.776,5,50.5S5.224,50,5.5,50h10c0.276,0,0.5,0.224,0.5,0.5
		S15.777,51,15.5,51z"/>
	<path style="fill:#FFFFFF;" d="M18.5,51h-1c-0.276,0-0.5-0.224-0.5-0.5s0.224-0.5,0.5-0.5h1c0.276,0,0.5,0.224,0.5,0.5
		S18.777,51,18.5,51z"/>
	<path style="fill:#FFFFFF;" d="M23.491,53H14.5c-0.276,0-0.5-0.224-0.5-0.5s0.224-0.5,0.5-0.5h8.991c0.276,0,0.5,0.224,0.5,0.5
		S23.767,53,23.491,53z"/>
	<path style="fill:#FFFFFF;" d="M12.5,53h-1c-0.276,0-0.5-0.224-0.5-0.5s0.224-0.5,0.5-0.5h1c0.276,0,0.5,0.224,0.5,0.5
		S12.777,53,12.5,53z"/>
	<path style="fill:#FFFFFF;" d="M9.5,53h-2C7.224,53,7,52.776,7,52.5S7.224,52,7.5,52h2c0.276,0,0.5,0.224,0.5,0.5S9.777,53,9.5,53z
		"/>
	<path style="fill:#FFFFFF;" d="M15.5,55h-2c-0.276,0-0.5-0.224-0.5-0.5s0.224-0.5,0.5-0.5h2c0.276,0,0.5,0.224,0.5,0.5
		S15.776,55,15.5,55z"/>
	<path style="fill:#FFFFFF;" d="M18.5,46c-0.177,0-0.823,0-1,0c-0.276,0-0.5,0.224-0.5,0.5c0,0.276,0.224,0.5,0.5,0.5
		c0.177,0,0.823,0,1,0c0.276,0,0.5-0.224,0.5-0.5C19,46.224,18.776,46,18.5,46z"/>
	<path style="fill:#FFFFFF;" d="M18.5,48c-0.177,0-4.823,0-5,0c-0.276,0-0.5,0.224-0.5,0.5c0,0.276,0.224,0.5,0.5,0.5
		c0.177,0,4.823,0,5,0c0.276,0,0.5-0.224,0.5-0.5C19,48.224,18.776,48,18.5,48z"/>
	<path style="fill:#FFFFFF;" d="M23.5,50c-0.177,0-2.823,0-3,0c-0.276,0-0.5,0.224-0.5,0.5c0,0.276,0.224,0.5,0.5,0.5
		c0.177,0,2.823,0,3,0c0.276,0,0.5-0.224,0.5-0.5C24,50.224,23.776,50,23.5,50z"/>
</g>
<g>
	<path style="fill:#FFFFFF;" d="M72.5,24h-10c-0.276,0-0.5-0.224-0.5-0.5s0.224-0.5,0.5-0.5h10c0.276,0,0.5,0.224,0.5,0.5
		S72.776,24,72.5,24z"/>
	<path style="fill:#FFFFFF;" d="M76.5,24h-2c-0.276,0-0.5-0.224-0.5-0.5s0.224-0.5,0.5-0.5h2c0.276,0,0.5,0.224,0.5,0.5
		S76.776,24,76.5,24z"/>
	<path style="fill:#FFFFFF;" d="M81.5,26h-10c-0.276,0-0.5-0.224-0.5-0.5s0.224-0.5,0.5-0.5h10c0.276,0,0.5,0.224,0.5,0.5
		S81.777,26,81.5,26z"/>
	<path style="fill:#FFFFFF;" d="M69.5,26h-1c-0.276,0-0.5-0.224-0.5-0.5s0.224-0.5,0.5-0.5h1c0.276,0,0.5,0.224,0.5,0.5
		S69.776,26,69.5,26z"/>
	<path style="fill:#FFFFFF;" d="M66.47,26H64.5c-0.276,0-0.5-0.224-0.5-0.5s0.224-0.5,0.5-0.5h1.97c0.276,0,0.5,0.224,0.5,0.5
		S66.746,26,66.47,26z"/>
	<path style="fill:#FFFFFF;" d="M75.5,22h-5c-0.276,0-0.5-0.224-0.5-0.5s0.224-0.5,0.5-0.5h5c0.276,0,0.5,0.224,0.5,0.5
		S75.777,22,75.5,22z"/>
	<path style="fill:#FFFFFF;" d="M72.5,28h-2c-0.276,0-0.5-0.224-0.5-0.5s0.224-0.5,0.5-0.5h2c0.276,0,0.5,0.224,0.5,0.5
		S72.776,28,72.5,28z"/>
</g>
<g>
	<g>
		<path style="fill:#678C26;" d="M53,25.5c-1.71,0-3.214,0.891-4.667,1.751c-0.902,0.534-1.754,1.038-2.621,1.318
			c-0.911,0.296-1.925,0.396-2.997,0.501c-1.659,0.164-3.376,0.333-4.698,1.296c-1.344,0.973-2.033,2.561-2.701,4.095
			c-0.434,0.997-0.834,1.919-1.385,2.677c-0.546,0.75-1.297,1.411-2.092,2.11c-1.264,1.113-2.571,2.264-3.094,3.865
			c-0.5,1.532-0.132,3.204,0.224,4.82c0.235,1.071,0.458,2.082,0.458,3.066s-0.223,1.995-0.458,3.064
			c-0.355,1.619-0.724,3.291-0.224,4.822c0.522,1.6,1.827,2.75,3.089,3.862c0.799,0.702,1.549,1.362,2.096,2.111
			c0.552,0.762,0.953,1.685,1.378,2.662c0.674,1.55,1.365,3.139,2.705,4.111c1.328,0.968,3.043,1.135,4.702,1.298
			c1.078,0.106,2.089,0.206,2.999,0.501c0.865,0.279,1.717,0.783,2.618,1.316C49.786,75.609,51.29,76.5,53,76.5
			s3.214-0.891,4.667-1.751c0.902-0.534,1.754-1.038,2.621-1.318c0.91-0.296,1.924-0.396,2.997-0.5
			c1.659-0.164,3.376-0.333,4.698-1.297c1.348-0.977,2.037-2.566,2.704-4.103c0.43-0.987,0.831-1.91,1.382-2.668
			c0.548-0.752,1.298-1.412,2.093-2.111c1.265-1.114,2.571-2.265,3.093-3.865c0.5-1.532,0.132-3.203-0.224-4.819
			c-0.235-1.071-0.458-2.081-0.458-3.067c0-0.984,0.223-1.995,0.458-3.064c0.355-1.618,0.724-3.29,0.224-4.822
			c-0.522-1.603-1.83-2.752-3.094-3.865c-0.795-0.699-1.546-1.359-2.09-2.108c-0.556-0.765-0.957-1.69-1.383-2.67
			c-0.668-1.538-1.359-3.129-2.702-4.102c-1.325-0.967-3.042-1.135-4.702-1.299c-1.072-0.105-2.085-0.205-2.998-0.501
			c-0.865-0.28-1.717-0.784-2.618-1.317C56.214,26.391,54.71,25.5,53,25.5z M53,62.5c-6.341,0-11.5-5.159-11.5-11.5
			S46.659,39.5,53,39.5S64.5,44.659,64.5,51S59.341,62.5,53,62.5z"/>
		<path style="fill:#472B29;" d="M53,26.4c1.463,0,2.797,0.79,4.209,1.626c0.903,0.535,1.837,1.088,2.799,1.399
			c1.005,0.326,2.065,0.43,3.189,0.541c1.611,0.158,3.133,0.308,4.262,1.132c1.142,0.828,1.755,2.238,2.405,3.734
			c0.446,1.026,0.867,1.995,1.479,2.839c0.605,0.831,1.428,1.554,2.224,2.254c1.227,1.08,2.386,2.101,2.832,3.467
			c0.424,1.299,0.098,2.78-0.247,4.348c-0.246,1.119-0.479,2.176-0.479,3.26c0,1.085,0.244,2.191,0.479,3.26
			c0.345,1.568,0.67,3.049,0.247,4.347c-0.446,1.367-1.604,2.387-2.833,3.469c-0.833,0.733-1.621,1.426-2.226,2.258
			c-0.611,0.842-1.032,1.812-1.478,2.839c-0.648,1.492-1.261,2.901-2.409,3.734c-1.125,0.82-2.646,0.97-4.256,1.128
			c-1.073,0.105-2.182,0.213-3.187,0.54c-0.965,0.312-1.899,0.865-2.802,1.4C55.797,74.81,54.463,75.6,53,75.6
			c-1.464,0-2.797-0.79-4.209-1.626c-0.945-0.56-1.838-1.088-2.799-1.399c-1.004-0.326-2.064-0.43-3.189-0.541
			c-1.61-0.157-3.13-0.306-4.261-1.13c-1.142-0.828-1.755-2.238-2.403-3.731c-0.426-0.982-0.867-1.997-1.481-2.843
			c-0.603-0.828-1.39-1.52-2.226-2.256c-1.226-1.08-2.384-2.1-2.83-3.466c-0.423-1.298-0.098-2.778,0.247-4.348
			c0.246-1.119,0.479-2.176,0.479-3.26c0-1.083-0.233-2.14-0.479-3.26c-0.345-1.568-0.671-3.049-0.247-4.347
			c0.446-1.367,1.605-2.387,2.832-3.468c0.796-0.699,1.619-1.423,2.227-2.257c0.609-0.839,1.029-1.806,1.479-2.842
			c0.648-1.492,1.261-2.901,2.407-3.732c1.125-0.82,2.646-0.969,4.259-1.128c1.123-0.11,2.183-0.215,3.184-0.54
			c0.964-0.311,1.857-0.84,2.803-1.4C50.203,27.19,51.536,26.4,53,26.4 M53,63.4c6.837,0,12.4-5.563,12.4-12.4S59.837,38.6,53,38.6
			S40.6,44.163,40.6,51S46.163,63.4,53,63.4 M53,25c-1.846,0-3.41,0.926-4.922,1.821c-0.877,0.519-1.705,1.009-2.52,1.272
			c-0.859,0.279-1.847,0.377-2.892,0.479c-1.726,0.17-3.512,0.345-4.945,1.39c-1.455,1.055-2.173,2.709-2.868,4.308
			c-0.415,0.955-0.807,1.857-1.327,2.574c-0.513,0.704-1.244,1.348-2.018,2.028c-1.315,1.158-2.674,2.354-3.239,4.085
			c-0.542,1.661-0.159,3.401,0.211,5.083c0.23,1.043,0.446,2.028,0.446,2.959c0,0.931-0.217,1.916-0.446,2.959
			c-0.37,1.683-0.753,3.422-0.211,5.083c0.565,1.731,1.924,2.928,3.239,4.085c0.774,0.681,1.505,1.324,2.017,2.027
			c0.522,0.719,0.914,1.621,1.329,2.576c0.695,1.599,1.414,3.254,2.866,4.307c1.435,1.046,3.22,1.222,4.947,1.391
			c1.045,0.103,2.032,0.2,2.893,0.479c0.813,0.263,1.641,0.753,2.518,1.272C49.59,76.074,51.154,77,53,77
			c1.846,0,3.41-0.926,4.922-1.821c0.877-0.519,1.705-1.009,2.519-1.272c0.86-0.28,1.847-0.376,2.892-0.479
			c1.726-0.17,3.512-0.345,4.945-1.39c1.454-1.055,2.173-2.708,2.868-4.307c0.415-0.955,0.807-1.857,1.327-2.574
			c0.513-0.705,1.244-1.348,2.018-2.029c1.314-1.158,2.673-2.354,3.239-4.085c0.542-1.661,0.159-3.4-0.211-5.083
			c-0.23-1.042-0.446-2.028-0.446-2.959c0-0.931,0.217-1.916,0.446-2.959c0.37-1.682,0.752-3.421,0.211-5.083
			c-0.565-1.731-1.924-2.928-3.239-4.085c-0.774-0.68-1.505-1.324-2.016-2.026c-0.521-0.719-0.914-1.621-1.328-2.575
			c-0.695-1.6-1.414-3.255-2.867-4.307c-1.435-1.046-3.22-1.222-4.947-1.391c-1.045-0.103-2.032-0.2-2.893-0.479
			c-0.813-0.263-1.641-0.753-2.518-1.272C56.41,25.926,54.846,25,53,25L53,25z M53,62c-6.065,0-11-4.935-11-11s4.935-11,11-11
			s11,4.935,11,11S59.065,62,53,62L53,62z"/>
		<path style="fill:#472B29;" d="M40,54c-2.027,0-4.036-0.519-5.807-1.501c-0.182-0.101-0.247-0.329-0.146-0.51
			s0.328-0.246,0.51-0.146c2.119,1.175,4.621,1.634,7.017,1.298c0.213-0.027,0.395,0.116,0.423,0.32
			c0.029,0.205-0.114,0.395-0.319,0.423C41.124,53.961,40.56,54,40,54z"/>
		<path style="fill:#472B29;" d="M31.625,50.425c-0.099,0-0.196-0.039-0.271-0.115c-1.668-1.736-2.767-3.896-3.177-6.245
			c-0.036-0.204,0.101-0.398,0.305-0.434c0.214-0.033,0.399,0.103,0.434,0.305c0.385,2.202,1.415,4.227,2.979,5.854
			c0.144,0.149,0.139,0.387-0.011,0.53C31.812,50.39,31.719,50.425,31.625,50.425z"/>
		<path style="fill:#472B29;" d="M48.75,74.987c-0.143,0-0.279-0.083-0.342-0.221c-0.085-0.189-0.001-0.411,0.188-0.496
			c3.894-1.749,6.498-5.637,6.635-9.907c0.007-0.207,0.188-0.355,0.387-0.363c0.207,0.007,0.37,0.18,0.363,0.387
			c-0.146,4.553-2.925,8.701-7.078,10.567C48.854,74.976,48.802,74.987,48.75,74.987z"/>
		<path style="fill:#472B29;" d="M77.375,58c-0.174,0-0.33-0.121-0.367-0.297c-0.432-2.049-1.436-3.938-2.903-5.465
			c-0.144-0.149-0.139-0.387,0.011-0.53c0.148-0.144,0.386-0.139,0.53,0.011c1.564,1.627,2.635,3.643,3.097,5.829
			c0.043,0.203-0.087,0.402-0.29,0.444C77.427,57.998,77.4,58,77.375,58z"/>
		<path style="fill:#472B29;" d="M68.625,49.086c-0.027,0-0.056-0.003-0.085-0.01c-1.487-0.344-2.953-0.381-4.354-0.153
			c-0.207,0.039-0.396-0.105-0.431-0.31c-0.033-0.205,0.105-0.397,0.31-0.43c1.501-0.243,3.062-0.203,4.646,0.163
			c0.201,0.046,0.327,0.248,0.28,0.45C68.95,48.969,68.796,49.086,68.625,49.086z"/>
		<path style="fill:#472B29;" d="M72.625,50.857c-0.074,0-0.148-0.022-0.214-0.067c-0.38-0.264-0.787-0.51-1.21-0.732
			c-0.184-0.096-0.255-0.323-0.158-0.506c0.096-0.184,0.322-0.253,0.506-0.158c0.45,0.236,0.885,0.499,1.29,0.781
			c0.17,0.118,0.212,0.352,0.094,0.522C72.86,50.801,72.743,50.857,72.625,50.857z"/>
	</g>
	<g>
		<g>
			<polygon style="fill:#EE3E54;" points="50.006,36.131 46.5,48.124 49.394,46.813 51.119,49.5 54.625,37.507 			"/>
			<path style="fill:#472B29;" d="M51.119,50c-0.169,0-0.328-0.085-0.421-0.23l-1.492-2.323l-2.5,1.132
				c-0.175,0.08-0.386,0.051-0.534-0.078c-0.147-0.128-0.207-0.33-0.151-0.518l3.506-11.993c0.037-0.128,0.124-0.235,0.24-0.299
				c0.117-0.064,0.254-0.079,0.382-0.04l4.619,1.376c0.264,0.079,0.414,0.355,0.337,0.619L51.599,49.64
				c-0.055,0.188-0.214,0.327-0.408,0.355C51.167,49.999,51.143,50,51.119,50z M49.394,46.313c0.165,0,0.326,0.083,0.421,0.23
				l1.133,1.764l3.059-10.462l-3.661-1.091l-3.06,10.465l1.902-0.861C49.254,46.327,49.324,46.313,49.394,46.313z"/>
		</g>
		<g>
			<polygon style="fill:#EE3E54;" points="55.994,36.131 59.5,48.124 56.606,46.813 54.881,49.5 51.375,37.507 			"/>
			<path style="fill:#472B29;" d="M54.881,50c-0.023,0-0.048-0.001-0.071-0.005c-0.194-0.028-0.354-0.167-0.408-0.355l-3.506-11.993
				c-0.077-0.264,0.073-0.541,0.337-0.619l4.619-1.376c0.128-0.039,0.265-0.024,0.382,0.04c0.116,0.063,0.203,0.171,0.24,0.299
				l3.506,11.993c0.056,0.188-0.004,0.39-0.151,0.518c-0.147,0.129-0.359,0.158-0.534,0.078l-2.5-1.132l-1.492,2.323
				C55.209,49.915,55.05,50,54.881,50z M51.994,37.844l3.059,10.462l1.133-1.764c0.135-0.209,0.402-0.287,0.627-0.186l1.902,0.861
				l-3.06-10.465L51.994,37.844z"/>
		</g>
		<g>
			<path style="fill:#EE3E54;" d="M54,33.413c0-0.348,7.533-5.913,10.012-5.913c2.479,0,4.488,2.024,4.488,4.522v6.957
				c0,2.497-2.009,4.522-4.488,4.522C61.533,43.5,54,37.935,54,37.587"/>
			<path style="fill:#472B29;" d="M64.012,44C61.789,44,53.5,38.618,53.5,37.587c0-0.276,0.224-0.5,0.5-0.5
				c0.199,0,0.371,0.117,0.451,0.285C55.107,38.124,61.907,43,64.012,43C66.211,43,68,41.196,68,38.978v-6.956
				C68,29.804,66.211,28,64.012,28c-2.104,0-8.904,4.876-9.561,5.628c-0.08,0.168-0.252,0.285-0.451,0.285
				c-0.276,0-0.5-0.224-0.5-0.5C53.5,32.382,61.789,27,64.012,27C66.763,27,69,29.253,69,32.022v6.956
				C69,41.747,66.763,44,64.012,44z"/>
		</g>
		<g>
			<path style="fill:#EE3E54;" d="M52,37.587c0,0.348-7.533,5.913-10.012,5.913S37.5,41.476,37.5,38.978v-6.957
				c0-2.497,2.009-4.522,4.488-4.522S52,33.065,52,33.413"/>
			<path style="fill:#472B29;" d="M41.988,44C39.237,44,37,41.747,37,38.978v-6.956C37,29.253,39.237,27,41.988,27
				c2.223,0,10.512,5.382,10.512,6.413c0,0.276-0.224,0.5-0.5,0.5c-0.199,0-0.371-0.117-0.451-0.285
				C50.893,32.876,44.093,28,41.988,28C39.789,28,38,29.804,38,32.022v6.956C38,41.196,39.789,43,41.988,43
				c2.104,0,8.904-4.876,9.561-5.628c0.08-0.168,0.252-0.285,0.451-0.285c0.276,0,0.5,0.224,0.5,0.5
				C52.5,38.618,44.211,44,41.988,44z"/>
		</g>
		<path style="fill:#472B29;" d="M53,36.375c-0.146,0-0.285-0.086-0.346-0.229c-0.08-0.191,0.01-0.411,0.2-0.491l8.625-3.625
			c0.192-0.08,0.41,0.01,0.491,0.2c0.08,0.191-0.01,0.411-0.2,0.491l-8.625,3.625C53.098,36.366,53.049,36.375,53,36.375z"/>
		<path style="fill:#472B29;" d="M61.625,39c-0.036,0-0.073-0.005-0.109-0.016l-8.625-2.625c-0.198-0.061-0.31-0.27-0.249-0.468
			c0.06-0.198,0.271-0.309,0.468-0.25l8.625,2.625c0.198,0.061,0.31,0.27,0.249,0.468C61.935,38.896,61.786,39,61.625,39z"/>
		<path style="fill:#472B29;" d="M44.375,38.875c-0.163,0-0.313-0.106-0.36-0.271c-0.058-0.199,0.057-0.407,0.256-0.465l8.625-2.5
			c0.201-0.057,0.406,0.057,0.465,0.256c0.058,0.199-0.057,0.407-0.256,0.465l-8.625,2.5C44.444,38.87,44.409,38.875,44.375,38.875z
			"/>
		<path style="fill:#472B29;" d="M53,36.375c-0.049,0-0.098-0.009-0.146-0.029l-8.625-3.625c-0.19-0.08-0.28-0.3-0.2-0.491
			c0.081-0.19,0.299-0.28,0.491-0.2l8.625,3.625c0.19,0.08,0.28,0.3,0.2,0.491C53.285,36.289,53.146,36.375,53,36.375z"/>
		<g>
			<circle style="fill:#EE3E54;" cx="53" cy="36" r="3.5"/>
			<path style="fill:#472B29;" d="M53,40c-2.206,0-4-1.794-4-4s1.794-4,4-4s4,1.794,4,4S55.206,40,53,40z M53,33
				c-1.654,0-3,1.346-3,3s1.346,3,3,3s3-1.346,3-3S54.654,33,53,33z"/>
		</g>
	</g>
	<g>
		<circle style="fill:#649ED8;" cx="64" cy="66" r="2.625"/>
		<path style="fill:#472B29;" d="M64,69c-1.654,0-3-1.346-3-3s1.346-3,3-3s3,1.346,3,3S65.654,69,64,69z M64,63.75
			c-1.24,0-2.25,1.009-2.25,2.25s1.01,2.25,2.25,2.25s2.25-1.009,2.25-2.25S65.24,63.75,64,63.75z"/>
	</g>
	<g>
		<circle style="fill:#F26B79;" cx="35.5" cy="46.5" r="2.125"/>
		<path style="fill:#472B29;" d="M35.5,49c-1.379,0-2.5-1.122-2.5-2.5s1.121-2.5,2.5-2.5s2.5,1.122,2.5,2.5S36.879,49,35.5,49z
			 M35.5,44.75c-0.965,0-1.75,0.785-1.75,1.75s0.785,1.75,1.75,1.75s1.75-0.785,1.75-1.75S36.465,44.75,35.5,44.75z"/>
	</g>
	<g>
		<circle style="fill:#F26B79;" cx="71.5" cy="44.5" r="2.125"/>
		<path style="fill:#472B29;" d="M71.5,47c-1.379,0-2.5-1.122-2.5-2.5s1.121-2.5,2.5-2.5s2.5,1.122,2.5,2.5S72.879,47,71.5,47z
			 M71.5,42.75c-0.965,0-1.75,0.785-1.75,1.75s0.785,1.75,1.75,1.75s1.75-0.785,1.75-1.75S72.465,42.75,71.5,42.75z"/>
	</g>
	<g>
		<circle style="fill:#649ED8;" cx="38" cy="60" r="2.625"/>
		<path style="fill:#472B29;" d="M38,63c-1.654,0-3-1.346-3-3s1.346-3,3-3s3,1.346,3,3S39.654,63,38,63z M38,57.75
			c-1.24,0-2.25,1.009-2.25,2.25s1.01,2.25,2.25,2.25s2.25-1.009,2.25-2.25S39.24,57.75,38,57.75z"/>
	</g>
	<g>
		<circle style="fill:#FCC938;" cx="49.5" cy="68.5" r="2.125"/>
		<path style="fill:#472B29;" d="M49.5,71c-1.379,0-2.5-1.122-2.5-2.5s1.121-2.5,2.5-2.5s2.5,1.122,2.5,2.5S50.879,71,49.5,71z
			 M49.5,66.75c-0.965,0-1.75,0.785-1.75,1.75s0.785,1.75,1.75,1.75s1.75-0.785,1.75-1.75S50.465,66.75,49.5,66.75z"/>
	</g>
	<g>
		<circle style="fill:#FCC938;" cx="70" cy="56" r="2.625"/>
		<path style="fill:#472B29;" d="M70,59c-1.654,0-3-1.346-3-3s1.346-3,3-3s3,1.346,3,3S71.654,59,70,59z M70,53.75
			c-1.24,0-2.25,1.009-2.25,2.25s1.01,2.25,2.25,2.25s2.25-1.009,2.25-2.25S71.24,53.75,70,53.75z"/>
	</g>
</g>
<g>
	<path style="fill:#FDFCEF;" d="M36.5,76.5c0,0,1.567,0,3.5,0s3.5-1.567,3.5-3.5c0-1.781-1.335-3.234-3.055-3.455
		C40.473,69.366,40.5,69.187,40.5,69c0-1.933-1.567-3.5-3.5-3.5c-1.032,0-1.95,0.455-2.59,1.165
		c-0.384-1.808-1.987-3.165-3.91-3.165c-2.209,0-4,1.791-4,4c0,0.191,0.03,0.374,0.056,0.558C26.128,67.714,25.592,67.5,25,67.5
		c-1.228,0-2.245,0.887-2.455,2.055C22.366,69.527,22.187,69.5,22,69.5c-1.933,0-3.5,1.567-3.5,3.5s1.567,3.5,3.5,3.5s7.5,0,7.5,0
		V77h7V76.5z"/>
	<path style="fill:#472B29;" d="M38.25,72C38.112,72,38,71.888,38,71.75c0-1.223,0.995-2.218,2.218-2.218
		c0.034,0.009,0.737-0.001,1.244,0.136c0.133,0.036,0.212,0.173,0.176,0.306c-0.036,0.134-0.173,0.213-0.306,0.176
		c-0.444-0.12-1.1-0.12-1.113-0.118c-0.948,0-1.719,0.771-1.719,1.718C38.5,71.888,38.388,72,38.25,72z"/>
	<circle style="fill:#472B29;" cx="31.5" cy="76.5" r="0.5"/>
	<path style="fill:#472B29;" d="M40,77h-3.5c-0.276,0-0.5-0.224-0.5-0.5s0.224-0.5,0.5-0.5H40c1.654,0,3-1.346,3-3
		c0-1.496-1.125-2.768-2.618-2.959c-0.134-0.018-0.255-0.088-0.336-0.196s-0.115-0.244-0.094-0.377C39.975,69.314,40,69.16,40,69
		c0-1.654-1.346-3-3-3c-0.85,0-1.638,0.355-2.219,1c-0.125,0.139-0.321,0.198-0.5,0.148c-0.182-0.049-0.321-0.195-0.36-0.379
		C33.58,65.165,32.141,64,30.5,64c-1.93,0-3.5,1.57-3.5,3.5c0,0.143,0.021,0.28,0.041,0.418c0.029,0.203-0.063,0.438-0.242,0.54
		c-0.179,0.102-0.396,0.118-0.556-0.01C25.878,68.155,25.449,68,25,68c-0.966,0-1.792,0.691-1.963,1.644
		c-0.048,0.267-0.296,0.446-0.569,0.405C22.314,70.025,22.16,70,22,70c-1.654,0-3,1.346-3,3s1.346,3,3,3h7.5
		c0.276,0,0.5,0.224,0.5,0.5S29.776,77,29.5,77H22c-2.206,0-4-1.794-4-4s1.794-4,4-4c0.059,0,0.116,0.002,0.174,0.006
		C22.588,67.82,23.711,67,25,67c0.349,0,0.689,0.061,1.011,0.18C26.176,64.847,28.126,63,30.5,63c1.831,0,3.466,1.127,4.153,2.774
		C35.333,65.276,36.155,65,37,65c2.206,0,4,1.794,4,4c0,0.048-0.001,0.095-0.004,0.142C42.739,69.59,44,71.169,44,73
		C44,75.206,42.206,77,40,77z"/>
	<path style="fill:#472B29;" d="M34.5,76c-0.159,0-0.841,0-1,0c-0.276,0-0.5,0.224-0.5,0.5c0,0.276,0.224,0.5,0.5,0.5
		c0.159,0,0.841,0,1,0c0.276,0,0.5-0.224,0.5-0.5C35,76.224,34.776,76,34.5,76z"/>
</g>
</svg>
