<?xml version="1.0" encoding="iso-8859-1"?>
<!-- Generator: Adobe Illustrator 22.1.0, SVG Export Plug-In . SVG Version: 6.00 Build 0)  -->
<svg version="1.1" id="Layer_1" xmlns="http://www.w3.org/2000/svg" xmlns:xlink="http://www.w3.org/1999/xlink" x="0px" y="0px"
	 viewBox="0 0 100 100" style="enable-background:new 0 0 100 100;" xml:space="preserve">
<path style="fill:#C7EDE6;" d="M87.215,56.71C88.35,54.555,89,52.105,89,49.5c0-6.621-4.159-12.257-10.001-14.478
	C78.999,35.015,79,35.008,79,35c0-11.598-9.402-21-21-21c-9.784,0-17.981,6.701-20.313,15.757C36.211,29.272,34.638,29,33,29
	c-7.692,0-14.023,5.793-14.89,13.252C12.906,43.353,9,47.969,9,53.5C9,59.851,14.149,65,20.5,65c0.177,0,0.352-0.012,0.526-0.022
	C21.022,65.153,21,65.324,21,65.5C21,76.822,30.178,86,41.5,86c6.437,0,12.175-2.972,15.934-7.614C59.612,80.611,62.64,82,66,82
	c4.65,0,8.674-2.65,10.666-6.518C77.718,75.817,78.837,76,80,76c6.075,0,11-4.925,11-11C91,61.689,89.53,58.727,87.215,56.71z"/>
<g>
	<path style="fill:#FDFCEF;" d="M77.5,60.5V61h3v-0.5c0,0,4.242,0,5.5,0c2.485,0,4.5-2.015,4.5-4.5c0-2.333-1.782-4.229-4.055-4.455
		C86.467,51.364,86.5,51.187,86.5,51c0-2.485-2.015-4.5-4.5-4.5c-1.438,0-2.703,0.686-3.527,1.736
		C78.333,45.6,76.171,43.5,73.5,43.5c-2.761,0-5,2.239-5,5c0,0.446,0.077,0.87,0.187,1.282C68.045,49.005,67.086,48.5,66,48.5
		c-1.781,0-3.234,1.335-3.455,3.055C62.364,51.533,62.187,51.5,62,51.5c-2.485,0-4.5,2.015-4.5,4.5s2.015,4.5,4.5,4.5s9.5,0,9.5,0
		H77.5z"/>
	<path style="fill:#472B29;" d="M73.5,43c-3.033,0-5.5,2.467-5.5,5.5c0,0.016,0,0.031,0,0.047C67.398,48.192,66.71,48,66,48
		c-1.831,0-3.411,1.261-3.858,3.005C62.095,51.002,62.048,51,62,51c-2.757,0-5,2.243-5,5s2.243,5,5,5h15.5
		c0.276,0,0.5-0.224,0.5-0.5S77.776,60,77.5,60H62c-2.206,0-4-1.794-4-4s1.794-4,4-4c0.117,0,0.23,0.017,0.343,0.032l0.141,0.019
		c0.021,0.003,0.041,0.004,0.062,0.004c0.246,0,0.462-0.185,0.495-0.437C63.232,50.125,64.504,49,66,49
		c0.885,0,1.723,0.401,2.301,1.1c0.098,0.118,0.241,0.182,0.386,0.182c0.078,0,0.156-0.018,0.228-0.056
		c0.209-0.107,0.314-0.346,0.254-0.573C69.054,49.218,69,48.852,69,48.5c0-2.481,2.019-4.5,4.5-4.5c2.381,0,4.347,1.872,4.474,4.263
		c0.011,0.208,0.15,0.387,0.349,0.45c0.05,0.016,0.101,0.024,0.152,0.024c0.15,0,0.296-0.069,0.392-0.192
		C79.638,47.563,80.779,47,82,47c2.206,0,4,1.794,4,4c0,0.117-0.017,0.23-0.032,0.343l-0.019,0.141
		c-0.016,0.134,0.022,0.268,0.106,0.373c0.084,0.105,0.207,0.172,0.34,0.185C88.451,52.247,90,53.949,90,56c0,2.206-1.794,4-4,4
		h-5.5c-0.276,0-0.5,0.224-0.5,0.5s0.224,0.5,0.5,0.5H86c2.757,0,5-2.243,5-5c0-2.397-1.689-4.413-4.003-4.877
		C86.999,51.082,87,51.041,87,51c0-2.757-2.243-5-5-5c-1.176,0-2.293,0.416-3.183,1.164C78.219,44.76,76.055,43,73.5,43L73.5,43z"/>
	<path style="fill:#472B29;" d="M72,50c-1.403,0-2.609,0.999-2.913,2.341C68.72,52.119,68.301,52,67.875,52
		c-1.202,0-2.198,0.897-2.353,2.068C65.319,54.022,65.126,54,64.938,54c-1.529,0-2.811,1.2-2.918,2.732
		C62.01,56.87,62.114,56.99,62.251,57c0.006,0,0.012,0,0.018,0c0.13,0,0.24-0.101,0.249-0.232c0.089-1.271,1.151-2.268,2.419-2.268
		c0.229,0,0.47,0.042,0.738,0.127c0.022,0.007,0.045,0.01,0.067,0.01c0.055,0,0.11-0.02,0.156-0.054
		C65.962,54.537,66,54.455,66,54.375c0-1.034,0.841-1.875,1.875-1.875c0.447,0,0.885,0.168,1.231,0.473
		c0.047,0.041,0.106,0.063,0.165,0.063c0.032,0,0.063-0.006,0.093-0.019c0.088-0.035,0.148-0.117,0.155-0.212
		C69.623,51.512,70.712,50.5,72,50.5c0.208,0,0.425,0.034,0.682,0.107c0.023,0.007,0.047,0.01,0.07,0.01
		c0.109,0,0.207-0.073,0.239-0.182c0.038-0.133-0.039-0.271-0.172-0.309C72.517,50.04,72.256,50,72,50L72,50z"/>
	<path style="fill:#472B29;" d="M85.883,51.5c-1.326,0-2.508,0.897-2.874,2.182c-0.038,0.133,0.039,0.271,0.172,0.309
		C83.205,53.997,83.228,54,83.25,54c0.109,0,0.209-0.072,0.24-0.182C83.795,52.748,84.779,52,85.883,52
		c0.117,0,0.23,0.014,0.342,0.029c0.012,0.002,0.023,0.003,0.035,0.003c0.121,0,0.229-0.092,0.246-0.217
		c0.019-0.137-0.077-0.263-0.214-0.281C86.158,51.516,86.022,51.5,85.883,51.5L85.883,51.5z"/>
</g>
<g>
	<path style="fill:#FFFFFF;" d="M15.5,53h-10C5.224,53,5,52.776,5,52.5S5.224,52,5.5,52h10c0.276,0,0.5,0.224,0.5,0.5
		S15.777,53,15.5,53z"/>
	<path style="fill:#FFFFFF;" d="M18.5,53h-1c-0.276,0-0.5-0.224-0.5-0.5s0.224-0.5,0.5-0.5h1c0.276,0,0.5,0.224,0.5,0.5
		S18.777,53,18.5,53z"/>
	<path style="fill:#FFFFFF;" d="M23.491,55H14.5c-0.276,0-0.5-0.224-0.5-0.5s0.224-0.5,0.5-0.5h8.991c0.276,0,0.5,0.224,0.5,0.5
		S23.767,55,23.491,55z"/>
	<path style="fill:#FFFFFF;" d="M12.5,55h-1c-0.276,0-0.5-0.224-0.5-0.5s0.224-0.5,0.5-0.5h1c0.276,0,0.5,0.224,0.5,0.5
		S12.777,55,12.5,55z"/>
	<path style="fill:#FFFFFF;" d="M9.5,55h-2C7.224,55,7,54.776,7,54.5S7.224,54,7.5,54h2c0.276,0,0.5,0.224,0.5,0.5S9.777,55,9.5,55z
		"/>
	<path style="fill:#FFFFFF;" d="M15.5,57h-2c-0.276,0-0.5-0.224-0.5-0.5s0.224-0.5,0.5-0.5h2c0.276,0,0.5,0.224,0.5,0.5
		S15.776,57,15.5,57z"/>
	<path style="fill:#FFFFFF;" d="M18.5,48c-0.177,0-0.823,0-1,0c-0.276,0-0.5,0.224-0.5,0.5c0,0.276,0.224,0.5,0.5,0.5
		c0.177,0,0.823,0,1,0c0.276,0,0.5-0.224,0.5-0.5C19,48.224,18.776,48,18.5,48z"/>
	<path style="fill:#FFFFFF;" d="M18.5,50c-0.177,0-4.823,0-5,0c-0.276,0-0.5,0.224-0.5,0.5c0,0.276,0.224,0.5,0.5,0.5
		c0.177,0,4.823,0,5,0c0.276,0,0.5-0.224,0.5-0.5C19,50.224,18.776,50,18.5,50z"/>
	<path style="fill:#FFFFFF;" d="M23.5,52c-0.177,0-2.823,0-3,0c-0.276,0-0.5,0.224-0.5,0.5c0,0.276,0.224,0.5,0.5,0.5
		c0.177,0,2.823,0,3,0c0.276,0,0.5-0.224,0.5-0.5C24,52.224,23.776,52,23.5,52z"/>
</g>
<g>
	<path style="fill:#FFFFFF;" d="M69.5,21h-10c-0.276,0-0.5-0.224-0.5-0.5s0.224-0.5,0.5-0.5h10c0.276,0,0.5,0.224,0.5,0.5
		S69.776,21,69.5,21z"/>
	<path style="fill:#FFFFFF;" d="M73.5,21h-2c-0.276,0-0.5-0.224-0.5-0.5s0.224-0.5,0.5-0.5h2c0.276,0,0.5,0.224,0.5,0.5
		S73.776,21,73.5,21z"/>
	<path style="fill:#FFFFFF;" d="M78.5,23h-10c-0.276,0-0.5-0.224-0.5-0.5s0.224-0.5,0.5-0.5h10c0.276,0,0.5,0.224,0.5,0.5
		S78.777,23,78.5,23z"/>
	<path style="fill:#FFFFFF;" d="M66.5,23h-1c-0.276,0-0.5-0.224-0.5-0.5s0.224-0.5,0.5-0.5h1c0.276,0,0.5,0.224,0.5,0.5
		S66.776,23,66.5,23z"/>
	<path style="fill:#FFFFFF;" d="M63.47,23H61.5c-0.276,0-0.5-0.224-0.5-0.5s0.224-0.5,0.5-0.5h1.97c0.276,0,0.5,0.224,0.5,0.5
		S63.746,23,63.47,23z"/>
	<path style="fill:#FFFFFF;" d="M72.5,19h-5c-0.276,0-0.5-0.224-0.5-0.5s0.224-0.5,0.5-0.5h5c0.276,0,0.5,0.224,0.5,0.5
		S72.777,19,72.5,19z"/>
	<path style="fill:#FFFFFF;" d="M69.5,25h-2c-0.276,0-0.5-0.224-0.5-0.5s0.224-0.5,0.5-0.5h2c0.276,0,0.5,0.224,0.5,0.5
		S69.776,25,69.5,25z"/>
</g>
<g>
	<path style="fill:#EE3E54;" d="M30.5,35.5V71c0,0.827,0.673,1.5,1.5,1.5h39c0.827,0,1.5-0.673,1.5-1.5V35.5H30.5z"/>
	<g>
		<rect x="48.5" y="37.125" style="fill:#678C26;" width="6" height="35.375"/>
		<path style="fill:#472B29;" d="M55,73h-7V36.625h7V73z M49,72h5V37.625h-5V72z"/>
	</g>
	<path style="fill:#472B29;" d="M71.6,36.4V71c0,0.331-0.269,0.6-0.6,0.6H32c-0.331,0-0.6-0.269-0.6-0.6V36.4H71.6 M73,35H30v36
		c0,1.105,0.895,2,2,2h39c1.105,0,2-0.895,2-2V35L73,35z"/>
	<g>
		<path style="fill:#EE3E54;" d="M46.088,24.5c3.529,0,5.412,4.092,5.412,4.092v0.909c0,0-3.982,0-5.412,0
			c-1.429,0-2.588-1.119-2.588-2.5S44.659,24.5,46.088,24.5z"/>
		<path style="fill:#472B29;" d="M52,30.001h-5.912c-1.703,0-3.088-1.346-3.088-3s1.385-3,3.088-3c3.806,0,5.784,4.204,5.866,4.383
			L52,28.592V30.001z M46.088,25C44.937,25,44,25.897,44,27s0.937,2,2.088,2H51v-0.292C50.702,28.125,48.969,25,46.088,25z"/>
	</g>
	<g>
		<path style="fill:#EE3E54;" d="M56.912,24.5c-3.529,0-5.412,4.092-5.412,4.092v0.909c0,0,3.982,0,5.412,0S59.5,28.381,59.5,27
			S58.341,24.5,56.912,24.5z"/>
		<path style="fill:#472B29;" d="M56.912,30.001H51l0.046-1.618C51.128,28.204,53.106,24,56.912,24C58.615,24,60,25.346,60,27
			S58.615,30.001,56.912,30.001z M52,29.001h4.912c1.151,0,2.088-0.897,2.088-2s-0.937-2-2.088-2c-2.881,0-4.613,3.125-4.912,3.708
			V29.001z"/>
	</g>
	<g>
		<path style="fill:#88AE45;" d="M30,29.5c-1.378,0-2.5,1.122-2.5,2.5v5c0,0.276,0.224,0.5,0.5,0.5h47c0.276,0,0.5-0.224,0.5-0.5v-5
			c0-1.378-1.122-2.5-2.5-2.5H30z"/>
		<path style="fill:#472B29;" d="M73,30.4c0.882,0,1.6,0.718,1.6,1.6v4.6H28.4V32c0-0.882,0.718-1.6,1.6-1.6H73 M73,29H30
			c-1.657,0-3,1.343-3,3v5c0,0.552,0.448,1,1,1h47c0.552,0,1-0.448,1-1v-5C76,30.343,74.657,29,73,29L73,29z"/>
	</g>
	<path style="fill:#FDFCEF;" d="M61.954,53.593l-0.37,0.032c-0.068-0.778-0.223-1.531-0.456-2.25l0.355-0.115
		c-0.206-0.633-0.467-1.24-0.784-1.814l-0.325,0.179c-1.723-3.129-5.049-5.25-8.873-5.25c-5.592,0-10.125,4.533-10.125,10.125
		c0,5.592,4.533,10.125,10.125,10.125c4.5,0,8.31-2.939,9.628-7l0.355,0.115C61.815,56.719,62,55.631,62,54.5
		C62,54.194,61.98,53.892,61.954,53.593z"/>
	<path style="fill:#472B29;" d="M51.5,65C45.71,65,41,60.29,41,54.5S45.71,44,51.5,44c3.827,0,7.353,2.086,9.202,5.444
		c0.1,0.181,0.034,0.409-0.148,0.509c-0.183,0.098-0.409,0.034-0.509-0.148c-1.717-3.118-4.991-5.056-8.544-5.056
		c-5.376,0-9.75,4.374-9.75,9.75s4.374,9.75,9.75,9.75c4.238,0,7.963-2.709,9.271-6.741c0.064-0.197,0.275-0.303,0.473-0.241
		c0.197,0.064,0.305,0.275,0.241,0.473C60.076,62.083,56.064,65,51.5,65z"/>
	<path style="fill:#472B29;" d="M61.584,54c-0.192,0-0.356-0.147-0.373-0.342c-0.065-0.739-0.213-1.469-0.439-2.167
		c-0.064-0.197,0.043-0.408,0.241-0.472c0.2-0.065,0.409,0.044,0.472,0.241c0.245,0.752,0.404,1.537,0.474,2.333
		c0.018,0.206-0.134,0.388-0.341,0.406C61.606,54,61.595,54,61.584,54z"/>
	<g>
		<path style="fill:#472B29;" d="M51.5,55c-0.276,0-0.5-0.224-0.5-0.5v-7c0-0.276,0.224-0.5,0.5-0.5s0.5,0.224,0.5,0.5v7
			C52,54.776,51.776,55,51.5,55z"/>
		<path style="fill:#472B29;" d="M51.5,51.207l-2.354-2.354c-0.195-0.195-0.195-0.512,0-0.707s0.512-0.195,0.707,0l1.646,1.646
			l1.646-1.646c0.195-0.195,0.512-0.195,0.707,0s0.195,0.512,0,0.707L51.5,51.207z"/>
		<path style="fill:#472B29;" d="M51.5,55c-0.085,0-0.171-0.021-0.25-0.067l-6.062-3.5c-0.239-0.138-0.321-0.444-0.183-0.683
			c0.138-0.24,0.443-0.322,0.683-0.183l6.062,3.5c0.239,0.138,0.321,0.444,0.183,0.683C51.84,54.911,51.672,55,51.5,55z"/>
		<path style="fill:#472B29;" d="M45.303,53.732c-0.221,0-0.423-0.147-0.482-0.371c-0.071-0.267,0.087-0.541,0.354-0.612l2.25-0.603
			l-0.603-2.249c-0.072-0.267,0.087-0.541,0.354-0.612c0.269-0.072,0.541,0.086,0.612,0.354l0.862,3.215l-3.215,0.861
			C45.39,53.727,45.346,53.732,45.303,53.732z"/>
		<path style="fill:#472B29;" d="M45.438,58.5c-0.173,0-0.341-0.089-0.434-0.25c-0.138-0.239-0.056-0.545,0.183-0.683l6.062-3.5
			c0.237-0.139,0.544-0.057,0.683,0.183c0.138,0.239,0.056,0.545-0.183,0.683l-6.062,3.5C45.609,58.479,45.523,58.5,45.438,58.5z"/>
		<path style="fill:#472B29;" d="M47.304,59.732c-0.043,0-0.086-0.005-0.13-0.017c-0.267-0.071-0.425-0.346-0.354-0.612l0.603-2.249
			l-2.25-0.603c-0.267-0.071-0.425-0.346-0.354-0.612c0.071-0.266,0.346-0.423,0.612-0.354l3.215,0.861l-0.862,3.215
			C47.727,59.585,47.525,59.732,47.304,59.732z"/>
		<path style="fill:#472B29;" d="M51.5,62c-0.276,0-0.5-0.224-0.5-0.5v-7c0-0.276,0.224-0.5,0.5-0.5s0.5,0.224,0.5,0.5v7
			C52,61.776,51.776,62,51.5,62z"/>
		<path style="fill:#472B29;" d="M53.5,61c-0.128,0-0.256-0.049-0.354-0.146L51.5,59.207l-1.646,1.646
			c-0.195,0.195-0.512,0.195-0.707,0s-0.195-0.512,0-0.707l2.354-2.354l2.354,2.354c0.195,0.195,0.195,0.512,0,0.707
			C53.756,60.951,53.628,61,53.5,61z"/>
		<path style="fill:#472B29;" d="M57.562,58.5c-0.085,0-0.171-0.021-0.25-0.067l-6.062-3.5c-0.239-0.138-0.321-0.444-0.183-0.683
			c0.138-0.24,0.444-0.322,0.683-0.183l6.062,3.5c0.239,0.138,0.321,0.444,0.183,0.683C57.902,58.411,57.734,58.5,57.562,58.5z"/>
		<path style="fill:#472B29;" d="M55.696,59.732c-0.221,0-0.422-0.147-0.482-0.371l-0.862-3.215l3.215-0.861
			c0.267-0.07,0.542,0.087,0.612,0.354c0.071,0.267-0.087,0.541-0.354,0.612l-2.25,0.603l0.603,2.249
			c0.072,0.267-0.087,0.541-0.354,0.612C55.782,59.727,55.739,59.732,55.696,59.732z"/>
		<path style="fill:#472B29;" d="M51.5,55c-0.173,0-0.341-0.089-0.434-0.25c-0.138-0.239-0.056-0.545,0.183-0.683l6.062-3.5
			c0.238-0.139,0.544-0.057,0.683,0.183c0.138,0.239,0.056,0.545-0.183,0.683l-6.062,3.5C51.671,54.979,51.585,55,51.5,55z"/>
		<path style="fill:#472B29;" d="M57.697,53.732c-0.043,0-0.086-0.005-0.13-0.017l-3.215-0.861l0.862-3.215
			c0.072-0.267,0.347-0.425,0.612-0.354c0.267,0.071,0.425,0.346,0.354,0.612l-0.603,2.249l2.25,0.603
			c0.267,0.071,0.425,0.346,0.354,0.612C58.12,53.584,57.917,53.732,57.697,53.732z"/>
	</g>
	<g>
		<circle style="fill:#FDFCEF;" cx="51.5" cy="27.5" r="2"/>
		<path style="fill:#472B29;" d="M51.5,30c-1.378,0-2.5-1.122-2.5-2.5s1.122-2.5,2.5-2.5s2.5,1.122,2.5,2.5S52.878,30,51.5,30z
			 M51.5,26c-0.827,0-1.5,0.673-1.5,1.5s0.673,1.5,1.5,1.5s1.5-0.673,1.5-1.5S52.327,26,51.5,26z"/>
	</g>
</g>
<g>
	<path style="fill:#FDFCEF;" d="M36.5,74.5c0,0,1.567,0,3.5,0s3.5-1.567,3.5-3.5c0-1.781-1.335-3.234-3.055-3.455
		C40.473,67.366,40.5,67.187,40.5,67c0-1.933-1.567-3.5-3.5-3.5c-1.032,0-1.95,0.455-2.59,1.165
		c-0.384-1.808-1.987-3.165-3.91-3.165c-2.209,0-4,1.791-4,4c0,0.191,0.03,0.374,0.056,0.558C26.128,65.714,25.592,65.5,25,65.5
		c-1.228,0-2.245,0.887-2.455,2.055C22.366,67.527,22.187,67.5,22,67.5c-1.933,0-3.5,1.567-3.5,3.5s1.567,3.5,3.5,3.5s7.5,0,7.5,0
		V75h7V74.5z"/>
	<path style="fill:#472B29;" d="M38.25,70C38.112,70,38,69.888,38,69.75c0-1.223,0.995-2.218,2.218-2.218
		c0.034,0.009,0.737-0.001,1.244,0.136c0.133,0.036,0.212,0.173,0.176,0.306c-0.036,0.134-0.173,0.213-0.306,0.176
		c-0.444-0.12-1.1-0.12-1.113-0.118c-0.948,0-1.719,0.771-1.719,1.718C38.5,69.888,38.388,70,38.25,70z"/>
	<circle style="fill:#472B29;" cx="31.5" cy="74.5" r="0.5"/>
	<path style="fill:#472B29;" d="M40,75h-3.5c-0.276,0-0.5-0.224-0.5-0.5s0.224-0.5,0.5-0.5H40c1.654,0,3-1.346,3-3
		c0-1.496-1.125-2.768-2.618-2.959c-0.134-0.018-0.255-0.088-0.336-0.196s-0.115-0.244-0.094-0.377C39.975,67.314,40,67.16,40,67
		c0-1.654-1.346-3-3-3c-0.85,0-1.638,0.355-2.219,1c-0.125,0.139-0.321,0.198-0.5,0.148c-0.182-0.049-0.321-0.195-0.36-0.379
		C33.58,63.165,32.141,62,30.5,62c-1.93,0-3.5,1.57-3.5,3.5c0,0.143,0.021,0.28,0.041,0.418c0.029,0.203-0.063,0.438-0.242,0.54
		c-0.179,0.102-0.396,0.118-0.556-0.01C25.878,66.155,25.449,66,25,66c-0.966,0-1.792,0.691-1.963,1.644
		c-0.048,0.267-0.296,0.446-0.569,0.405C22.314,68.025,22.16,68,22,68c-1.654,0-3,1.346-3,3s1.346,3,3,3h7.5
		c0.276,0,0.5,0.224,0.5,0.5S29.776,75,29.5,75H22c-2.206,0-4-1.794-4-4s1.794-4,4-4c0.059,0,0.116,0.002,0.174,0.006
		C22.588,65.82,23.711,65,25,65c0.349,0,0.689,0.061,1.011,0.18C26.176,62.847,28.126,61,30.5,61c1.831,0,3.466,1.127,4.153,2.774
		C35.333,63.276,36.155,63,37,63c2.206,0,4,1.794,4,4c0,0.048-0.001,0.095-0.004,0.142C42.739,67.59,44,69.169,44,71
		C44,73.206,42.206,75,40,75z"/>
	<path style="fill:#472B29;" d="M34.5,74c-0.159,0-0.841,0-1,0c-0.276,0-0.5,0.224-0.5,0.5c0,0.276,0.224,0.5,0.5,0.5
		c0.159,0,0.841,0,1,0c0.276,0,0.5-0.224,0.5-0.5C35,74.224,34.776,74,34.5,74z"/>
</g>
</svg>
