<?xml version="1.0" encoding="iso-8859-1"?>
<!-- Generator: Adobe Illustrator 22.1.0, SVG Export Plug-In . SVG Version: 6.00 Build 0)  -->
<svg version="1.1" id="Layer_1" xmlns="http://www.w3.org/2000/svg" xmlns:xlink="http://www.w3.org/1999/xlink" x="0px" y="0px"
	 viewBox="0 0 100 100" style="enable-background:new 0 0 100 100;" xml:space="preserve">
<path style="fill:#C7EDE6;" d="M87.215,56.71C88.35,54.555,89,52.105,89,49.5c0-6.621-4.159-12.257-10.001-14.478
	C78.999,35.015,79,35.008,79,35c0-11.598-9.402-21-21-21c-9.784,0-17.981,6.701-20.313,15.757C36.211,29.272,34.638,29,33,29
	c-7.692,0-14.023,5.793-14.89,13.252C12.906,43.353,9,47.969,9,53.5C9,59.851,14.149,65,20.5,65c0.177,0,0.352-0.012,0.526-0.022
	C21.022,65.153,21,65.324,21,65.5C21,76.822,30.178,86,41.5,86c6.437,0,12.175-2.972,15.934-7.614C59.612,80.611,62.64,82,66,82
	c4.65,0,8.674-2.65,10.666-6.518C77.718,75.817,78.837,76,80,76c6.075,0,11-4.925,11-11C91,61.689,89.53,58.727,87.215,56.71z"/>
<g>
	<path style="fill:#FDFCEF;" d="M75.5,61.5V62h3v-0.5c0,0,4.242,0,5.5,0c2.485,0,4.5-2.015,4.5-4.5c0-2.333-1.782-4.229-4.055-4.455
		C84.467,52.364,84.5,52.187,84.5,52c0-2.485-2.015-4.5-4.5-4.5c-1.438,0-2.703,0.686-3.527,1.736
		C76.333,46.6,74.171,44.5,71.5,44.5c-2.761,0-5,2.239-5,5c0,0.446,0.077,0.87,0.187,1.282C66.045,50.005,65.086,49.5,64,49.5
		c-1.781,0-3.234,1.335-3.455,3.055C60.364,52.533,60.187,52.5,60,52.5c-2.485,0-4.5,2.015-4.5,4.5s2.015,4.5,4.5,4.5s9.5,0,9.5,0
		H75.5z"/>
	<path style="fill:#472B29;" d="M71.5,44c-3.033,0-5.5,2.467-5.5,5.5c0,0.016,0,0.031,0,0.047C65.398,49.192,64.71,49,64,49
		c-1.831,0-3.411,1.261-3.858,3.005C60.095,52.002,60.048,52,60,52c-2.757,0-5,2.243-5,5s2.243,5,5,5h15.5
		c0.276,0,0.5-0.224,0.5-0.5S75.776,61,75.5,61H60c-2.206,0-4-1.794-4-4s1.794-4,4-4c0.117,0,0.23,0.017,0.343,0.032l0.141,0.019
		c0.021,0.003,0.041,0.004,0.062,0.004c0.246,0,0.462-0.185,0.495-0.437C61.232,51.125,62.504,50,64,50
		c0.885,0,1.723,0.401,2.301,1.1c0.098,0.118,0.241,0.182,0.386,0.182c0.078,0,0.156-0.018,0.228-0.056
		c0.209-0.107,0.314-0.346,0.254-0.573C67.054,50.218,67,49.852,67,49.5c0-2.481,2.019-4.5,4.5-4.5c2.381,0,4.347,1.872,4.474,4.263
		c0.011,0.208,0.15,0.387,0.349,0.45c0.05,0.016,0.101,0.024,0.152,0.024c0.15,0,0.296-0.069,0.392-0.192
		C77.638,48.563,78.779,48,80,48c2.206,0,4,1.794,4,4c0,0.117-0.017,0.23-0.032,0.343l-0.019,0.141
		c-0.016,0.134,0.022,0.268,0.106,0.373c0.084,0.105,0.207,0.172,0.34,0.185C86.451,53.247,88,54.949,88,57c0,2.206-1.794,4-4,4
		h-5.5c-0.276,0-0.5,0.224-0.5,0.5s0.224,0.5,0.5,0.5H84c2.757,0,5-2.243,5-5c0-2.397-1.689-4.413-4.003-4.877
		C84.999,52.082,85,52.041,85,52c0-2.757-2.243-5-5-5c-1.176,0-2.293,0.416-3.183,1.164C76.219,45.76,74.055,44,71.5,44L71.5,44z"/>
	<path style="fill:#472B29;" d="M70,51c-1.403,0-2.609,0.999-2.913,2.341C66.72,53.119,66.301,53,65.875,53
		c-1.202,0-2.198,0.897-2.353,2.068C63.319,55.022,63.126,55,62.937,55c-1.529,0-2.811,1.2-2.918,2.732
		C60.01,57.87,60.114,57.99,60.251,58c0.006,0,0.012,0,0.018,0c0.13,0,0.24-0.101,0.249-0.232c0.089-1.271,1.151-2.268,2.419-2.268
		c0.229,0,0.47,0.042,0.738,0.127c0.022,0.007,0.045,0.01,0.067,0.01c0.055,0,0.11-0.02,0.156-0.054
		C63.962,55.537,64,55.455,64,55.375c0-1.034,0.841-1.875,1.875-1.875c0.447,0,0.885,0.168,1.231,0.473
		c0.047,0.041,0.106,0.063,0.165,0.063c0.032,0,0.063-0.006,0.093-0.019c0.088-0.035,0.148-0.117,0.155-0.212
		C67.623,52.512,68.712,51.5,70,51.5c0.208,0,0.425,0.034,0.682,0.107c0.023,0.007,0.047,0.01,0.07,0.01
		c0.109,0,0.207-0.073,0.239-0.182c0.038-0.133-0.039-0.271-0.172-0.309C70.517,51.04,70.256,51,70,51L70,51z"/>
	<path style="fill:#472B29;" d="M83.883,52.5c-1.326,0-2.508,0.897-2.874,2.182c-0.038,0.133,0.039,0.271,0.172,0.309
		C81.205,54.997,81.228,55,81.25,55c0.109,0,0.209-0.072,0.24-0.182C81.795,53.748,82.779,53,83.883,53
		c0.117,0,0.23,0.014,0.342,0.029c0.012,0.002,0.023,0.003,0.035,0.003c0.121,0,0.229-0.092,0.246-0.217
		c0.019-0.137-0.077-0.263-0.214-0.281C84.158,52.516,84.022,52.5,83.883,52.5L83.883,52.5z"/>
</g>
<g>
	<path style="fill:#FFFFFF;" d="M15.5,51h-10C5.224,51,5,50.776,5,50.5S5.224,50,5.5,50h10c0.276,0,0.5,0.224,0.5,0.5
		S15.777,51,15.5,51z"/>
	<path style="fill:#FFFFFF;" d="M18.5,51h-1c-0.276,0-0.5-0.224-0.5-0.5s0.224-0.5,0.5-0.5h1c0.276,0,0.5,0.224,0.5,0.5
		S18.777,51,18.5,51z"/>
	<path style="fill:#FFFFFF;" d="M23.491,53H14.5c-0.276,0-0.5-0.224-0.5-0.5s0.224-0.5,0.5-0.5h8.991c0.276,0,0.5,0.224,0.5,0.5
		S23.767,53,23.491,53z"/>
	<path style="fill:#FFFFFF;" d="M12.5,53h-1c-0.276,0-0.5-0.224-0.5-0.5s0.224-0.5,0.5-0.5h1c0.276,0,0.5,0.224,0.5,0.5
		S12.777,53,12.5,53z"/>
	<path style="fill:#FFFFFF;" d="M9.5,53h-2C7.224,53,7,52.776,7,52.5S7.224,52,7.5,52h2c0.276,0,0.5,0.224,0.5,0.5S9.777,53,9.5,53z
		"/>
	<path style="fill:#FFFFFF;" d="M15.5,55h-2c-0.276,0-0.5-0.224-0.5-0.5s0.224-0.5,0.5-0.5h2c0.276,0,0.5,0.224,0.5,0.5
		S15.776,55,15.5,55z"/>
	<path style="fill:#FFFFFF;" d="M18.5,46c-0.177,0-0.823,0-1,0c-0.276,0-0.5,0.224-0.5,0.5c0,0.276,0.224,0.5,0.5,0.5
		c0.177,0,0.823,0,1,0c0.276,0,0.5-0.224,0.5-0.5C19,46.224,18.776,46,18.5,46z"/>
	<path style="fill:#FFFFFF;" d="M18.5,48c-0.177,0-4.823,0-5,0c-0.276,0-0.5,0.224-0.5,0.5c0,0.276,0.224,0.5,0.5,0.5
		c0.177,0,4.823,0,5,0c0.276,0,0.5-0.224,0.5-0.5C19,48.224,18.776,48,18.5,48z"/>
	<path style="fill:#FFFFFF;" d="M23.5,50c-0.177,0-2.823,0-3,0c-0.276,0-0.5,0.224-0.5,0.5c0,0.276,0.224,0.5,0.5,0.5
		c0.177,0,2.823,0,3,0c0.276,0,0.5-0.224,0.5-0.5C24,50.224,23.776,50,23.5,50z"/>
</g>
<g>
	<path style="fill:#FFFFFF;" d="M63.5,22h-1c-0.276,0-0.5-0.224-0.5-0.5s0.224-0.5,0.5-0.5h1c0.276,0,0.5,0.224,0.5,0.5
		S63.776,22,63.5,22z"/>
	<path style="fill:#FFFFFF;" d="M76.5,22h-11c-0.276,0-0.5-0.224-0.5-0.5s0.224-0.5,0.5-0.5h11c0.276,0,0.5,0.224,0.5,0.5
		S76.776,22,76.5,22z"/>
	<path style="fill:#FFFFFF;" d="M81.5,24h-10c-0.276,0-0.5-0.224-0.5-0.5s0.224-0.5,0.5-0.5h10c0.276,0,0.5,0.224,0.5,0.5
		S81.777,24,81.5,24z"/>
	<path style="fill:#FFFFFF;" d="M69.5,24h-1c-0.276,0-0.5-0.224-0.5-0.5s0.224-0.5,0.5-0.5h1c0.276,0,0.5,0.224,0.5,0.5
		S69.776,24,69.5,24z"/>
	<path style="fill:#FFFFFF;" d="M66.47,24H64.5c-0.276,0-0.5-0.224-0.5-0.5s0.224-0.5,0.5-0.5h1.97c0.276,0,0.5,0.224,0.5,0.5
		S66.746,24,66.47,24z"/>
	<path style="fill:#FFFFFF;" d="M75.5,20h-5c-0.276,0-0.5-0.224-0.5-0.5s0.224-0.5,0.5-0.5h5c0.276,0,0.5,0.224,0.5,0.5
		S75.777,20,75.5,20z"/>
	<path style="fill:#FFFFFF;" d="M72.5,26h-2c-0.276,0-0.5-0.224-0.5-0.5s0.224-0.5,0.5-0.5h2c0.276,0,0.5,0.224,0.5,0.5
		S72.776,26,72.5,26z"/>
</g>
<g>
	<path style="fill:#FDFCEF;" d="M34.5,69.5c0,0,1.567,0,3.5,0s3.5-1.567,3.5-3.5c0-1.781-1.335-3.234-3.055-3.455
		C38.473,62.366,38.5,62.187,38.5,62c0-1.933-1.567-3.5-3.5-3.5c-1.032,0-1.95,0.455-2.59,1.165
		c-0.384-1.808-1.987-3.165-3.91-3.165c-2.209,0-4,1.791-4,4c0,0.191,0.03,0.374,0.056,0.558C24.128,60.714,23.592,60.5,23,60.5
		c-1.228,0-2.245,0.887-2.455,2.055C20.366,62.527,20.187,62.5,20,62.5c-1.933,0-3.5,1.567-3.5,3.5s1.567,3.5,3.5,3.5s7.5,0,7.5,0
		V70h7V69.5z"/>
	<path style="fill:#472B29;" d="M36.25,65C36.112,65,36,64.888,36,64.75c0-1.223,0.995-2.218,2.218-2.218
		c0.034,0.009,0.737-0.001,1.244,0.136c0.133,0.036,0.212,0.173,0.176,0.306c-0.036,0.134-0.173,0.213-0.306,0.176
		c-0.444-0.12-1.1-0.12-1.113-0.118c-0.948,0-1.719,0.771-1.719,1.718C36.5,64.888,36.388,65,36.25,65z"/>
	<circle style="fill:#472B29;" cx="29.5" cy="69.5" r="0.5"/>
	<path style="fill:#472B29;" d="M38,70h-3.5c-0.276,0-0.5-0.224-0.5-0.5s0.224-0.5,0.5-0.5H38c1.654,0,3-1.346,3-3
		c0-1.496-1.125-2.768-2.618-2.959c-0.134-0.018-0.255-0.088-0.336-0.196s-0.115-0.244-0.094-0.377C37.975,62.314,38,62.16,38,62
		c0-1.654-1.346-3-3-3c-0.85,0-1.638,0.355-2.219,1c-0.125,0.139-0.321,0.198-0.5,0.148c-0.182-0.049-0.321-0.195-0.36-0.379
		C31.58,58.165,30.141,57,28.5,57c-1.93,0-3.5,1.57-3.5,3.5c0,0.143,0.021,0.28,0.041,0.418c0.029,0.203-0.063,0.438-0.242,0.54
		c-0.179,0.102-0.396,0.118-0.556-0.01C23.878,61.155,23.449,61,23,61c-0.966,0-1.792,0.691-1.963,1.644
		c-0.048,0.267-0.296,0.446-0.569,0.405C20.314,63.025,20.16,63,20,63c-1.654,0-3,1.346-3,3s1.346,3,3,3h7.5
		c0.276,0,0.5,0.224,0.5,0.5S27.776,70,27.5,70H20c-2.206,0-4-1.794-4-4s1.794-4,4-4c0.059,0,0.116,0.002,0.174,0.006
		C20.588,60.82,21.711,60,23,60c0.349,0,0.689,0.061,1.011,0.18C24.176,57.847,26.126,56,28.5,56c1.831,0,3.466,1.127,4.153,2.774
		C33.333,58.276,34.155,58,35,58c2.206,0,4,1.794,4,4c0,0.048-0.001,0.095-0.004,0.142C40.739,62.59,42,64.169,42,66
		C42,68.206,40.206,70,38,70z"/>
	<path style="fill:#472B29;" d="M32.5,69c-0.159,0-0.841,0-1,0c-0.276,0-0.5,0.224-0.5,0.5c0,0.276,0.224,0.5,0.5,0.5
		c0.159,0,0.841,0,1,0c0.276,0,0.5-0.224,0.5-0.5C33,69.224,32.776,69,32.5,69z"/>
</g>
<g>
	<g>
		<path style="fill:#EE3E54;" d="M32.152,42.503c-1.222,0-2.416,0.496-3.286,1.366C28,44.682,27.52,45.786,27.5,46.989
			c-0.02,1.248,0.478,2.473,1.365,3.361c0.117,0.139,8.536,10.352,10.97,12.868c0.123,0.127,0.286,0.321,0.481,0.558
			c0.794,0.954,2.271,2.731,3.683,2.731h18.694c2.512-1.647,4.806-4.993,4.806-17.502V36.502c0-7.721-6.28-14.002-14-14.002
			s-14,6.281-14,14.002v11.529l-4.158-4.162c-0.812-0.865-1.915-1.346-3.117-1.365C32.201,42.503,32.176,42.503,32.152,42.503z"/>
		<path style="fill:#472B29;" d="M53.5,23.44c7.201,0,13.06,5.86,13.06,13.062v12.502c0,11.675-2.049,15.049-4.158,16.562H44
			c-0.971,0-2.365-1.677-2.961-2.393c-0.215-0.258-0.394-0.471-0.528-0.609c-2.408-2.49-10.803-12.674-10.887-12.776
			c-0.029-0.036-0.06-0.07-0.093-0.102c-0.709-0.709-1.106-1.687-1.09-2.682c0.015-0.947,0.391-1.812,1.09-2.469
			c0.703-0.704,1.634-1.091,2.62-1.091c0.969,0,1.854,0.376,2.526,1.091l3.305,3.307c0.275,0.276,0.644,0.422,1.019,0.422
			c0.185,0,0.372-0.036,0.551-0.11c0.538-0.223,0.889-0.748,0.889-1.331V36.502C40.44,29.3,46.299,23.44,53.5,23.44 M53.5,22
			C45.492,22,39,28.493,39,36.502c0,0.169,0,10.321,0,10.321l-3.305-3.307c-0.945-1.009-2.237-1.513-3.544-1.513
			s-2.631,0.504-3.639,1.513c-2.016,1.891-2.016,5.17,0,7.188c0,0,8.488,10.302,10.964,12.862C40.134,64.246,42,67.006,44,67.006
			h18.841C65.489,65.329,68,62.006,68,49.004c0-2.521,0-12.502,0-12.502C68,28.493,61.508,22,53.5,22L53.5,22z"/>
	</g>
	<g>
		<path style="fill:#FDFCEF;" d="M62.956,40.628h-0.376c-0.078-0.783-0.255-1.537-0.515-2.25l0.311-0.125l0.032-0.022
			c-0.227-0.616-0.514-1.202-0.858-1.75l-0.05,0.022l-0.296,0.125c-1.618-2.552-4.46-4.251-7.704-4.251
			c-5.04,0-9.125,4.086-9.125,9.126s4.085,9.126,9.125,9.126c4.034,0,7.45-2.621,8.656-6.251l0.344,0.125l0.005,0.006
			C62.821,43.563,63,42.554,63,41.503C63,41.207,62.982,40.916,62.956,40.628z"/>
		<g>
			<path style="fill:#472B29;" d="M53.5,42.003c-0.276,0-0.5-0.224-0.5-0.5v-6.001c0-0.276,0.224-0.5,0.5-0.5s0.5,0.224,0.5,0.5
				v6.001C54,41.779,53.776,42.003,53.5,42.003z"/>
			<path style="fill:#472B29;" d="M53.5,38.781l-2.068-2.068c-0.195-0.195-0.195-0.512,0-0.707s0.512-0.195,0.707,0l1.361,1.361
				l1.361-1.361c0.195-0.195,0.512-0.195,0.707,0s0.195,0.512,0,0.707L53.5,38.781z"/>
			<path style="fill:#472B29;" d="M53.5,42.003c-0.085,0-0.171-0.021-0.25-0.067l-5.196-3c-0.239-0.138-0.321-0.443-0.183-0.683
				c0.138-0.239,0.444-0.323,0.683-0.183l5.196,3c0.239,0.138,0.321,0.443,0.183,0.683C53.84,41.913,53.672,42.003,53.5,42.003z"/>
			<path style="fill:#472B29;" d="M48.188,40.916c-0.221,0-0.423-0.147-0.482-0.371c-0.071-0.267,0.087-0.54,0.354-0.612
				l1.859-0.497l-0.498-1.859c-0.071-0.268,0.087-0.541,0.354-0.613c0.267-0.064,0.542,0.088,0.612,0.354l0.757,2.826l-2.825,0.757
				C48.275,40.91,48.231,40.916,48.188,40.916z"/>
			<path style="fill:#472B29;" d="M48.304,45.003c-0.173,0-0.341-0.09-0.434-0.25c-0.138-0.239-0.056-0.545,0.183-0.683l5.196-3
				c0.238-0.14,0.545-0.057,0.683,0.183s0.056,0.545-0.183,0.683l-5.196,3C48.475,44.982,48.389,45.003,48.304,45.003z"/>
			<path style="fill:#472B29;" d="M49.904,46.059c-0.043,0-0.086-0.006-0.13-0.017c-0.267-0.072-0.425-0.346-0.354-0.613
				l0.498-1.859l-1.859-0.497c-0.267-0.072-0.425-0.346-0.354-0.612c0.072-0.267,0.346-0.419,0.612-0.355l2.825,0.757l-0.757,2.826
				C50.327,45.911,50.125,46.059,49.904,46.059z"/>
			<path style="fill:#472B29;" d="M53.5,48.004c-0.276,0-0.5-0.224-0.5-0.5v-6.001c0-0.276,0.224-0.5,0.5-0.5s0.5,0.224,0.5,0.5
				v6.001C54,47.78,53.776,48.004,53.5,48.004z"/>
			<path style="fill:#472B29;" d="M55.214,47.146c-0.128,0-0.256-0.049-0.354-0.147L53.5,45.639L52.139,47
				c-0.195,0.195-0.512,0.195-0.707,0s-0.195-0.512,0-0.707l2.068-2.068l2.068,2.068c0.195,0.195,0.195,0.512,0,0.707
				C55.47,47.097,55.342,47.146,55.214,47.146z"/>
			<path style="fill:#472B29;" d="M58.696,45.003c-0.085,0-0.171-0.021-0.25-0.067l-5.196-3c-0.239-0.138-0.321-0.443-0.183-0.683
				s0.444-0.322,0.683-0.183l5.196,3c0.239,0.138,0.321,0.443,0.183,0.683C59.037,44.913,58.869,45.003,58.696,45.003z"/>
			<path style="fill:#472B29;" d="M57.096,46.059c-0.221,0-0.423-0.147-0.482-0.37l-0.757-2.826l2.825-0.757
				c0.267-0.065,0.542,0.088,0.612,0.355c0.071,0.267-0.087,0.54-0.354,0.612l-1.859,0.497l0.498,1.859
				c0.071,0.268-0.087,0.541-0.354,0.613C57.183,46.053,57.139,46.059,57.096,46.059z"/>
			<path style="fill:#472B29;" d="M53.5,42.003c-0.173,0-0.341-0.09-0.434-0.25c-0.138-0.239-0.056-0.545,0.183-0.683l5.196-3
				c0.238-0.141,0.544-0.057,0.683,0.183c0.138,0.239,0.056,0.545-0.183,0.683l-5.196,3C53.671,41.981,53.585,42.003,53.5,42.003z"
				/>
			<path style="fill:#472B29;" d="M58.812,40.916c-0.043,0-0.086-0.006-0.13-0.017l-2.825-0.757l0.757-2.826
				c0.072-0.266,0.346-0.417,0.612-0.354c0.267,0.072,0.425,0.346,0.354,0.613l-0.498,1.859l1.859,0.497
				c0.267,0.072,0.425,0.346,0.354,0.612C59.234,40.768,59.032,40.916,58.812,40.916z"/>
		</g>
		<path style="fill:#472B29;" d="M53.5,51.004c-5.238,0-9.5-4.262-9.5-9.501s4.262-9.501,9.5-9.501c3.266,0,6.265,1.655,8.021,4.424
			c0.111,0.175,0.059,0.407-0.116,0.518c-0.175,0.112-0.406,0.059-0.518-0.115c-1.618-2.553-4.38-4.077-7.388-4.077
			c-4.825,0-8.75,3.925-8.75,8.751s3.925,8.751,8.75,8.751c3.773,0,7.109-2.409,8.3-5.994c0.065-0.196,0.276-0.307,0.474-0.237
			c0.197,0.064,0.303,0.277,0.238,0.474C61.219,48.388,57.597,51.004,53.5,51.004z"/>
		<path style="fill:#472B29;" d="M62.579,41.003c-0.19,0-0.354-0.145-0.373-0.338c-0.073-0.734-0.239-1.46-0.494-2.159
			c-0.071-0.194,0.029-0.41,0.224-0.482c0.191-0.072,0.41,0.029,0.48,0.224c0.277,0.758,0.458,1.546,0.536,2.342
			c0.021,0.206-0.13,0.39-0.336,0.41C62.604,41.002,62.591,41.003,62.579,41.003z"/>
	</g>
	<g>
		<path style="fill:#FDFCEF;" d="M59.499,74.25l0.292,0.211c0.944,0.679,2.053,1.038,3.208,1.038c3.033,0,5.5-2.466,5.5-5.497
			c0-3.031-2.467-5.497-5.5-5.497c-1.155,0-2.264,0.359-3.208,1.038l-0.292,0.211l-0.292-0.211c-1.888-1.358-4.528-1.358-6.416,0
			l-0.292,0.211l-0.292-0.211c-1.888-1.358-4.528-1.358-6.416,0l-0.292,0.211l-0.292-0.211c-0.944-0.679-2.053-1.038-3.208-1.038
			c-3.033,0-5.5,2.466-5.5,5.497c0,3.031,2.467,5.497,5.5,5.497c1.155,0,2.264-0.359,3.208-1.038l0.292-0.211l0.292,0.211
			c1.888,1.358,4.528,1.358,6.416,0l0.292-0.211l0.292,0.211c1.888,1.358,4.528,1.358,6.416,0L59.499,74.25z"/>
		<path style="fill:#472B29;" d="M62.999,65.406c2.537,0,4.6,2.062,4.6,4.597c0,2.535-2.064,4.597-4.6,4.597
			c-0.965,0-1.892-0.301-2.682-0.869c-0.244-0.176-0.531-0.264-0.818-0.264s-0.574,0.088-0.818,0.264
			c-0.79,0.569-1.717,0.869-2.682,0.869s-1.892-0.301-2.682-0.869c-0.244-0.176-0.531-0.264-0.818-0.264s-0.574,0.088-0.818,0.264
			c-0.79,0.569-1.717,0.869-2.682,0.869s-1.892-0.301-2.682-0.869c-0.244-0.176-0.531-0.264-0.818-0.264s-0.574,0.088-0.818,0.264
			c-0.79,0.569-1.717,0.869-2.682,0.869c-2.537,0-4.6-2.062-4.6-4.597c0-2.535,2.064-4.597,4.6-4.597
			c0.965,0,1.892,0.301,2.682,0.869c0.244,0.176,0.531,0.264,0.818,0.264s0.574-0.088,0.818-0.264
			c0.79-0.569,1.717-0.869,2.682-0.869s1.892,0.301,2.682,0.869c0.244,0.176,0.531,0.264,0.818,0.264s0.574-0.088,0.818-0.264
			c0.79-0.569,1.717-0.869,2.682-0.869s1.892,0.301,2.682,0.869c0.244,0.176,0.531,0.264,0.818,0.264s0.574-0.088,0.818-0.264
			C61.107,65.707,62.034,65.406,62.999,65.406 M62.999,64.006c-1.308,0-2.514,0.423-3.5,1.133c-0.986-0.71-2.192-1.133-3.5-1.133
			s-2.514,0.423-3.5,1.133c-0.986-0.71-2.192-1.133-3.5-1.133s-2.514,0.423-3.5,1.133c-0.986-0.71-2.192-1.133-3.5-1.133
			c-3.313,0-6,2.686-6,5.997c0,3.311,2.688,5.997,6,5.997c1.308,0,2.514-0.423,3.5-1.133c0.986,0.71,2.192,1.133,3.5,1.133
			s2.514-0.423,3.5-1.133c0.986,0.71,2.192,1.133,3.5,1.133s2.514-0.423,3.5-1.133c0.986,0.71,2.192,1.133,3.5,1.133
			c3.313,0,6-2.686,6-5.997C68.999,66.692,66.312,64.006,62.999,64.006L62.999,64.006z"/>
	</g>
</g>
</svg>
