<?xml version="1.0" encoding="iso-8859-1"?>
<!-- Generator: Adobe Illustrator 22.1.0, SVG Export Plug-In . SVG Version: 6.00 Build 0)  -->
<svg version="1.1" id="Layer_1" xmlns="http://www.w3.org/2000/svg" xmlns:xlink="http://www.w3.org/1999/xlink" x="0px" y="0px"
	 viewBox="0 0 100 100" style="enable-background:new 0 0 100 100;" xml:space="preserve">
<path style="fill:#C7EDE6;" d="M87.215,56.71C88.35,54.555,89,52.105,89,49.5c0-6.621-4.159-12.257-10.001-14.478
	C78.999,35.015,79,35.008,79,35c0-11.598-9.402-21-21-21c-9.784,0-17.981,6.701-20.313,15.757C36.211,29.272,34.638,29,33,29
	c-7.692,0-14.023,5.793-14.89,13.252C12.906,43.353,9,47.969,9,53.5C9,59.851,14.149,65,20.5,65c0.177,0,0.352-0.012,0.526-0.022
	C21.022,65.153,21,65.324,21,65.5C21,76.822,30.178,86,41.5,86c6.437,0,12.175-2.972,15.934-7.614C59.612,80.611,62.64,82,66,82
	c4.65,0,8.674-2.65,10.666-6.518C77.718,75.817,78.837,76,80,76c6.075,0,11-4.925,11-11C91,61.689,89.53,58.727,87.215,56.71z"/>
<g>
	<path style="fill:#FDFCEF;" d="M72.5,61.5V62h3v-0.5c0,0,4.242,0,5.5,0c2.485,0,4.5-2.015,4.5-4.5c0-2.333-1.782-4.229-4.055-4.455
		C81.467,52.364,81.5,52.187,81.5,52c0-2.485-2.015-4.5-4.5-4.5c-1.438,0-2.703,0.686-3.527,1.736
		C73.333,46.6,71.171,44.5,68.5,44.5c-2.761,0-5,2.239-5,5c0,0.446,0.077,0.87,0.187,1.282C63.045,50.005,62.086,49.5,61,49.5
		c-1.781,0-3.234,1.335-3.455,3.055C57.364,52.533,57.187,52.5,57,52.5c-2.485,0-4.5,2.015-4.5,4.5s2.015,4.5,4.5,4.5s9.5,0,9.5,0
		H72.5z"/>
	<path style="fill:#472B29;" d="M68.5,44c-3.033,0-5.5,2.467-5.5,5.5c0,0.016,0,0.031,0,0.047C62.398,49.192,61.71,49,61,49
		c-1.831,0-3.411,1.261-3.858,3.005C57.095,52.002,57.048,52,57,52c-2.757,0-5,2.243-5,5s2.243,5,5,5h15.5
		c0.276,0,0.5-0.224,0.5-0.5S72.776,61,72.5,61H57c-2.206,0-4-1.794-4-4s1.794-4,4-4c0.117,0,0.23,0.017,0.343,0.032l0.141,0.019
		c0.021,0.003,0.041,0.004,0.062,0.004c0.246,0,0.462-0.185,0.495-0.437C58.232,51.125,59.504,50,61,50
		c0.885,0,1.723,0.401,2.301,1.1c0.098,0.118,0.241,0.182,0.386,0.182c0.078,0,0.156-0.018,0.228-0.056
		c0.209-0.107,0.314-0.346,0.254-0.573C64.054,50.218,64,49.852,64,49.5c0-2.481,2.019-4.5,4.5-4.5c2.381,0,4.347,1.872,4.474,4.263
		c0.011,0.208,0.15,0.387,0.349,0.45c0.05,0.016,0.101,0.024,0.152,0.024c0.15,0,0.296-0.069,0.392-0.192
		C74.638,48.563,75.779,48,77,48c2.206,0,4,1.794,4,4c0,0.117-0.017,0.23-0.032,0.343l-0.019,0.141
		c-0.016,0.134,0.022,0.268,0.106,0.373c0.084,0.105,0.207,0.172,0.34,0.185C83.451,53.247,85,54.949,85,57c0,2.206-1.794,4-4,4
		h-5.5c-0.276,0-0.5,0.224-0.5,0.5s0.224,0.5,0.5,0.5H81c2.757,0,5-2.243,5-5c0-2.397-1.689-4.413-4.003-4.877
		C81.999,52.082,82,52.041,82,52c0-2.757-2.243-5-5-5c-1.176,0-2.293,0.416-3.183,1.164C73.219,45.76,71.055,44,68.5,44L68.5,44z"/>
	<path style="fill:#472B29;" d="M67,51c-1.403,0-2.609,0.999-2.913,2.341C63.72,53.119,63.301,53,62.875,53
		c-1.202,0-2.198,0.897-2.353,2.068C60.319,55.022,60.126,55,59.937,55c-1.529,0-2.811,1.2-2.918,2.732
		C57.01,57.87,57.114,57.99,57.251,58c0.006,0,0.012,0,0.018,0c0.13,0,0.24-0.101,0.249-0.232c0.089-1.271,1.151-2.268,2.419-2.268
		c0.229,0,0.47,0.042,0.738,0.127c0.022,0.007,0.045,0.01,0.067,0.01c0.055,0,0.11-0.02,0.156-0.054
		C60.962,55.537,61,55.455,61,55.375c0-1.034,0.841-1.875,1.875-1.875c0.447,0,0.885,0.168,1.231,0.473
		c0.047,0.041,0.106,0.063,0.165,0.063c0.032,0,0.063-0.006,0.093-0.019c0.088-0.035,0.148-0.117,0.155-0.212
		C64.623,52.512,65.712,51.5,67,51.5c0.208,0,0.425,0.034,0.682,0.107c0.023,0.007,0.047,0.01,0.07,0.01
		c0.109,0,0.207-0.073,0.239-0.182c0.038-0.133-0.039-0.271-0.172-0.309C67.517,51.04,67.256,51,67,51L67,51z"/>
	<path style="fill:#472B29;" d="M80.883,52.5c-1.326,0-2.508,0.897-2.874,2.182c-0.038,0.133,0.039,0.271,0.172,0.309
		C78.205,54.997,78.228,55,78.25,55c0.109,0,0.209-0.072,0.24-0.182C78.795,53.748,79.779,53,80.883,53
		c0.117,0,0.23,0.014,0.342,0.029c0.012,0.002,0.023,0.003,0.035,0.003c0.121,0,0.229-0.092,0.246-0.217
		c0.019-0.137-0.077-0.263-0.214-0.281C81.158,52.516,81.022,52.5,80.883,52.5L80.883,52.5z"/>
</g>
<g>
	<path style="fill:#FFFFFF;" d="M15.5,51h-10C5.224,51,5,50.776,5,50.5S5.224,50,5.5,50h10c0.276,0,0.5,0.224,0.5,0.5
		S15.777,51,15.5,51z"/>
	<path style="fill:#FFFFFF;" d="M18.5,51h-1c-0.276,0-0.5-0.224-0.5-0.5s0.224-0.5,0.5-0.5h1c0.276,0,0.5,0.224,0.5,0.5
		S18.777,51,18.5,51z"/>
	<path style="fill:#FFFFFF;" d="M23.491,53H14.5c-0.276,0-0.5-0.224-0.5-0.5s0.224-0.5,0.5-0.5h8.991c0.276,0,0.5,0.224,0.5,0.5
		S23.767,53,23.491,53z"/>
	<path style="fill:#FFFFFF;" d="M12.5,53h-1c-0.276,0-0.5-0.224-0.5-0.5s0.224-0.5,0.5-0.5h1c0.276,0,0.5,0.224,0.5,0.5
		S12.777,53,12.5,53z"/>
	<path style="fill:#FFFFFF;" d="M9.5,53h-2C7.224,53,7,52.776,7,52.5S7.224,52,7.5,52h2c0.276,0,0.5,0.224,0.5,0.5S9.777,53,9.5,53z
		"/>
	<path style="fill:#FFFFFF;" d="M15.5,55h-2c-0.276,0-0.5-0.224-0.5-0.5s0.224-0.5,0.5-0.5h2c0.276,0,0.5,0.224,0.5,0.5
		S15.776,55,15.5,55z"/>
	<path style="fill:#FFFFFF;" d="M18.5,46c-0.177,0-0.823,0-1,0c-0.276,0-0.5,0.224-0.5,0.5c0,0.276,0.224,0.5,0.5,0.5
		c0.177,0,0.823,0,1,0c0.276,0,0.5-0.224,0.5-0.5C19,46.224,18.776,46,18.5,46z"/>
	<path style="fill:#FFFFFF;" d="M18.5,48c-0.177,0-4.823,0-5,0c-0.276,0-0.5,0.224-0.5,0.5c0,0.276,0.224,0.5,0.5,0.5
		c0.177,0,4.823,0,5,0c0.276,0,0.5-0.224,0.5-0.5C19,48.224,18.776,48,18.5,48z"/>
	<path style="fill:#FFFFFF;" d="M23.5,50c-0.177,0-2.823,0-3,0c-0.276,0-0.5,0.224-0.5,0.5c0,0.276,0.224,0.5,0.5,0.5
		c0.177,0,2.823,0,3,0c0.276,0,0.5-0.224,0.5-0.5C24,50.224,23.776,50,23.5,50z"/>
</g>
<g>
	<path style="fill:#FFFFFF;" d="M73.5,28h-10c-0.276,0-0.5-0.224-0.5-0.5s0.224-0.5,0.5-0.5h10c0.276,0,0.5,0.224,0.5,0.5
		S73.776,28,73.5,28z"/>
	<path style="fill:#FFFFFF;" d="M77.5,28h-2c-0.276,0-0.5-0.224-0.5-0.5s0.224-0.5,0.5-0.5h2c0.276,0,0.5,0.224,0.5,0.5
		S77.776,28,77.5,28z"/>
	<path style="fill:#FFFFFF;" d="M82.5,30h-10c-0.276,0-0.5-0.224-0.5-0.5s0.224-0.5,0.5-0.5h10c0.276,0,0.5,0.224,0.5,0.5
		S82.777,30,82.5,30z"/>
	<path style="fill:#FFFFFF;" d="M70.5,30h-1c-0.276,0-0.5-0.224-0.5-0.5s0.224-0.5,0.5-0.5h1c0.276,0,0.5,0.224,0.5,0.5
		S70.776,30,70.5,30z"/>
	<path style="fill:#FFFFFF;" d="M67.47,30H65.5c-0.276,0-0.5-0.224-0.5-0.5s0.224-0.5,0.5-0.5h1.97c0.276,0,0.5,0.224,0.5,0.5
		S67.746,30,67.47,30z"/>
	<path style="fill:#FFFFFF;" d="M76.5,26h-5c-0.276,0-0.5-0.224-0.5-0.5s0.224-0.5,0.5-0.5h5c0.276,0,0.5,0.224,0.5,0.5
		S76.777,26,76.5,26z"/>
	<path style="fill:#FFFFFF;" d="M73.5,32h-2c-0.276,0-0.5-0.224-0.5-0.5s0.224-0.5,0.5-0.5h2c0.276,0,0.5,0.224,0.5,0.5
		S73.776,32,73.5,32z"/>
</g>
<g>
	<g>
		<path style="fill:#FCC938;" d="M56.5,28.375c0-2.625-4-7.875-4-7.875s-4,5.25-4,7.875c0,2.278,1.791,4.125,4,4.125
			S56.5,30.653,56.5,28.375z"/>
		<path style="fill:#472B29;" d="M52.5,33c-2.481,0-4.5-2.075-4.5-4.625c0-2.762,3.935-7.958,4.102-8.178
			c0.189-0.248,0.606-0.248,0.796,0C53.065,20.417,57,25.613,57,28.375C57,30.925,54.981,33,52.5,33z M52.5,21.341
			c-1.251,1.738-3.5,5.234-3.5,7.034C49,30.374,50.57,32,52.5,32s3.5-1.626,3.5-3.625C56,26.574,53.751,23.079,52.5,21.341z"/>
	</g>
	<g>
		<path style="fill:#FEFDEF;" d="M45.5,69.5h14V38c0-1.378-1.122-2.5-2.5-2.5h-9c-1.378,0-2.5,1.122-2.5,2.5V69.5z"/>
		<path style="fill:#472B29;" d="M57,36.4c0.882,0,1.6,0.718,1.6,1.6v30.6H46.4V38c0-0.882,0.718-1.6,1.6-1.6H57 M57,35h-9
			c-1.657,0-3,1.343-3,3v32h15V38C60,36.343,58.657,35,57,35L57,35z"/>
	</g>
	<path style="fill:#472B29;" d="M48.375,56C48.168,56,48,55.832,48,55.625v-8.25C48,47.168,48.168,47,48.375,47
		s0.375,0.168,0.375,0.375v8.25C48.75,55.832,48.582,56,48.375,56z"/>
	<path style="fill:#472B29;" d="M48.375,45C48.168,45,48,44.832,48,44.625v-2.25C48,42.168,48.168,42,48.375,42
		s0.375,0.168,0.375,0.375v2.25C48.75,44.832,48.582,45,48.375,45z"/>
	<path style="fill:#472B29;" d="M48.375,41C48.168,41,48,40.832,48,40.625v-1.25C48,39.168,48.168,39,48.375,39
		s0.375,0.168,0.375,0.375v1.25C48.75,40.832,48.582,41,48.375,41z"/>
	<path style="fill:#472B29;" d="M52.5,36c-0.276,0-0.5-0.224-0.5-0.5v-6c0-0.276,0.224-0.5,0.5-0.5s0.5,0.224,0.5,0.5v6
		C53,35.776,52.776,36,52.5,36z"/>
	<g>
		<path style="fill:#678C26;" d="M54.5,71.909c5.432-0.874,11.107,3.557,11.107,3.557s-0.877-3.791,2.537-6.058
			s6.822-1.251,6.822-1.251s-1.378-6.191,1.535-10.859"/>
		<path style="fill:#88AE45;" d="M54.5,71.909c2.913-4.668,1.031-11.409,1.031-11.409s3.153,2.07,6.567-0.197
			c3.414-2.267,3.799-5.803,3.799-5.803s5.171,3.672,10.603,2.798"/>
		<path style="fill:#472B29;" d="M65.606,75.965c-0.109,0-0.218-0.036-0.308-0.106c-0.056-0.043-5.571-4.289-10.719-3.457
			c-0.275,0.043-0.53-0.142-0.573-0.414c-0.044-0.273,0.142-0.529,0.414-0.573c4.342-0.698,8.744,1.791,10.594,3.018
			c-0.007-1.406,0.388-3.806,2.852-5.442c2.625-1.742,5.227-1.657,6.477-1.471c-0.275-1.825-0.685-6.614,1.732-10.487
			c0.146-0.233,0.454-0.306,0.689-0.16c0.234,0.146,0.306,0.455,0.16,0.689c-2.773,4.443-1.485,10.426-1.471,10.486
			c0.038,0.172-0.018,0.353-0.147,0.473c-0.129,0.121-0.312,0.165-0.483,0.115c-0.032-0.009-3.238-0.916-6.404,1.188
			c-3.089,2.052-2.334,5.494-2.326,5.529c0.047,0.207-0.04,0.42-0.218,0.534C65.793,75.939,65.7,75.965,65.606,75.965z"/>
		<path style="fill:#472B29;" d="M54.5,72.409c-0.09,0-0.182-0.024-0.264-0.076c-0.234-0.146-0.306-0.455-0.16-0.689
			c2.765-4.43,0.992-10.944,0.974-11.01c-0.056-0.2,0.019-0.414,0.186-0.537c0.167-0.123,0.394-0.129,0.569-0.017
			c0.118,0.077,2.934,1.855,6.017-0.195c3.182-2.113,3.575-5.407,3.579-5.44c0.019-0.176,0.13-0.329,0.292-0.402
			c0.162-0.072,0.349-0.055,0.494,0.048c0.05,0.035,5.076,3.541,10.234,2.712c0.271-0.047,0.529,0.142,0.573,0.414
			c0.044,0.273-0.142,0.529-0.414,0.573c-4.508,0.722-8.762-1.51-10.337-2.472c-0.314,1.225-1.244,3.657-3.868,5.399
			c-2.497,1.659-4.846,1.184-6.125,0.687c0.414,2.12,1.007,7.028-1.326,10.767C54.83,72.325,54.667,72.409,54.5,72.409z"/>
		<path style="fill:#472B29;" d="M54.5,72.409c-0.162,0-0.321-0.079-0.417-0.223c-0.153-0.23-0.09-0.541,0.14-0.693l21.905-14.548
			c0.23-0.153,0.54-0.09,0.693,0.14c0.153,0.23,0.09,0.541-0.14,0.693L54.777,72.325C54.691,72.382,54.596,72.409,54.5,72.409z"/>
	</g>
	<g>
		<path style="fill:#678C26;" d="M50.5,71.909c-5.432-0.874-11.107,3.557-11.107,3.557s0.877-3.791-2.537-6.058
			s-6.822-1.251-6.822-1.251s1.378-6.191-1.535-10.859"/>
		<path style="fill:#88AE45;" d="M50.5,71.909C47.587,67.241,49.469,60.5,49.469,60.5s-3.153,2.07-6.567-0.197
			c-3.414-2.267-3.799-5.803-3.799-5.803s-5.171,3.672-10.603,2.798"/>
		<path style="fill:#472B29;" d="M39.395,75.965c-0.093,0-0.187-0.026-0.269-0.078c-0.178-0.113-0.266-0.327-0.22-0.533
			c0.032-0.142,0.747-3.489-2.326-5.53c-3.166-2.103-6.372-1.197-6.403-1.188c-0.168,0.049-0.354,0.006-0.482-0.115
			c-0.129-0.121-0.186-0.3-0.147-0.473c0.014-0.06,1.296-6.052-1.471-10.486c-0.146-0.234-0.075-0.542,0.16-0.689
			c0.233-0.146,0.543-0.074,0.689,0.16c2.417,3.873,2.007,8.662,1.732,10.487c1.252-0.187,3.853-0.271,6.477,1.471
			c2.464,1.637,2.86,4.037,2.853,5.443c1.85-1.227,6.249-3.714,10.594-3.019c0.272,0.044,0.458,0.3,0.414,0.573
			c-0.044,0.272-0.302,0.457-0.573,0.414c-5.146-0.832-10.664,3.414-10.719,3.457C39.611,75.93,39.503,75.965,39.395,75.965z"/>
		<path style="fill:#472B29;" d="M50.5,72.409c-0.167,0-0.33-0.083-0.425-0.235c-2.333-3.739-1.74-8.647-1.326-10.767
			c-1.278,0.496-3.627,0.972-6.125-0.687c-2.624-1.743-3.553-4.174-3.868-5.399c-1.575,0.962-5.827,3.199-10.337,2.472
			c-0.272-0.044-0.458-0.3-0.414-0.573c0.043-0.272,0.298-0.461,0.573-0.414c5.156,0.828,10.184-2.677,10.234-2.712
			c0.145-0.103,0.333-0.12,0.493-0.048c0.162,0.072,0.273,0.225,0.293,0.4c0.003,0.033,0.414,3.339,3.579,5.441
			c3.102,2.061,5.987,0.214,6.016,0.196c0.174-0.114,0.4-0.109,0.569,0.014c0.168,0.123,0.243,0.337,0.187,0.538
			c-0.018,0.065-1.786,6.588,0.974,11.01c0.146,0.234,0.075,0.542-0.16,0.689C50.683,72.384,50.591,72.409,50.5,72.409z"/>
		<path style="fill:#472B29;" d="M50.5,72.409c-0.095,0-0.191-0.027-0.276-0.083L28.318,57.777c-0.23-0.153-0.292-0.463-0.14-0.693
			c0.152-0.229,0.462-0.292,0.693-0.14l21.905,14.548c0.23,0.153,0.292,0.463,0.14,0.693C50.82,72.33,50.662,72.409,50.5,72.409z"/>
	</g>
	<g>
		<circle style="fill:#EE3E54;" cx="48.5" cy="71.5" r="4"/>
		<path style="fill:#472B29;" d="M48.5,76c-2.481,0-4.5-2.019-4.5-4.5s2.019-4.5,4.5-4.5s4.5,2.019,4.5,4.5S50.981,76,48.5,76z
			 M48.5,68c-1.93,0-3.5,1.57-3.5,3.5s1.57,3.5,3.5,3.5s3.5-1.57,3.5-3.5S50.43,68,48.5,68z"/>
	</g>
	<g>
		<circle style="fill:#EE3E54;" cx="56.5" cy="71.5" r="4"/>
		<path style="fill:#472B29;" d="M56.5,76c-2.481,0-4.5-2.019-4.5-4.5s2.019-4.5,4.5-4.5s4.5,2.019,4.5,4.5S58.981,76,56.5,76z
			 M56.5,68c-1.93,0-3.5,1.57-3.5,3.5s1.57,3.5,3.5,3.5s3.5-1.57,3.5-3.5S58.43,68,56.5,68z"/>
	</g>
	<g>
		<circle style="fill:#EE3E54;" cx="52.5" cy="65.5" r="4"/>
		<path style="fill:#472B29;" d="M52.5,70c-2.481,0-4.5-2.019-4.5-4.5s2.019-4.5,4.5-4.5s4.5,2.019,4.5,4.5S54.981,70,52.5,70z
			 M52.5,62c-1.93,0-3.5,1.57-3.5,3.5s1.57,3.5,3.5,3.5s3.5-1.57,3.5-3.5S54.43,62,52.5,62z"/>
	</g>
</g>
<g>
	<path style="fill:#FDFCEF;" d="M34.5,77.5c0,0,1.567,0,3.5,0s3.5-1.567,3.5-3.5c0-1.781-1.335-3.234-3.055-3.455
		C38.473,70.366,38.5,70.187,38.5,70c0-1.933-1.567-3.5-3.5-3.5c-1.032,0-1.95,0.455-2.59,1.165
		c-0.384-1.808-1.987-3.165-3.91-3.165c-2.209,0-4,1.791-4,4c0,0.191,0.03,0.374,0.056,0.558C24.128,68.714,23.592,68.5,23,68.5
		c-1.228,0-2.245,0.887-2.455,2.055C20.366,70.527,20.187,70.5,20,70.5c-1.933,0-3.5,1.567-3.5,3.5s1.567,3.5,3.5,3.5s7.5,0,7.5,0
		V78h7V77.5z"/>
	<path style="fill:#472B29;" d="M36.25,73C36.112,73,36,72.888,36,72.75c0-1.223,0.995-2.218,2.218-2.218
		c0.034,0.009,0.737-0.001,1.244,0.136c0.133,0.036,0.212,0.173,0.176,0.306c-0.036,0.134-0.173,0.213-0.306,0.176
		c-0.444-0.12-1.1-0.12-1.113-0.118c-0.948,0-1.719,0.771-1.719,1.718C36.5,72.888,36.388,73,36.25,73z"/>
	<circle style="fill:#472B29;" cx="29.5" cy="77.5" r="0.5"/>
	<path style="fill:#472B29;" d="M38,78h-3.5c-0.276,0-0.5-0.224-0.5-0.5s0.224-0.5,0.5-0.5H38c1.654,0,3-1.346,3-3
		c0-1.496-1.125-2.768-2.618-2.959c-0.134-0.018-0.255-0.088-0.336-0.196s-0.115-0.244-0.094-0.377C37.975,70.314,38,70.16,38,70
		c0-1.654-1.346-3-3-3c-0.85,0-1.638,0.355-2.219,1c-0.125,0.139-0.321,0.198-0.5,0.148c-0.182-0.049-0.321-0.195-0.36-0.379
		C31.58,66.165,30.141,65,28.5,65c-1.93,0-3.5,1.57-3.5,3.5c0,0.143,0.021,0.28,0.041,0.418c0.029,0.203-0.063,0.438-0.242,0.54
		c-0.179,0.102-0.396,0.118-0.556-0.01C23.878,69.155,23.449,69,23,69c-0.966,0-1.792,0.691-1.963,1.644
		c-0.048,0.267-0.296,0.446-0.569,0.405C20.314,71.025,20.16,71,20,71c-1.654,0-3,1.346-3,3s1.346,3,3,3h7.5
		c0.276,0,0.5,0.224,0.5,0.5S27.776,78,27.5,78H20c-2.206,0-4-1.794-4-4s1.794-4,4-4c0.059,0,0.116,0.002,0.174,0.006
		C20.588,68.82,21.711,68,23,68c0.349,0,0.689,0.061,1.011,0.18C24.176,65.847,26.126,64,28.5,64c1.831,0,3.466,1.127,4.153,2.774
		C33.333,66.276,34.155,66,35,66c2.206,0,4,1.794,4,4c0,0.048-0.001,0.095-0.004,0.142C40.739,70.59,42,72.169,42,74
		C42,76.206,40.206,78,38,78z"/>
	<path style="fill:#472B29;" d="M32.5,77c-0.159,0-0.841,0-1,0c-0.276,0-0.5,0.224-0.5,0.5c0,0.276,0.224,0.5,0.5,0.5
		c0.159,0,0.841,0,1,0c0.276,0,0.5-0.224,0.5-0.5C33,77.224,32.776,77,32.5,77z"/>
</g>
</svg>
