<?xml version="1.0" encoding="iso-8859-1"?>
<!-- Generator: Adobe Illustrator 22.1.0, SVG Export Plug-In . SVG Version: 6.00 Build 0)  -->
<svg version="1.1" id="Layer_1" xmlns="http://www.w3.org/2000/svg" xmlns:xlink="http://www.w3.org/1999/xlink" x="0px" y="0px"
	 viewBox="0 0 100 100" style="enable-background:new 0 0 100 100;" xml:space="preserve">
<path style="fill:#C7EDE6;" d="M87.215,56.71C88.35,54.555,89,52.105,89,49.5c0-6.621-4.159-12.257-10.001-14.478
	C78.999,35.015,79,35.008,79,35c0-11.598-9.402-21-21-21c-9.784,0-17.981,6.701-20.313,15.757C36.211,29.272,34.638,29,33,29
	c-7.692,0-14.023,5.793-14.89,13.252C12.906,43.353,9,47.969,9,53.5C9,59.851,14.149,65,20.5,65c0.177,0,0.352-0.012,0.526-0.022
	C21.022,65.153,21,65.324,21,65.5C21,76.822,30.178,86,41.5,86c6.437,0,12.175-2.972,15.934-7.614C59.612,80.611,62.64,82,66,82
	c4.65,0,8.674-2.65,10.666-6.518C77.718,75.817,78.837,76,80,76c6.075,0,11-4.925,11-11C91,61.689,89.53,58.727,87.215,56.71z"/>
<g>
	<path style="fill:#FDFCEF;" d="M81.5,68.5V69h3v-0.5c0,0,4.242,0,5.5,0c2.485,0,4.5-2.015,4.5-4.5c0-2.333-1.782-4.229-4.055-4.455
		C90.467,59.364,90.5,59.187,90.5,59c0-2.485-2.015-4.5-4.5-4.5c-1.438,0-2.703,0.686-3.527,1.736
		C82.333,53.6,80.171,51.5,77.5,51.5c-2.761,0-5,2.239-5,5c0,0.446,0.077,0.87,0.187,1.282C72.045,57.005,71.086,56.5,70,56.5
		c-1.781,0-3.234,1.335-3.455,3.055C66.364,59.533,66.187,59.5,66,59.5c-2.485,0-4.5,2.015-4.5,4.5s2.015,4.5,4.5,4.5s9.5,0,9.5,0
		H81.5z"/>
	<path style="fill:#472B29;" d="M77.5,51c-3.033,0-5.5,2.467-5.5,5.5c0,0.016,0,0.031,0,0.047C71.398,56.192,70.71,56,70,56
		c-1.831,0-3.411,1.261-3.858,3.005C66.095,59.002,66.048,59,66,59c-2.757,0-5,2.243-5,5c0,2.757,2.243,5,5,5h15.5
		c0.276,0,0.5-0.224,0.5-0.5S81.776,68,81.5,68H66c-2.206,0-4-1.794-4-4c0-2.206,1.794-4,4-4c0.117,0,0.23,0.017,0.343,0.032
		l0.141,0.019c0.021,0.003,0.041,0.004,0.062,0.004c0.246,0,0.462-0.185,0.495-0.437C67.232,58.125,68.504,57,70,57
		c0.885,0,1.723,0.401,2.301,1.1c0.098,0.118,0.241,0.182,0.386,0.182c0.078,0,0.156-0.018,0.228-0.056
		c0.209-0.107,0.314-0.346,0.254-0.573C73.054,57.218,73,56.852,73,56.5c0-2.481,2.019-4.5,4.5-4.5c2.381,0,4.347,1.872,4.474,4.263
		c0.011,0.208,0.15,0.387,0.349,0.45c0.05,0.016,0.101,0.024,0.152,0.024c0.15,0,0.296-0.069,0.392-0.192
		C83.638,55.563,84.779,55,86,55c2.206,0,4,1.794,4,4c0,0.117-0.017,0.23-0.032,0.343l-0.019,0.141
		c-0.016,0.134,0.022,0.268,0.106,0.373c0.084,0.105,0.207,0.172,0.34,0.185C92.451,60.247,94,61.949,94,64c0,2.206-1.794,4-4,4
		h-5.5c-0.276,0-0.5,0.224-0.5,0.5s0.224,0.5,0.5,0.5H90c2.757,0,5-2.243,5-5c0-2.397-1.689-4.413-4.003-4.877
		C90.999,59.082,91,59.041,91,59c0-2.757-2.243-5-5-5c-1.176,0-2.293,0.416-3.183,1.164C82.219,52.76,80.055,51,77.5,51L77.5,51z"/>
	<path style="fill:#472B29;" d="M76,58c-1.403,0-2.609,0.999-2.913,2.341C72.72,60.119,72.301,60,71.875,60
		c-1.202,0-2.198,0.897-2.353,2.068C69.319,62.022,69.126,62,68.938,62c-1.529,0-2.811,1.2-2.918,2.732
		C66.01,64.87,66.114,64.99,66.251,65c0.006,0,0.012,0,0.018,0c0.13,0,0.24-0.101,0.249-0.232c0.089-1.271,1.151-2.268,2.419-2.268
		c0.229,0,0.47,0.042,0.738,0.127c0.022,0.007,0.045,0.01,0.067,0.01c0.055,0,0.11-0.02,0.156-0.054
		C69.962,62.537,70,62.455,70,62.375c0-1.034,0.841-1.875,1.875-1.875c0.447,0,0.885,0.168,1.231,0.473
		c0.047,0.041,0.106,0.063,0.165,0.063c0.032,0,0.063-0.006,0.093-0.019c0.088-0.035,0.148-0.117,0.155-0.212
		C73.623,59.512,74.712,58.5,76,58.5c0.208,0,0.425,0.034,0.682,0.107c0.023,0.007,0.047,0.01,0.07,0.01
		c0.109,0,0.207-0.073,0.239-0.182c0.038-0.133-0.039-0.271-0.172-0.309C76.517,58.04,76.256,58,76,58L76,58z"/>
	<path style="fill:#472B29;" d="M89.883,59.5c-1.326,0-2.508,0.897-2.874,2.182c-0.038,0.133,0.039,0.271,0.172,0.309
		C87.205,61.997,87.228,62,87.25,62c0.109,0,0.209-0.072,0.24-0.182C87.795,60.748,88.779,60,89.883,60
		c0.117,0,0.23,0.014,0.342,0.029c0.012,0.002,0.023,0.003,0.035,0.003c0.121,0,0.229-0.092,0.246-0.217
		c0.019-0.137-0.077-0.263-0.214-0.281C90.158,59.516,90.022,59.5,89.883,59.5L89.883,59.5z"/>
</g>
<g>
	<path style="fill:#FFFFFF;" d="M15.5,51h-10C5.224,51,5,50.776,5,50.5S5.224,50,5.5,50h10c0.276,0,0.5,0.224,0.5,0.5
		S15.777,51,15.5,51z"/>
	<path style="fill:#FFFFFF;" d="M18.5,51h-1c-0.276,0-0.5-0.224-0.5-0.5s0.224-0.5,0.5-0.5h1c0.276,0,0.5,0.224,0.5,0.5
		S18.777,51,18.5,51z"/>
	<path style="fill:#FFFFFF;" d="M23.491,53H14.5c-0.276,0-0.5-0.224-0.5-0.5s0.224-0.5,0.5-0.5h8.991c0.276,0,0.5,0.224,0.5,0.5
		S23.767,53,23.491,53z"/>
	<path style="fill:#FFFFFF;" d="M12.5,53h-1c-0.276,0-0.5-0.224-0.5-0.5s0.224-0.5,0.5-0.5h1c0.276,0,0.5,0.224,0.5,0.5
		S12.777,53,12.5,53z"/>
	<path style="fill:#FFFFFF;" d="M9.5,53h-2C7.224,53,7,52.776,7,52.5S7.224,52,7.5,52h2c0.276,0,0.5,0.224,0.5,0.5S9.777,53,9.5,53z
		"/>
	<path style="fill:#FFFFFF;" d="M15.5,55h-2c-0.276,0-0.5-0.224-0.5-0.5s0.224-0.5,0.5-0.5h2c0.276,0,0.5,0.224,0.5,0.5
		S15.776,55,15.5,55z"/>
	<path style="fill:#FFFFFF;" d="M18.5,46c-0.177,0-0.823,0-1,0c-0.276,0-0.5,0.224-0.5,0.5c0,0.276,0.224,0.5,0.5,0.5
		c0.177,0,0.823,0,1,0c0.276,0,0.5-0.224,0.5-0.5C19,46.224,18.776,46,18.5,46z"/>
	<path style="fill:#FFFFFF;" d="M18.5,48c-0.177,0-4.823,0-5,0c-0.276,0-0.5,0.224-0.5,0.5c0,0.276,0.224,0.5,0.5,0.5
		c0.177,0,4.823,0,5,0c0.276,0,0.5-0.224,0.5-0.5C19,48.224,18.776,48,18.5,48z"/>
	<path style="fill:#FFFFFF;" d="M23.5,50c-0.177,0-2.823,0-3,0c-0.276,0-0.5,0.224-0.5,0.5c0,0.276,0.224,0.5,0.5,0.5
		c0.177,0,2.823,0,3,0c0.276,0,0.5-0.224,0.5-0.5C24,50.224,23.776,50,23.5,50z"/>
</g>
<g>
	<path style="fill:#FFFFFF;" d="M72.5,24h-10c-0.276,0-0.5-0.224-0.5-0.5s0.224-0.5,0.5-0.5h10c0.276,0,0.5,0.224,0.5,0.5
		S72.776,24,72.5,24z"/>
	<path style="fill:#FFFFFF;" d="M76.5,24h-2c-0.276,0-0.5-0.224-0.5-0.5s0.224-0.5,0.5-0.5h2c0.276,0,0.5,0.224,0.5,0.5
		S76.776,24,76.5,24z"/>
	<path style="fill:#FFFFFF;" d="M81.5,26h-10c-0.276,0-0.5-0.224-0.5-0.5s0.224-0.5,0.5-0.5h10c0.276,0,0.5,0.224,0.5,0.5
		S81.777,26,81.5,26z"/>
	<path style="fill:#FFFFFF;" d="M69.5,26h-1c-0.276,0-0.5-0.224-0.5-0.5s0.224-0.5,0.5-0.5h1c0.276,0,0.5,0.224,0.5,0.5
		S69.776,26,69.5,26z"/>
	<path style="fill:#FFFFFF;" d="M66.47,26H64.5c-0.276,0-0.5-0.224-0.5-0.5s0.224-0.5,0.5-0.5h1.97c0.276,0,0.5,0.224,0.5,0.5
		S66.746,26,66.47,26z"/>
	<path style="fill:#FFFFFF;" d="M75.5,22h-5c-0.276,0-0.5-0.224-0.5-0.5s0.224-0.5,0.5-0.5h5c0.276,0,0.5,0.224,0.5,0.5
		S75.777,22,75.5,22z"/>
	<path style="fill:#FFFFFF;" d="M72.5,28h-2c-0.276,0-0.5-0.224-0.5-0.5s0.224-0.5,0.5-0.5h2c0.276,0,0.5,0.224,0.5,0.5
		S72.776,28,72.5,28z"/>
</g>
<g>
	<path style="fill:#F9C941;" d="M70,74.844l-3.188-18.842l13.521-13.359c0.155-0.153,0.207-0.366,0.139-0.572
		c-0.068-0.207-0.236-0.349-0.451-0.38l-18.678-2.751l-8.338-17.125C52.908,21.618,52.72,21.5,52.5,21.5s-0.408,0.118-0.504,0.315
		l-8.338,17.125L24.98,41.69c-0.215,0.032-0.383,0.174-0.451,0.38c-0.067,0.206-0.016,0.419,0.139,0.572l13.521,13.359L35,74.844
		c-0.037,0.215,0.047,0.42,0.225,0.547c0.178,0.128,0.399,0.143,0.591,0.04l16.684-8.89l16.684,8.89
		c0.193,0.103,0.414,0.088,0.591-0.04C69.952,75.264,70.036,75.06,70,74.844z"/>
	<path style="fill:#F8E55B;" d="M35.614,75.612L52.5,66.605V50.537L35.355,75.321C35.236,75.494,35.429,75.71,35.614,75.612z"/>
	<path style="fill:#F8E55B;" d="M43.693,47.38l-2.049-0.613l-0.152,0.476l-1.908-0.571l0.177-0.462l-4.117-1.239l-0.183,0.467
		l-10.693-3.2c-0.2-0.06-0.346,0.187-0.198,0.334l13.68,13.529l14.25-5.564l-8.936-2.674L43.693,47.38z"/>
	<path style="fill:#F8E55B;" d="M80.109,41.877l-18.802-2.772L52.5,50.537l11.011-3.295l-0.154-0.476l2-0.599l0.163,0.473
		l1.999-0.599l-0.162-0.473l3-0.897l0.172,0.471l9.609-2.876C80.342,42.205,80.321,41.908,80.109,41.877z"/>
	<path style="fill:#F8E55B;" d="M52.12,21.781l-8.427,17.324L52.5,50.537V21.868C52.5,21.656,52.213,21.59,52.12,21.781z"/>
	<path style="fill:#F8E55B;" d="M60.364,62.785l2.767,4l0.394-0.279l6.077,8.755c0.122,0.176,0.397,0.064,0.362-0.147L66.75,56.101
		L52.5,50.537l8.28,11.969L60.364,62.785z"/>
	<path style="fill:#472B29;" d="M35.502,75.609c-0.098,0-0.197-0.029-0.284-0.089c-0.227-0.157-0.284-0.468-0.126-0.696
		l16.998-24.572c0.157-0.227,0.467-0.284,0.696-0.126c0.227,0.157,0.284,0.468,0.126,0.696L35.914,75.394
		C35.816,75.534,35.661,75.609,35.502,75.609z"/>
	<path style="fill:#472B29;" d="M52.5,22.836l7.918,16.26l0.324,0.664l0.731,0.108l17.743,2.613L66.364,55.179l-0.518,0.512
		l0.121,0.718l3.03,17.905l-15.839-8.44L52.5,65.522l-0.658,0.351l-15.839,8.44l3.03-17.905l0.121-0.718l-0.518-0.512L25.785,42.482
		l17.743-2.613l0.731-0.108l0.324-0.664L52.5,22.836 M52.5,21c-0.38,0-0.76,0.199-0.954,0.596l-8.223,16.887l-18.417,2.712
		c-0.865,0.127-1.213,1.188-0.591,1.803l13.336,13.176l-3.145,18.586C34.391,75.446,34.936,76,35.553,76
		c0.165,0,0.335-0.04,0.499-0.127L52.5,67.108l16.448,8.765C69.112,75.96,69.282,76,69.447,76c0.617,0,1.162-0.554,1.046-1.239
		l-3.145-18.586l13.336-13.176c0.622-0.615,0.274-1.675-0.591-1.803l-18.417-2.712l-8.223-16.887C53.26,21.199,52.88,21,52.5,21
		L52.5,21z"/>
	<rect x="52" y="22.019" style="fill:#472B29;" width="1" height="28.519"/>
	
		<rect x="49.688" y="44.321" transform="matrix(0.6104 -0.7921 0.7921 0.6104 -13.3332 62.5336)" style="fill:#472B29;" width="14.431" height="1"/>
	
		<rect x="47.596" y="37.605" transform="matrix(0.7922 -0.6103 0.6103 0.7922 -17.3583 38.6671)" style="fill:#472B29;" width="1" height="14.431"/>
	
		<rect x="37.726" y="52.819" transform="matrix(0.9317 -0.3633 0.3633 0.9317 -16.2702 20.1275)" style="fill:#472B29;" width="15.298" height="1"/>
	<rect x="52" y="50.537" style="fill:#472B29;" width="1" height="15.405"/>
	
		<rect x="59.125" y="45.67" transform="matrix(0.3637 -0.9315 0.9315 0.3637 -11.7274 89.4696)" style="fill:#472B29;" width="1" height="15.298"/>
	<path style="fill:#472B29;" d="M70.5,45.65c-0.215,0-0.414-0.14-0.479-0.356c-0.079-0.265,0.071-0.543,0.335-0.623l9.653-2.889
		c0.265-0.08,0.543,0.072,0.623,0.335c0.079,0.265-0.071,0.543-0.335,0.623l-9.653,2.889C70.596,45.644,70.547,45.65,70.5,45.65z"/>
	<path style="fill:#472B29;" d="M52.5,51.037c-0.215,0-0.414-0.14-0.479-0.356c-0.079-0.265,0.071-0.543,0.335-0.623l11-3.292
		c0.266-0.08,0.543,0.071,0.623,0.335c0.079,0.265-0.071,0.543-0.335,0.623l-11,3.292C52.596,51.03,52.547,51.037,52.5,51.037z"/>
	<path style="fill:#472B29;" d="M65.5,47.146c-0.215,0-0.414-0.14-0.479-0.356c-0.079-0.265,0.071-0.543,0.335-0.623l2-0.599
		c0.266-0.08,0.543,0.071,0.623,0.335c0.079,0.265-0.071,0.543-0.335,0.623l-2,0.599C65.596,47.14,65.547,47.146,65.5,47.146z"/>
	<path style="fill:#472B29;" d="M69.498,75.609c-0.159,0-0.314-0.075-0.412-0.215l-5.955-8.609
		c-0.157-0.228-0.101-0.539,0.126-0.696c0.228-0.158,0.539-0.101,0.696,0.126l5.955,8.609c0.157,0.228,0.101,0.539-0.126,0.696
		C69.695,75.58,69.596,75.609,69.498,75.609z"/>
	<path style="fill:#472B29;" d="M60.776,63c-0.159,0-0.314-0.075-0.412-0.215l-8.275-11.963c-0.157-0.228-0.101-0.539,0.126-0.696
		c0.227-0.158,0.538-0.101,0.696,0.126l8.275,11.963c0.157,0.228,0.101,0.539-0.126,0.696C60.973,62.971,60.874,63,60.776,63z"/>
	<path style="fill:#472B29;" d="M52.5,51.037c-0.047,0-0.096-0.007-0.144-0.021l-9-2.693c-0.264-0.079-0.415-0.358-0.335-0.623
		c0.079-0.264,0.357-0.416,0.623-0.335l9,2.693c0.264,0.079,0.415,0.358,0.335,0.623C52.914,50.897,52.715,51.037,52.5,51.037z"/>
	<path style="fill:#472B29;" d="M35.5,45.95c-0.047,0-0.096-0.007-0.144-0.021l-10.482-3.137c-0.264-0.079-0.415-0.358-0.335-0.623
		c0.08-0.264,0.356-0.415,0.623-0.335l10.482,3.137c0.264,0.079,0.415,0.358,0.335,0.623C35.914,45.81,35.715,45.95,35.5,45.95z"/>
	<path style="fill:#472B29;" d="M41.5,47.745c-0.047,0-0.096-0.007-0.144-0.021l-2-0.599c-0.264-0.079-0.415-0.358-0.335-0.623
		c0.079-0.264,0.357-0.416,0.623-0.335l2,0.599c0.264,0.079,0.415,0.358,0.335,0.623C41.914,47.605,41.715,47.745,41.5,47.745z"/>
</g>
<g>
	<path style="fill:#FDFCEF;" d="M36.5,77.5c0,0,1.567,0,3.5,0s3.5-1.567,3.5-3.5c0-1.781-1.335-3.234-3.055-3.455
		C40.473,70.366,40.5,70.187,40.5,70c0-1.933-1.567-3.5-3.5-3.5c-1.032,0-1.95,0.455-2.59,1.165
		c-0.384-1.808-1.987-3.165-3.91-3.165c-2.209,0-4,1.791-4,4c0,0.191,0.03,0.374,0.056,0.558C26.128,68.714,25.592,68.5,25,68.5
		c-1.228,0-2.245,0.887-2.455,2.055C22.366,70.527,22.187,70.5,22,70.5c-1.933,0-3.5,1.567-3.5,3.5s1.567,3.5,3.5,3.5s7.5,0,7.5,0
		V78h7V77.5z"/>
	<path style="fill:#472B29;" d="M38.25,73C38.112,73,38,72.888,38,72.75c0-1.223,0.995-2.218,2.218-2.218
		c0.034,0.009,0.737-0.001,1.244,0.136c0.133,0.036,0.212,0.173,0.176,0.306c-0.036,0.134-0.173,0.213-0.306,0.176
		c-0.444-0.12-1.1-0.12-1.113-0.118c-0.948,0-1.719,0.771-1.719,1.718C38.5,72.888,38.388,73,38.25,73z"/>
	<circle style="fill:#472B29;" cx="31.5" cy="77.5" r="0.5"/>
	<path style="fill:#472B29;" d="M40,78h-3.5c-0.276,0-0.5-0.224-0.5-0.5s0.224-0.5,0.5-0.5H40c1.654,0,3-1.346,3-3
		c0-1.496-1.125-2.768-2.618-2.959c-0.134-0.018-0.255-0.088-0.336-0.196s-0.115-0.244-0.094-0.377C39.975,70.314,40,70.16,40,70
		c0-1.654-1.346-3-3-3c-0.85,0-1.638,0.355-2.219,1c-0.125,0.139-0.321,0.198-0.5,0.148c-0.182-0.049-0.321-0.195-0.36-0.379
		C33.58,66.165,32.141,65,30.5,65c-1.93,0-3.5,1.57-3.5,3.5c0,0.143,0.021,0.28,0.041,0.418c0.029,0.203-0.063,0.438-0.242,0.54
		c-0.179,0.102-0.396,0.118-0.556-0.01C25.878,69.155,25.449,69,25,69c-0.966,0-1.792,0.691-1.963,1.644
		c-0.048,0.267-0.296,0.446-0.569,0.405C22.314,71.025,22.16,71,22,71c-1.654,0-3,1.346-3,3s1.346,3,3,3h7.5
		c0.276,0,0.5,0.224,0.5,0.5S29.776,78,29.5,78H22c-2.206,0-4-1.794-4-4s1.794-4,4-4c0.059,0,0.116,0.002,0.174,0.006
		C22.588,68.82,23.711,68,25,68c0.349,0,0.689,0.061,1.011,0.18C26.176,65.847,28.126,64,30.5,64c1.831,0,3.466,1.127,4.153,2.774
		C35.333,66.276,36.155,66,37,66c2.206,0,4,1.794,4,4c0,0.048-0.001,0.095-0.004,0.142C42.739,70.59,44,72.169,44,74
		C44,76.206,42.206,78,40,78z"/>
	<path style="fill:#472B29;" d="M34.5,77c-0.159,0-0.841,0-1,0c-0.276,0-0.5,0.224-0.5,0.5c0,0.276,0.224,0.5,0.5,0.5
		c0.159,0,0.841,0,1,0c0.276,0,0.5-0.224,0.5-0.5C35,77.224,34.776,77,34.5,77z"/>
</g>
</svg>
