<?xml version="1.0" encoding="iso-8859-1"?>
<!-- Generator: Adobe Illustrator 22.1.0, SVG Export Plug-In . SVG Version: 6.00 Build 0)  -->
<svg version="1.1" id="Layer_1" xmlns="http://www.w3.org/2000/svg" xmlns:xlink="http://www.w3.org/1999/xlink" x="0px" y="0px"
	 viewBox="0 0 100 100" style="enable-background:new 0 0 100 100;" xml:space="preserve">
<path style="fill:#C7EDE6;" d="M87.215,56.71C88.35,54.555,89,52.105,89,49.5c0-6.621-4.159-12.257-10.001-14.478
	C78.999,35.015,79,35.008,79,35c0-11.598-9.402-21-21-21c-9.784,0-17.981,6.701-20.313,15.757C36.211,29.272,34.638,29,33,29
	c-7.692,0-14.023,5.793-14.89,13.252C12.906,43.353,9,47.969,9,53.5C9,59.851,14.149,65,20.5,65c0.177,0,0.352-0.012,0.526-0.022
	C21.022,65.153,21,65.324,21,65.5C21,76.822,30.178,86,41.5,86c6.437,0,12.175-2.972,15.934-7.614C59.612,80.611,62.64,82,66,82
	c4.65,0,8.674-2.65,10.666-6.518C77.718,75.817,78.837,76,80,76c6.075,0,11-4.925,11-11C91,61.689,89.53,58.727,87.215,56.71z"/>
<g>
	<path style="fill:#FDFCEF;" d="M38.5,73.5V74h3v-0.5c0,0,4.242,0,5.5,0c2.485,0,4.5-2.015,4.5-4.5c0-2.333-1.782-4.229-4.055-4.455
		C47.467,64.364,47.5,64.187,47.5,64c0-2.485-2.015-4.5-4.5-4.5c-1.438,0-2.703,0.686-3.527,1.736
		C39.333,58.6,37.171,56.5,34.5,56.5c-2.761,0-5,2.239-5,5c0,0.446,0.077,0.87,0.187,1.282C29.045,62.005,28.086,61.5,27,61.5
		c-1.781,0-3.234,1.335-3.455,3.055C23.364,64.533,23.187,64.5,23,64.5c-2.485,0-4.5,2.015-4.5,4.5s2.015,4.5,4.5,4.5s9.5,0,9.5,0
		H38.5z"/>
	<path style="fill:#472B29;" d="M34.5,56c-3.033,0-5.5,2.467-5.5,5.5c0,0.016,0,0.031,0,0.047C28.398,61.192,27.71,61,27,61
		c-1.831,0-3.411,1.261-3.858,3.005C23.095,64.002,23.048,64,23,64c-2.757,0-5,2.243-5,5s2.243,5,5,5h15.5
		c0.276,0,0.5-0.224,0.5-0.5S38.776,73,38.5,73H23c-2.206,0-4-1.794-4-4s1.794-4,4-4c0.117,0,0.23,0.017,0.343,0.032l0.141,0.019
		c0.021,0.003,0.041,0.004,0.062,0.004c0.246,0,0.462-0.185,0.495-0.437C24.232,63.125,25.504,62,27,62
		c0.885,0,1.723,0.401,2.301,1.1c0.098,0.118,0.241,0.182,0.386,0.182c0.078,0,0.156-0.018,0.228-0.056
		c0.209-0.107,0.314-0.346,0.254-0.573C30.054,62.218,30,61.852,30,61.5c0-2.481,2.019-4.5,4.5-4.5c2.381,0,4.347,1.872,4.474,4.263
		c0.011,0.208,0.15,0.387,0.349,0.45c0.05,0.016,0.101,0.024,0.152,0.024c0.15,0,0.296-0.069,0.392-0.192
		C40.638,60.563,41.779,60,43,60c2.206,0,4,1.794,4,4c0,0.117-0.017,0.23-0.032,0.343l-0.019,0.141
		c-0.016,0.134,0.022,0.268,0.106,0.373c0.084,0.105,0.207,0.172,0.34,0.185C49.451,65.247,51,66.949,51,69c0,2.206-1.794,4-4,4
		h-5.5c-0.276,0-0.5,0.224-0.5,0.5s0.224,0.5,0.5,0.5H47c2.757,0,5-2.243,5-5c0-2.397-1.689-4.413-4.003-4.877
		C47.999,64.082,48,64.041,48,64c0-2.757-2.243-5-5-5c-1.176,0-2.293,0.416-3.183,1.164C39.219,57.76,37.055,56,34.5,56L34.5,56z"/>
	<path style="fill:#472B29;" d="M33,63c-1.403,0-2.609,0.999-2.913,2.341C29.72,65.119,29.301,65,28.875,65
		c-1.202,0-2.198,0.897-2.353,2.068C26.319,67.022,26.126,67,25.937,67c-1.529,0-2.811,1.2-2.918,2.732
		C23.01,69.87,23.114,69.99,23.251,70c0.006,0,0.012,0,0.018,0c0.13,0,0.24-0.101,0.249-0.232c0.089-1.271,1.151-2.268,2.419-2.268
		c0.229,0,0.47,0.042,0.738,0.127c0.022,0.007,0.045,0.01,0.067,0.01c0.055,0,0.11-0.02,0.156-0.054
		C26.962,67.537,27,67.455,27,67.375c0-1.034,0.841-1.875,1.875-1.875c0.447,0,0.885,0.168,1.231,0.473
		c0.047,0.041,0.106,0.063,0.165,0.063c0.032,0,0.063-0.006,0.093-0.019c0.088-0.035,0.148-0.117,0.155-0.212
		C30.623,64.512,31.712,63.5,33,63.5c0.208,0,0.425,0.034,0.682,0.107c0.023,0.007,0.047,0.01,0.07,0.01
		c0.109,0,0.207-0.073,0.239-0.182c0.038-0.133-0.039-0.271-0.172-0.309C33.517,63.04,33.256,63,33,63L33,63z"/>
	<path style="fill:#472B29;" d="M46.883,64.5c-1.326,0-2.508,0.897-2.874,2.182c-0.038,0.133,0.039,0.271,0.172,0.309
		C44.205,66.997,44.228,67,44.25,67c0.109,0,0.209-0.072,0.24-0.182C44.795,65.748,45.779,65,46.883,65
		c0.117,0,0.23,0.014,0.342,0.029c0.012,0.002,0.023,0.003,0.035,0.003c0.121,0,0.229-0.092,0.246-0.217
		c0.019-0.137-0.077-0.263-0.214-0.281C47.158,64.516,47.022,64.5,46.883,64.5L46.883,64.5z"/>
</g>
<g>
	<path style="fill:#FFFFFF;" d="M18.5,49h-10C8.224,49,8,48.776,8,48.5S8.224,48,8.5,48h10c0.276,0,0.5,0.224,0.5,0.5
		S18.777,49,18.5,49z"/>
	<path style="fill:#FFFFFF;" d="M21.5,49h-1c-0.276,0-0.5-0.224-0.5-0.5s0.224-0.5,0.5-0.5h1c0.276,0,0.5,0.224,0.5,0.5
		S21.777,49,21.5,49z"/>
	<path style="fill:#FFFFFF;" d="M26.491,51H17.5c-0.276,0-0.5-0.224-0.5-0.5s0.224-0.5,0.5-0.5h8.991c0.276,0,0.5,0.224,0.5,0.5
		S26.767,51,26.491,51z"/>
	<path style="fill:#FFFFFF;" d="M15.5,51h-1c-0.276,0-0.5-0.224-0.5-0.5s0.224-0.5,0.5-0.5h1c0.276,0,0.5,0.224,0.5,0.5
		S15.777,51,15.5,51z"/>
	<path style="fill:#FFFFFF;" d="M12.5,51h-2c-0.276,0-0.5-0.224-0.5-0.5s0.224-0.5,0.5-0.5h2c0.276,0,0.5,0.224,0.5,0.5
		S12.777,51,12.5,51z"/>
	<path style="fill:#FFFFFF;" d="M18.5,53h-2c-0.276,0-0.5-0.224-0.5-0.5s0.224-0.5,0.5-0.5h2c0.276,0,0.5,0.224,0.5,0.5
		S18.776,53,18.5,53z"/>
	<path style="fill:#FFFFFF;" d="M21.5,44c-0.177,0-0.823,0-1,0c-0.276,0-0.5,0.224-0.5,0.5c0,0.276,0.224,0.5,0.5,0.5
		c0.177,0,0.823,0,1,0c0.276,0,0.5-0.224,0.5-0.5C22,44.224,21.776,44,21.5,44z"/>
	<path style="fill:#FFFFFF;" d="M21.5,46c-0.177,0-4.823,0-5,0c-0.276,0-0.5,0.224-0.5,0.5c0,0.276,0.224,0.5,0.5,0.5
		c0.177,0,4.823,0,5,0c0.276,0,0.5-0.224,0.5-0.5C22,46.224,21.776,46,21.5,46z"/>
	<path style="fill:#FFFFFF;" d="M26.5,48c-0.177,0-2.823,0-3,0c-0.276,0-0.5,0.224-0.5,0.5c0,0.276,0.224,0.5,0.5,0.5
		c0.177,0,2.823,0,3,0c0.276,0,0.5-0.224,0.5-0.5C27,48.224,26.776,48,26.5,48z"/>
</g>
<g>
	<path style="fill:#FFFFFF;" d="M64.5,18h-10c-0.276,0-0.5-0.224-0.5-0.5s0.224-0.5,0.5-0.5h10c0.276,0,0.5,0.224,0.5,0.5
		S64.776,18,64.5,18z"/>
	<path style="fill:#FFFFFF;" d="M68.5,18h-2c-0.276,0-0.5-0.224-0.5-0.5s0.224-0.5,0.5-0.5h2c0.276,0,0.5,0.224,0.5,0.5
		S68.776,18,68.5,18z"/>
	<path style="fill:#FFFFFF;" d="M73.5,20h-10c-0.276,0-0.5-0.224-0.5-0.5s0.224-0.5,0.5-0.5h10c0.276,0,0.5,0.224,0.5,0.5
		S73.777,20,73.5,20z"/>
	<path style="fill:#FFFFFF;" d="M61.5,20h-1c-0.276,0-0.5-0.224-0.5-0.5s0.224-0.5,0.5-0.5h1c0.276,0,0.5,0.224,0.5,0.5
		S61.776,20,61.5,20z"/>
	<path style="fill:#FFFFFF;" d="M58.47,20H56.5c-0.276,0-0.5-0.224-0.5-0.5s0.224-0.5,0.5-0.5h1.97c0.276,0,0.5,0.224,0.5,0.5
		S58.746,20,58.47,20z"/>
	<path style="fill:#FFFFFF;" d="M67.5,16h-5c-0.276,0-0.5-0.224-0.5-0.5s0.224-0.5,0.5-0.5h5c0.276,0,0.5,0.224,0.5,0.5
		S67.777,16,67.5,16z"/>
	<path style="fill:#FFFFFF;" d="M64.5,22h-2c-0.276,0-0.5-0.224-0.5-0.5s0.224-0.5,0.5-0.5h2c0.276,0,0.5,0.224,0.5,0.5
		S64.776,22,64.5,22z"/>
</g>
<g>
	<path style="fill:#FDFCEF;" d="M77.5,53.5c0,0,1.567,0,3.5,0s3.5-1.567,3.5-3.5c0-1.781-1.335-3.234-3.055-3.455
		C81.473,46.366,81.5,46.187,81.5,46c0-1.933-1.567-3.5-3.5-3.5c-1.032,0-1.95,0.455-2.59,1.165
		c-0.384-1.808-1.987-3.165-3.91-3.165c-2.209,0-4,1.791-4,4c0,0.191,0.03,0.374,0.056,0.558C67.128,44.714,66.592,44.5,66,44.5
		c-1.228,0-2.245,0.887-2.455,2.055C63.366,46.527,63.187,46.5,63,46.5c-1.933,0-3.5,1.567-3.5,3.5s1.567,3.5,3.5,3.5s7.5,0,7.5,0
		V54h7V53.5z"/>
	<path style="fill:#472B29;" d="M79.25,49C79.112,49,79,48.888,79,48.75c0-1.223,0.995-2.218,2.218-2.218
		c0.034,0.009,0.737-0.001,1.244,0.136c0.133,0.036,0.212,0.173,0.176,0.306c-0.036,0.134-0.173,0.213-0.306,0.176
		c-0.444-0.12-1.1-0.12-1.113-0.118c-0.948,0-1.719,0.771-1.719,1.718C79.5,48.888,79.388,49,79.25,49z"/>
	<circle style="fill:#472B29;" cx="72.5" cy="53.5" r="0.5"/>
	<path style="fill:#472B29;" d="M81,54h-3.5c-0.276,0-0.5-0.224-0.5-0.5s0.224-0.5,0.5-0.5H81c1.654,0,3-1.346,3-3
		c0-1.496-1.125-2.768-2.618-2.959c-0.134-0.018-0.255-0.088-0.336-0.196s-0.115-0.244-0.094-0.377C80.975,46.314,81,46.16,81,46
		c0-1.654-1.346-3-3-3c-0.85,0-1.638,0.355-2.219,1c-0.125,0.139-0.321,0.198-0.5,0.148c-0.182-0.049-0.321-0.195-0.36-0.379
		C74.58,42.165,73.141,41,71.5,41c-1.93,0-3.5,1.57-3.5,3.5c0,0.143,0.021,0.28,0.041,0.418c0.029,0.203-0.063,0.438-0.242,0.54
		c-0.179,0.102-0.396,0.118-0.556-0.01C66.878,45.155,66.449,45,66,45c-0.966,0-1.792,0.691-1.963,1.644
		c-0.048,0.267-0.296,0.446-0.569,0.405C63.314,47.025,63.16,47,63,47c-1.654,0-3,1.346-3,3s1.346,3,3,3h7.5
		c0.276,0,0.5,0.224,0.5,0.5S70.776,54,70.5,54H63c-2.206,0-4-1.794-4-4s1.794-4,4-4c0.059,0,0.116,0.002,0.174,0.006
		C63.588,44.82,64.711,44,66,44c0.349,0,0.689,0.061,1.011,0.18C67.176,41.847,69.126,40,71.5,40c1.831,0,3.466,1.127,4.153,2.774
		C76.333,42.276,77.155,42,78,42c2.206,0,4,1.794,4,4c0,0.048-0.001,0.095-0.004,0.142C83.739,46.59,85,48.169,85,50
		C85,52.206,83.206,54,81,54z"/>
	<path style="fill:#472B29;" d="M75.5,53c-0.159,0-0.841,0-1,0c-0.276,0-0.5,0.224-0.5,0.5c0,0.276,0.224,0.5,0.5,0.5
		c0.159,0,0.841,0,1,0c0.276,0,0.5-0.224,0.5-0.5C76,53.224,75.776,53,75.5,53z"/>
</g>
<g>
	<path style="fill:#EE3E54;" d="M59.991,76c-2.506,0-5.032-0.781-7.191-2.4l-12-9c-3.021-2.267-4.8-5.823-4.8-9.6V29H60v20l7.2,5.4
		c5.302,3.977,6.376,11.498,2.399,16.8C67.242,74.343,63.638,76,59.991,76z"/>
	<path style="fill:#678C26;" d="M46.938,64.5l0.457,0.208c0.397-0.65,0.721-1.341,0.974-2.058L47.897,62.5
		c0.227-0.639,0.384-1.31,0.484-2l0.485,0.118C48.945,60.085,49,59.547,49,59c0-0.906-0.122-1.782-0.329-2.625L48.183,56.5
		c-1.121-4.59-5.247-8-10.182-8c-0.466,0-0.925,0.033-1.375,0.093L36,48.705V55c0,3.78,1.78,7.33,4.8,9.6l3.644,2.733l0.557-0.522
		C45.751,66.139,46.405,65.36,46.938,64.5z"/>
	<path style="fill:#472B29;" d="M45,67.312c-0.137,0-0.273-0.056-0.373-0.167c-0.184-0.206-0.167-0.521,0.039-0.706
		c0.719-0.644,1.34-1.385,1.846-2.203c0.146-0.235,0.454-0.308,0.688-0.162s0.307,0.454,0.162,0.688
		c-0.556,0.898-1.239,1.713-2.029,2.421C45.239,67.27,45.12,67.312,45,67.312z"/>
	<path style="fill:#472B29;" d="M47.897,63c-0.056,0-0.112-0.009-0.167-0.029c-0.26-0.092-0.396-0.378-0.304-0.639
		c0.207-0.582,0.361-1.222,0.46-1.904c0.04-0.273,0.294-0.466,0.566-0.423c0.273,0.039,0.463,0.293,0.423,0.566
		c-0.107,0.748-0.278,1.453-0.507,2.096C48.295,62.872,48.103,63,47.897,63z"/>
	<path style="fill:#472B29;" d="M48.183,57c-0.225,0-0.43-0.153-0.485-0.381c-1.196-4.902-5.848-8.216-11.005-7.53
		c-0.277,0.035-0.525-0.156-0.562-0.429c-0.037-0.274,0.156-0.525,0.429-0.562c5.654-0.758,10.793,2.889,12.11,8.284
		c0.065,0.269-0.099,0.539-0.367,0.604C48.262,56.995,48.222,57,48.183,57z"/>
	<path style="fill:#472B29;" d="M58.6,30.4V49c0,0.441,0.208,0.856,0.56,1.12l7.2,5.4c4.675,3.507,5.626,10.164,2.119,14.84
		c-2.021,2.695-5.115,4.24-8.49,4.24c-2.304,0-4.499-0.733-6.349-2.12l-12-9c-2.655-1.992-4.24-5.162-4.24-8.48V30.4H58.6 M60,29
		H36.001v26c0,3.777,1.778,7.333,4.8,9.6l12,9c2.158,1.619,4.684,2.4,7.189,2.4c0.001,0,0.002,0,0.002,0
		c3.647,0,7.251-1.657,9.608-4.8c3.976-5.302,2.902-12.824-2.399-16.8L60,49V29L60,29z"/>
	<path style="fill:#FDFCEF;" d="M55.5,35.243l0.292,0.21c0.944,0.68,2.053,1.039,3.208,1.039c3.033,0,5.5-2.466,5.5-5.497
		S62.032,25.5,59,25.5c-1.155,0-2.264,0.359-3.208,1.039L55.5,26.75l-0.292-0.21c-1.887-1.359-4.527-1.36-6.416,0L48.5,26.75
		l-0.292-0.21c-1.89-1.36-4.529-1.359-6.416,0L41.5,26.75l-0.292-0.21C40.264,25.859,39.155,25.5,38,25.5
		c-3.033,0-5.5,2.465-5.5,5.496s2.467,5.497,5.5,5.497c1.155,0,2.264-0.359,3.208-1.039l0.292-0.21l0.292,0.21
		c1.887,1.359,4.527,1.36,6.416,0l0.292-0.21l0.292,0.21c1.888,1.359,4.528,1.358,6.416,0L55.5,35.243z"/>
	<path style="fill:#472B29;" d="M59,26.4c2.537,0,4.6,2.062,4.6,4.596s-2.064,4.596-4.6,4.596c-0.965,0-1.892-0.301-2.682-0.869
		c-0.244-0.176-0.531-0.264-0.818-0.264c-0.287,0-0.574,0.088-0.818,0.264c-0.79,0.569-1.717,0.869-2.682,0.869
		s-1.892-0.301-2.682-0.869c-0.244-0.176-0.531-0.264-0.818-0.264s-0.574,0.088-0.818,0.264c-0.79,0.569-1.717,0.869-2.682,0.869
		s-1.892-0.301-2.682-0.869c-0.244-0.176-0.531-0.264-0.818-0.264s-0.574,0.088-0.818,0.264c-0.79,0.569-1.717,0.869-2.682,0.869
		c-2.537,0-4.6-2.062-4.6-4.596S35.464,26.4,38,26.4c0.965,0,1.892,0.301,2.682,0.869c0.244,0.176,0.531,0.264,0.818,0.264
		s0.574-0.088,0.818-0.264C43.108,26.701,44.035,26.4,45,26.4s1.892,0.301,2.682,0.869c0.244,0.176,0.531,0.264,0.818,0.264
		s0.574-0.088,0.818-0.264C50.108,26.701,51.035,26.4,52,26.4s1.892,0.301,2.682,0.869c0.244,0.176,0.531,0.264,0.818,0.264
		s0.574-0.088,0.818-0.264C57.107,26.701,58.035,26.4,59,26.4 M59,25c-1.308,0-2.514,0.423-3.5,1.133C54.514,25.423,53.307,25,52,25
		c-1.307,0-2.514,0.423-3.5,1.133C47.514,25.423,46.307,25,45,25c-1.307,0-2.514,0.423-3.5,1.133C40.514,25.423,39.308,25,38,25
		c-3.313,0-6,2.686-6,5.996s2.688,5.996,6,5.996c1.308,0,2.514-0.423,3.5-1.133c0.986,0.71,2.192,1.133,3.5,1.133
		c1.308,0,2.514-0.423,3.5-1.133c0.986,0.71,2.192,1.133,3.5,1.133c1.308,0,2.514-0.423,3.5-1.133c0.986,0.71,2.192,1.133,3.5,1.133
		c3.313,0,6-2.686,6-5.996S62.312,25,59,25L59,25z"/>
</g>
</svg>
