<?xml version="1.0" encoding="iso-8859-1"?>
<!-- Generator: Adobe Illustrator 22.1.0, SVG Export Plug-In . SVG Version: 6.00 Build 0)  -->
<svg version="1.1" id="Layer_1" xmlns="http://www.w3.org/2000/svg" xmlns:xlink="http://www.w3.org/1999/xlink" x="0px" y="0px"
	 viewBox="0 0 100 100" style="enable-background:new 0 0 100 100;" xml:space="preserve">
<path style="fill:#C7EDE6;" d="M87.215,56.71C88.35,54.555,89,52.105,89,49.5c0-6.621-4.159-12.257-10.001-14.478
	C78.999,35.015,79,35.008,79,35c0-11.598-9.402-21-21-21c-9.784,0-17.981,6.701-20.313,15.757C36.211,29.272,34.638,29,33,29
	c-7.692,0-14.023,5.793-14.89,13.252C12.906,43.353,9,47.969,9,53.5C9,59.851,14.149,65,20.5,65c0.177,0,0.352-0.012,0.526-0.022
	C21.022,65.153,21,65.324,21,65.5C21,76.822,30.178,86,41.5,86c6.437,0,12.175-2.972,15.934-7.614C59.612,80.611,62.64,82,66,82
	c4.65,0,8.674-2.65,10.666-6.518C77.718,75.817,78.837,76,80,76c6.075,0,11-4.925,11-11C91,61.689,89.53,58.727,87.215,56.71z"/>
<g>
	<path style="fill:#FDFCEF;" d="M77.5,60.5V61h3v-0.5c0,0,4.242,0,5.5,0c2.485,0,4.5-2.015,4.5-4.5c0-2.333-1.782-4.229-4.055-4.455
		C86.467,51.364,86.5,51.187,86.5,51c0-2.485-2.015-4.5-4.5-4.5c-1.438,0-2.703,0.686-3.527,1.736
		C78.333,45.6,76.171,43.5,73.5,43.5c-2.761,0-5,2.239-5,5c0,0.446,0.077,0.87,0.187,1.282C68.045,49.005,67.086,48.5,66,48.5
		c-1.781,0-3.234,1.335-3.455,3.055C62.364,51.533,62.187,51.5,62,51.5c-2.485,0-4.5,2.015-4.5,4.5s2.015,4.5,4.5,4.5s9.5,0,9.5,0
		H77.5z"/>
	<path style="fill:#472B29;" d="M73.5,43c-3.033,0-5.5,2.467-5.5,5.5c0,0.016,0,0.031,0,0.047C67.398,48.192,66.71,48,66,48
		c-1.831,0-3.411,1.261-3.858,3.005C62.095,51.002,62.048,51,62,51c-2.757,0-5,2.243-5,5s2.243,5,5,5h15.5
		c0.276,0,0.5-0.224,0.5-0.5S77.776,60,77.5,60H62c-2.206,0-4-1.794-4-4s1.794-4,4-4c0.117,0,0.23,0.017,0.343,0.032l0.141,0.019
		c0.021,0.003,0.041,0.004,0.062,0.004c0.246,0,0.462-0.185,0.495-0.437C63.232,50.125,64.504,49,66,49
		c0.885,0,1.723,0.401,2.301,1.1c0.098,0.118,0.241,0.182,0.386,0.182c0.078,0,0.156-0.018,0.228-0.056
		c0.209-0.107,0.314-0.346,0.254-0.573C69.054,49.218,69,48.852,69,48.5c0-2.481,2.019-4.5,4.5-4.5c2.381,0,4.347,1.872,4.474,4.263
		c0.011,0.208,0.15,0.387,0.349,0.45c0.05,0.016,0.101,0.024,0.152,0.024c0.15,0,0.296-0.069,0.392-0.192
		C79.638,47.563,80.779,47,82,47c2.206,0,4,1.794,4,4c0,0.117-0.017,0.23-0.032,0.343l-0.019,0.141
		c-0.016,0.134,0.022,0.268,0.106,0.373c0.084,0.105,0.207,0.172,0.34,0.185C88.451,52.247,90,53.949,90,56c0,2.206-1.794,4-4,4
		h-5.5c-0.276,0-0.5,0.224-0.5,0.5s0.224,0.5,0.5,0.5H86c2.757,0,5-2.243,5-5c0-2.397-1.689-4.413-4.003-4.877
		C86.999,51.082,87,51.041,87,51c0-2.757-2.243-5-5-5c-1.176,0-2.293,0.416-3.183,1.164C78.219,44.76,76.055,43,73.5,43L73.5,43z"/>
	<path style="fill:#472B29;" d="M72,50c-1.403,0-2.609,0.999-2.913,2.341C68.72,52.119,68.301,52,67.875,52
		c-1.202,0-2.198,0.897-2.353,2.068C65.319,54.022,65.126,54,64.938,54c-1.529,0-2.811,1.2-2.918,2.732
		C62.01,56.87,62.114,56.99,62.251,57c0.006,0,0.012,0,0.018,0c0.13,0,0.24-0.101,0.249-0.232c0.089-1.271,1.151-2.268,2.419-2.268
		c0.229,0,0.47,0.042,0.738,0.127c0.022,0.007,0.045,0.01,0.067,0.01c0.055,0,0.11-0.02,0.156-0.054
		C65.962,54.537,66,54.455,66,54.375c0-1.034,0.841-1.875,1.875-1.875c0.447,0,0.885,0.168,1.231,0.473
		c0.047,0.041,0.106,0.063,0.165,0.063c0.032,0,0.063-0.006,0.093-0.019c0.088-0.035,0.148-0.117,0.155-0.212
		C69.623,51.512,70.712,50.5,72,50.5c0.208,0,0.425,0.034,0.682,0.107c0.023,0.007,0.047,0.01,0.07,0.01
		c0.109,0,0.207-0.073,0.239-0.182c0.038-0.133-0.039-0.271-0.172-0.309C72.517,50.04,72.256,50,72,50L72,50z"/>
	<path style="fill:#472B29;" d="M85.883,51.5c-1.326,0-2.508,0.897-2.874,2.182c-0.038,0.133,0.039,0.271,0.172,0.309
		C83.205,53.997,83.228,54,83.25,54c0.109,0,0.209-0.072,0.24-0.182C83.795,52.748,84.779,52,85.883,52
		c0.117,0,0.23,0.014,0.342,0.029c0.012,0.002,0.023,0.003,0.035,0.003c0.121,0,0.229-0.092,0.246-0.217
		c0.019-0.137-0.077-0.263-0.214-0.281C86.158,51.516,86.022,51.5,85.883,51.5L85.883,51.5z"/>
</g>
<g>
	<path style="fill:#FFFFFF;" d="M15.5,51h-10C5.224,51,5,50.776,5,50.5S5.224,50,5.5,50h10c0.276,0,0.5,0.224,0.5,0.5
		S15.777,51,15.5,51z"/>
	<path style="fill:#FFFFFF;" d="M18.5,51h-1c-0.276,0-0.5-0.224-0.5-0.5s0.224-0.5,0.5-0.5h1c0.276,0,0.5,0.224,0.5,0.5
		S18.777,51,18.5,51z"/>
	<path style="fill:#FFFFFF;" d="M23.491,53H14.5c-0.276,0-0.5-0.224-0.5-0.5s0.224-0.5,0.5-0.5h8.991c0.276,0,0.5,0.224,0.5,0.5
		S23.767,53,23.491,53z"/>
	<path style="fill:#FFFFFF;" d="M12.5,53h-1c-0.276,0-0.5-0.224-0.5-0.5s0.224-0.5,0.5-0.5h1c0.276,0,0.5,0.224,0.5,0.5
		S12.777,53,12.5,53z"/>
	<path style="fill:#FFFFFF;" d="M9.5,53h-2C7.224,53,7,52.776,7,52.5S7.224,52,7.5,52h2c0.276,0,0.5,0.224,0.5,0.5S9.777,53,9.5,53z
		"/>
	<path style="fill:#FFFFFF;" d="M15.5,55h-2c-0.276,0-0.5-0.224-0.5-0.5s0.224-0.5,0.5-0.5h2c0.276,0,0.5,0.224,0.5,0.5
		S15.776,55,15.5,55z"/>
	<path style="fill:#FFFFFF;" d="M18.5,46c-0.177,0-0.823,0-1,0c-0.276,0-0.5,0.224-0.5,0.5c0,0.276,0.224,0.5,0.5,0.5
		c0.177,0,0.823,0,1,0c0.276,0,0.5-0.224,0.5-0.5C19,46.224,18.776,46,18.5,46z"/>
	<path style="fill:#FFFFFF;" d="M18.5,48c-0.177,0-4.823,0-5,0c-0.276,0-0.5,0.224-0.5,0.5c0,0.276,0.224,0.5,0.5,0.5
		c0.177,0,4.823,0,5,0c0.276,0,0.5-0.224,0.5-0.5C19,48.224,18.776,48,18.5,48z"/>
	<path style="fill:#FFFFFF;" d="M23.5,50c-0.177,0-2.823,0-3,0c-0.276,0-0.5,0.224-0.5,0.5c0,0.276,0.224,0.5,0.5,0.5
		c0.177,0,2.823,0,3,0c0.276,0,0.5-0.224,0.5-0.5C24,50.224,23.776,50,23.5,50z"/>
</g>
<g>
	<path style="fill:#FFFFFF;" d="M72.5,24h-10c-0.276,0-0.5-0.224-0.5-0.5s0.224-0.5,0.5-0.5h10c0.276,0,0.5,0.224,0.5,0.5
		S72.776,24,72.5,24z"/>
	<path style="fill:#FFFFFF;" d="M76.5,24h-2c-0.276,0-0.5-0.224-0.5-0.5s0.224-0.5,0.5-0.5h2c0.276,0,0.5,0.224,0.5,0.5
		S76.776,24,76.5,24z"/>
	<path style="fill:#FFFFFF;" d="M81.5,26h-10c-0.276,0-0.5-0.224-0.5-0.5s0.224-0.5,0.5-0.5h10c0.276,0,0.5,0.224,0.5,0.5
		S81.777,26,81.5,26z"/>
	<path style="fill:#FFFFFF;" d="M69.5,26h-1c-0.276,0-0.5-0.224-0.5-0.5s0.224-0.5,0.5-0.5h1c0.276,0,0.5,0.224,0.5,0.5
		S69.776,26,69.5,26z"/>
	<path style="fill:#FFFFFF;" d="M66.47,26H64.5c-0.276,0-0.5-0.224-0.5-0.5s0.224-0.5,0.5-0.5h1.97c0.276,0,0.5,0.224,0.5,0.5
		S66.746,26,66.47,26z"/>
	<path style="fill:#FFFFFF;" d="M75.5,22h-5c-0.276,0-0.5-0.224-0.5-0.5s0.224-0.5,0.5-0.5h5c0.276,0,0.5,0.224,0.5,0.5
		S75.777,22,75.5,22z"/>
	<path style="fill:#FFFFFF;" d="M72.5,28h-2c-0.276,0-0.5-0.224-0.5-0.5s0.224-0.5,0.5-0.5h2c0.276,0,0.5,0.224,0.5,0.5
		S72.776,28,72.5,28z"/>
</g>
<g>
	<g>
		<path style="fill:#678C26;" d="M52,29.797l11.782,14.608c-0.313,0.204-0.828,0.503-1.578,0.83l-1.202,0.524l0.823,1.021
			l6.975,8.648c-0.293,0.216-0.783,0.538-1.508,0.899l-1.123,0.558l0.794,0.97l7.834,9.575C73.394,68.469,67.481,72,52,72
			s-21.394-3.531-22.797-4.57l7.834-9.575l0.794-0.97l-1.123-0.558c-0.725-0.361-1.215-0.682-1.508-0.898l6.975-8.649l0.823-1.021
			l-1.202-0.524c-0.753-0.328-1.268-0.628-1.578-0.829L52,29.797"/>
		<path style="fill:#472B29;" d="M52,30.434l11.185,13.868c-0.285,0.164-0.66,0.359-1.133,0.565L60.37,45.6l1.151,1.428l6.696,8.313
			c-0.274,0.178-0.64,0.393-1.109,0.626l-1.572,0.782l1.112,1.359l7.566,9.242C72.38,68.559,66.342,71.6,52,71.6
			c-14.344,0-20.382-3.042-22.214-4.25l7.563-9.244l1.111-1.358l-1.571-0.782c-0.467-0.233-0.832-0.447-1.105-0.624l6.702-8.31
			l1.153-1.429l-1.683-0.733c-0.477-0.208-0.854-0.404-1.139-0.567L52,30.434 M52,28.511c-0.152,0-0.304,0.063-0.398,0.188
			l-12.5,15.5c-0.151,0.199-0.132,0.479,0.045,0.655c0.093,0.093,0.796,0.667,2.25,1.299l-7.295,9.045
			c-0.151,0.199-0.132,0.479,0.045,0.655c0.063,0.063,0.684,0.652,2.119,1.366l-8.161,9.975c-0.153,0.199-0.135,0.481,0.042,0.659
			C28.356,68.063,33.505,73,52,73s23.644-4.937,23.854-5.146c0.178-0.178,0.196-0.46,0.042-0.659l-8.164-9.974
			c1.437-0.715,2.059-1.304,2.122-1.367c0.177-0.177,0.196-0.456,0.045-0.655l-7.288-9.048c1.449-0.632,2.15-1.204,2.243-1.297
			c0.177-0.177,0.196-0.456,0.045-0.655l-12.5-15.5C52.304,28.573,52.152,28.511,52,28.511L52,28.511z"/>
		<path style="fill:#472B29;" d="M41.5,58.482c-0.036,0-0.072-0.004-0.109-0.012c-3.861-0.862-5.974-2.06-6.889-2.696
			c-0.228-0.158-0.283-0.47-0.125-0.696c0.157-0.227,0.471-0.281,0.695-0.125c0.855,0.595,2.842,1.716,6.537,2.542
			c0.27,0.06,0.438,0.327,0.379,0.597C41.936,58.324,41.729,58.482,41.5,58.482z"/>
		<path style="fill:#472B29;" d="M52,59.5c-1.942,0-3.809-0.083-5.547-0.247c-0.275-0.026-0.477-0.27-0.451-0.544
			c0.026-0.274,0.276-0.481,0.545-0.451C48.255,58.418,50.089,58.5,52,58.5c10.525,0,15.295-2.47,16.856-3.532
			c0.227-0.153,0.539-0.096,0.694,0.132s0.097,0.54-0.132,0.695C67.384,57.179,62.414,59.5,52,59.5z"/>
		<path style="fill:#472B29;" d="M52.5,47.492c-0.273,0-0.496-0.22-0.5-0.494c-0.003-0.276,0.218-0.503,0.494-0.506
			c1.354-0.017,2.68-0.107,3.942-0.268c0.27-0.032,0.524,0.159,0.56,0.433c0.035,0.274-0.159,0.524-0.433,0.559
			c-1.301,0.166-2.666,0.258-4.058,0.275C52.504,47.492,52.502,47.492,52.5,47.492z"/>
		<path style="fill:#472B29;" d="M58.499,46.896c-0.232,0-0.441-0.164-0.489-0.401c-0.055-0.271,0.121-0.535,0.392-0.589
			c2.934-0.589,4.678-1.478,5.456-1.956c0.236-0.143,0.543-0.071,0.688,0.165c0.144,0.235,0.07,0.543-0.165,0.688
			c-0.836,0.512-2.697,1.463-5.782,2.083C58.565,46.894,58.532,46.896,58.499,46.896z"/>
		<path style="fill:#472B29;" d="M48.501,47.335c-0.017,0-0.032,0-0.048-0.002c-4.865-0.463-7.636-1.792-8.854-2.542
			c-0.234-0.145-0.308-0.453-0.163-0.688c0.146-0.236,0.454-0.307,0.688-0.164c1.145,0.705,3.761,1.955,8.423,2.398
			c0.275,0.026,0.477,0.27,0.451,0.545C48.973,47.142,48.755,47.335,48.501,47.335z"/>
	</g>
	<g>
		<path style="fill:#FCC938;" d="M58.395,26.398l-2.942,2.777l0.69,3.932c0.021,0.128-0.028,0.25-0.139,0.331
			c-0.056,0.041-0.132,0.061-0.202,0.061c-0.056,0-0.112-0.014-0.16-0.041l-3.639-1.851l-3.639,1.851
			c-0.119,0.061-0.265,0.054-0.37-0.02c-0.112-0.081-0.16-0.203-0.139-0.331l0.697-3.932l-2.949-2.777
			c-0.091-0.095-0.125-0.223-0.084-0.351c0.042-0.122,0.146-0.209,0.279-0.23l4.072-0.568l1.82-3.574
			c0.056-0.115,0.181-0.176,0.307-0.176c0.132,0,0.258,0.061,0.314,0.176l1.82,3.574l4.072,0.568c0.132,0.02,0.244,0.108,0.286,0.23
			C58.52,26.169,58.493,26.304,58.395,26.398z"/>
		<path style="fill:#472B29;" d="M55.802,34c-0.142,0-0.28-0.036-0.402-0.103l-3.397-1.728l-3.413,1.736
			c-0.283,0.144-0.632,0.122-0.886-0.058c-0.27-0.197-0.396-0.502-0.343-0.822l0.651-3.671l-2.753-2.591
			c-0.241-0.25-0.315-0.569-0.217-0.871c0.105-0.305,0.364-0.52,0.679-0.568l3.82-0.532l1.701-3.342
			c0.264-0.546,1.247-0.547,1.517,0.01l1.696,3.333l3.814,0.531c0.325,0.05,0.586,0.265,0.688,0.562
			c0.096,0.33,0.01,0.655-0.216,0.874c-0.001,0.001-0.003,0.003-0.005,0.005l-2.745,2.592l0.643,3.667
			c0.055,0.323-0.072,0.629-0.337,0.822C56.159,33.944,55.983,34,55.802,34z M46.19,26.267l2.703,2.544
			c0.123,0.116,0.179,0.286,0.149,0.452l-0.641,3.615l3.373-1.716c0.143-0.072,0.311-0.072,0.453,0l3.365,1.712l-0.633-3.613
			c-0.029-0.166,0.026-0.334,0.149-0.45l2.695-2.544l-3.747-0.522c-0.161-0.022-0.302-0.123-0.376-0.268l-1.685-3.309l-1.685,3.309
			c-0.074,0.146-0.215,0.246-0.376,0.268L46.19,26.267z M51.863,21.903c0.001,0.002,0.002,0.004,0.003,0.006L51.863,21.903z
			 M52.138,21.893l-0.004,0.008C52.135,21.898,52.137,21.896,52.138,21.893z"/>
	</g>
	<g>
		<circle style="fill:#EE3E54;" cx="60.5" cy="53.5" r="2"/>
		<path style="fill:#472B29;" d="M60.5,56c-1.379,0-2.5-1.122-2.5-2.5s1.121-2.5,2.5-2.5s2.5,1.122,2.5,2.5S61.879,56,60.5,56z
			 M60.5,52c-0.827,0-1.5,0.673-1.5,1.5s0.673,1.5,1.5,1.5s1.5-0.673,1.5-1.5S61.327,52,60.5,52z"/>
	</g>
	<g>
		<circle style="fill:#FCC938;" cx="53" cy="51" r="1.5"/>
		<path style="fill:#472B29;" d="M53,53c-1.103,0-2-0.897-2-2s0.897-2,2-2s2,0.897,2,2S54.103,53,53,53z M53,50
			c-0.552,0-1,0.449-1,1s0.448,1,1,1s1-0.449,1-1S53.552,50,53,50z"/>
	</g>
	<g>
		<circle style="fill:#649ED8;" cx="55.5" cy="42.5" r="2"/>
		<path style="fill:#472B29;" d="M55.503,45c-0.036,0-0.072-0.001-0.107-0.002c-0.668-0.028-1.284-0.314-1.736-0.806
			s-0.686-1.13-0.657-1.797s0.314-1.283,0.806-1.735c0.492-0.453,1.153-0.681,1.797-0.657c0.668,0.028,1.284,0.314,1.736,0.806
			s0.686,1.13,0.657,1.797s-0.314,1.284-0.806,1.735C56.727,44.768,56.131,45,55.503,45z M55.498,41
			c-0.376,0-0.734,0.139-1.014,0.396c-0.295,0.271-0.466,0.641-0.482,1.041c-0.018,0.4,0.122,0.783,0.394,1.078
			s0.642,0.466,1.041,0.483c0.417,0.021,0.784-0.123,1.079-0.395c0.295-0.271,0.466-0.641,0.482-1.041l0,0
			c0.018-0.4-0.122-0.783-0.394-1.078s-0.642-0.466-1.041-0.483C55.541,41,55.52,41,55.498,41z"/>
	</g>
	<g>
		<circle style="fill:#EE3E54;" cx="49" cy="40" r="1.5"/>
		<path style="fill:#472B29;" d="M49,42c-1.103,0-2-0.897-2-2s0.897-2,2-2s2,0.897,2,2S50.103,42,49,42z M49,39
			c-0.552,0-1,0.449-1,1s0.448,1,1,1s1-0.449,1-1S49.552,39,49,39z"/>
	</g>
	<g>
		<circle style="fill:#649ED8;" cx="45.5" cy="53.5" r="2"/>
		<path style="fill:#472B29;" d="M45.5,56c-1.379,0-2.5-1.122-2.5-2.5s1.121-2.5,2.5-2.5s2.5,1.122,2.5,2.5S46.879,56,45.5,56z
			 M45.5,52c-0.827,0-1.5,0.673-1.5,1.5s0.673,1.5,1.5,1.5s1.5-0.673,1.5-1.5S46.327,52,45.5,52z"/>
	</g>
	<g>
		<circle style="fill:#FCC938;" cx="47.5" cy="66.5" r="2"/>
		<path style="fill:#472B29;" d="M47.5,69c-1.379,0-2.5-1.122-2.5-2.5s1.121-2.5,2.5-2.5s2.5,1.122,2.5,2.5S48.879,69,47.5,69z
			 M47.5,65c-0.827,0-1.5,0.673-1.5,1.5s0.673,1.5,1.5,1.5s1.5-0.673,1.5-1.5S48.327,65,47.5,65z"/>
	</g>
	<g>
		<circle style="fill:#EE3E54;" cx="40" cy="62" r="1.5"/>
		<path style="fill:#472B29;" d="M40,64c-1.103,0-2-0.897-2-2s0.897-2,2-2s2,0.897,2,2S41.103,64,40,64z M40,61
			c-0.552,0-1,0.449-1,1s0.448,1,1,1s1-0.449,1-1S40.552,61,40,61z"/>
	</g>
	<g>
		<circle style="fill:#649ED8;" cx="64.5" cy="65.5" r="2"/>
		<path style="fill:#472B29;" d="M64.5,68c-1.379,0-2.5-1.122-2.5-2.5s1.121-2.5,2.5-2.5s2.5,1.122,2.5,2.5S65.879,68,64.5,68z
			 M64.5,64c-0.827,0-1.5,0.673-1.5,1.5s0.673,1.5,1.5,1.5s1.5-0.673,1.5-1.5S65.327,64,64.5,64z"/>
	</g>
	<g>
		<circle style="fill:#EE3E54;" cx="57" cy="63" r="1.5"/>
		<path style="fill:#472B29;" d="M57,65c-1.103,0-2-0.897-2-2s0.897-2,2-2s2,0.897,2,2S58.103,65,57,65z M57,62
			c-0.552,0-1,0.449-1,1s0.448,1,1,1s1-0.449,1-1S57.552,62,57,62z"/>
	</g>
</g>
<g>
	<path style="fill:#FDFCEF;" d="M34.5,76.5c0,0,1.567,0,3.5,0s3.5-1.567,3.5-3.5c0-1.781-1.335-3.234-3.055-3.455
		C38.473,69.366,38.5,69.187,38.5,69c0-1.933-1.567-3.5-3.5-3.5c-1.032,0-1.95,0.455-2.59,1.165
		c-0.384-1.808-1.987-3.165-3.91-3.165c-2.209,0-4,1.791-4,4c0,0.191,0.03,0.374,0.056,0.558C24.128,67.714,23.592,67.5,23,67.5
		c-1.228,0-2.245,0.887-2.455,2.055C20.366,69.527,20.187,69.5,20,69.5c-1.933,0-3.5,1.567-3.5,3.5s1.567,3.5,3.5,3.5s7.5,0,7.5,0
		V77h7V76.5z"/>
	<path style="fill:#472B29;" d="M36.25,72C36.112,72,36,71.888,36,71.75c0-1.223,0.995-2.218,2.218-2.218
		c0.034,0.009,0.737-0.001,1.244,0.136c0.133,0.036,0.212,0.173,0.176,0.306c-0.036,0.134-0.173,0.213-0.306,0.176
		c-0.444-0.12-1.1-0.12-1.113-0.118c-0.948,0-1.719,0.771-1.719,1.718C36.5,71.888,36.388,72,36.25,72z"/>
	<circle style="fill:#472B29;" cx="29.5" cy="76.5" r="0.5"/>
	<path style="fill:#472B29;" d="M38,77h-3.5c-0.276,0-0.5-0.224-0.5-0.5s0.224-0.5,0.5-0.5H38c1.654,0,3-1.346,3-3
		c0-1.496-1.125-2.768-2.618-2.959c-0.134-0.018-0.255-0.088-0.336-0.196s-0.115-0.244-0.094-0.377C37.975,69.314,38,69.16,38,69
		c0-1.654-1.346-3-3-3c-0.85,0-1.638,0.355-2.219,1c-0.125,0.139-0.321,0.198-0.5,0.148c-0.182-0.049-0.321-0.195-0.36-0.379
		C31.58,65.165,30.141,64,28.5,64c-1.93,0-3.5,1.57-3.5,3.5c0,0.143,0.021,0.28,0.041,0.418c0.029,0.203-0.063,0.438-0.242,0.54
		c-0.179,0.102-0.396,0.118-0.556-0.01C23.878,68.155,23.449,68,23,68c-0.966,0-1.792,0.691-1.963,1.644
		c-0.048,0.267-0.296,0.446-0.569,0.405C20.314,70.025,20.16,70,20,70c-1.654,0-3,1.346-3,3s1.346,3,3,3h7.5
		c0.276,0,0.5,0.224,0.5,0.5S27.776,77,27.5,77H20c-2.206,0-4-1.794-4-4s1.794-4,4-4c0.059,0,0.116,0.002,0.174,0.006
		C20.588,67.82,21.711,67,23,67c0.349,0,0.689,0.061,1.011,0.18C24.176,64.847,26.126,63,28.5,63c1.831,0,3.466,1.127,4.153,2.774
		C33.333,65.276,34.155,65,35,65c2.206,0,4,1.794,4,4c0,0.048-0.001,0.095-0.004,0.142C40.739,69.59,42,71.169,42,73
		C42,75.206,40.206,77,38,77z"/>
	<path style="fill:#472B29;" d="M32.5,76c-0.159,0-0.841,0-1,0c-0.276,0-0.5,0.224-0.5,0.5c0,0.276,0.224,0.5,0.5,0.5
		c0.159,0,0.841,0,1,0c0.276,0,0.5-0.224,0.5-0.5C33,76.224,32.776,76,32.5,76z"/>
</g>
</svg>
