<?xml version="1.0" encoding="iso-8859-1"?>
<!-- Generator: Adobe Illustrator 22.1.0, SVG Export Plug-In . SVG Version: 6.00 Build 0)  -->
<svg version="1.1" id="Layer_1" xmlns="http://www.w3.org/2000/svg" xmlns:xlink="http://www.w3.org/1999/xlink" x="0px" y="0px"
	 viewBox="0 0 100 100" style="enable-background:new 0 0 100 100;" xml:space="preserve">
<path style="fill:#C7EDE6;" d="M87.215,56.71C88.35,54.555,89,52.105,89,49.5c0-6.621-4.159-12.257-10.001-14.478
	C78.999,35.015,79,35.008,79,35c0-11.598-9.402-21-21-21c-9.784,0-17.981,6.701-20.313,15.757C36.211,29.272,34.638,29,33,29
	c-7.692,0-14.023,5.793-14.89,13.252C12.906,43.353,9,47.969,9,53.5C9,59.851,14.149,65,20.5,65c0.177,0,0.352-0.012,0.526-0.022
	C21.022,65.153,21,65.324,21,65.5C21,76.822,30.178,86,41.5,86c6.437,0,12.175-2.972,15.934-7.614C59.612,80.611,62.64,82,66,82
	c4.65,0,8.674-2.65,10.666-6.518C77.718,75.817,78.837,76,80,76c6.075,0,11-4.925,11-11C91,61.689,89.53,58.727,87.215,56.71z"/>
<g>
	<path style="fill:#FDFCEF;" d="M77.5,60.5V61h3v-0.5c0,0,4.242,0,5.5,0c2.485,0,4.5-2.015,4.5-4.5c0-2.333-1.782-4.229-4.055-4.455
		C86.467,51.364,86.5,51.187,86.5,51c0-2.485-2.015-4.5-4.5-4.5c-1.438,0-2.703,0.686-3.527,1.736
		C78.333,45.6,76.171,43.5,73.5,43.5c-2.761,0-5,2.239-5,5c0,0.446,0.077,0.87,0.187,1.282C68.045,49.005,67.086,48.5,66,48.5
		c-1.781,0-3.234,1.335-3.455,3.055C62.364,51.533,62.187,51.5,62,51.5c-2.485,0-4.5,2.015-4.5,4.5s2.015,4.5,4.5,4.5s9.5,0,9.5,0
		H77.5z"/>
	<path style="fill:#472B29;" d="M73.5,43c-3.033,0-5.5,2.467-5.5,5.5c0,0.016,0,0.031,0,0.047C67.398,48.192,66.71,48,66,48
		c-1.831,0-3.411,1.261-3.858,3.005C62.095,51.002,62.048,51,62,51c-2.757,0-5,2.243-5,5s2.243,5,5,5h15.5
		c0.276,0,0.5-0.224,0.5-0.5S77.776,60,77.5,60H62c-2.206,0-4-1.794-4-4s1.794-4,4-4c0.117,0,0.23,0.017,0.343,0.032l0.141,0.019
		c0.021,0.003,0.041,0.004,0.062,0.004c0.246,0,0.462-0.185,0.495-0.437C63.232,50.125,64.504,49,66,49
		c0.885,0,1.723,0.401,2.301,1.1c0.098,0.118,0.241,0.182,0.386,0.182c0.078,0,0.156-0.018,0.228-0.056
		c0.209-0.107,0.314-0.346,0.254-0.573C69.054,49.218,69,48.852,69,48.5c0-2.481,2.019-4.5,4.5-4.5c2.381,0,4.347,1.872,4.474,4.263
		c0.011,0.208,0.15,0.387,0.349,0.45c0.05,0.016,0.101,0.024,0.152,0.024c0.15,0,0.296-0.069,0.392-0.192
		C79.638,47.563,80.779,47,82,47c2.206,0,4,1.794,4,4c0,0.117-0.017,0.23-0.032,0.343l-0.019,0.141
		c-0.016,0.134,0.022,0.268,0.106,0.373s0.207,0.172,0.34,0.185C88.451,52.247,90,53.949,90,56c0,2.206-1.794,4-4,4h-5.5
		c-0.276,0-0.5,0.224-0.5,0.5s0.224,0.5,0.5,0.5H86c2.757,0,5-2.243,5-5c0-2.397-1.689-4.413-4.003-4.877
		C86.999,51.082,87,51.041,87,51c0-2.757-2.243-5-5-5c-1.176,0-2.293,0.416-3.183,1.164C78.219,44.76,76.055,43,73.5,43L73.5,43z"/>
	<path style="fill:#472B29;" d="M72,50c-1.403,0-2.609,0.999-2.913,2.341C68.72,52.119,68.301,52,67.875,52
		c-1.202,0-2.198,0.897-2.353,2.068C65.319,54.022,65.126,54,64.937,54c-1.529,0-2.811,1.2-2.918,2.732
		C62.01,56.87,62.114,56.99,62.251,57c0.006,0,0.012,0,0.018,0c0.13,0,0.24-0.101,0.249-0.232c0.089-1.271,1.151-2.268,2.419-2.268
		c0.229,0,0.47,0.042,0.738,0.127c0.022,0.007,0.045,0.01,0.067,0.01c0.055,0,0.11-0.02,0.156-0.054
		C65.962,54.537,66,54.455,66,54.375c0-1.034,0.841-1.875,1.875-1.875c0.447,0,0.885,0.168,1.231,0.473
		c0.047,0.041,0.106,0.063,0.165,0.063c0.032,0,0.063-0.006,0.093-0.019c0.088-0.035,0.148-0.117,0.155-0.212
		C69.623,51.512,70.712,50.5,72,50.5c0.208,0,0.425,0.034,0.682,0.107c0.023,0.007,0.047,0.01,0.07,0.01
		c0.109,0,0.207-0.073,0.239-0.182c0.038-0.133-0.039-0.271-0.172-0.309C72.517,50.04,72.256,50,72,50L72,50z"/>
	<path style="fill:#472B29;" d="M85.883,51.5c-1.326,0-2.508,0.897-2.874,2.182c-0.038,0.133,0.039,0.271,0.172,0.309
		C83.205,53.997,83.228,54,83.25,54c0.109,0,0.209-0.072,0.24-0.182C83.795,52.748,84.779,52,85.883,52
		c0.117,0,0.23,0.014,0.342,0.029c0.012,0.002,0.023,0.003,0.035,0.003c0.121,0,0.229-0.092,0.246-0.217
		c0.019-0.137-0.077-0.263-0.214-0.281C86.158,51.516,86.022,51.5,85.883,51.5L85.883,51.5z"/>
</g>
<g>
	<path style="fill:#FFFFFF;" d="M15.5,51h-10C5.224,51,5,50.776,5,50.5S5.224,50,5.5,50h10c0.276,0,0.5,0.224,0.5,0.5
		S15.777,51,15.5,51z"/>
	<path style="fill:#FFFFFF;" d="M18.5,51h-1c-0.276,0-0.5-0.224-0.5-0.5s0.224-0.5,0.5-0.5h1c0.276,0,0.5,0.224,0.5,0.5
		S18.777,51,18.5,51z"/>
	<path style="fill:#FFFFFF;" d="M23.491,53H14.5c-0.276,0-0.5-0.224-0.5-0.5s0.224-0.5,0.5-0.5h8.991c0.276,0,0.5,0.224,0.5,0.5
		S23.767,53,23.491,53z"/>
	<path style="fill:#FFFFFF;" d="M12.5,53h-1c-0.276,0-0.5-0.224-0.5-0.5s0.224-0.5,0.5-0.5h1c0.276,0,0.5,0.224,0.5,0.5
		S12.777,53,12.5,53z"/>
	<path style="fill:#FFFFFF;" d="M9.5,53h-2C7.224,53,7,52.776,7,52.5S7.224,52,7.5,52h2c0.276,0,0.5,0.224,0.5,0.5S9.777,53,9.5,53z
		"/>
	<path style="fill:#FFFFFF;" d="M15.5,55h-2c-0.276,0-0.5-0.224-0.5-0.5s0.224-0.5,0.5-0.5h2c0.276,0,0.5,0.224,0.5,0.5
		S15.776,55,15.5,55z"/>
	<path style="fill:#FFFFFF;" d="M18.5,46c-0.177,0-0.823,0-1,0c-0.276,0-0.5,0.224-0.5,0.5s0.224,0.5,0.5,0.5c0.177,0,0.823,0,1,0
		c0.276,0,0.5-0.224,0.5-0.5S18.776,46,18.5,46z"/>
	<path style="fill:#FFFFFF;" d="M18.5,48c-0.177,0-4.823,0-5,0c-0.276,0-0.5,0.224-0.5,0.5s0.224,0.5,0.5,0.5c0.177,0,4.823,0,5,0
		c0.276,0,0.5-0.224,0.5-0.5S18.776,48,18.5,48z"/>
	<path style="fill:#FFFFFF;" d="M23.5,50c-0.177,0-2.823,0-3,0c-0.276,0-0.5,0.224-0.5,0.5s0.224,0.5,0.5,0.5c0.177,0,2.823,0,3,0
		c0.276,0,0.5-0.224,0.5-0.5S23.776,50,23.5,50z"/>
</g>
<g>
	<path style="fill:#FFFFFF;" d="M72.5,24h-10c-0.276,0-0.5-0.224-0.5-0.5s0.224-0.5,0.5-0.5h10c0.276,0,0.5,0.224,0.5,0.5
		S72.776,24,72.5,24z"/>
	<path style="fill:#FFFFFF;" d="M76.5,24h-2c-0.276,0-0.5-0.224-0.5-0.5s0.224-0.5,0.5-0.5h2c0.276,0,0.5,0.224,0.5,0.5
		S76.776,24,76.5,24z"/>
	<path style="fill:#FFFFFF;" d="M81.5,26h-10c-0.276,0-0.5-0.224-0.5-0.5s0.224-0.5,0.5-0.5h10c0.276,0,0.5,0.224,0.5,0.5
		S81.777,26,81.5,26z"/>
	<path style="fill:#FFFFFF;" d="M69.5,26h-1c-0.276,0-0.5-0.224-0.5-0.5s0.224-0.5,0.5-0.5h1c0.276,0,0.5,0.224,0.5,0.5
		S69.776,26,69.5,26z"/>
	<path style="fill:#FFFFFF;" d="M66.47,26H64.5c-0.276,0-0.5-0.224-0.5-0.5s0.224-0.5,0.5-0.5h1.97c0.276,0,0.5,0.224,0.5,0.5
		S66.746,26,66.47,26z"/>
	<path style="fill:#FFFFFF;" d="M75.5,22h-5c-0.276,0-0.5-0.224-0.5-0.5s0.224-0.5,0.5-0.5h5c0.276,0,0.5,0.224,0.5,0.5
		S75.777,22,75.5,22z"/>
	<path style="fill:#FFFFFF;" d="M72.5,28h-2c-0.276,0-0.5-0.224-0.5-0.5s0.224-0.5,0.5-0.5h2c0.276,0,0.5,0.224,0.5,0.5
		S72.776,28,72.5,28z"/>
</g>
<g>
	<path style="fill:#FDFCEF;" d="M36.5,73.5c0,0,1.567,0,3.5,0s3.5-1.567,3.5-3.5c0-1.781-1.335-3.234-3.055-3.455
		C40.473,66.366,40.5,66.187,40.5,66c0-1.933-1.567-3.5-3.5-3.5c-1.032,0-1.95,0.455-2.59,1.165
		c-0.384-1.808-1.987-3.165-3.91-3.165c-2.209,0-4,1.791-4,4c0,0.191,0.03,0.374,0.056,0.558C26.128,64.714,25.592,64.5,25,64.5
		c-1.228,0-2.245,0.887-2.455,2.055C22.366,66.527,22.187,66.5,22,66.5c-1.933,0-3.5,1.567-3.5,3.5s1.567,3.5,3.5,3.5s7.5,0,7.5,0
		V74h7V73.5z"/>
	<path style="fill:#472B29;" d="M38.25,69C38.112,69,38,68.888,38,68.75c0-1.223,0.995-2.218,2.218-2.218
		c0.034,0.009,0.737-0.001,1.244,0.136c0.133,0.036,0.212,0.173,0.176,0.306c-0.036,0.134-0.173,0.213-0.306,0.176
		c-0.444-0.12-1.1-0.12-1.113-0.118c-0.948,0-1.719,0.771-1.719,1.718C38.5,68.888,38.388,69,38.25,69z"/>
	<circle style="fill:#472B29;" cx="31.5" cy="73.5" r="0.5"/>
	<path style="fill:#472B29;" d="M40,74h-3.5c-0.276,0-0.5-0.224-0.5-0.5s0.224-0.5,0.5-0.5H40c1.654,0,3-1.346,3-3
		c0-1.496-1.125-2.768-2.618-2.959c-0.134-0.018-0.255-0.088-0.336-0.196s-0.115-0.244-0.094-0.377C39.975,66.314,40,66.16,40,66
		c0-1.654-1.346-3-3-3c-0.85,0-1.638,0.355-2.219,1c-0.125,0.139-0.321,0.198-0.5,0.148c-0.182-0.049-0.321-0.195-0.36-0.379
		C33.58,62.165,32.141,61,30.5,61c-1.93,0-3.5,1.57-3.5,3.5c0,0.143,0.021,0.28,0.041,0.418c0.029,0.203-0.063,0.438-0.242,0.54
		s-0.396,0.118-0.556-0.01C25.878,65.155,25.449,65,25,65c-0.966,0-1.792,0.691-1.963,1.644c-0.048,0.267-0.296,0.446-0.569,0.405
		C22.314,67.025,22.16,67,22,67c-1.654,0-3,1.346-3,3s1.346,3,3,3h7.5c0.276,0,0.5,0.224,0.5,0.5S29.776,74,29.5,74H22
		c-2.206,0-4-1.794-4-4s1.794-4,4-4c0.059,0,0.116,0.002,0.174,0.006C22.588,64.82,23.711,64,25,64c0.349,0,0.689,0.061,1.011,0.18
		C26.176,61.847,28.126,60,30.5,60c1.831,0,3.466,1.127,4.153,2.774C35.333,62.276,36.155,62,37,62c2.206,0,4,1.794,4,4
		c0,0.048-0.001,0.095-0.004,0.142C42.739,66.59,44,68.169,44,70C44,72.206,42.206,74,40,74z"/>
	<path style="fill:#472B29;" d="M34.5,73c-0.159,0-0.841,0-1,0c-0.276,0-0.5,0.224-0.5,0.5s0.224,0.5,0.5,0.5c0.159,0,0.841,0,1,0
		c0.276,0,0.5-0.224,0.5-0.5S34.776,73,34.5,73z"/>
</g>
<g>
	<path style="fill:#472B29;" d="M52,20c1.103,0,2,0.897,2,2c0,1.241-1.01,3.672-1.629,5h-0.724C50.924,25.348,50,22.929,50,22
		C50,20.897,50.897,20,52,20 M52,19c-1.657,0-3,1.343-3,3s2,6,2,6h2c0,0,2-4,2-6C55,20.343,53.657,19,52,19L52,19z"/>
	<path style="fill:#EE3E54;" d="M48,26.5c-0.827,0-1.5,0.673-1.5,1.5v2.378c0,1.057-0.657,1.998-1.635,2.341
		C36.002,35.836,30.232,44.248,30.51,53.65c0.324,10.985,9.159,20.125,20.114,20.807c6.004,0.37,11.727-1.681,16.096-5.786
		C71.092,64.562,73.5,58.997,73.5,53c0-9.107-5.772-17.258-14.364-20.281c-0.979-0.344-1.636-1.285-1.636-2.341V28
		c0-0.827-0.673-1.5-1.5-1.5H48z"/>
	<g>
		<path style="fill:#EDEDEB;" d="M63.53,71.12l-1.3-1.85l-4.92,0.11l2.98-3.97l-1.52-4.64l4.64,1.52l3.97-2.98l-0.11,4.92l2.08,1.46
			c-0.06,0.1-0.13,0.2-0.22,0.3c-0.71,0.95-1.52,1.85-2.41,2.68c-0.9,0.85-1.86,1.61-2.87,2.27L63.53,71.12z"/>
		<path style="fill:#472B29;" d="M69.58,65.39c-0.07,0.1-0.14,0.2-0.23,0.3c-0.06,0.1-0.13,0.2-0.22,0.3l-2.08-1.46
			c-0.1-0.07-0.16-0.19-0.16-0.31l0.1-4.15l-3.36,2.52c-0.09,0.08-0.22,0.1-0.34,0.06l-3.93-1.29l1.29,3.93
			c0.04,0.12,0.02,0.25-0.06,0.34l-2.52,3.36l4.15-0.1c0,0,0,0,0.01,0c0.12,0,0.23,0.06,0.3,0.16l1.32,1.89
			c-0.08,0.06-0.17,0.12-0.26,0.17c-0.12,0.08-0.24,0.16-0.36,0.23l-1.19-1.69l-4.72,0.11c-0.16,0-0.28-0.08-0.35-0.2
			c-0.06-0.13-0.05-0.29,0.04-0.4l2.87-3.82l-1.47-4.46c-0.04-0.13-0.01-0.28,0.09-0.38c0.1-0.1,0.25-0.13,0.38-0.09l4.46,1.47
			l3.82-2.87c0.11-0.09,0.27-0.1,0.4-0.04c0.12,0.07,0.2,0.2,0.2,0.35l-0.11,4.72L69.58,65.39z"/>
	</g>
	<g>
		<path style="fill:#BDC4D6;" d="M46.5,31.5h11V28c0-0.827-0.673-1.5-1.5-1.5h-8c-0.827,0-1.5,0.673-1.5,1.5V31.5z"/>
		<path style="fill:#472B29;" d="M56,27.4c0.331,0,0.6,0.269,0.6,0.6v3h-9.2v-3c0-0.331,0.269-0.6,0.6-0.6H56 M56,26h-8
			c-1.105,0-2,0.895-2,2v4h12v-4C58,26.895,57.105,26,56,26L56,26z"/>
	</g>
	<g>
		<polygon style="fill:#EDEDEB;" points="60.456,44.086 61.243,40.958 58.282,42.236 55.55,40.521 55.85,43.732 53.375,45.8 
			56.522,46.507 57.723,49.5 59.368,46.726 62.586,46.508 		"/>
		<path style="fill:#472B29;" d="M57.724,49.875c-0.01,0-0.02,0-0.028-0.001c-0.143-0.011-0.267-0.102-0.319-0.234l-1.129-2.81
			l-2.954-0.664c-0.14-0.031-0.249-0.139-0.282-0.277c-0.034-0.139,0.015-0.285,0.124-0.376l2.324-1.942l-0.281-3.015
			c-0.014-0.142,0.055-0.279,0.177-0.354c0.12-0.075,0.275-0.075,0.396,0.002l2.564,1.61l2.78-1.199
			c0.133-0.056,0.284-0.033,0.392,0.059c0.108,0.093,0.155,0.239,0.12,0.377l-0.738,2.937l1.999,2.274
			c0.095,0.107,0.12,0.258,0.065,0.391c-0.055,0.132-0.179,0.222-0.321,0.231l-3.021,0.205l-1.544,2.605
			C57.979,49.806,57.855,49.875,57.724,49.875z M54.198,45.601l2.405,0.541c0.12,0.027,0.22,0.111,0.266,0.226l0.919,2.288
			l1.258-2.121c0.063-0.106,0.174-0.174,0.297-0.183l2.46-0.167l-1.628-1.852c-0.082-0.093-0.112-0.219-0.082-0.339l0.602-2.391
			l-2.264,0.976c-0.113,0.048-0.243,0.039-0.348-0.027l-2.088-1.311l0.229,2.455c0.012,0.123-0.038,0.243-0.133,0.322L54.198,45.601
			z"/>
	</g>
	<g>
		<polygon style="fill:#EDEDEB;" points="41.5,47.375 43.702,51.737 48.625,52.436 45.062,55.831 45.903,60.625 41.5,58.362 
			37.097,60.625 37.937,55.831 34.375,52.436 39.298,51.737 		"/>
		<path style="fill:#472B29;" d="M45.903,61c-0.059,0-0.117-0.014-0.172-0.042L41.5,58.783l-4.231,2.175
			c-0.128,0.065-0.279,0.052-0.395-0.032c-0.114-0.084-0.171-0.226-0.146-0.367l0.806-4.596l-3.417-3.256
			c-0.104-0.099-0.143-0.249-0.099-0.386c0.044-0.137,0.162-0.237,0.305-0.257l4.729-0.672l2.113-4.187
			c0.129-0.253,0.541-0.253,0.67,0l2.113,4.187l4.729,0.672c0.143,0.02,0.261,0.12,0.305,0.257s0.005,0.287-0.099,0.386
			l-3.417,3.256l0.806,4.596c0.024,0.141-0.032,0.282-0.146,0.367C46.06,60.975,45.981,61,45.903,61z M41.5,57.987
			c0.059,0,0.117,0.014,0.172,0.042l3.731,1.918l-0.71-4.05c-0.021-0.124,0.02-0.25,0.11-0.336l3.002-2.861l-4.156-0.59
			c-0.121-0.017-0.227-0.093-0.282-0.202L41.5,48.207l-1.867,3.699c-0.056,0.109-0.161,0.185-0.282,0.202l-4.156,0.59l3.002,2.861
			c0.091,0.086,0.132,0.213,0.11,0.336l-0.71,4.05l3.731-1.918C41.383,58,41.441,57.987,41.5,57.987z"/>
	</g>
	<path style="fill:#472B29;" d="M56,27.4c0.331,0,0.6,0.269,0.6,0.6v2.378c0,1.438,0.899,2.72,2.237,3.191
		C67.069,36.464,72.6,44.273,72.6,53c0,11.359-9.241,20.6-20.6,20.6c-0.437,0-0.881-0.014-1.321-0.041
		c-10.495-0.653-18.96-9.41-19.27-19.935c-0.266-9.009,5.262-17.069,13.755-20.056c1.337-0.47,2.236-1.752,2.236-3.19V28
		c0-0.331,0.269-0.6,0.6-0.6H56 M56,26h-8c-1.105,0-2,0.895-2,2v2.378c0,0.834-0.514,1.593-1.3,1.87
		c-8.758,3.08-14.981,11.541-14.69,21.418c0.332,11.248,9.352,20.592,20.583,21.291C51.065,74.986,51.534,75,52,75
		c12.15,0,22-9.85,22-22c0-9.59-6.138-17.741-14.698-20.752C58.514,31.971,58,31.212,58,30.378V28C58,26.895,57.105,26,56,26L56,26z
		"/>
</g>
</svg>
