<?xml version="1.0" encoding="iso-8859-1"?>
<!-- Generator: Adobe Illustrator 22.1.0, SVG Export Plug-In . SVG Version: 6.00 Build 0)  -->
<svg version="1.1" id="Layer_1" xmlns="http://www.w3.org/2000/svg" xmlns:xlink="http://www.w3.org/1999/xlink" x="0px" y="0px"
	 viewBox="0 0 100 100" style="enable-background:new 0 0 100 100;" xml:space="preserve">
<path style="fill:#C7EDE6;" d="M87.215,56.71C88.35,54.555,89,52.105,89,49.5c0-6.621-4.159-12.257-10.001-14.478
	C78.999,35.015,79,35.008,79,35c0-11.598-9.402-21-21-21c-9.784,0-17.981,6.701-20.313,15.757C36.211,29.272,34.638,29,33,29
	c-7.692,0-14.023,5.793-14.89,13.252C12.906,43.353,9,47.969,9,53.5C9,59.851,14.149,65,20.5,65c0.177,0,0.352-0.012,0.526-0.022
	C21.022,65.153,21,65.324,21,65.5C21,76.822,30.178,86,41.5,86c6.437,0,12.175-2.972,15.934-7.614C59.612,80.611,62.64,82,66,82
	c4.65,0,8.674-2.65,10.666-6.518C77.718,75.817,78.837,76,80,76c6.075,0,11-4.925,11-11C91,61.689,89.53,58.727,87.215,56.71z"/>
<g>
	<path style="fill:#FDFCEF;" d="M79.5,57.5V58h3v-0.5c0,0,2.242,0,3.5,0c2.485,0,4.5-2.015,4.5-4.5c0-2.333-1.782-4.229-4.055-4.455
		C86.467,48.364,86.5,48.187,86.5,48c0-2.485-2.015-4.5-4.5-4.5c-1.438,0-2.703,0.686-3.527,1.736
		C78.333,42.6,76.171,40.5,73.5,40.5c-2.761,0-5,2.239-5,5c0,0.446,0.077,0.87,0.187,1.282C68.045,46.005,67.086,45.5,66,45.5
		c-1.781,0-3.234,1.335-3.455,3.055C62.364,48.533,62.187,48.5,62,48.5c-2.485,0-4.5,2.015-4.5,4.5s2.015,4.5,4.5,4.5s9.5,0,9.5,0
		H79.5z"/>
	<path style="fill:#472B29;" d="M73.5,40c-3.033,0-5.5,2.467-5.5,5.5c0,0.016,0,0.031,0,0.047C67.398,45.192,66.71,45,66,45
		c-1.831,0-3.411,1.261-3.858,3.005C62.095,48.002,62.048,48,62,48c-2.757,0-5,2.243-5,5s2.243,5,5,5h17.5
		c0.276,0,0.5-0.224,0.5-0.5S79.776,57,79.5,57H62c-2.206,0-4-1.794-4-4s1.794-4,4-4c0.117,0,0.23,0.017,0.343,0.032l0.141,0.019
		c0.021,0.003,0.041,0.004,0.062,0.004c0.246,0,0.462-0.185,0.495-0.437C63.232,47.125,64.504,46,66,46
		c0.885,0,1.723,0.401,2.301,1.1c0.098,0.118,0.241,0.182,0.386,0.182c0.078,0,0.156-0.018,0.228-0.056
		c0.209-0.107,0.314-0.346,0.254-0.573C69.054,46.218,69,45.852,69,45.5c0-2.481,2.019-4.5,4.5-4.5c2.381,0,4.347,1.872,4.474,4.263
		c0.011,0.208,0.15,0.387,0.349,0.45c0.05,0.016,0.101,0.024,0.152,0.024c0.15,0,0.296-0.069,0.392-0.192
		C79.638,44.563,80.779,44,82,44c2.206,0,4,1.794,4,4c0,0.117-0.017,0.23-0.032,0.343l-0.019,0.141
		c-0.016,0.134,0.022,0.268,0.106,0.373c0.084,0.105,0.207,0.172,0.34,0.185C88.451,49.247,90,50.949,90,53c0,2.206-1.794,4-4,4
		h-3.5c-0.276,0-0.5,0.224-0.5,0.5s0.224,0.5,0.5,0.5H86c2.757,0,5-2.243,5-5c0-2.397-1.689-4.413-4.003-4.877
		C86.999,48.082,87,48.041,87,48c0-2.757-2.243-5-5-5c-1.176,0-2.293,0.416-3.183,1.164C78.219,41.76,76.055,40,73.5,40L73.5,40z"/>
	<path style="fill:#472B29;" d="M72,47c-1.403,0-2.609,0.999-2.913,2.341C68.72,49.119,68.301,49,67.875,49
		c-1.202,0-2.198,0.897-2.353,2.068C65.319,51.022,65.126,51,64.938,51c-1.529,0-2.811,1.2-2.918,2.732
		C62.01,53.87,62.114,53.99,62.251,54c0.006,0,0.012,0,0.018,0c0.13,0,0.24-0.101,0.249-0.232c0.089-1.271,1.151-2.268,2.419-2.268
		c0.229,0,0.47,0.042,0.738,0.127c0.022,0.007,0.045,0.01,0.067,0.01c0.055,0,0.11-0.02,0.156-0.054
		C65.962,51.537,66,51.455,66,51.375c0-1.034,0.841-1.875,1.875-1.875c0.447,0,0.885,0.168,1.231,0.473
		c0.047,0.041,0.106,0.063,0.165,0.063c0.032,0,0.063-0.006,0.093-0.019c0.088-0.035,0.148-0.117,0.155-0.212
		C69.623,48.512,70.712,47.5,72,47.5c0.208,0,0.425,0.034,0.682,0.107c0.023,0.007,0.047,0.01,0.07,0.01
		c0.109,0,0.207-0.073,0.239-0.182c0.038-0.133-0.039-0.271-0.172-0.309C72.517,47.04,72.256,47,72,47L72,47z"/>
	<path style="fill:#472B29;" d="M85.883,48.5c-1.326,0-2.508,0.897-2.874,2.182c-0.038,0.133,0.039,0.271,0.172,0.309
		C83.205,50.997,83.228,51,83.25,51c0.109,0,0.209-0.072,0.24-0.182C83.795,49.748,84.779,49,85.883,49
		c0.117,0,0.23,0.014,0.342,0.029c0.012,0.002,0.023,0.003,0.035,0.003c0.121,0,0.229-0.092,0.246-0.217
		c0.019-0.137-0.077-0.263-0.214-0.281C86.158,48.516,86.022,48.5,85.883,48.5L85.883,48.5z"/>
</g>
<g>
	<path style="fill:#FFFFFF;" d="M15.5,51h-10C5.224,51,5,50.776,5,50.5S5.224,50,5.5,50h10c0.276,0,0.5,0.224,0.5,0.5
		S15.777,51,15.5,51z"/>
	<path style="fill:#FFFFFF;" d="M18.5,51h-1c-0.276,0-0.5-0.224-0.5-0.5s0.224-0.5,0.5-0.5h1c0.276,0,0.5,0.224,0.5,0.5
		S18.777,51,18.5,51z"/>
	<path style="fill:#FFFFFF;" d="M23.491,53H14.5c-0.276,0-0.5-0.224-0.5-0.5s0.224-0.5,0.5-0.5h8.991c0.276,0,0.5,0.224,0.5,0.5
		S23.767,53,23.491,53z"/>
	<path style="fill:#FFFFFF;" d="M12.5,53h-1c-0.276,0-0.5-0.224-0.5-0.5s0.224-0.5,0.5-0.5h1c0.276,0,0.5,0.224,0.5,0.5
		S12.777,53,12.5,53z"/>
	<path style="fill:#FFFFFF;" d="M9.5,53h-2C7.224,53,7,52.776,7,52.5S7.224,52,7.5,52h2c0.276,0,0.5,0.224,0.5,0.5S9.777,53,9.5,53z
		"/>
	<path style="fill:#FFFFFF;" d="M15.5,55h-2c-0.276,0-0.5-0.224-0.5-0.5s0.224-0.5,0.5-0.5h2c0.276,0,0.5,0.224,0.5,0.5
		S15.776,55,15.5,55z"/>
	<path style="fill:#FFFFFF;" d="M18.5,46c-0.177,0-0.823,0-1,0c-0.276,0-0.5,0.224-0.5,0.5c0,0.276,0.224,0.5,0.5,0.5
		c0.177,0,0.823,0,1,0c0.276,0,0.5-0.224,0.5-0.5C19,46.224,18.776,46,18.5,46z"/>
	<path style="fill:#FFFFFF;" d="M18.5,48c-0.177,0-4.823,0-5,0c-0.276,0-0.5,0.224-0.5,0.5c0,0.276,0.224,0.5,0.5,0.5
		c0.177,0,4.823,0,5,0c0.276,0,0.5-0.224,0.5-0.5C19,48.224,18.776,48,18.5,48z"/>
	<path style="fill:#FFFFFF;" d="M23.5,50c-0.177,0-2.823,0-3,0c-0.276,0-0.5,0.224-0.5,0.5c0,0.276,0.224,0.5,0.5,0.5
		c0.177,0,2.823,0,3,0c0.276,0,0.5-0.224,0.5-0.5C24,50.224,23.776,50,23.5,50z"/>
</g>
<g>
	<path style="fill:#FFFFFF;" d="M72.5,24h-10c-0.276,0-0.5-0.224-0.5-0.5s0.224-0.5,0.5-0.5h10c0.276,0,0.5,0.224,0.5,0.5
		S72.776,24,72.5,24z"/>
	<path style="fill:#FFFFFF;" d="M76.5,24h-2c-0.276,0-0.5-0.224-0.5-0.5s0.224-0.5,0.5-0.5h2c0.276,0,0.5,0.224,0.5,0.5
		S76.776,24,76.5,24z"/>
	<path style="fill:#FFFFFF;" d="M81.5,26h-10c-0.276,0-0.5-0.224-0.5-0.5s0.224-0.5,0.5-0.5h10c0.276,0,0.5,0.224,0.5,0.5
		S81.777,26,81.5,26z"/>
	<path style="fill:#FFFFFF;" d="M69.5,26h-1c-0.276,0-0.5-0.224-0.5-0.5s0.224-0.5,0.5-0.5h1c0.276,0,0.5,0.224,0.5,0.5
		S69.776,26,69.5,26z"/>
	<path style="fill:#FFFFFF;" d="M66.47,26H64.5c-0.276,0-0.5-0.224-0.5-0.5s0.224-0.5,0.5-0.5h1.97c0.276,0,0.5,0.224,0.5,0.5
		S66.746,26,66.47,26z"/>
	<path style="fill:#FFFFFF;" d="M75.5,22h-5c-0.276,0-0.5-0.224-0.5-0.5s0.224-0.5,0.5-0.5h5c0.276,0,0.5,0.224,0.5,0.5
		S75.777,22,75.5,22z"/>
	<path style="fill:#FFFFFF;" d="M72.5,28h-2c-0.276,0-0.5-0.224-0.5-0.5s0.224-0.5,0.5-0.5h2c0.276,0,0.5,0.224,0.5,0.5
		S72.776,28,72.5,28z"/>
</g>
<g>
	<g>
		<path style="fill:#FEFDEF;" d="M26.5,54.5V71c0,0.275,0.224,0.5,0.5,0.5h14.5v-17H26.5z"/>
		<rect x="26.5" y="54" style="fill:#CECCBE;" width="14.5" height="2"/>
		<g>
			<path style="fill:#472B29;" d="M40.6,54v16.6H27.4V54H26v17c0,0.552,0.448,1,1,1h15V54H40.6z"/>
		</g>
		<g>
			<path style="fill:#EE3E54;" d="M27.901,49.5l-2.4,4h15.374v-4H27.901z"/>
			<path style="fill:#472B29;" d="M39.975,50.4v2.2H27.09l1.32-2.2H39.975 M41.375,49H27.901c-0.176,0-0.338,0.092-0.429,0.243
				l-2.4,4c-0.2,0.333,0.04,0.757,0.429,0.757h15.874V49L41.375,49z"/>
		</g>
		<rect x="31.375" y="58.375" style="fill:#C0E5E4;" width="5.625" height="6.25"/>
		<path style="fill:#472B29;" d="M40.5,68.75h-3.125c-0.207,0-0.375-0.168-0.375-0.375S37.168,68,37.375,68H40.5
			c0.207,0,0.375,0.168,0.375,0.375S40.707,68.75,40.5,68.75z"/>
		<path style="fill:#472B29;" d="M35.625,68.75H26.5c-0.207,0-0.375-0.168-0.375-0.375S26.293,68,26.5,68h9.125
			C35.832,68,36,68.168,36,68.375S35.832,68.75,35.625,68.75z"/>
		<path style="fill:#472B29;" d="M37.625,56h-1.25C36.168,56,36,55.832,36,55.625s0.168-0.375,0.375-0.375h1.25
			c0.207,0,0.375,0.168,0.375,0.375S37.832,56,37.625,56z"/>
		<path style="fill:#472B29;" d="M33.625,56H26.5c-0.207,0-0.375-0.168-0.375-0.375s0.168-0.375,0.375-0.375h7.125
			c0.207,0,0.375,0.168,0.375,0.375S33.832,56,33.625,56z"/>
		<path style="fill:#472B29;" d="M36.625,60c-0.207,0-0.375,0.168-0.375,0.375v3.875h-4.5v-5.5h4.875
			c0.207,0,0.375-0.168,0.375-0.375S36.832,58,36.625,58h-5.25C31.168,58,31,58.168,31,58.375v6.25C31,64.832,31.168,65,31.375,65
			h5.25C36.832,65,37,64.832,37,64.625v-4.25C37,60.168,36.832,60,36.625,60z"/>
	</g>
	<g>
		<path style="fill:#FEFDEF;" d="M61.5,71.5H76c0.276,0,0.5-0.225,0.5-0.5V54h-15V71.5z"/>
		<rect x="62" y="54" style="fill:#CECCBE;" width="14.5" height="2"/>
		<path style="fill:#472B29;" d="M75.6,54v16.6H62.4V54H61v18h15c0.552,0,1-0.448,1-1V54H75.6z"/>
		<g>
			<path style="fill:#EE3E54;" d="M62.125,53.5h15.374l-2.4-4H62.125V53.5z"/>
			<path style="fill:#472B29;" d="M74.59,50.4l1.32,2.2H63.025v-2.2H74.59 M75.099,49H61.625v5h15.874
				c0.389,0,0.629-0.424,0.429-0.757l-2.4-4C75.438,49.092,75.275,49,75.099,49L75.099,49z"/>
		</g>
		<rect x="66.375" y="58.375" style="fill:#C0E5E4;" width="5.625" height="6.25"/>
		<path style="fill:#472B29;" d="M71.625,68.75H62.5c-0.207,0-0.375-0.168-0.375-0.375S62.293,68,62.5,68h9.125
			C71.832,68,72,68.168,72,68.375S71.832,68.75,71.625,68.75z"/>
		<path style="fill:#472B29;" d="M76.5,68.75h-2.125c-0.207,0-0.375-0.168-0.375-0.375S74.168,68,74.375,68H76.5
			c0.207,0,0.375,0.168,0.375,0.375S76.707,68.75,76.5,68.75z"/>
		<path style="fill:#472B29;" d="M64.625,56H62.5c-0.207,0-0.375-0.168-0.375-0.375s0.168-0.375,0.375-0.375h2.125
			c0.207,0,0.375,0.168,0.375,0.375S64.832,56,64.625,56z"/>
		<path style="fill:#472B29;" d="M76.5,56h-10c-0.207,0-0.375-0.168-0.375-0.375s0.168-0.375,0.375-0.375h10
			c0.207,0,0.375,0.168,0.375,0.375S76.707,56,76.5,56z"/>
		<path style="fill:#472B29;" d="M72,58.375C72,58.168,71.832,58,71.625,58h-5.25C66.168,58,66,58.168,66,58.375v6.25
			C66,64.832,66.168,65,66.375,65h5.25C71.832,65,72,64.832,72,64.625s-0.168-0.375-0.375-0.375H66.75v-5.5h4.5c0,0,0,2.703,0,2.875
			c0,0.207,0.168,0.375,0.375,0.375S72,61.832,72,61.625C72,61.521,72,58.375,72,58.375z"/>
	</g>
	<path style="fill:#FEFDEF;" d="M40.5,71.5h22V38.64l-11-8.994l-11,8.994V71.5z"/>
	<g>
		<polygon style="fill:#CECCBE;" points="51.5,28.625 41,36.836 41,44.305 43.61,42.269 43.375,41.977 45.625,40.222 45.867,40.51 
			47.598,39.16 47.375,38.858 48.625,37.883 48.847,38.186 51.5,36.117 51.5,35.642 59.625,41.977 59.394,42.272 62,44.305 
			62,36.836 		"/>
		<path style="fill:#472B29;" d="M47.375,39.233c-0.112,0-0.222-0.05-0.296-0.145c-0.127-0.163-0.099-0.398,0.064-0.526l1.25-0.976
			c0.164-0.126,0.399-0.098,0.526,0.065c0.127,0.163,0.099,0.398-0.064,0.526l-1.25,0.976
			C47.537,39.207,47.456,39.233,47.375,39.233z"/>
		<path style="fill:#472B29;" d="M43.375,42.352c-0.112,0-0.222-0.05-0.296-0.145c-0.127-0.163-0.098-0.398,0.065-0.526l2.25-1.754
			c0.163-0.129,0.398-0.098,0.526,0.065c0.127,0.163,0.098,0.398-0.065,0.526l-2.25,1.754
			C43.537,42.326,43.456,42.352,43.375,42.352z"/>
		<path style="fill:#472B29;" d="M59.625,42.352c-0.081,0-0.162-0.025-0.23-0.079l-8.125-6.335
			c-0.164-0.128-0.192-0.363-0.065-0.526c0.127-0.163,0.363-0.194,0.526-0.065l8.125,6.335c0.164,0.128,0.192,0.363,0.065,0.526
			C59.847,42.302,59.736,42.352,59.625,42.352z"/>
	</g>
	<g>
		<path style="fill:#B2B1C2;" d="M56.5,59.504c0,1.055,0,11.996,0,11.996H46.493c0,0,0-9.233,0-11.996s2.24-5.004,5.004-5.004
			S56.5,56.74,56.5,59.504z"/>
		<path style="fill:#472B29;" d="M57,72H46V59.504C46,56.469,48.461,54,51.496,54S57,56.469,57,59.504V72z M47,71h9V59.504
			C56,57.021,53.979,55,51.496,55S47,57.021,47,59.504V71z"/>
		<path style="fill:#472B29;" d="M54.75,64h-0.5C54.112,64,54,63.888,54,63.75s0.112-0.25,0.25-0.25h0.5
			c0.138,0,0.25,0.112,0.25,0.25S54.888,64,54.75,64z"/>
	</g>
	<polygon style="fill:#472B29;" points="61.6,37.258 61.6,70.6 41.4,70.6 41.4,37.258 40,38.403 40,72 63,72 63,38.403 	"/>
	<g>
		<path style="fill:#C0E5E4;" d="M54.612,46.625c0.002-0.042,0.013-0.082,0.013-0.125c0-0.428-0.093-0.832-0.25-1.202l0.358-0.133
			c-0.349-0.843-1.018-1.521-1.855-1.881l-0.253,0.308c-0.35-0.136-0.727-0.217-1.125-0.217c-1.726,0-3.125,1.399-3.125,3.125
			s1.399,3.125,3.125,3.125c1.019,0,1.915-0.495,2.486-1.25l0.243,0.208l0.037,0.037c0.429-0.559,0.694-1.244,0.721-1.995H54.612z"
			/>
		<path style="fill:#472B29;" d="M51.5,50c-1.93,0-3.5-1.57-3.5-3.5s1.57-3.5,3.5-3.5c0.419,0,0.843,0.081,1.26,0.242
			c0.193,0.074,0.29,0.291,0.215,0.484c-0.075,0.192-0.292,0.291-0.485,0.215c-1.864-0.716-3.74,0.716-3.74,2.559
			c0,1.517,1.234,2.75,2.75,2.75c0.861,0,1.658-0.401,2.187-1.101c0.124-0.165,0.359-0.201,0.525-0.073
			c0.165,0.124,0.198,0.359,0.073,0.524C53.613,49.49,52.598,50,51.5,50z"/>
		<path style="fill:#472B29;" d="M54.61,46.972c-0.01,0-0.02,0-0.03-0.001c-0.199-0.02-0.352-0.163-0.342-0.363
			c0-0.012,0.008-0.079,0.009-0.092c0.003-0.372-0.071-0.728-0.217-1.071c-0.081-0.19,0.008-0.411,0.199-0.491
			c0.19-0.082,0.411,0.008,0.492,0.198C54.906,45.588,55,46.042,55,46.5l-0.01,0.122C54.963,46.811,54.797,46.972,54.61,46.972z"/>
	</g>
	<g>
		<path style="fill:#472B29;" d="M51.5,27.896c-0.276,0-0.5-0.224-0.5-0.5V20.5c0-0.276,0.224-0.5,0.5-0.5s0.5,0.224,0.5,0.5v6.896
			C52,27.672,51.776,27.896,51.5,27.896z"/>
		<path style="fill:#472B29;" d="M53.5,23h-4c-0.276,0-0.5-0.224-0.5-0.5s0.224-0.5,0.5-0.5h4c0.276,0,0.5,0.224,0.5,0.5
			S53.776,23,53.5,23z"/>
	</g>
	<g>
		<path style="fill:#EE3E54;" d="M51.5,26.889L38.489,37.063l0.011,5.186l13-10.137l12.989,10.127l0.011-5.185L51.5,26.889z"/>
		<path style="fill:#472B29;" d="M51.5,28.031l12.1,9.462v2.913l-11.239-8.764L51.5,30.971l-0.861,0.671L39.4,40.406v-2.913
			L51.5,28.031 M51.5,26.254L38.181,36.67C38.066,36.765,38,36.906,38,37.055v5.194c0,0.298,0.244,0.501,0.503,0.501
			c0.109,0,0.22-0.036,0.316-0.116L51.5,32.746l12.681,9.888c0.097,0.08,0.208,0.116,0.316,0.116c0.258,0,0.503-0.203,0.503-0.501
			v-5.194c0-0.149-0.066-0.29-0.181-0.385L51.5,26.254L51.5,26.254z"/>
	</g>
</g>
<g>
	<path style="fill:#FDFCEF;" d="M33.5,74.5c0,0,1.567,0,3.5,0s3.5-1.567,3.5-3.5c0-1.781-1.335-3.234-3.055-3.455
		C37.473,67.366,37.5,67.187,37.5,67c0-1.933-1.567-3.5-3.5-3.5c-1.032,0-1.95,0.455-2.59,1.165
		c-0.384-1.808-1.987-3.165-3.91-3.165c-2.209,0-4,1.791-4,4c0,0.191,0.03,0.374,0.056,0.558C23.128,65.714,22.592,65.5,22,65.5
		c-1.228,0-2.245,0.887-2.455,2.055C19.366,67.527,19.187,67.5,19,67.5c-1.933,0-3.5,1.567-3.5,3.5s1.567,3.5,3.5,3.5s7.5,0,7.5,0
		V75h7V74.5z"/>
	<path style="fill:#472B29;" d="M35.25,70C35.112,70,35,69.888,35,69.75c0-1.223,0.995-2.218,2.218-2.218
		c0.034,0.009,0.737-0.001,1.244,0.136c0.133,0.036,0.212,0.173,0.176,0.306c-0.036,0.134-0.173,0.213-0.306,0.176
		c-0.444-0.12-1.1-0.12-1.113-0.118c-0.948,0-1.719,0.771-1.719,1.718C35.5,69.888,35.388,70,35.25,70z"/>
	<circle style="fill:#472B29;" cx="28.5" cy="74.5" r="0.5"/>
	<path style="fill:#472B29;" d="M37,75h-3.5c-0.276,0-0.5-0.224-0.5-0.5s0.224-0.5,0.5-0.5H37c1.654,0,3-1.346,3-3
		c0-1.496-1.125-2.768-2.618-2.959c-0.134-0.018-0.255-0.088-0.336-0.196s-0.115-0.244-0.094-0.377C36.975,67.314,37,67.16,37,67
		c0-1.654-1.346-3-3-3c-0.85,0-1.638,0.355-2.219,1c-0.125,0.139-0.321,0.198-0.5,0.148c-0.182-0.049-0.321-0.195-0.36-0.379
		C30.58,63.165,29.141,62,27.5,62c-1.93,0-3.5,1.57-3.5,3.5c0,0.143,0.021,0.28,0.041,0.418c0.029,0.203-0.063,0.438-0.242,0.54
		c-0.179,0.102-0.396,0.118-0.556-0.01C22.878,66.155,22.449,66,22,66c-0.966,0-1.792,0.691-1.963,1.644
		c-0.048,0.267-0.296,0.446-0.569,0.405C19.314,68.025,19.16,68,19,68c-1.654,0-3,1.346-3,3s1.346,3,3,3h7.5
		c0.276,0,0.5,0.224,0.5,0.5S26.776,75,26.5,75H19c-2.206,0-4-1.794-4-4s1.794-4,4-4c0.059,0,0.116,0.002,0.174,0.006
		C19.588,65.82,20.711,65,22,65c0.349,0,0.689,0.061,1.011,0.18C23.176,62.847,25.126,61,27.5,61c1.831,0,3.466,1.127,4.153,2.774
		C32.333,63.276,33.155,63,34,63c2.206,0,4,1.794,4,4c0,0.048-0.001,0.095-0.004,0.142C39.739,67.59,41,69.169,41,71
		C41,73.206,39.206,75,37,75z"/>
	<path style="fill:#472B29;" d="M31.5,74c-0.159,0-0.841,0-1,0c-0.276,0-0.5,0.224-0.5,0.5c0,0.276,0.224,0.5,0.5,0.5
		c0.159,0,0.841,0,1,0c0.276,0,0.5-0.224,0.5-0.5C32,74.224,31.776,74,31.5,74z"/>
</g>
</svg>
