<?xml version="1.0" encoding="iso-8859-1"?>
<!-- Generator: Adobe Illustrator 22.1.0, SVG Export Plug-In . SVG Version: 6.00 Build 0)  -->
<svg version="1.1" id="Layer_1" xmlns="http://www.w3.org/2000/svg" xmlns:xlink="http://www.w3.org/1999/xlink" x="0px" y="0px"
	 viewBox="0 0 100 100" style="enable-background:new 0 0 100 100;" xml:space="preserve">
<path style="fill:#C7EDE6;" d="M87.215,56.71C88.35,54.555,89,52.105,89,49.5c0-6.621-4.159-12.257-10.001-14.478
	C78.999,35.015,79,35.008,79,35c0-11.598-9.402-21-21-21c-9.784,0-17.981,6.701-20.313,15.757C36.211,29.272,34.638,29,33,29
	c-7.692,0-14.023,5.793-14.89,13.252C12.906,43.353,9,47.969,9,53.5C9,59.851,14.149,65,20.5,65c0.177,0,0.352-0.012,0.526-0.022
	C21.022,65.153,21,65.324,21,65.5C21,76.822,30.178,86,41.5,86c6.437,0,12.175-2.972,15.934-7.614C59.612,80.611,62.64,82,66,82
	c4.65,0,8.674-2.65,10.666-6.518C77.718,75.817,78.837,76,80,76c6.075,0,11-4.925,11-11C91,61.689,89.53,58.727,87.215,56.71z"/>
<g>
	<path style="fill:#FDFCEF;" d="M79.5,60.5c0,0,4.015,0,6.5,0s4.5-2.015,4.5-4.5c0-2.333-1.782-4.229-4.055-4.455
		C86.467,51.364,86.5,51.187,86.5,51c0-2.485-2.015-4.5-4.5-4.5c-1.438,0-2.703,0.686-3.527,1.736
		C78.333,45.6,76.171,43.5,73.5,43.5c-2.761,0-5,2.239-5,5c0,0.446,0.077,0.87,0.187,1.282C68.045,49.005,67.086,48.5,66,48.5
		c-1.781,0-3.234,1.335-3.455,3.055C62.364,51.533,62.187,51.5,62,51.5c-2.485,0-4.5,2.015-4.5,4.5s2.015,4.5,4.5,4.5s14.5,0,14.5,0
		V61h3V60.5z"/>
	<path style="fill:#472B29;" d="M73.5,43c-3.033,0-5.5,2.467-5.5,5.5c0,0.016,0,0.031,0,0.047C67.398,48.192,66.71,48,66,48
		c-1.831,0-3.411,1.261-3.858,3.005C62.095,51.002,62.048,51,62,51c-2.757,0-5,2.243-5,5s2.243,5,5,5h14.5
		c0.276,0,0.5-0.224,0.5-0.5S76.776,60,76.5,60H62c-2.206,0-4-1.794-4-4s1.794-4,4-4c0.117,0,0.23,0.017,0.343,0.032l0.141,0.019
		c0.021,0.003,0.041,0.004,0.062,0.004c0.246,0,0.462-0.185,0.495-0.437C63.232,50.125,64.504,49,66,49
		c0.885,0,1.723,0.401,2.301,1.1c0.098,0.118,0.241,0.182,0.386,0.182c0.078,0,0.156-0.018,0.228-0.056
		c0.209-0.107,0.314-0.346,0.254-0.573C69.054,49.218,69,48.852,69,48.5c0-2.481,2.019-4.5,4.5-4.5c2.381,0,4.347,1.872,4.474,4.263
		c0.011,0.208,0.15,0.387,0.349,0.45c0.05,0.016,0.101,0.024,0.152,0.024c0.15,0,0.296-0.069,0.392-0.192
		C79.638,47.563,80.779,47,82,47c2.206,0,4,1.794,4,4c0,0.117-0.017,0.23-0.032,0.343l-0.019,0.141
		c-0.016,0.134,0.022,0.268,0.106,0.373c0.084,0.105,0.207,0.172,0.34,0.185C88.451,52.247,90,53.949,90,56c0,2.206-1.794,4-4,4
		h-6.5c-0.276,0-0.5,0.224-0.5,0.5s0.224,0.5,0.5,0.5H86c2.757,0,5-2.243,5-5c0-2.397-1.689-4.413-4.003-4.877
		C86.999,51.082,87,51.041,87,51c0-2.757-2.243-5-5-5c-1.176,0-2.293,0.416-3.183,1.164C78.219,44.76,76.055,43,73.5,43L73.5,43z"/>
	<path style="fill:#472B29;" d="M72,50c-1.403,0-2.609,0.999-2.913,2.341C68.72,52.119,68.301,52,67.875,52
		c-1.202,0-2.198,0.897-2.353,2.068C65.319,54.022,65.126,54,64.937,54c-1.529,0-2.811,1.2-2.918,2.732
		C62.01,56.87,62.114,56.99,62.251,57c0.006,0,0.012,0,0.018,0c0.13,0,0.24-0.101,0.249-0.232c0.089-1.271,1.151-2.268,2.419-2.268
		c0.229,0,0.47,0.042,0.738,0.127c0.022,0.007,0.045,0.01,0.067,0.01c0.055,0,0.11-0.02,0.156-0.054
		C65.962,54.537,66,54.455,66,54.375c0-1.034,0.841-1.875,1.875-1.875c0.447,0,0.885,0.168,1.231,0.473
		c0.047,0.041,0.106,0.063,0.165,0.063c0.032,0,0.063-0.006,0.093-0.019c0.088-0.035,0.148-0.117,0.155-0.212
		C69.623,51.512,70.712,50.5,72,50.5c0.208,0,0.425,0.034,0.682,0.107c0.023,0.007,0.047,0.01,0.07,0.01
		c0.109,0,0.207-0.073,0.239-0.182c0.038-0.133-0.039-0.271-0.172-0.309C72.517,50.04,72.256,50,72,50L72,50z"/>
	<path style="fill:#472B29;" d="M85.883,51.5c-1.326,0-2.508,0.897-2.874,2.182c-0.038,0.133,0.039,0.271,0.172,0.309
		C83.205,53.997,83.228,54,83.25,54c0.109,0,0.209-0.072,0.24-0.182C83.795,52.748,84.779,52,85.883,52
		c0.117,0,0.23,0.014,0.342,0.029c0.012,0.002,0.023,0.003,0.035,0.003c0.121,0,0.229-0.092,0.246-0.217
		c0.019-0.137-0.077-0.263-0.214-0.281C86.158,51.516,86.022,51.5,85.883,51.5L85.883,51.5z"/>
</g>
<g>
	<path style="fill:#FFFFFF;" d="M15.5,51h-10C5.224,51,5,50.776,5,50.5S5.224,50,5.5,50h10c0.276,0,0.5,0.224,0.5,0.5
		S15.777,51,15.5,51z"/>
	<path style="fill:#FFFFFF;" d="M18.5,51h-1c-0.276,0-0.5-0.224-0.5-0.5s0.224-0.5,0.5-0.5h1c0.276,0,0.5,0.224,0.5,0.5
		S18.777,51,18.5,51z"/>
	<path style="fill:#FFFFFF;" d="M23.491,53H14.5c-0.276,0-0.5-0.224-0.5-0.5s0.224-0.5,0.5-0.5h8.991c0.276,0,0.5,0.224,0.5,0.5
		S23.767,53,23.491,53z"/>
	<path style="fill:#FFFFFF;" d="M12.5,53h-1c-0.276,0-0.5-0.224-0.5-0.5s0.224-0.5,0.5-0.5h1c0.276,0,0.5,0.224,0.5,0.5
		S12.777,53,12.5,53z"/>
	<path style="fill:#FFFFFF;" d="M9.5,53h-2C7.224,53,7,52.776,7,52.5S7.224,52,7.5,52h2c0.276,0,0.5,0.224,0.5,0.5S9.777,53,9.5,53z
		"/>
	<path style="fill:#FFFFFF;" d="M15.5,55h-2c-0.276,0-0.5-0.224-0.5-0.5s0.224-0.5,0.5-0.5h2c0.276,0,0.5,0.224,0.5,0.5
		S15.776,55,15.5,55z"/>
	<path style="fill:#FFFFFF;" d="M18.5,46c-0.177,0-0.823,0-1,0c-0.276,0-0.5,0.224-0.5,0.5c0,0.276,0.224,0.5,0.5,0.5
		c0.177,0,0.823,0,1,0c0.276,0,0.5-0.224,0.5-0.5C19,46.224,18.776,46,18.5,46z"/>
	<path style="fill:#FFFFFF;" d="M18.5,48c-0.177,0-4.823,0-5,0c-0.276,0-0.5,0.224-0.5,0.5c0,0.276,0.224,0.5,0.5,0.5
		c0.177,0,4.823,0,5,0c0.276,0,0.5-0.224,0.5-0.5C19,48.224,18.776,48,18.5,48z"/>
	<path style="fill:#FFFFFF;" d="M23.5,50c-0.177,0-2.823,0-3,0c-0.276,0-0.5,0.224-0.5,0.5c0,0.276,0.224,0.5,0.5,0.5
		c0.177,0,2.823,0,3,0c0.276,0,0.5-0.224,0.5-0.5C24,50.224,23.776,50,23.5,50z"/>
</g>
<g>
	<path style="fill:#FFFFFF;" d="M72.5,24h-10c-0.276,0-0.5-0.224-0.5-0.5s0.224-0.5,0.5-0.5h10c0.276,0,0.5,0.224,0.5,0.5
		S72.776,24,72.5,24z"/>
	<path style="fill:#FFFFFF;" d="M76.5,24h-2c-0.276,0-0.5-0.224-0.5-0.5s0.224-0.5,0.5-0.5h2c0.276,0,0.5,0.224,0.5,0.5
		S76.776,24,76.5,24z"/>
	<path style="fill:#FFFFFF;" d="M81.5,26h-10c-0.276,0-0.5-0.224-0.5-0.5s0.224-0.5,0.5-0.5h10c0.276,0,0.5,0.224,0.5,0.5
		S81.777,26,81.5,26z"/>
	<path style="fill:#FFFFFF;" d="M69.5,26h-1c-0.276,0-0.5-0.224-0.5-0.5s0.224-0.5,0.5-0.5h1c0.276,0,0.5,0.224,0.5,0.5
		S69.776,26,69.5,26z"/>
	<path style="fill:#FFFFFF;" d="M66.47,26H64.5c-0.276,0-0.5-0.224-0.5-0.5s0.224-0.5,0.5-0.5h1.97c0.276,0,0.5,0.224,0.5,0.5
		S66.746,26,66.47,26z"/>
	<path style="fill:#FFFFFF;" d="M75.5,22h-5c-0.276,0-0.5-0.224-0.5-0.5s0.224-0.5,0.5-0.5h5c0.276,0,0.5,0.224,0.5,0.5
		S75.777,22,75.5,22z"/>
	<path style="fill:#FFFFFF;" d="M72.5,28h-2c-0.276,0-0.5-0.224-0.5-0.5s0.224-0.5,0.5-0.5h2c0.276,0,0.5,0.224,0.5,0.5
		S72.776,28,72.5,28z"/>
</g>
<g>
	<path style="fill:#C07853;" d="M53.5,27c1.125,0,2.203,0.266,3.203,0.791c1.479,0.777,2.576,1.994,3.01,3.338
		c0.414,1.282,0.379,2.598-0.099,3.707c-0.062,0.144-0.131,0.284-0.208,0.422L40.518,69.322c-0.773,1.549-2.821,1.669-3.431,1.669
		c-0.724,0-1.428-0.132-1.981-0.372c-2.486-1.078-3.574-2.759-2.93-4.456c0.102-0.236,10.287-23.753,13.944-32.682
		C47.573,29.935,49.13,27,53.5,27"/>
	<path style="fill:#E8A370;" d="M37.894,61.289l0.465,0.211l-0.929,2l-0.5-0.136l0,0l-0.9,1.936l-2.28,4.45l0.55,0.47
		c0.25,0.14,0.52,0.27,0.81,0.4c0.55,0.24,1.25,0.37,1.98,0.37c0.61,0,2.66-0.12,3.43-1.67l18.89-34.06
		c0.07-0.14,0.14-0.28,0.2-0.42c0.02-0.05,0.04-0.1,0.06-0.15l-0.426-0.178c-0.313,0.682-0.781,1.18-1.42,1.506
		c-0.643,0.333-1.458,0.493-2.464,0.493c-0.164,0-0.298-0.02-0.449-0.028c-0.081-0.005-0.165-0.008-0.242-0.015
		c-0.176-0.016-0.344-0.036-0.5-0.064c-0.002,0-0.004-0.001-0.007-0.001c-0.344-0.061-0.641-0.148-0.902-0.254
		c-0.011-0.005-0.023-0.009-0.034-0.014c-1.132-0.472-1.54-1.29-1.676-1.854l0.012-0.027c-0.049-0.219-0.063-0.4-0.063-0.503
		c0-0.455,0.159-0.995,0.493-1.433c-0.019-0.013-0.034-0.028-0.054-0.04L39.753,58.5l-0.5-0.135l0,0L37.894,61.289L37.894,61.289z"
		/>
	<path style="fill:#472B29;" d="M55.375,37C51.123,37,51,34.083,51,33.75c0-1.236,0.862-2.619,2.46-2.749
		c0.275-0.016,0.517,0.183,0.538,0.458c0.022,0.275-0.183,0.517-0.458,0.539C52.418,32.089,52,33.121,52,33.75
		c0,0.375,0.163,2.25,3.375,2.25c1.828,0,2.883-0.526,3.42-1.707c0.115-0.251,0.411-0.362,0.662-0.248
		c0.251,0.114,0.362,0.411,0.248,0.662C59.004,36.25,57.587,37,55.375,37z"/>
	<path style="fill:#472B29;" d="M39.753,59c-0.071,0-0.143-0.015-0.211-0.046c-0.25-0.117-0.358-0.414-0.242-0.665l11.983-25.786
		c0.115-0.251,0.414-0.358,0.664-0.243c0.25,0.117,0.358,0.414,0.242,0.665L40.206,58.711C40.122,58.893,39.941,59,39.753,59z"/>
	<path style="fill:#472B29;" d="M37.43,64c-0.071,0-0.143-0.015-0.211-0.046c-0.25-0.116-0.358-0.414-0.242-0.664l0.929-2
		c0.115-0.251,0.414-0.36,0.664-0.243c0.25,0.116,0.358,0.414,0.242,0.664l-0.929,2C37.799,63.893,37.618,64,37.43,64z"/>
	<path style="fill:#472B29;" d="M53.5,28c0.962,0,1.884,0.228,2.738,0.676c1.249,0.657,2.169,1.663,2.523,2.76
		c0.339,1.052,0.316,2.118-0.066,3.004c-0.048,0.112-0.102,0.221-0.164,0.332L39.664,68.799l-0.021,0.038l-0.019,0.039
		c-0.411,0.823-1.579,1.116-2.536,1.116c-0.582,0-1.159-0.106-1.583-0.29c-0.923-0.4-2.994-1.509-2.389-3.189
		c0.523-1.207,10.35-23.909,13.931-32.652C48.638,29.974,50.073,28,53.5,28 M53.5,26c-5,0-6.823,3.485-8.305,7.102
		C41.5,42.125,31.259,65.765,31.259,65.765c-0.862,2.264,0.46,4.475,3.449,5.771c0.67,0.291,1.511,0.455,2.379,0.455
		c1.718,0,3.538-0.644,4.325-2.222l18.868-34.027c0.092-0.164,0.176-0.335,0.252-0.511c0.574-1.331,0.62-2.897,0.132-4.409
		c-0.514-1.592-1.789-3.018-3.496-3.916C56.001,26.293,54.746,26,53.5,26L53.5,26z"/>
</g>
<g>
	<path style="fill:#C07853;" d="M68.379,43c2.593,0,4.613,2.39,4.621,4.445c0.003,0.992-0.307,1.901-0.874,2.559
		c-0.065,0.075-0.133,0.147-0.228,0.24l-19.499,20.16C52.025,70.799,51.498,71,50.832,71c-0.841,0-1.796-0.345-2.378-0.859
		c-0.55-0.487-2.249-2.198-1.017-3.79L63.05,46.494c1.75-2.313,3.538-3.488,5.312-3.494H68.379L68.379,43z"/>
	<path style="fill:#E8A370;" d="M72.53,49.41c-0.11,0.21-0.25,0.41-0.4,0.59c-0.07,0.08-0.14,0.15-0.23,0.24L52.4,70.4
		c-0.37,0.4-0.9,0.6-1.57,0.6c-0.84,0-1.79-0.35-2.38-0.86c-0.14-0.12-0.35-0.32-0.57-0.57l2.58-3.07l-0.38-0.33l1.67-1.99
		l0.38,0.32l1.68-2l-0.38-0.33l1.69-2l0.38,0.32L66.81,47l0.17-0.47c0.05,0.02,0.11,0.05,0.15,0.09c0.02,0.01,0.03,0.03,0.04,0.04
		c-0.37,0.25-0.67,0.73-0.67,1.22c0,0.21,0.05,0.43,0.13,0.65c0,0,0,0.01,0.01,0.02c0.04,0.13,0.1,0.25,0.17,0.38
		c0.01,0.02,0.03,0.04,0.04,0.07c0.07,0.11,0.14,0.21,0.23,0.32c0.03,0.04,0.07,0.08,0.1,0.11c0.08,0.09,0.16,0.17,0.26,0.25
		c0.06,0.05,0.12,0.1,0.19,0.15c0.08,0.06,0.17,0.12,0.26,0.18c0.09,0.05,0.2,0.09,0.3,0.14c0.08,0.04,0.16,0.08,0.25,0.11
		c0.14,0.05,0.28,0.08,0.42,0.12c0.08,0.02,0.15,0.04,0.24,0.06c0.23,0.04,0.48,0.06,0.74,0.06c0.27,0,0.52-0.02,0.74-0.05
		c0.45-0.06,0.82-0.18,1.13-0.34c0.15-0.08,0.28-0.17,0.4-0.26C72.28,49.71,72.41,49.56,72.53,49.41z"/>
	<path style="fill:#472B29;" d="M47.625,70.375c-0.113,0-0.228-0.039-0.321-0.117c-0.212-0.178-0.239-0.493-0.062-0.705l2.831-3.375
		c0.177-0.212,0.492-0.238,0.704-0.062c0.212,0.178,0.239,0.493,0.062,0.705l-2.831,3.375
		C47.909,70.314,47.768,70.375,47.625,70.375z"/>
	<path style="fill:#472B29;" d="M52.134,65c-0.113,0-0.228-0.039-0.321-0.117c-0.212-0.178-0.239-0.493-0.062-0.705l1.678-2
		c0.178-0.211,0.493-0.238,0.704-0.062c0.212,0.178,0.239,0.493,0.062,0.705l-1.678,2C52.418,64.939,52.276,65,52.134,65z"/>
	<path style="fill:#472B29;" d="M55.5,60.986c-0.113,0-0.228-0.039-0.321-0.117c-0.212-0.178-0.239-0.493-0.062-0.705L66.43,46.679
		c0.178-0.212,0.493-0.238,0.704-0.062c0.212,0.178,0.239,0.493,0.062,0.705L55.883,60.808C55.784,60.926,55.643,60.986,55.5,60.986
		z"/>
	<path style="fill:#472B29;" d="M69.839,51C67.468,51,66,49.378,66,47.875c0-0.821,0.632-1.673,1.379-1.86
		c0.262-0.07,0.539,0.095,0.606,0.364c0.066,0.268-0.096,0.539-0.364,0.606C67.342,47.055,67,47.479,67,47.875
		C67,48.732,67.902,50,69.839,50c1.9,0,2.415-0.856,2.667-1.693c0.079-0.264,0.354-0.414,0.623-0.334
		c0.264,0.08,0.414,0.358,0.334,0.623C72.976,50.213,71.79,51,69.839,51z"/>
	<path style="fill:#472B29;" d="M68.379,43.4c2.369,0,4.214,2.175,4.221,4.046c0.003,0.896-0.273,1.712-0.777,2.296
		c-0.057,0.066-0.117,0.129-0.213,0.223L52.108,70.128c-0.296,0.313-0.725,0.472-1.277,0.472c-0.738,0-1.607-0.312-2.113-0.759
		c-0.621-0.549-1.957-1.965-0.968-3.244l15.617-19.862c1.67-2.208,3.352-3.33,4.993-3.335H68.379L68.379,43.4z M68.379,42
		c-0.006,0-0.012,0-0.017,0c-2.106,0.007-4.166,1.321-6.11,3.891L46.651,65.732c-1.175,1.519-0.738,3.496,1.141,5.158
		c0.722,0.638,1.897,1.11,3.04,1.11c0.85,0,1.682-0.262,2.295-0.91l19.491-20.151c0.092-0.088,0.181-0.182,0.266-0.281
		c0.724-0.84,1.122-1.982,1.118-3.216C73.991,44.869,71.588,42,68.379,42L68.379,42z"/>
</g>
<g>
	<path style="fill:#FDFCEF;" d="M35.5,76.5c0,0,1.567,0,3.5,0s3.5-1.567,3.5-3.5c0-1.781-1.335-3.234-3.055-3.455
		C39.473,69.366,39.5,69.187,39.5,69c0-1.933-1.567-3.5-3.5-3.5c-1.032,0-1.95,0.455-2.59,1.165
		c-0.384-1.808-1.987-3.165-3.91-3.165c-2.209,0-4,1.791-4,4c0,0.191,0.03,0.374,0.056,0.558C25.128,67.714,24.592,67.5,24,67.5
		c-1.228,0-2.245,0.887-2.455,2.055C21.366,69.527,21.187,69.5,21,69.5c-1.933,0-3.5,1.567-3.5,3.5s1.567,3.5,3.5,3.5s7.5,0,7.5,0
		V77h7V76.5z"/>
	<path style="fill:#472B29;" d="M37.25,72C37.112,72,37,71.888,37,71.75c0-1.223,0.995-2.218,2.218-2.218
		c0.034,0.009,0.737-0.001,1.244,0.136c0.133,0.036,0.212,0.173,0.176,0.306c-0.036,0.134-0.173,0.213-0.306,0.176
		c-0.444-0.12-1.1-0.12-1.113-0.118c-0.948,0-1.719,0.771-1.719,1.718C37.5,71.888,37.388,72,37.25,72z"/>
	<circle style="fill:#472B29;" cx="30.5" cy="76.5" r="0.5"/>
	<path style="fill:#472B29;" d="M39,77h-3.5c-0.276,0-0.5-0.224-0.5-0.5s0.224-0.5,0.5-0.5H39c1.654,0,3-1.346,3-3
		c0-1.496-1.125-2.768-2.618-2.959c-0.134-0.018-0.255-0.088-0.336-0.196s-0.115-0.244-0.094-0.377C38.975,69.314,39,69.16,39,69
		c0-1.654-1.346-3-3-3c-0.85,0-1.638,0.355-2.219,1c-0.125,0.139-0.321,0.198-0.5,0.148c-0.182-0.049-0.321-0.195-0.36-0.379
		C32.58,65.165,31.141,64,29.5,64c-1.93,0-3.5,1.57-3.5,3.5c0,0.143,0.021,0.28,0.041,0.418c0.029,0.203-0.063,0.438-0.242,0.54
		c-0.179,0.102-0.396,0.118-0.556-0.01C24.878,68.155,24.449,68,24,68c-0.966,0-1.792,0.691-1.963,1.644
		c-0.048,0.267-0.296,0.446-0.569,0.405C21.314,70.025,21.16,70,21,70c-1.654,0-3,1.346-3,3s1.346,3,3,3h7.5
		c0.276,0,0.5,0.224,0.5,0.5S28.776,77,28.5,77H21c-2.206,0-4-1.794-4-4s1.794-4,4-4c0.059,0,0.116,0.002,0.174,0.006
		C21.588,67.82,22.711,67,24,67c0.349,0,0.689,0.061,1.011,0.18C25.176,64.847,27.126,63,29.5,63c1.831,0,3.466,1.127,4.153,2.774
		C34.333,65.276,35.155,65,36,65c2.206,0,4,1.794,4,4c0,0.048-0.001,0.095-0.004,0.142C41.739,69.59,43,71.169,43,73
		C43,75.206,41.206,77,39,77z"/>
	<path style="fill:#472B29;" d="M33.5,76c-0.159,0-0.841,0-1,0c-0.276,0-0.5,0.224-0.5,0.5c0,0.276,0.224,0.5,0.5,0.5
		c0.159,0,0.841,0,1,0c0.276,0,0.5-0.224,0.5-0.5C34,76.224,33.776,76,33.5,76z"/>
</g>
</svg>
