<?xml version="1.0" encoding="iso-8859-1"?>
<!-- Generator: Adobe Illustrator 22.1.0, SVG Export Plug-In . SVG Version: 6.00 Build 0)  -->
<svg version="1.1" id="Layer_1" xmlns="http://www.w3.org/2000/svg" xmlns:xlink="http://www.w3.org/1999/xlink" x="0px" y="0px"
	 viewBox="0 0 100 100" style="enable-background:new 0 0 100 100;" xml:space="preserve">
<g>
	<path style="fill:#C7EDE6;" d="M87.215,56.71C88.35,54.555,89,52.105,89,49.5c0-6.621-4.159-12.257-10.001-14.478
		C78.999,35.015,79,35.008,79,35c0-11.598-9.402-21-21-21c-9.784,0-17.981,6.701-20.313,15.757C36.211,29.272,34.638,29,33,29
		c-7.692,0-14.023,5.793-14.89,13.252C12.906,43.353,9,47.969,9,53.5C9,59.851,14.149,65,20.5,65c0.177,0,0.352-0.012,0.526-0.022
		C21.022,65.153,21,65.324,21,65.5C21,76.822,30.178,86,41.5,86c6.437,0,12.175-2.972,15.934-7.614C59.612,80.611,62.64,82,66,82
		c4.65,0,8.674-2.65,10.666-6.518C77.718,75.817,78.837,76,80,76c6.075,0,11-4.925,11-11C91,61.689,89.53,58.727,87.215,56.71z"/>
	<g>
		<path style="fill:#FDFCEF;" d="M54.374,57.547c0.078-0.351,0.126-0.672,0.126-1.047c0-2.761-2.239-5-5-5
			c-1.656,0-3.113,0.815-4.022,2.055C45.25,50.726,42.887,48.5,40,48.5c-3.038,0-5.5,2.462-5.5,5.5c0,0.386,0.047,0.759,0.124,1.122
			C34.007,54.733,33.283,54.5,32.5,54.5c-1.898,0-3.479,1.325-3.889,3.098C28.256,57.542,27.887,57.5,27.5,57.5
			c-2.761,0-5,2.239-5,5s2.239,5,5,5s11,0,11,0h4c0,0,8.239,0,11,0s5-2.239,5-5C58.5,60.038,56.717,57.962,54.374,57.547z"/>
		<path style="fill:#472B29;" d="M53.5,68h-26c-3.033,0-5.5-2.467-5.5-5.5s2.467-5.5,5.5-5.5c0.24,0,0.484,0.014,0.75,0.044
			C28.864,55.23,30.552,54,32.5,54c0.514,0,1.022,0.091,1.506,0.266C34.002,54.177,34,54.088,34,54c0-3.309,2.691-6,6-6
			c2.737,0,5.103,1.885,5.792,4.452C46.798,51.52,48.103,51,49.5,51c3.033,0,5.5,2.467,5.5,5.5c0,0.223-0.015,0.437-0.047,0.665
			C57.326,57.813,59,59.981,59,62.5C59,65.533,56.533,68,53.5,68z M27.5,58c-2.481,0-4.5,2.019-4.5,4.5s2.019,4.5,4.5,4.5h26
			c2.481,0,4.5-2.019,4.5-4.5c0-2.204-1.562-4.08-3.714-4.461c-0.134-0.023-0.253-0.101-0.329-0.215
			c-0.076-0.113-0.102-0.253-0.072-0.386C53.967,57.073,54,56.801,54,56.5c0-2.481-2.019-4.5-4.5-4.5
			c-1.437,0-2.756,0.674-3.619,1.851c-0.124,0.169-0.338,0.243-0.54,0.185c-0.201-0.057-0.345-0.233-0.362-0.441
			C44.772,51.018,42.585,49,40,49c-2.757,0-5,2.243-5,5c0,0.327,0.037,0.66,0.113,1.019c0.042,0.197-0.039,0.399-0.204,0.514
			c-0.164,0.115-0.383,0.121-0.552,0.013C33.792,55.188,33.149,55,32.5,55c-1.634,0-3.033,1.115-3.402,2.711
			c-0.059,0.256-0.304,0.426-0.567,0.381C28.14,58.029,27.812,58,27.5,58z"/>
		<path style="fill:#472B29;" d="M28.25,63C28.112,63,28,62.888,28,62.75c0-1.517,1.233-2.75,2.75-2.75
			c0.129,0,0.259,0.011,0.398,0.034C31.536,58.825,32.65,58,33.937,58c0.479,0,0.944,0.115,1.363,0.335
			C35.872,56.926,37.221,56,38.75,56c0.138,0,0.25,0.112,0.25,0.25s-0.112,0.25-0.25,0.25c-1.414,0-2.65,0.917-3.078,2.28
			c-0.024,0.075-0.082,0.135-0.156,0.161c-0.075,0.026-0.157,0.016-0.223-0.028c-0.402-0.271-0.871-0.413-1.356-0.413
			c-1.135,0-2.109,0.774-2.368,1.883c-0.015,0.065-0.056,0.122-0.113,0.156c-0.056,0.036-0.125,0.046-0.19,0.03
			c-0.193-0.047-0.358-0.069-0.517-0.069c-1.241,0-2.25,1.009-2.25,2.25C28.5,62.888,28.388,63,28.25,63z"/>
		<path style="fill:#472B29;" d="M51.25,60C51.112,60,51,59.888,51,59.75c0-1.241,1.29-2.25,2.875-2.25
			c0.367,0,0.799,0.085,1.081,0.165c0.133,0.038,0.21,0.176,0.173,0.309s-0.177,0.209-0.309,0.173
			C54.582,58.079,54.191,58,53.875,58c-1.31,0-2.375,0.785-2.375,1.75C51.5,59.888,51.388,60,51.25,60z"/>
	</g>
	<g>
		<path style="fill:#FDFCEF;" d="M79.5,76.5H84c1.933,0,3.5-1.567,3.5-3.5c0-1.814-1.385-3.288-3.152-3.465
			C84.437,69.203,84.5,68.86,84.5,68.5c0-2.209-1.791-4-4-4c-1.266,0-2.382,0.6-3.115,1.518C76.936,64.007,75.147,62.5,73,62.5
			c-2.485,0-4.5,2.015-4.5,4.5c0,0.104,0.024,0.202,0.031,0.304C67.996,66.809,67.286,66.5,66.5,66.5c-1.657,0-3,1.343-3,3
			c0,0.127,0.022,0.247,0.037,0.37C63.072,69.641,62.554,69.5,62,69.5c-1.933,0-3.5,1.567-3.5,3.5s1.567,3.5,3.5,3.5s9.5,0,9.5,0V77
			h8V76.5z"/>
		<path style="fill:#472B29;" d="M84,77h-4.5c-0.276,0-0.5-0.224-0.5-0.5s0.224-0.5,0.5-0.5H84c1.654,0,3-1.346,3-3
			c0-1.538-1.162-2.813-2.702-2.967c-0.146-0.015-0.278-0.093-0.362-0.213c-0.083-0.121-0.109-0.272-0.071-0.414
			C83.957,69.063,84,68.775,84,68.5c0-1.93-1.57-3.5-3.5-3.5c-1.057,0-2.049,0.485-2.724,1.331c-0.12,0.15-0.315,0.217-0.503,0.175
			c-0.188-0.043-0.333-0.19-0.375-0.378C76.487,64.286,74.884,63,73,63c-2.206,0-4,1.794-4,4c0,0.037,0.006,0.073,0.012,0.109
			c0.007,0.053,0.014,0.107,0.018,0.162c0.014,0.204-0.099,0.396-0.283,0.484c-0.185,0.088-0.405,0.056-0.555-0.084
			C67.723,67.238,67.123,67,66.5,67c-1.378,0-2.5,1.122-2.5,2.5c0,0.075,0.012,0.146,0.021,0.219
			c0.026,0.183-0.046,0.407-0.197,0.516c-0.149,0.108-0.34,0.166-0.508,0.084C62.888,70.107,62.444,70,62,70c-1.654,0-3,1.346-3,3
			s1.346,3,3,3h9.5c0.276,0,0.5,0.224,0.5,0.5S71.776,77,71.5,77H62c-2.206,0-4-1.794-4-4s1.794-4,4-4
			c0.343,0,0.684,0.046,1.019,0.139C63.2,67.378,64.692,66,66.5,66c0.538,0,1.063,0.126,1.541,0.363C68.354,63.906,70.458,62,73,62
			c2.058,0,3.847,1.227,4.609,3.071C78.416,64.382,79.432,64,80.5,64c2.481,0,4.5,2.019,4.5,4.5c0,0.206-0.017,0.413-0.053,0.631
			C86.722,69.558,88,71.134,88,73C88,75.206,86.206,77,84,77z"/>
		<circle style="fill:#472B29;" cx="73.5" cy="76.5" r="0.5"/>
		<path style="fill:#472B29;" d="M76.5,77h-1c-0.276,0-0.5-0.224-0.5-0.5s0.224-0.5,0.5-0.5h1c0.276,0,0.5,0.224,0.5,0.5
			S76.776,77,76.5,77z"/>
		<path style="fill:#472B29;" d="M81.25,72C81.112,72,81,71.888,81,71.75c0-1.252,1.341-2.232,3.053-2.232
			c0.135,0,0.713,0.039,1.037,0.163c0.129,0.049,0.193,0.194,0.144,0.323c-0.049,0.129-0.194,0.194-0.323,0.144
			c-0.22-0.084-0.707-0.129-0.858-0.129c-1.408,0-2.553,0.777-2.553,1.732C81.5,71.888,81.388,72,81.25,72z"/>
	</g>
	<g>
		<path style="fill:#FFFFFF;" d="M11.5,51h-2C9.224,51,9,50.776,9,50.5S9.224,50,9.5,50h2c0.276,0,0.5,0.224,0.5,0.5
			S11.776,51,11.5,51z"/>
		<path style="fill:#FFFFFF;" d="M17.5,53h-2c-0.276,0-0.5-0.224-0.5-0.5s0.224-0.5,0.5-0.5h2c0.276,0,0.5,0.224,0.5,0.5
			S17.776,53,17.5,53z"/>
		<path style="fill:#FFFFFF;" d="M17.5,49h-9C8.224,49,8,48.776,8,48.5S8.224,48,8.5,48h9c0.276,0,0.5,0.224,0.5,0.5
			S17.776,49,17.5,49z"/>
		<path style="fill:#FFFFFF;" d="M14.5,51h-1c-0.276,0-0.5-0.224-0.5-0.5s0.224-0.5,0.5-0.5h1c0.276,0,0.5,0.224,0.5,0.5
			S14.776,51,14.5,51z"/>
		<path style="fill:#FFFFFF;" d="M20.5,45h-1c-0.276,0-0.5-0.224-0.5-0.5s0.224-0.5,0.5-0.5h1c0.276,0,0.5,0.224,0.5,0.5
			S20.776,45,20.5,45z"/>
		<path style="fill:#FFFFFF;" d="M20.5,47h-5c-0.276,0-0.5-0.224-0.5-0.5s0.224-0.5,0.5-0.5h5c0.276,0,0.5,0.224,0.5,0.5
			S20.776,47,20.5,47z"/>
		<path style="fill:#FFFFFF;" d="M25.5,49h-3c-0.276,0-0.5-0.224-0.5-0.5s0.224-0.5,0.5-0.5h3c0.276,0,0.5,0.224,0.5,0.5
			S25.776,49,25.5,49z"/>
		<path style="fill:#FFFFFF;" d="M26.5,51h-10c-0.276,0-0.5-0.224-0.5-0.5s0.224-0.5,0.5-0.5h10c0.276,0,0.5,0.224,0.5,0.5
			S26.776,51,26.5,51z"/>
		<path style="fill:#FFFFFF;" d="M20.5,49h-1c-0.276,0-0.5-0.224-0.5-0.5s0.224-0.5,0.5-0.5h1c0.276,0,0.5,0.224,0.5,0.5
			S20.776,49,20.5,49z"/>
	</g>
	<g>
		<path style="fill:#FFFFFF;" d="M74.5,50h-1c-0.276,0-0.5-0.224-0.5-0.5s0.224-0.5,0.5-0.5h1c0.276,0,0.5,0.224,0.5,0.5
			S74.776,50,74.5,50z"/>
		<path style="fill:#FFFFFF;" d="M77.5,50h-1c-0.276,0-0.5-0.224-0.5-0.5s0.224-0.5,0.5-0.5h1c0.276,0,0.5,0.224,0.5,0.5
			S77.776,50,77.5,50z"/>
		<path style="fill:#FFFFFF;" d="M80.5,52h-2c-0.276,0-0.5-0.224-0.5-0.5s0.224-0.5,0.5-0.5h2c0.276,0,0.5,0.224,0.5,0.5
			S80.776,52,80.5,52z"/>
		<path style="fill:#FFFFFF;" d="M87.5,54h-1c-0.276,0-0.5-0.224-0.5-0.5s0.224-0.5,0.5-0.5h1c0.276,0,0.5,0.224,0.5,0.5
			S87.776,54,87.5,54z"/>
		<path style="fill:#FFFFFF;" d="M91.5,54h-2c-0.276,0-0.5-0.224-0.5-0.5s0.224-0.5,0.5-0.5h2c0.276,0,0.5,0.224,0.5,0.5
			S91.776,54,91.5,54z"/>
		<path style="fill:#FFFFFF;" d="M84.5,54h-10c-0.276,0-0.5-0.224-0.5-0.5s0.224-0.5,0.5-0.5h10c0.276,0,0.5,0.224,0.5,0.5
			S84.776,54,84.5,54z"/>
		<path style="fill:#FFFFFF;" d="M87.5,52h-5c-0.276,0-0.5-0.224-0.5-0.5s0.224-0.5,0.5-0.5h5c0.276,0,0.5,0.224,0.5,0.5
			S87.776,52,87.5,52z"/>
		<path style="fill:#FFFFFF;" d="M89.5,50h-10c-0.276,0-0.5-0.224-0.5-0.5s0.224-0.5,0.5-0.5h10c0.276,0,0.5,0.224,0.5,0.5
			S89.776,50,89.5,50z"/>
	</g>
</g>
<g>
	<g>
		<g>
			<path style="fill:#E55838;" d="M70.154,31.955l-1.279,1.795c0,0-5.875,0.25-7.952-3.104L52,22.25
				C63.375,22.25,65.75,30.75,70.154,31.955"/>
			<path style="fill:#472B29;" d="M68.556,34.005c-1.293,0-5.95-0.213-7.828-3.199l-8.899-8.374
				c-0.075-0.07-0.099-0.179-0.061-0.274S51.897,22,52,22c7.533,0,11.13,3.632,14.02,6.551c1.468,1.482,2.736,2.763,4.2,3.164
				c0.079,0.021,0.142,0.081,0.169,0.157c0.027,0.077,0.016,0.163-0.032,0.229l-1.279,1.794c-0.045,0.063-0.116,0.102-0.193,0.105
				C68.855,34.001,68.739,34.005,68.556,34.005z M52.64,22.509l8.454,7.955c0.016,0.015,0.03,0.032,0.041,0.05
				c1.817,2.934,6.777,3,7.609,2.988l1.007-1.413c-1.444-0.519-2.676-1.763-4.086-3.188C62.924,26.134,59.532,22.709,52.64,22.509z"
				/>
		</g>
		<path style="fill:#F45834;" d="M64.671,41.625L67.5,36.5h-2.875C63.558,27.56,58,22.5,52,22.5s-11.558,5.06-12.625,14H36.5
			l3,5.375L64.671,41.625z"/>
		<g>
			<circle style="fill:#88AE45;" cx="70.5" cy="32.5" r="2.25"/>
			<path style="fill:#472B29;" d="M70.5,35c-1.378,0-2.5-1.122-2.5-2.5s1.122-2.5,2.5-2.5s2.5,1.122,2.5,2.5S71.878,35,70.5,35z
				 M70.5,30.5c-1.103,0-2,0.897-2,2s0.897,2,2,2s2-0.897,2-2S71.603,30.5,70.5,30.5z"/>
		</g>
	</g>
	<g>
		<path style="fill:#F47C22;" d="M38.4,47c0.58,2.87,1.575,5.96-0.025,8.5c0.445,0.268,1.388,0.427,1.905,0.38
			c0.351,1.093-0.338,2.497-0.905,3.495c1.068,0.495,2.428,0.261,3.125-0.125c0.844,2.18,3.022,3.372,5.35,3.58h8.3
			c2.328-0.208,4.506-1.4,5.35-3.58c0.697,0.386,2.057,0.62,3.125,0.125c-0.567-0.998-1.256-2.402-0.905-3.495
			c0.517,0.047,1.46-0.112,1.905-0.38c-1.6-2.54-0.605-5.63-0.025-8.5H38.4z"/>
		<path style="fill:#472B29;" d="M56.149,63.18c-0.179,0-0.332-0.137-0.348-0.319c-0.017-0.193,0.125-0.363,0.317-0.38
			c2.436-0.218,4.325-1.473,5.055-3.358c0.036-0.094,0.112-0.168,0.207-0.203c0.095-0.035,0.2-0.027,0.289,0.023
			c0.51,0.283,1.546,0.509,2.452,0.246c-0.57-1.061-1.083-2.333-0.735-3.417c0.05-0.156,0.197-0.255,0.365-0.242
			c0.343,0.032,0.947-0.048,1.375-0.192c-1.209-2.251-0.649-4.812-0.107-7.293c0.082-0.375,0.164-0.747,0.238-1.116
			c0.039-0.189,0.22-0.312,0.413-0.274c0.189,0.039,0.312,0.223,0.274,0.413c-0.076,0.373-0.158,0.749-0.24,1.126
			c-0.541,2.472-1.099,5.027,0.218,7.118c0.05,0.08,0.066,0.176,0.044,0.268c-0.021,0.091-0.079,0.17-0.16,0.219
			c-0.431,0.259-1.225,0.422-1.81,0.437c-0.14,0.932,0.454,2.122,0.934,2.965c0.048,0.085,0.059,0.187,0.029,0.279
			c-0.03,0.093-0.098,0.17-0.186,0.211c-0.985,0.458-2.24,0.361-3.093,0.027c-0.913,1.947-2.939,3.231-5.499,3.459
			C56.17,63.18,56.16,63.18,56.149,63.18z"/>
		<path style="fill:#472B29;" d="M47.851,63.18c-0.011,0-0.021,0-0.032-0.001c-2.56-0.229-4.586-1.512-5.499-3.459
			c-0.853,0.334-2.107,0.43-3.092-0.027c-0.088-0.041-0.156-0.118-0.186-0.211c-0.03-0.093-0.019-0.194,0.029-0.279
			c0.479-0.843,1.074-2.034,0.934-2.965c-0.585-0.015-1.379-0.178-1.81-0.437c-0.081-0.048-0.138-0.127-0.16-0.219
			c-0.022-0.092-0.006-0.188,0.044-0.268c1.317-2.091,0.758-4.646,0.218-7.118c-0.083-0.378-0.165-0.754-0.24-1.126
			c-0.038-0.189,0.084-0.374,0.274-0.413c0.187-0.038,0.374,0.084,0.413,0.274c0.074,0.369,0.156,0.741,0.238,1.116
			c0.542,2.481,1.102,5.042-0.107,7.293c0.428,0.144,1.03,0.225,1.375,0.192c0.17-0.014,0.315,0.086,0.365,0.242
			c0.348,1.083-0.165,2.356-0.735,3.417c0.907,0.264,1.943,0.037,2.453-0.246c0.088-0.05,0.194-0.058,0.289-0.023
			c0.095,0.035,0.171,0.108,0.207,0.203c0.73,1.885,2.62,3.14,5.055,3.358c0.192,0.017,0.334,0.187,0.317,0.38
			C48.183,63.043,48.03,63.18,47.851,63.18z"/>
	</g>
	<path style="fill:#E55838;" d="M57.5,60.75c0,0.75,0.876,1.216,1.5,1.374c2.398,0.608,8.5,2.501,9.33,3.296
		c1.633,0.831,3.17,4.705,3.17,4.705C67,74,60,76.5,52,76.5S37,74,32.5,70.125c0,0,1.537-3.874,3.17-4.705
		c0.83-0.795,6.932-2.687,9.33-3.296c0.624-0.158,1.5-0.624,1.5-1.374H57.5z"/>
	<path style="fill:#E5AC80;" d="M57.5,60.75c0-0.5,0-2.25,0-2.25h-11c0,0,0,1.75,0,2.25c0,0.537-0.449,0.925-0.933,1.162L45.625,62
		c0,0,1.25,2.5,6.375,2.625C57.125,64.5,58.375,62,58.375,62l0.041-0.096C57.939,61.666,57.5,61.28,57.5,60.75z"/>
	<g>
		<path style="fill:#93BC39;" d="M45.625,62l-0.031-0.102C45.393,62,45.186,62.077,45,62.124c-1.317,0.334-3.749,1.055-5.813,1.77
			l0.063,0.231c1.75,4.374,6.5,6.5,9.375,6.5c2.795,0,3.375-6,3.375-6C46.875,64.5,45.625,62,45.625,62z"/>
		<path style="fill:#472B29;" d="M48.625,71c-2.918,0-7.865-2.09-9.723-6.736l-0.077-0.271c-0.052-0.191,0.052-0.389,0.239-0.454
			c2.106-0.729,4.534-1.446,5.844-1.778c0.164-0.042,0.347-0.112,0.518-0.198c0.098-0.05,0.214-0.054,0.315-0.01
			s0.179,0.129,0.211,0.235l0.02,0.064c0.141,0.237,1.494,2.287,6.038,2.398c0.104,0.002,0.202,0.048,0.271,0.126
			c0.069,0.078,0.103,0.181,0.092,0.285C52.348,64.92,51.725,71,48.625,71z M39.654,64.13c1.73,4.162,6.363,6.12,8.971,6.12
			c1.862,0,2.717-3.494,2.956-5.265c-4.153-0.209-5.728-1.975-6.159-2.602c-0.111,0.042-0.221,0.077-0.329,0.104
			C43.869,62.798,41.656,63.45,39.654,64.13z"/>
	</g>
	<g>
		<path style="fill:#93BC39;" d="M59,62.124c-0.183-0.046-0.386-0.122-0.584-0.221L58.375,62c0,0-1.25,2.5-6.375,2.625
			c0,0,0.58,6,3.375,6c2.875,0,7.625-2.126,9.375-6.5l0.081-0.225C62.763,63.184,60.321,62.459,59,62.124z"/>
		<path style="fill:#472B29;" d="M55.375,71c-3.1,0-3.723-6.08-3.748-6.339c-0.01-0.104,0.023-0.207,0.092-0.285
			c0.069-0.078,0.167-0.124,0.271-0.126c4.844-0.118,6.038-2.395,6.049-2.417l0.033-0.077c0.041-0.095,0.119-0.168,0.215-0.204
			c0.096-0.035,0.204-0.029,0.296,0.016c0.169,0.084,0.35,0.153,0.509,0.193l0,0c1.312,0.333,3.746,1.052,5.861,1.784
			c0.095,0.033,0.172,0.102,0.216,0.193c0.043,0.09,0.048,0.194,0.015,0.289l-0.081,0.225C63.24,68.91,58.293,71,55.375,71z
			 M52.42,64.985c0.239,1.771,1.096,5.265,2.955,5.265c2.6,0,7.212-1.946,8.968-6.121c-2.005-0.681-4.214-1.331-5.436-1.641l0,0
			c-0.107-0.027-0.219-0.063-0.331-0.105C58.13,63.029,56.55,64.777,52.42,64.985z"/>
	</g>
	<path style="fill:#EDBC94;" d="M63.8,43.51c-0.97-0.04-1.2,0.1-1.2-0.51c0.031-0.413,0.027-2.043,0.012-3.897
		C60.78,37.807,57.559,36.499,52,36.499c-5.628,0-8.823,1.333-10.612,2.64c-0.016,1.84-0.019,3.45,0.012,3.861
		c0,0.61-0.18,0.46-1.15,0.5l-0.45-0.01c-1,0-2.3,0.01-2.3,0.01s0.89,4.877,1.64,6.5c0.43,0.81,1.11,0.92,1.81,1.45
		c0.312,0.247,0.428,0.549,0.57,1c0.502,1.599,1.419,3.036,2.68,4.14c0.673,0.574,1.4,1.261,2.131,1.785h0.419
		c0,0,3.31,2.385,5.25,2.375c1.94,0.01,5.25-2.375,5.25-2.375h0.419c0.731-0.524,1.459-1.211,2.131-1.785
		c1.261-1.104,2.178-2.541,2.68-4.14c0.142-0.451,0.258-0.753,0.57-1c0.7-0.53,1.38-0.64,1.81-1.45c0.75-1.623,1.64-6.5,1.64-6.5
		s-1.25,0-2.25,0L63.8,43.51z"/>
	<path style="fill:#472B29;" d="M52,77c-7.806,0-15.032-2.368-19.826-6.496c-0.162-0.139-0.217-0.365-0.139-0.563
		c0.163-0.41,1.624-3.994,3.35-4.936c1.173-0.967,7.567-2.877,9.492-3.365C45.421,61.502,46,61.143,46,60.75v-1.99
		c-0.524-0.379-1.034-0.831-1.529-1.269c-0.202-0.179-0.401-0.355-0.595-0.521c-1.318-1.153-2.296-2.663-2.833-4.37
		c-0.135-0.431-0.216-0.61-0.403-0.758c-0.201-0.152-0.41-0.269-0.608-0.381c-0.479-0.272-0.975-0.553-1.333-1.227
		c-0.78-1.686-1.653-6.443-1.69-6.645c-0.027-0.146,0.012-0.295,0.106-0.409s0.234-0.18,0.381-0.181c0,0,1.302-0.01,2.304-0.01
		L40.261,43c0.232-0.011,0.454-0.007,0.638-0.01C40.835,42.125,40.963,39.272,41,38h1c-0.033,1.153-0.164,4.125-0.102,4.963
		c0.001,1.025-0.642,1.027-1.159,1.028c-0.129,0-0.284,0.001-0.469,0.008l-0.481-0.009c-0.56,0-1.219,0.003-1.686,0.006
		c0.26,1.333,0.926,4.573,1.49,5.794c0.209,0.392,0.512,0.563,0.931,0.801c0.234,0.133,0.479,0.273,0.728,0.461
		c0.436,0.345,0.589,0.752,0.745,1.249c0.481,1.532,1.357,2.885,2.532,3.913c0.194,0.166,0.397,0.346,0.604,0.528
		c0.541,0.479,1.1,0.973,1.647,1.345C46.918,58.179,47,58.334,47,58.5v2.25c0,1.021-1.011,1.64-1.877,1.859
		c-2.969,0.752-8.455,2.546-9.107,3.172c-0.035,0.034-0.075,0.062-0.119,0.084c-1.088,0.554-2.278,2.912-2.795,4.113
		C37.717,73.81,44.58,76,52,76c0.276,0,0.5,0.224,0.5,0.5S52.276,77,52,77z"/>
	<path style="fill:#472B29;" d="M52,77c-0.276,0-0.5-0.224-0.5-0.5S51.724,76,52,76c7.42,0,14.283-2.19,18.898-6.021
		c-0.517-1.202-1.707-3.56-2.795-4.113c-0.043-0.022-0.083-0.051-0.119-0.084c-0.653-0.625-6.138-2.419-9.107-3.172
		C58.011,62.39,57,61.771,57,60.75V58.5c0-0.166,0.082-0.321,0.219-0.414c0.548-0.372,1.107-0.866,1.647-1.345
		c0.207-0.183,0.41-0.363,0.608-0.532c1.17-1.024,2.046-2.377,2.528-3.909c0.156-0.497,0.309-0.904,0.736-1.242
		c0.257-0.194,0.502-0.334,0.736-0.467c0.419-0.237,0.722-0.409,0.942-0.825c0.555-1.2,1.218-4.431,1.478-5.766l-2.085,0.01
		c-0.207-0.008-0.357-0.009-0.486-0.009c-0.545-0.004-1.224-0.009-1.224-1c0.065-0.888-0.024-3.587-0.058-5h1
		c0.057,2.389,0.114,4.146,0.059,4.997c0.19,0.004,0.423,0,0.719,0.013L64.239,43H66.5c0.148,0,0.289,0.066,0.384,0.18
		c0.095,0.114,0.135,0.264,0.108,0.41c-0.037,0.202-0.91,4.959-1.678,6.62c-0.37,0.698-0.865,0.979-1.345,1.251
		c-0.199,0.112-0.407,0.229-0.617,0.388c-0.178,0.142-0.259,0.321-0.395,0.751c-0.537,1.708-1.515,3.217-2.828,4.366
		c-0.199,0.169-0.397,0.346-0.6,0.524c-0.495,0.438-1.005,0.89-1.529,1.269v1.99c0,0.393,0.579,0.752,1.123,0.89
		c1.925,0.488,8.319,2.398,9.492,3.365c1.726,0.942,3.187,4.526,3.35,4.936c0.079,0.198,0.023,0.424-0.139,0.563
		C67.032,74.632,59.806,77,52,77z M63.108,43.132h0.01H63.108z"/>
	<path style="fill:#472B29;" d="M57.17,51.6c-0.032-0.013-0.068-0.013-0.1,0H57c-1.51,1-3.125,1.4-5,1.4s-3.49-0.4-5-1.4h-0.07
		c-0.032-0.013-0.068-0.013-0.1,0c-0.047,0.047-0.047,0.123,0,0.17c0,0,0,0,0,0c1.555,1.082,3.17,1.605,5.17,1.605
		s3.615-0.523,5.17-1.605c0,0,0,0,0,0C57.217,51.723,57.217,51.647,57.17,51.6z"/>
	<path style="fill:#895D3D;" d="M40.077,47.659l-0.26-2.29c-0.012-0.106,0.033-0.211,0.119-0.275c0.087-0.063,0.2-0.077,0.298-0.034
		l1.48,0.64l-0.238,0.551l-1.004-0.435l0.201,1.775L40.077,47.659z"/>
	<path style="fill:#472B29;" d="M41.75,52.45c-0.085,0-0.165-0.055-0.191-0.142c-0.505-1.639-0.164-8.996-0.149-9.308
		c0.005-0.11,0.099-0.179,0.209-0.19c0.11,0.005,0.196,0.099,0.19,0.209c-0.003,0.076-0.353,7.599,0.131,9.172
		c0.033,0.105-0.026,0.217-0.132,0.25C41.789,52.447,41.77,52.45,41.75,52.45z"/>
	<g>
		<path style="fill:#472B29;" d="M42.991,71.629c-0.023,0-0.047-0.006-0.068-0.02c-0.058-0.038-0.074-0.115-0.037-0.173l1.384-2.129
			c0.038-0.058,0.114-0.075,0.173-0.037c0.058,0.038,0.074,0.115,0.037,0.173l-1.384,2.129
			C43.072,71.609,43.032,71.629,42.991,71.629z"/>
		<path style="fill:#472B29;" d="M41.209,71.875c-0.023,0-0.047-0.006-0.068-0.02c-0.058-0.038-0.074-0.115-0.037-0.173l1.969-3.029
			c0.038-0.058,0.114-0.074,0.173-0.037c0.058,0.038,0.074,0.115,0.037,0.173l-1.969,3.029
			C41.291,71.855,41.25,71.875,41.209,71.875z"/>
		<path style="fill:#472B29;" d="M39.424,72.125c-0.023,0-0.047-0.006-0.068-0.02c-0.058-0.038-0.074-0.115-0.037-0.173l2.7-4.152
			c0.038-0.057,0.115-0.074,0.173-0.037c0.058,0.038,0.074,0.115,0.037,0.173l-2.7,4.152C39.505,72.105,39.465,72.125,39.424,72.125
			z"/>
		<path style="fill:#472B29;" d="M37.729,72.239c-0.023,0-0.047-0.006-0.068-0.02c-0.058-0.038-0.074-0.115-0.037-0.173l3.316-5.102
			c0.038-0.058,0.114-0.074,0.173-0.037c0.058,0.038,0.074,0.115,0.037,0.173l-3.316,5.102C37.81,72.219,37.77,72.239,37.729,72.239
			z"/>
		<path style="fill:#472B29;" d="M35.89,72.573c-0.023,0-0.047-0.006-0.068-0.02c-0.058-0.038-0.074-0.115-0.037-0.173l4.141-6.37
			c0.037-0.057,0.115-0.074,0.173-0.037c0.058,0.038,0.074,0.115,0.037,0.173l-4.141,6.37C35.971,72.553,35.931,72.573,35.89,72.573
			z"/>
		<path style="fill:#472B29;" d="M34.862,71.658c-0.023,0-0.047-0.006-0.068-0.02c-0.058-0.038-0.074-0.115-0.037-0.173l4.43-6.815
			c0.037-0.057,0.115-0.075,0.173-0.037c0.058,0.038,0.074,0.115,0.037,0.173l-4.43,6.815
			C34.943,71.638,34.903,71.658,34.862,71.658z"/>
		<path style="fill:#472B29;" d="M33.694,70.96c-0.023,0-0.047-0.006-0.068-0.02c-0.058-0.038-0.074-0.115-0.037-0.173l3.966-6.101
			c0.038-0.057,0.114-0.074,0.173-0.037c0.058,0.038,0.074,0.115,0.037,0.173l-3.966,6.101C33.775,70.94,33.735,70.96,33.694,70.96z
			"/>
	</g>
	<path style="fill:#472B29;" d="M53.76,49.007C53.76,49.007,53.76,49.007,53.76,49.007c-0.047-0.047-0.123-0.047-0.17-0.001
		c0,0,0,0,0,0c-0.415,0.428-0.965,0.618-1.59,0.62c-0.625-0.002-1.175-0.192-1.59-0.62c0,0,0,0,0,0c-0.047-0.047-0.123-0.047-0.17,0
		c0,0,0,0,0,0c-0.047,0.047-0.047,0.123,0,0.17C50.687,49.686,51.25,50,52,50c0.75,0,1.313-0.314,1.76-0.823
		C53.807,49.13,53.807,49.054,53.76,49.007z"/>
	<path style="fill:#472B29;" d="M47.25,42c-0.47,0-0.875,0.341-1.088,0.84c0.103-0.053,0.215-0.09,0.338-0.09
		c0.414,0,0.75,0.336,0.75,0.75c0,0.414-0.336,0.75-0.75,0.75c-0.169,0-0.317-0.066-0.442-0.16c0.155,0.669,0.627,1.16,1.192,1.16
		c0.69,0,1.25-0.728,1.25-1.625S47.94,42,47.25,42z"/>
	<path style="fill:#472B29;" d="M56.75,42c-0.47,0-0.875,0.341-1.088,0.84c0.103-0.053,0.215-0.09,0.338-0.09
		c0.414,0,0.75,0.336,0.75,0.75c0,0.414-0.336,0.75-0.75,0.75c-0.169,0-0.317-0.066-0.442-0.16c0.155,0.669,0.627,1.16,1.192,1.16
		c0.69,0,1.25-0.728,1.25-1.625S57.44,42,56.75,42z"/>
	<path style="fill:#472B29;" d="M54.051,40.702l-0.426-0.898c1.875-0.553,3.875-0.428,5.625,0.195l-0.535,0.877
		C57.203,40.362,55.592,40.302,54.051,40.702z"/>
	<path style="fill:#895D3D;" d="M63.923,47.659l-0.596-0.067l0.201-1.775l-1.004,0.435L62.286,45.7l1.48-0.64
		c0.098-0.042,0.212-0.028,0.298,0.034c0.086,0.064,0.131,0.168,0.119,0.275L63.923,47.659z"/>
	<path style="fill:#472B29;" d="M62.25,52.45c-0.02,0-0.039-0.003-0.059-0.009c-0.106-0.032-0.165-0.144-0.132-0.25
		c0.484-1.574,0.135-9.096,0.131-9.172c-0.005-0.11,0.08-0.204,0.19-0.209c0.109,0.01,0.204,0.08,0.209,0.19
		c0.015,0.312,0.356,7.669-0.149,9.308C62.415,52.395,62.335,52.45,62.25,52.45z"/>
	<path style="fill:#472B29;" d="M52.012,61c-0.008,0-0.017,0-0.027,0c-1.997,0-5.244-2.323-5.381-2.422
		c-0.112-0.081-0.138-0.237-0.057-0.349c0.08-0.113,0.236-0.139,0.349-0.057c0.033,0.023,3.256,2.364,5.103,2.327
		c0.004,0,0.008,0,0.012,0c1.84,0,5.061-2.304,5.094-2.327c0.11-0.082,0.267-0.057,0.349,0.057c0.081,0.112,0.056,0.268-0.057,0.349
		C57.259,58.677,54.012,61,52.012,61z"/>
	<path style="fill:#472B29;" d="M39.477,43.774c-0.603-1.658-0.771-3.285-0.501-4.837l0.985,0.172
		c-0.24,1.377-0.086,2.832,0.455,4.323L39.477,43.774z"/>
	<path style="fill:#472B29;" d="M64.617,43.774l-0.939-0.342c0.542-1.491,0.695-2.946,0.455-4.323l0.985-0.172
		C65.388,40.488,65.22,42.116,64.617,43.774z"/>
	<g>
		<path style="fill:#F47C22;" d="M39.728,40.774C39.904,43.752,41.594,46,41.594,46c0-2.375,0.751-4.552,1.5-6.125
			c0.409-0.858,0.73-1.565,0.989-2.158C41.577,38.661,40.32,39.94,39.728,40.774z"/>
		<path style="fill:#472B29;" d="M41.594,46.125c-0.039,0-0.076-0.018-0.1-0.05c-0.017-0.023-1.714-2.313-1.891-5.293
			c-0.001-0.028,0.006-0.057,0.023-0.08c0.635-0.896,1.917-2.162,4.413-3.102c0.047-0.017,0.1-0.005,0.135,0.031
			c0.034,0.036,0.044,0.09,0.024,0.136c-0.291,0.666-0.615,1.373-0.991,2.162c-0.679,1.425-1.488,3.635-1.488,6.071
			c0,0.054-0.034,0.102-0.085,0.119C41.621,46.123,41.607,46.125,41.594,46.125z M39.856,40.811c0.144,2.24,1.165,4.075,1.62,4.791
			c0.081-2.324,0.853-4.41,1.505-5.78c0.323-0.678,0.608-1.296,0.866-1.878C41.626,38.834,40.455,39.979,39.856,40.811z"/>
	</g>
	<g>
		<path style="fill:#F47C22;" d="M46.864,36.95c1.622,1.124,3.991,1.908,5.136,1.925c0,0-0.622-1.247-0.941-2.348
			C49.466,36.572,48.063,36.718,46.864,36.95z"/>
		<path style="fill:#472B29;" d="M52,39c0,0-0.001,0-0.002,0c-1.182-0.017-3.556-0.804-5.206-1.947
			c-0.041-0.028-0.062-0.079-0.051-0.128c0.011-0.049,0.049-0.087,0.099-0.097c1.23-0.238,2.648-0.381,4.216-0.426
			c0.001,0,0.002,0,0.003,0c0.056,0,0.104,0.037,0.12,0.09c0.312,1.078,0.927,2.314,0.933,2.327c0.02,0.039,0.017,0.085-0.006,0.122
			S52.043,39,52,39z M47.189,37.017c1.481,0.95,3.488,1.63,4.607,1.723c-0.18-0.38-0.582-1.265-0.83-2.085
			C49.577,36.698,48.309,36.82,47.189,37.017z"/>
		<path style="fill:#F47C22;" d="M52,36.499c-0.059,0-0.11,0.005-0.169,0.005c1.158,1.553,4.103,4.621,9.294,4.621
			c0.71,1.591,1.25,2,1.285,4.375c0,0,1.764-1.882,1.954-4.72C63.29,39.317,60.166,36.499,52,36.499z"/>
		<path style="fill:#472B29;" d="M62.41,45.625c-0.015,0-0.03-0.003-0.045-0.008c-0.048-0.019-0.079-0.064-0.08-0.115
			c-0.027-1.819-0.345-2.448-0.828-3.401c-0.125-0.248-0.267-0.526-0.414-0.851c-5.093-0.031-8.019-2.936-9.313-4.671
			c-0.028-0.038-0.033-0.088-0.012-0.13c0.021-0.042,0.063-0.069,0.111-0.069l0.075-0.002c0.031-0.001,0.061-0.002,0.094-0.002
			c8.078,0,11.277,2.714,12.464,4.331c0.018,0.024,0.026,0.053,0.024,0.083c-0.19,2.85-1.914,4.719-1.987,4.797
			C62.477,45.611,62.444,45.625,62.41,45.625z M52.081,36.625C53.422,38.346,56.278,41,61.125,41c0.049,0,0.094,0.029,0.114,0.074
			c0.156,0.35,0.308,0.649,0.441,0.914c0.45,0.89,0.784,1.549,0.846,3.177c0.463-0.592,1.552-2.194,1.709-4.348
			C63.059,39.239,59.928,36.642,52.081,36.625z"/>
	</g>
	<g>
		<path style="fill:#93BC39;" d="M63.25,36.75l-1.5-3.5l-3.5,1.5l-2.75-3.5l-3.5,2.5l-3.5-2.5l-2.75,3.5l-3.5-1.5l-1.5,3.5h-4.116
			l2.616,4.875c0,0,1.716-5.126,12.75-5.126c11.023,0,12.869,5.141,12.869,5.141l2.527-4.89H63.25z"/>
		<path style="fill:#472B29;" d="M64.869,41.89c-0.005,0-0.01,0-0.016,0c-0.099-0.006-0.185-0.071-0.219-0.164
			c-0.019-0.05-1.95-4.976-12.634-4.976c-10.689,0-12.496,4.906-12.513,4.956c-0.032,0.094-0.117,0.161-0.216,0.168
			c-0.097,0.01-0.194-0.043-0.241-0.13l-2.616-4.875c-0.042-0.078-0.04-0.171,0.006-0.247c0.045-0.075,0.126-0.122,0.214-0.122
			h3.951l1.435-3.349c0.055-0.127,0.201-0.187,0.329-0.131l3.323,1.425l2.631-3.349c0.083-0.105,0.234-0.126,0.342-0.049L52,33.442
			l3.354-2.396c0.108-0.077,0.259-0.056,0.342,0.049l2.631,3.349l3.323-1.425c0.126-0.054,0.273,0.004,0.329,0.131l1.435,3.349
			h3.981c0.087,0,0.168,0.045,0.213,0.12c0.045,0.074,0.049,0.167,0.009,0.245l-2.527,4.89C65.048,41.838,64.962,41.89,64.869,41.89
			z M52,36.25c9.221,0,12.119,3.531,12.875,4.836L66.985,37H63.25c-0.1,0-0.19-0.06-0.23-0.151l-1.401-3.271l-3.27,1.402
			c-0.105,0.044-0.226,0.014-0.295-0.076l-2.602-3.312l-3.306,2.361c-0.087,0.062-0.204,0.062-0.291,0l-3.306-2.361l-2.602,3.312
			c-0.071,0.089-0.19,0.121-0.295,0.076l-3.27-1.402l-1.401,3.271C40.94,36.94,40.85,37,40.75,37h-3.698l2.183,4.069
			C39.965,39.761,42.783,36.25,52,36.25z"/>
	</g>
	<path style="fill:#472B29;" d="M39.5,42.375c-0.175,0-0.346-0.092-0.437-0.256l-3-5.375c-0.086-0.155-0.084-0.344,0.005-0.497
		C36.159,36.094,36.323,36,36.5,36h2.435C40.254,26.333,46.41,22,52,22s11.746,4.333,13.065,14H67.5
		c0.177,0,0.341,0.093,0.431,0.246s0.093,0.341,0.007,0.496l-2.829,5.125c-0.134,0.241-0.438,0.329-0.68,0.196
		c-0.242-0.134-0.33-0.438-0.196-0.68L66.653,37h-2.028c-0.253,0-0.466-0.189-0.497-0.441C63.011,27.192,57.232,23,52,23
		s-11.011,4.192-12.128,13.559C39.841,36.811,39.628,37,39.375,37h-2.023l2.585,4.631l-0.193,0.68
		C39.744,42.312,39.583,42.375,39.5,42.375z"/>
	<path style="fill:#472B29;" d="M49.949,40.702l0.426-0.898C48.5,39.25,46.5,39.375,44.75,39.998l0.535,0.877
		C46.797,40.362,48.408,40.302,49.949,40.702z"/>
</g>
</svg>
