<?xml version="1.0" encoding="iso-8859-1"?>
<!-- Generator: Adobe Illustrator 22.1.0, SVG Export Plug-In . SVG Version: 6.00 Build 0)  -->
<svg version="1.1" id="Layer_1" xmlns="http://www.w3.org/2000/svg" xmlns:xlink="http://www.w3.org/1999/xlink" x="0px" y="0px"
	 viewBox="0 0 100 100" style="enable-background:new 0 0 100 100;" xml:space="preserve">
<path style="fill:#C7EDE6;" d="M87.215,56.71C88.35,54.555,89,52.105,89,49.5c0-6.621-4.159-12.257-10.001-14.478
	C78.999,35.015,79,35.008,79,35c0-11.598-9.402-21-21-21c-9.784,0-17.981,6.701-20.313,15.757C36.211,29.272,34.638,29,33,29
	c-7.692,0-14.023,5.793-14.89,13.252C12.906,43.353,9,47.969,9,53.5C9,59.851,14.149,65,20.5,65c0.177,0,0.352-0.012,0.526-0.022
	C21.022,65.153,21,65.324,21,65.5C21,76.822,30.178,86,41.5,86c6.437,0,12.175-2.972,15.934-7.614C59.612,80.611,62.64,82,66,82
	c4.65,0,8.674-2.65,10.666-6.518C77.718,75.817,78.837,76,80,76c6.075,0,11-4.925,11-11C91,61.689,89.53,58.727,87.215,56.71z"/>
<g>
	<path style="fill:#FDFCEF;" d="M77.5,60.5V61h3v-0.5c0,0,4.242,0,5.5,0c2.485,0,4.5-2.015,4.5-4.5c0-2.333-1.782-4.229-4.055-4.455
		C86.467,51.364,86.5,51.187,86.5,51c0-2.485-2.015-4.5-4.5-4.5c-1.438,0-2.703,0.686-3.527,1.736
		C78.333,45.6,76.171,43.5,73.5,43.5c-2.761,0-5,2.239-5,5c0,0.446,0.077,0.87,0.187,1.282C68.045,49.005,67.086,48.5,66,48.5
		c-1.781,0-3.234,1.335-3.455,3.055C62.364,51.533,62.187,51.5,62,51.5c-2.485,0-4.5,2.015-4.5,4.5s2.015,4.5,4.5,4.5s9.5,0,9.5,0
		H77.5z"/>
	<path style="fill:#472B29;" d="M73.5,43c-3.033,0-5.5,2.467-5.5,5.5c0,0.016,0,0.031,0,0.047C67.398,48.192,66.71,48,66,48
		c-1.831,0-3.411,1.261-3.858,3.005C62.095,51.002,62.048,51,62,51c-2.757,0-5,2.243-5,5s2.243,5,5,5h15.5
		c0.276,0,0.5-0.224,0.5-0.5S77.776,60,77.5,60H62c-2.206,0-4-1.794-4-4s1.794-4,4-4c0.117,0,0.23,0.017,0.343,0.032l0.141,0.019
		c0.021,0.003,0.041,0.004,0.062,0.004c0.246,0,0.462-0.185,0.495-0.437C63.232,50.125,64.504,49,66,49
		c0.885,0,1.723,0.401,2.301,1.1c0.098,0.118,0.241,0.182,0.386,0.182c0.078,0,0.156-0.018,0.228-0.056
		c0.209-0.107,0.314-0.346,0.254-0.573C69.054,49.218,69,48.852,69,48.5c0-2.481,2.019-4.5,4.5-4.5c2.381,0,4.347,1.872,4.474,4.263
		c0.011,0.208,0.15,0.387,0.349,0.45c0.05,0.016,0.101,0.024,0.152,0.024c0.15,0,0.296-0.069,0.392-0.192
		C79.638,47.563,80.779,47,82,47c2.206,0,4,1.794,4,4c0,0.117-0.017,0.23-0.032,0.343l-0.019,0.141
		c-0.016,0.134,0.022,0.268,0.106,0.373c0.084,0.105,0.207,0.172,0.34,0.185C88.451,52.247,90,53.949,90,56c0,2.206-1.794,4-4,4
		h-5.5c-0.276,0-0.5,0.224-0.5,0.5s0.224,0.5,0.5,0.5H86c2.757,0,5-2.243,5-5c0-2.397-1.689-4.413-4.003-4.877
		C86.999,51.082,87,51.041,87,51c0-2.757-2.243-5-5-5c-1.176,0-2.293,0.416-3.183,1.164C78.219,44.76,76.055,43,73.5,43L73.5,43z"/>
	<path style="fill:#472B29;" d="M72,50c-1.403,0-2.609,0.999-2.913,2.341C68.72,52.119,68.301,52,67.875,52
		c-1.202,0-2.198,0.897-2.353,2.068C65.319,54.022,65.126,54,64.938,54c-1.529,0-2.811,1.2-2.918,2.732
		C62.01,56.87,62.114,56.99,62.251,57c0.006,0,0.012,0,0.018,0c0.13,0,0.24-0.101,0.249-0.232c0.089-1.271,1.151-2.268,2.419-2.268
		c0.229,0,0.47,0.042,0.738,0.127c0.022,0.007,0.045,0.01,0.067,0.01c0.055,0,0.11-0.02,0.156-0.054
		C65.962,54.537,66,54.455,66,54.375c0-1.034,0.841-1.875,1.875-1.875c0.447,0,0.885,0.168,1.231,0.473
		c0.047,0.041,0.106,0.063,0.165,0.063c0.032,0,0.063-0.006,0.093-0.019c0.088-0.035,0.148-0.117,0.155-0.212
		C69.623,51.512,70.712,50.5,72,50.5c0.208,0,0.425,0.034,0.682,0.107c0.023,0.007,0.047,0.01,0.07,0.01
		c0.109,0,0.207-0.073,0.239-0.182c0.038-0.133-0.039-0.271-0.172-0.309C72.517,50.04,72.256,50,72,50L72,50z"/>
	<path style="fill:#472B29;" d="M85.883,51.5c-1.326,0-2.508,0.897-2.874,2.182c-0.038,0.133,0.039,0.271,0.172,0.309
		C83.205,53.997,83.228,54,83.25,54c0.109,0,0.209-0.072,0.24-0.182C83.795,52.748,84.779,52,85.883,52
		c0.117,0,0.23,0.014,0.342,0.029c0.012,0.002,0.023,0.003,0.035,0.003c0.121,0,0.229-0.092,0.246-0.217
		c0.019-0.137-0.077-0.263-0.214-0.281C86.158,51.516,86.022,51.5,85.883,51.5L85.883,51.5z"/>
</g>
<g>
	<path style="fill:#FFFFFF;" d="M15.5,51h-10C5.224,51,5,50.776,5,50.5S5.224,50,5.5,50h10c0.276,0,0.5,0.224,0.5,0.5
		S15.777,51,15.5,51z"/>
	<path style="fill:#FFFFFF;" d="M18.5,51h-1c-0.276,0-0.5-0.224-0.5-0.5s0.224-0.5,0.5-0.5h1c0.276,0,0.5,0.224,0.5,0.5
		S18.777,51,18.5,51z"/>
	<path style="fill:#FFFFFF;" d="M23.491,53H14.5c-0.276,0-0.5-0.224-0.5-0.5s0.224-0.5,0.5-0.5h8.991c0.276,0,0.5,0.224,0.5,0.5
		S23.767,53,23.491,53z"/>
	<path style="fill:#FFFFFF;" d="M12.5,53h-1c-0.276,0-0.5-0.224-0.5-0.5s0.224-0.5,0.5-0.5h1c0.276,0,0.5,0.224,0.5,0.5
		S12.777,53,12.5,53z"/>
	<path style="fill:#FFFFFF;" d="M9.5,53h-2C7.224,53,7,52.776,7,52.5S7.224,52,7.5,52h2c0.276,0,0.5,0.224,0.5,0.5S9.777,53,9.5,53z
		"/>
	<path style="fill:#FFFFFF;" d="M15.5,55h-2c-0.276,0-0.5-0.224-0.5-0.5s0.224-0.5,0.5-0.5h2c0.276,0,0.5,0.224,0.5,0.5
		S15.776,55,15.5,55z"/>
	<path style="fill:#FFFFFF;" d="M18.5,46c-0.177,0-0.823,0-1,0c-0.276,0-0.5,0.224-0.5,0.5c0,0.276,0.224,0.5,0.5,0.5
		c0.177,0,0.823,0,1,0c0.276,0,0.5-0.224,0.5-0.5C19,46.224,18.776,46,18.5,46z"/>
	<path style="fill:#FFFFFF;" d="M18.5,48c-0.177,0-4.823,0-5,0c-0.276,0-0.5,0.224-0.5,0.5c0,0.276,0.224,0.5,0.5,0.5
		c0.177,0,4.823,0,5,0c0.276,0,0.5-0.224,0.5-0.5C19,48.224,18.776,48,18.5,48z"/>
	<path style="fill:#FFFFFF;" d="M23.5,50c-0.177,0-2.823,0-3,0c-0.276,0-0.5,0.224-0.5,0.5c0,0.276,0.224,0.5,0.5,0.5
		c0.177,0,2.823,0,3,0c0.276,0,0.5-0.224,0.5-0.5C24,50.224,23.776,50,23.5,50z"/>
</g>
<g>
	<path style="fill:#FFFFFF;" d="M66.5,20h-10c-0.276,0-0.5-0.224-0.5-0.5s0.224-0.5,0.5-0.5h10c0.276,0,0.5,0.224,0.5,0.5
		S66.776,20,66.5,20z"/>
	<path style="fill:#FFFFFF;" d="M69.5,20h-1c-0.276,0-0.5-0.224-0.5-0.5s0.224-0.5,0.5-0.5h1c0.276,0,0.5,0.224,0.5,0.5
		S69.776,20,69.5,20z"/>
	<path style="fill:#FFFFFF;" d="M73.5,20h-2c-0.276,0-0.5-0.224-0.5-0.5s0.224-0.5,0.5-0.5h2c0.276,0,0.5,0.224,0.5,0.5
		S73.776,20,73.5,20z"/>
	<path style="fill:#FFFFFF;" d="M75.5,22h-10c-0.276,0-0.5-0.224-0.5-0.5s0.224-0.5,0.5-0.5h10c0.276,0,0.5,0.224,0.5,0.5
		S75.777,22,75.5,22z"/>
	<path style="fill:#FFFFFF;" d="M63.5,22h-1c-0.276,0-0.5-0.224-0.5-0.5s0.224-0.5,0.5-0.5h1c0.276,0,0.5,0.224,0.5,0.5
		S63.776,22,63.5,22z"/>
	<path style="fill:#FFFFFF;" d="M60.47,22H58.5c-0.276,0-0.5-0.224-0.5-0.5s0.224-0.5,0.5-0.5h1.97c0.276,0,0.5,0.224,0.5,0.5
		S60.746,22,60.47,22z"/>
	<path style="fill:#FFFFFF;" d="M72.5,18h-8c-0.276,0-0.5-0.224-0.5-0.5s0.224-0.5,0.5-0.5h8c0.276,0,0.5,0.224,0.5,0.5
		S72.777,18,72.5,18z"/>
	<path style="fill:#FFFFFF;" d="M66.5,24h-2c-0.276,0-0.5-0.224-0.5-0.5s0.224-0.5,0.5-0.5h2c0.276,0,0.5,0.224,0.5,0.5
		S66.776,24,66.5,24z"/>
</g>
<g>
	<path style="fill:#C07853;" d="M31,27.5c-0.827,0-1.5,0.673-1.5,1.5v42c0,0.276,0.224,0.5,0.5,0.5h42c0.276,0,0.5-0.224,0.5-0.5V29
		c0-0.827-0.673-1.5-1.5-1.5H31z"/>
	<g>
		<path style="fill:#DD9B6F;" d="M65.975,59.625H65.6c-0.049-1.483-0.311-2.909-0.764-4.25l0.352-0.118
			c-0.206-0.61-0.452-1.199-0.731-1.771l-0.343,0.14c-0.21-0.429-0.438-0.846-0.687-1.25l0.276-0.257
			c-0.374-0.602-0.781-1.18-1.233-1.72l-0.29,0.227c-2.683-3.208-6.693-5.25-11.181-5.25c-8.078,0-14.625,6.602-14.625,14.748V71
			h29.25v-5.625L66,65.37v-5.247C66,59.955,65.98,59.792,65.975,59.625z"/>
		<path style="fill:#472B29;" d="M66,71.777H36V60.123C36,51.784,42.729,45,51,45c4.427,0,8.607,1.962,11.468,5.384
			c0.133,0.159,0.112,0.396-0.047,0.528c-0.16,0.132-0.396,0.111-0.528-0.047C59.174,47.615,55.204,45.75,51,45.75
			c-7.857,0-14.25,6.448-14.25,14.373v10.904h28.5v-5.652c0-0.207,0.168-0.375,0.375-0.375S66,65.168,66,65.375V71.777z"/>
		<path style="fill:#472B29;" d="M64.115,54c-0.139,0-0.272-0.077-0.337-0.21c-0.204-0.418-0.429-0.828-0.669-1.218
			c-0.108-0.176-0.054-0.407,0.123-0.516c0.176-0.108,0.407-0.054,0.516,0.123c0.252,0.411,0.49,0.842,0.704,1.282
			c0.091,0.186,0.014,0.411-0.172,0.501C64.226,53.988,64.17,54,64.115,54z"/>
		<path style="fill:#472B29;" d="M65.6,60c-0.202,0-0.368-0.16-0.375-0.362c-0.047-1.425-0.297-2.819-0.744-4.143
			c-0.066-0.196,0.04-0.409,0.236-0.475c0.196-0.064,0.409,0.04,0.475,0.236c0.47,1.393,0.733,2.859,0.783,4.357
			c0.007,0.207-0.156,0.38-0.362,0.388C65.608,60,65.604,60,65.6,60z"/>
	</g>
	<g>
		<path style="fill:#1F212B;" d="M62.625,71.625h-23.25V60.098c0-6.476,5.203-11.723,11.625-11.723s11.625,5.247,11.625,11.723
			V71.625z"/>
		<path style="fill:#472B29;" d="M63,72H39V60.098C39,53.427,44.383,48,51,48s12,5.427,12,12.098V72z M39.75,71.25h22.5V60.098
			c0-6.257-5.047-11.348-11.25-11.348s-11.25,5.09-11.25,11.348V71.25z"/>
	</g>
	<g>
		<path style="fill:#FC7C59;" d="M56.75,62.875c0-5.094-5.447-9.625-5.447-9.625c0,3.229-6.053,5.721-6.053,10.625
			c0,2.875,2.783,4.125,6,4.125S56.75,66.675,56.75,62.875z"/>
		<path style="fill:#472B29;" d="M51.25,68.25c-3.855,0-6.25-1.676-6.25-4.375c0-2.806,1.894-4.831,3.564-6.617
			c1.335-1.428,2.488-2.661,2.488-4.008c0-0.097,0.056-0.185,0.144-0.227c0.086-0.04,0.191-0.028,0.266,0.034
			C51.688,53.246,57,57.723,57,62.875C57,66.441,55.065,68.25,51.25,68.25z M51.506,53.766c-0.241,1.337-1.379,2.554-2.576,3.833
			c-1.607,1.719-3.43,3.667-3.43,6.275c0,2.857,2.97,3.875,5.75,3.875c3.533,0,5.25-1.595,5.25-4.875
			C56.5,58.717,52.711,54.881,51.506,53.766z"/>
	</g>
	<g>
		<g>
			<path style="fill:#F9D27A;" d="M53.995,64.764l-0.251-0.014c-0.003-0.169-0.009-0.337-0.024-0.5l0.247-0.037
				c-0.052-0.551-0.169-1.06-0.323-1.54l-0.238,0.076c-0.684-2.136-2.156-3.5-2.156-3.5c0,2-3,3.625-3,5.695
				C48.25,67,49.75,67.5,51,67.5c0.996,0,1.872-0.478,2.355-1.25l0.212,0.133l0.049-0.085C53.855,65.881,54,65.403,54,64.875
				C54,64.837,53.996,64.802,53.995,64.764z"/>
		</g>
		<path style="fill:#472B29;" d="M51,67.75c-0.902,0-3-0.273-3-2.805c0-1.133,0.801-2.111,1.576-3.056
			C50.309,60.996,51,60.152,51,59.25c0-0.1,0.059-0.189,0.15-0.229c0.091-0.041,0.197-0.021,0.27,0.045
			c0.062,0.058,1.529,1.434,2.225,3.607c0.042,0.131-0.031,0.272-0.162,0.314c-0.131,0.04-0.272-0.031-0.314-0.162
			c-0.452-1.412-1.269-2.486-1.736-3.019c-0.205,0.857-0.846,1.639-1.469,2.399c-0.719,0.877-1.463,1.785-1.463,2.739
			c0,1.905,1.359,2.305,2.5,2.305c0.898,0,1.699-0.423,2.143-1.133c0.074-0.117,0.228-0.152,0.345-0.079
			c0.117,0.073,0.152,0.228,0.079,0.345C53.031,67.239,52.072,67.75,51,67.75z"/>
		<path style="fill:#472B29;" d="M53.744,65c-0.136,0-0.247-0.108-0.25-0.245c-0.003-0.163-0.008-0.324-0.023-0.481
			c-0.013-0.138,0.088-0.26,0.225-0.273c0.138-0.007,0.26,0.087,0.273,0.225c0.016,0.169,0.022,0.344,0.025,0.519
			c0.003,0.138-0.107,0.252-0.245,0.255C53.748,65,53.746,65,53.744,65z"/>
	</g>
	<g>
		<path style="fill:#9F8066;" d="M56.625,71.625h-11.25c-0.552,0-1-0.448-1-1v-2.25c0-0.552,0.448-1,1-1h11.25c0.552,0,1,0.448,1,1
			v2.25C57.625,71.177,57.177,71.625,56.625,71.625z"/>
		<path style="fill:#472B29;" d="M56.625,72h-11.25C44.617,72,44,71.383,44,70.625v-2.25C44,67.617,44.617,67,45.375,67h11.25
			C57.383,67,58,67.617,58,68.375v2.25C58,71.383,57.383,72,56.625,72z M45.375,67.75c-0.345,0-0.625,0.28-0.625,0.625v2.25
			c0,0.345,0.28,0.625,0.625,0.625h11.25c0.345,0,0.625-0.28,0.625-0.625v-2.25c0-0.345-0.28-0.625-0.625-0.625H45.375z"/>
	</g>
	<path style="fill:#472B29;" d="M71,28.4c0.331,0,0.6,0.269,0.6,0.6v41.6H30.4V29c0-0.331,0.269-0.6,0.6-0.6H71 M71,27H31
		c-1.105,0-2,0.895-2,2v42c0,0.552,0.448,1,1,1h42c0.552,0,1-0.448,1-1V29C73,27.895,72.105,27,71,27L71,27z"/>
	<g>
		<path style="fill:#DD9B6F;" d="M74.5,38.5h-47v-6h47V38.5z"/>
		<path style="fill:#472B29;" d="M74.5,39h-47c-0.276,0-0.5-0.224-0.5-0.5v-6c0-0.276,0.224-0.5,0.5-0.5h47
			c0.276,0,0.5,0.224,0.5,0.5v6C75,38.776,74.776,39,74.5,39z M28,38h46v-5H28V38z"/>
	</g>
	<g>
		<path style="fill:#EE3E54;" d="M39,39.238c0,0,1.5,3.512,6.5,3.512c4.125,0,5.5-2.648,5.5-2.648v-1.727H39V39.238z"/>
		<path style="fill:#472B29;" d="M45.5,43c-5.106,0-6.714-3.627-6.73-3.664l-0.02-0.098v-1.113h12.5l-0.028,2.092
			C51.163,40.331,49.728,43,45.5,43z M39.25,39.184c0.196,0.415,1.73,3.316,6.25,3.316c3.647,0,5.036-2.097,5.25-2.463v-1.412h-11.5
			V39.184z"/>
	</g>
	<g>
		<path style="fill:#EE3E54;" d="M30,39.958c0,0,1.125,1.792,4.25,1.792c3.375,0,4.75-2.583,4.75-2.583v-0.792h-9V39.958z"/>
		<path style="fill:#472B29;" d="M34.25,42c-3.226,0-4.413-1.831-4.462-1.909L29.75,40.03v-1.905h9.5l-0.029,1.159
			C39.162,39.395,37.735,42,34.25,42z M30.25,39.88c0.217,0.296,1.336,1.62,4,1.62c2.956,0,4.286-2.036,4.5-2.399v-0.476h-8.5V39.88
			z"/>
	</g>
	<g>
		<path style="fill:#FCC938;" d="M40.75,39c0,0.966-0.784,1.75-1.75,1.75s-1.75-0.784-1.75-1.75s0.784-1.75,1.75-1.75
			S40.75,38.034,40.75,39z"/>
		<path style="fill:#472B29;" d="M39,41c-1.103,0-2-0.897-2-2s0.897-2,2-2s2,0.897,2,2S40.103,41,39,41z M39,37.5
			c-0.827,0-1.5,0.673-1.5,1.5s0.673,1.5,1.5,1.5s1.5-0.673,1.5-1.5S39.827,37.5,39,37.5z"/>
	</g>
	<g>
		<path style="fill:#EE3E54;" d="M63,38.375H51v1.727c0,0,1.375,2.648,5.5,2.648c5,0,6.5-3.512,6.5-3.512V38.375z"/>
		<path style="fill:#472B29;" d="M56.5,43c-4.228,0-5.663-2.669-5.722-2.783l-0.028-0.115v-1.977h12.5l-0.02,1.211
			C63.214,39.373,61.606,43,56.5,43z M51.25,40.037c0.214,0.366,1.603,2.463,5.25,2.463c4.52,0,6.054-2.901,6.25-3.316v-0.559h-11.5
			V40.037z"/>
	</g>
	<g>
		<path style="fill:#EE3E54;" d="M72,38.375h-9v0.792c0,0,1.375,2.583,4.75,2.583c3.125,0,4.25-1.792,4.25-1.792V38.375z"/>
		<path style="fill:#472B29;" d="M67.75,42c-3.485,0-4.912-2.605-4.971-2.716l-0.029-0.118v-1.042h9.5v1.905l-0.038,0.061
			C72.163,40.169,70.976,42,67.75,42z M63.25,39.101c0.214,0.364,1.544,2.399,4.5,2.399c2.647,0,3.786-1.333,4-1.62v-1.255h-8.5
			V39.101z"/>
	</g>
	<g>
		<path style="fill:#FCC938;" d="M63,37.25c0.966,0,1.75,0.784,1.75,1.75s-0.784,1.75-1.75,1.75s-1.75-0.784-1.75-1.75
			S62.034,37.25,63,37.25z"/>
		<path style="fill:#472B29;" d="M63,41c-1.103,0-2-0.897-2-2s0.897-2,2-2s2,0.897,2,2S64.103,41,63,41z M63,37.5
			c-0.827,0-1.5,0.673-1.5,1.5s0.673,1.5,1.5,1.5s1.5-0.673,1.5-1.5S63.827,37.5,63,37.5z"/>
	</g>
	<g>
		<path style="fill:#FCC938;" d="M53.75,39c0,1.52-1.23,2.75-2.75,2.75s-2.75-1.23-2.75-2.75s1.23-2.75,2.75-2.75
			S53.75,37.48,53.75,39z"/>
		<path style="fill:#472B29;" d="M51,42c-1.654,0-3-1.346-3-3s1.346-3,3-3s3,1.346,3,3S52.654,42,51,42z M51,36.5
			c-1.378,0-2.5,1.122-2.5,2.5s1.122,2.5,2.5,2.5s2.5-1.122,2.5-2.5S52.378,36.5,51,36.5z"/>
	</g>
	<path style="fill:#472B29;" d="M40.625,38c0,0.372,0,1,0,1h7.625c0-0.354,0.072-0.689,0.194-1H40.625z"/>
	<path style="fill:#472B29;" d="M61.375,38h-7.819c0.122,0.311,0.194,0.646,0.194,1h7.625V38z"/>
	<path style="fill:#472B29;" d="M74.5,32h-47c-0.276,0-0.5,0.224-0.5,0.5v6c0,0.276,0.224,0.5,0.5,0.5h9.875v-1H28v-5h46v5h-9.375v1
		H74.5c0.276,0,0.5-0.224,0.5-0.5v-6C75,32.224,74.776,32,74.5,32z"/>
</g>
<g>
	<path style="fill:#FDFCEF;" d="M35.5,74.5c0,0,1.567,0,3.5,0s3.5-1.567,3.5-3.5c0-1.781-1.335-3.234-3.055-3.455
		C39.473,67.366,39.5,67.187,39.5,67c0-1.933-1.567-3.5-3.5-3.5c-1.032,0-1.95,0.455-2.59,1.165
		c-0.384-1.808-1.987-3.165-3.91-3.165c-2.209,0-4,1.791-4,4c0,0.191,0.03,0.374,0.056,0.558C25.128,65.714,24.592,65.5,24,65.5
		c-1.228,0-2.245,0.887-2.455,2.055C21.366,67.527,21.187,67.5,21,67.5c-1.933,0-3.5,1.567-3.5,3.5s1.567,3.5,3.5,3.5s7.5,0,7.5,0
		V75h7V74.5z"/>
	<path style="fill:#472B29;" d="M37.25,70C37.112,70,37,69.888,37,69.75c0-1.223,0.995-2.218,2.218-2.218
		c0.034,0.009,0.737-0.001,1.244,0.136c0.133,0.036,0.212,0.173,0.176,0.306c-0.036,0.134-0.173,0.213-0.306,0.176
		c-0.444-0.12-1.1-0.12-1.113-0.118c-0.948,0-1.719,0.771-1.719,1.718C37.5,69.888,37.388,70,37.25,70z"/>
	<circle style="fill:#472B29;" cx="30.5" cy="74.5" r="0.5"/>
	<path style="fill:#472B29;" d="M39,75h-3.5c-0.276,0-0.5-0.224-0.5-0.5s0.224-0.5,0.5-0.5H39c1.654,0,3-1.346,3-3
		c0-1.496-1.125-2.768-2.618-2.959c-0.134-0.018-0.255-0.088-0.336-0.196s-0.115-0.244-0.094-0.377C38.975,67.314,39,67.16,39,67
		c0-1.654-1.346-3-3-3c-0.85,0-1.638,0.355-2.219,1c-0.125,0.139-0.321,0.198-0.5,0.148c-0.182-0.049-0.321-0.195-0.36-0.379
		C32.58,63.165,31.141,62,29.5,62c-1.93,0-3.5,1.57-3.5,3.5c0,0.143,0.021,0.28,0.041,0.418c0.029,0.203-0.063,0.438-0.242,0.54
		c-0.179,0.102-0.396,0.118-0.556-0.01C24.878,66.155,24.449,66,24,66c-0.966,0-1.792,0.691-1.963,1.644
		c-0.048,0.267-0.296,0.446-0.569,0.405C21.314,68.025,21.16,68,21,68c-1.654,0-3,1.346-3,3s1.346,3,3,3h7.5
		c0.276,0,0.5,0.224,0.5,0.5S28.776,75,28.5,75H21c-2.206,0-4-1.794-4-4s1.794-4,4-4c0.059,0,0.116,0.002,0.174,0.006
		C21.588,65.82,22.711,65,24,65c0.349,0,0.689,0.061,1.011,0.18C25.176,62.847,27.126,61,29.5,61c1.831,0,3.466,1.127,4.153,2.774
		C34.333,63.276,35.155,63,36,63c2.206,0,4,1.794,4,4c0,0.048-0.001,0.095-0.004,0.142C41.739,67.59,43,69.169,43,71
		C43,73.206,41.206,75,39,75z"/>
	<path style="fill:#472B29;" d="M33.5,74c-0.159,0-0.841,0-1,0c-0.276,0-0.5,0.224-0.5,0.5c0,0.276,0.224,0.5,0.5,0.5
		c0.159,0,0.841,0,1,0c0.276,0,0.5-0.224,0.5-0.5C34,74.224,33.776,74,33.5,74z"/>
</g>
</svg>
