<?xml version="1.0" encoding="iso-8859-1"?>
<!-- Generator: Adobe Illustrator 22.1.0, SVG Export Plug-In . SVG Version: 6.00 Build 0)  -->
<svg version="1.1" id="Layer_1" xmlns="http://www.w3.org/2000/svg" xmlns:xlink="http://www.w3.org/1999/xlink" x="0px" y="0px"
	 viewBox="0 0 100 100" style="enable-background:new 0 0 100 100;" xml:space="preserve">
<g>
	<path style="fill:#C7EDE6;" d="M87.215,56.71C88.35,54.555,89,52.105,89,49.5c0-6.621-4.159-12.257-10.001-14.478
		C78.999,35.015,79,35.008,79,35c0-11.598-9.402-21-21-21c-9.784,0-17.981,6.701-20.313,15.757C36.211,29.272,34.638,29,33,29
		c-7.692,0-14.023,5.793-14.89,13.252C12.906,43.353,9,47.969,9,53.5C9,59.851,14.149,65,20.5,65c0.177,0,0.352-0.012,0.526-0.022
		C21.022,65.153,21,65.324,21,65.5C21,76.822,30.178,86,41.5,86c6.437,0,12.175-2.972,15.934-7.614C59.612,80.611,62.64,82,66,82
		c4.65,0,8.674-2.65,10.666-6.518C77.718,75.817,78.837,76,80,76c6.075,0,11-4.925,11-11C91,61.689,89.53,58.727,87.215,56.71z"/>
	<g>
		<path style="fill:#FDFCEF;" d="M60.5,74.5V75h-3v-0.5c0,0-4.242,0-5.5,0c-2.485,0-4.5-2.015-4.5-4.5
			c0-2.041,1.364-3.748,3.228-4.294c0.036-0.011,0.072-0.021,0.109-0.03L51.5,65c0-2.485,2.015-4.5,4.5-4.5
			c1.438,0,2.703,0.686,3.527,1.736C59.667,59.6,61.829,57.5,64.5,57.5c2.761,0,5,2.239,5,5c0,0.446-0.077,0.87-0.187,1.282
			c0.642-0.777,1.6-1.282,2.687-1.282c1.781,0,3.234,1.335,3.455,3.055C75.636,65.533,75.813,65.5,76,65.5
			c2.485,0,4.5,2.015,4.5,4.5s-2.015,4.5-4.5,4.5s-9.5,0-9.5,0H60.5z"/>
		<path style="fill:#472B29;" d="M64.5,57c3.033,0,5.5,2.467,5.5,5.5c0,0.016,0,0.031,0,0.047C70.602,62.192,71.29,62,72,62
			c1.831,0,3.411,1.261,3.858,3.005C75.905,65.002,75.952,65,76,65c2.757,0,5,2.243,5,5c0,2.757-2.243,5-5,5H60.5
			c-0.276,0-0.5-0.224-0.5-0.5c0-0.276,0.224-0.5,0.5-0.5H76c2.206,0,4-1.794,4-4c0-2.206-1.794-4-4-4
			c-0.117,0-0.23,0.017-0.343,0.032l-0.141,0.019c-0.021,0.003-0.041,0.004-0.062,0.004c-0.246,0-0.462-0.185-0.495-0.437
			C74.768,64.125,73.496,63,72,63c-0.885,0-1.723,0.401-2.301,1.1c-0.098,0.118-0.241,0.182-0.386,0.182
			c-0.078,0-0.156-0.018-0.228-0.056c-0.209-0.107-0.314-0.346-0.254-0.573C68.946,63.218,69,62.852,69,62.5
			c0-2.481-2.019-4.5-4.5-4.5c-2.381,0-4.347,1.872-4.474,4.263c-0.011,0.208-0.15,0.387-0.349,0.45
			c-0.05,0.016-0.101,0.024-0.152,0.024c-0.15,0-0.296-0.069-0.392-0.192C58.362,61.563,57.221,61,56,61
			c-2.068,0-3.774,1.577-3.979,3.592c-0.007,0.065-0.012,0.131-0.015,0.198l-1.542,1.542c-0.058,0.021-0.109,0.041-0.152,0.061
			C48.933,67.027,48,68.408,48,70c0,2.206,1.794,4,4,4h5.5c0.276,0,0.5,0.224,0.5,0.5c0,0.276-0.224,0.5-0.5,0.5H52
			c-2.757,0-5-2.243-5-5c0-2.397,1.689-4.413,4.003-4.877C51.001,65.082,51,65.041,51,65c0-2.757,2.243-5,5-5
			c1.176,0,2.293,0.416,3.183,1.164C59.781,58.76,61.945,57,64.5,57L64.5,57z"/>
		<path style="fill:#472B29;" d="M66,64c1.403,0,2.609,0.999,2.913,2.341C69.28,66.119,69.699,66,70.125,66
			c1.202,0,2.198,0.897,2.353,2.068C72.681,68.022,72.874,68,73.063,68c1.529,0,2.811,1.2,2.918,2.732
			C75.99,70.87,75.886,70.99,75.749,71c-0.006,0-0.012,0-0.018,0c-0.13,0-0.24-0.101-0.249-0.232
			c-0.089-1.271-1.151-2.268-2.419-2.268c-0.229,0-0.47,0.042-0.738,0.127c-0.022,0.007-0.045,0.01-0.067,0.01
			c-0.055,0-0.11-0.02-0.156-0.054C72.038,68.537,72,68.455,72,68.375c0-1.034-0.841-1.875-1.875-1.875
			c-0.447,0-0.885,0.168-1.231,0.473c-0.047,0.041-0.106,0.063-0.165,0.063c-0.032,0-0.063-0.006-0.093-0.019
			c-0.088-0.035-0.148-0.117-0.155-0.212C68.377,65.512,67.288,64.5,66,64.5c-0.208,0-0.425,0.034-0.682,0.107
			c-0.023,0.007-0.047,0.01-0.07,0.01c-0.109,0-0.207-0.073-0.239-0.182c-0.038-0.133,0.039-0.271,0.172-0.309
			C65.483,64.04,65.744,64,66,64L66,64z"/>
		<path style="fill:#472B29;" d="M54.75,68c-0.106,0-0.204-0.068-0.238-0.174C54.174,66.768,53.065,66,51.875,66
			c-0.447,0-1.002,0.139-1.38,0.345c-0.121,0.066-0.273,0.021-0.339-0.1c-0.066-0.121-0.021-0.273,0.1-0.339
			c0.452-0.246,1.088-0.405,1.62-0.405c1.402,0,2.711,0.915,3.113,2.174c0.042,0.132-0.031,0.272-0.162,0.314
			C54.801,67.996,54.775,68,54.75,68z"/>
	</g>
	<g>
		<path style="fill:#FFFFFF;" d="M19.5,49h-10C9.224,49,9,48.776,9,48.5S9.224,48,9.5,48h10c0.276,0,0.5,0.224,0.5,0.5
			S19.777,49,19.5,49z"/>
		<path style="fill:#FFFFFF;" d="M22.5,49h-1c-0.276,0-0.5-0.224-0.5-0.5s0.224-0.5,0.5-0.5h1c0.276,0,0.5,0.224,0.5,0.5
			S22.777,49,22.5,49z"/>
		<path style="fill:#FFFFFF;" d="M27.491,51H18.5c-0.276,0-0.5-0.224-0.5-0.5s0.224-0.5,0.5-0.5h8.991c0.276,0,0.5,0.224,0.5,0.5
			S27.767,51,27.491,51z"/>
		<path style="fill:#FFFFFF;" d="M16.5,51h-1c-0.276,0-0.5-0.224-0.5-0.5s0.224-0.5,0.5-0.5h1c0.276,0,0.5,0.224,0.5,0.5
			S16.777,51,16.5,51z"/>
		<path style="fill:#FFFFFF;" d="M13.5,51h-2c-0.276,0-0.5-0.224-0.5-0.5s0.224-0.5,0.5-0.5h2c0.276,0,0.5,0.224,0.5,0.5
			S13.777,51,13.5,51z"/>
		<path style="fill:#FFFFFF;" d="M19.5,53h-2c-0.276,0-0.5-0.224-0.5-0.5s0.224-0.5,0.5-0.5h2c0.276,0,0.5,0.224,0.5,0.5
			S19.776,53,19.5,53z"/>
		<path style="fill:#FFFFFF;" d="M22.5,44c-0.177,0-0.823,0-1,0c-0.276,0-0.5,0.224-0.5,0.5c0,0.276,0.224,0.5,0.5,0.5
			c0.177,0,0.823,0,1,0c0.276,0,0.5-0.224,0.5-0.5C23,44.224,22.776,44,22.5,44z"/>
		<path style="fill:#FFFFFF;" d="M22.5,46c-0.177,0-4.823,0-5,0c-0.276,0-0.5,0.224-0.5,0.5c0,0.276,0.224,0.5,0.5,0.5
			c0.177,0,4.823,0,5,0c0.276,0,0.5-0.224,0.5-0.5C23,46.224,22.776,46,22.5,46z"/>
		<path style="fill:#FFFFFF;" d="M27.5,48c-0.177,0-2.823,0-3,0c-0.276,0-0.5,0.224-0.5,0.5c0,0.276,0.224,0.5,0.5,0.5
			c0.177,0,2.823,0,3,0c0.276,0,0.5-0.224,0.5-0.5C28,48.224,27.776,48,27.5,48z"/>
	</g>
	<g>
		<path style="fill:#FFFFFF;" d="M68.5,20h-10c-0.276,0-0.5-0.224-0.5-0.5s0.224-0.5,0.5-0.5h10c0.276,0,0.5,0.224,0.5,0.5
			S68.776,20,68.5,20z"/>
		<path style="fill:#FFFFFF;" d="M72.5,20h-2c-0.276,0-0.5-0.224-0.5-0.5s0.224-0.5,0.5-0.5h2c0.276,0,0.5,0.224,0.5,0.5
			S72.776,20,72.5,20z"/>
		<path style="fill:#FFFFFF;" d="M77.5,22h-10c-0.276,0-0.5-0.224-0.5-0.5s0.224-0.5,0.5-0.5h10c0.276,0,0.5,0.224,0.5,0.5
			S77.777,22,77.5,22z"/>
		<path style="fill:#FFFFFF;" d="M65.5,22h-1c-0.276,0-0.5-0.224-0.5-0.5s0.224-0.5,0.5-0.5h1c0.276,0,0.5,0.224,0.5,0.5
			S65.776,22,65.5,22z"/>
		<path style="fill:#FFFFFF;" d="M62.47,22H60.5c-0.276,0-0.5-0.224-0.5-0.5s0.224-0.5,0.5-0.5h1.97c0.276,0,0.5,0.224,0.5,0.5
			S62.746,22,62.47,22z"/>
		<path style="fill:#FFFFFF;" d="M71.5,18h-5c-0.276,0-0.5-0.224-0.5-0.5s0.224-0.5,0.5-0.5h5c0.276,0,0.5,0.224,0.5,0.5
			S71.777,18,71.5,18z"/>
		<path style="fill:#FFFFFF;" d="M68.5,24h-2c-0.276,0-0.5-0.224-0.5-0.5s0.224-0.5,0.5-0.5h2c0.276,0,0.5,0.224,0.5,0.5
			S68.776,24,68.5,24z"/>
	</g>
	<g>
		<path style="fill:#FDFCEF;" d="M54.5,33.5c0,0,1.567,0,3.5,0s3.5-1.567,3.5-3.5c0-1.781-1.335-3.234-3.055-3.455
			C58.473,26.366,58.5,26.187,58.5,26c0-1.933-1.567-3.5-3.5-3.5c-1.032,0-1.95,0.455-2.59,1.165
			c-0.384-1.808-1.987-3.165-3.91-3.165c-2.209,0-4,1.791-4,4c0,0.191,0.03,0.374,0.056,0.558C44.128,24.714,43.592,24.5,43,24.5
			c-1.228,0-2.245,0.887-2.455,2.055C40.366,26.527,40.187,26.5,40,26.5c-1.933,0-3.5,1.567-3.5,3.5s1.567,3.5,3.5,3.5s6.5,0,6.5,0
			V34h8V33.5z"/>
		<circle style="fill:#472B29;" cx="48.5" cy="33.5" r="0.5"/>
		<path style="fill:#472B29;" d="M58,34h-3.5c-0.276,0-0.5-0.224-0.5-0.5s0.224-0.5,0.5-0.5H58c1.654,0,3-1.346,3-3
			c0-1.496-1.125-2.768-2.618-2.959c-0.134-0.018-0.255-0.088-0.336-0.196s-0.115-0.244-0.094-0.377C57.975,26.314,58,26.16,58,26
			c0-1.654-1.346-3-3-3c-0.85,0-1.638,0.355-2.219,1c-0.125,0.139-0.321,0.198-0.5,0.148c-0.182-0.049-0.321-0.195-0.36-0.379
			C51.58,22.165,50.141,21,48.5,21c-1.93,0-3.5,1.57-3.5,3.5c0,0.143,0.021,0.28,0.041,0.418c0.029,0.203-0.063,0.438-0.242,0.54
			c-0.179,0.102-0.396,0.118-0.556-0.01C43.878,25.155,43.449,25,43,25c-0.966,0-1.792,0.691-1.963,1.644
			c-0.048,0.267-0.296,0.446-0.569,0.405C40.314,27.025,40.16,27,40,27c-1.654,0-3,1.346-3,3s1.346,3,3,3h6.5
			c0.276,0,0.5,0.224,0.5,0.5S46.776,34,46.5,34H40c-2.206,0-4-1.794-4-4s1.794-4,4-4c0.059,0,0.116,0.002,0.174,0.006
			C40.588,24.82,41.711,24,43,24c0.349,0,0.689,0.061,1.011,0.18C44.176,21.847,46.126,20,48.5,20c1.831,0,3.466,1.127,4.153,2.774
			C53.333,22.276,54.155,22,55,22c2.206,0,4,1.794,4,4c0,0.048-0.001,0.095-0.004,0.142C60.739,26.59,62,28.169,62,30
			C62,32.206,60.206,34,58,34z"/>
		<path style="fill:#472B29;" d="M51.5,33c-0.159,0-0.841,0-1,0c-0.276,0-0.5,0.224-0.5,0.5c0,0.276,0.224,0.5,0.5,0.5
			c0.159,0,0.841,0,1,0c0.276,0,0.5-0.224,0.5-0.5C52,33.224,51.776,33,51.5,33z"/>
	</g>
</g>
<g>
	<g>
		<polygon style="fill:#FCC938;" points="27.5,56.49 28.866,58.193 31.102,57.845 30.866,60.015 32.5,61.495 30.799,62.863 
			31.071,65.07 28.866,64.797 27.5,66.499 26.134,64.797 23.929,65.07 24.201,62.863 22.5,61.495 24.201,60.127 23.929,57.92 
			26.134,58.193 		"/>
		<path style="fill:#472B29;" d="M27.5,67c-0.151,0-0.295-0.069-0.39-0.187l-1.192-1.485l-1.929,0.238
			c-0.155,0.017-0.306-0.034-0.415-0.143c-0.109-0.109-0.162-0.262-0.143-0.415l0.238-1.93l-1.483-1.193
			C22.069,61.79,22,61.647,22,61.495s0.069-0.295,0.187-0.39l1.483-1.193l-0.238-1.93c-0.019-0.153,0.034-0.306,0.143-0.415
			c0.109-0.109,0.263-0.159,0.415-0.143l1.928,0.238l1.192-1.485c0.189-0.237,0.59-0.237,0.779,0l1.185,1.476l1.95-0.304
			c0.156-0.023,0.31,0.025,0.422,0.132s0.168,0.261,0.152,0.416l-0.208,1.916l1.445,1.309c0.108,0.098,0.168,0.239,0.165,0.386
			c-0.004,0.147-0.073,0.284-0.187,0.375l-1.483,1.193l0.238,1.93c0.019,0.153-0.034,0.306-0.143,0.415
			c-0.109,0.109-0.259,0.163-0.415,0.143l-1.929-0.238l-1.192,1.485C27.795,66.931,27.651,67,27.5,67z M26.134,64.297
			c0.15,0,0.294,0.068,0.39,0.187l0.977,1.216l0.977-1.216c0.108-0.136,0.278-0.203,0.451-0.183l1.569,0.194l-0.193-1.571
			c-0.021-0.172,0.048-0.343,0.183-0.451l1.244-1l-1.199-1.087c-0.119-0.108-0.179-0.266-0.162-0.425l0.166-1.521l-1.591,0.248
			c-0.18,0.029-0.355-0.042-0.467-0.181L27.5,57.29l-0.977,1.216c-0.108,0.135-0.279,0.204-0.451,0.183l-1.569-0.194l0.193,1.571
			c0.021,0.172-0.048,0.343-0.183,0.451l-1.215,0.978l1.215,0.977c0.135,0.108,0.205,0.279,0.183,0.451l-0.193,1.571l1.569-0.194
			C26.093,64.298,26.114,64.297,26.134,64.297z"/>
	</g>
	<g>
		
			<rect x="33.643" y="65.225" transform="matrix(0.7071 -0.7071 0.7071 0.7071 -35.4104 48.0117)" style="fill:#6D584A;" width="13.214" height="3.049"/>
		<path style="fill:#472B29;" d="M36.656,73c-0.128,0-0.256-0.049-0.354-0.146l-2.156-2.156c-0.195-0.195-0.195-0.512,0-0.707
			l9.344-9.344c0.195-0.195,0.512-0.195,0.707,0l2.156,2.156c0.195,0.195,0.195,0.512,0,0.707l-9.344,9.344
			C36.912,72.951,36.784,73,36.656,73z M35.207,70.344l1.449,1.449l8.637-8.637l-1.449-1.449L35.207,70.344z"/>
	</g>
	<g>
		<path style="fill:#88AE45;" d="M57.935,30.655c-0.418,0-0.836,0.159-1.154,0.477L34.978,52.934c-0.636,0.637-0.636,1.672,0,2.309
			l11.779,11.779c0.637,0.636,1.672,0.636,2.309,0L70.868,45.22c0.636-0.637,0.636-1.672,0-2.309L59.089,31.132
			C58.771,30.814,58.353,30.655,57.935,30.655z"/>
		<path style="fill:#472B29;" d="M57.935,31.554c0.196,0,0.38,0.076,0.518,0.215l11.779,11.779c0.286,0.286,0.286,0.75,0,1.036
			L48.429,66.386c-0.138,0.138-0.322,0.214-0.518,0.214s-0.38-0.076-0.518-0.215L35.615,54.606c-0.286-0.286-0.286-0.75,0-1.036
			l21.802-21.802C57.555,31.63,57.739,31.554,57.935,31.554 M57.935,30.154c-0.546,0-1.091,0.208-1.508,0.625L34.625,52.581
			c-0.833,0.833-0.833,2.183,0,3.016l11.779,11.779C46.82,67.792,47.366,68,47.911,68c0.546,0,1.091-0.208,1.508-0.625l1.044-1.044
			l1.542-1.542l19.216-19.216c0.833-0.833,0.833-2.183,0-3.016L59.442,30.778C59.026,30.362,58.48,30.154,57.935,30.154
			L57.935,30.154z"/>
	</g>
	<g>
		<path style="fill:#EE3E54;" d="M71.037,44.115c0,0.053,0,0.105-0.011,0.168c-0.021,0.263-0.147,0.526-0.357,0.736l-4.016,4.016
			l-0.284,0.284l-20.668-6.707l4.962-4.951L71.037,44.115z"/>
		<path style="fill:#472B29;" d="M66.369,49.819c-0.052,0-0.104-0.008-0.154-0.024l-20.668-6.708
			c-0.166-0.054-0.292-0.19-0.332-0.359c-0.041-0.169,0.01-0.348,0.133-0.471l4.962-4.951c0.132-0.131,0.327-0.179,0.504-0.123
			l20.374,6.455c0.208,0.066,0.349,0.259,0.349,0.477c0,0.078-0.001,0.156-0.017,0.249c-0.026,0.342-0.204,0.715-0.497,1.008
			l-4.3,4.3C66.628,49.768,66.5,49.819,66.369,49.819z M46.632,42.388l19.6,6.36l4.083-4.083c0.063-0.063,0.114-0.134,0.15-0.207
			l-19.665-6.23L46.632,42.388z"/>
	</g>
	<g>
		<path style="fill:#EE3E54;" d="M60.398,55.29l-4.983,4.983l-20.532-6.665c0.063-0.189,0.158-0.336,0.294-0.473l4.626-4.626
			L60.398,55.29z"/>
		<path style="fill:#472B29;" d="M55.415,60.773c-0.052,0-0.104-0.008-0.154-0.024l-20.531-6.665
			c-0.127-0.041-0.232-0.131-0.292-0.25c-0.06-0.119-0.07-0.257-0.028-0.384c0.086-0.26,0.218-0.472,0.415-0.668l4.626-4.625
			c0.133-0.134,0.329-0.181,0.51-0.122l20.594,6.781c0.165,0.055,0.29,0.19,0.33,0.359c0.041,0.169-0.01,0.347-0.133,0.469
			l-4.983,4.983C55.673,60.722,55.545,60.773,55.415,60.773z M35.679,53.34l19.599,6.362l4.192-4.192l-19.531-6.43L35.679,53.34z"/>
	</g>
	<g>
		<path style="fill:#EE3E54;" d="M54.642,30.269l17.089,17.089c0.16,0.159,0.382,0.209,0.594,0.133s0.352-0.256,0.374-0.481
			l1.799-18.888c0.016-0.169-0.044-0.335-0.164-0.456c-0.121-0.121-0.288-0.181-0.456-0.164L54.99,29.301
			c-0.225,0.021-0.404,0.161-0.481,0.374C54.433,29.887,54.483,30.109,54.642,30.269L54.642,30.269z"/>
		<path style="fill:#472B29;" d="M73.563,28.437l-1.694,17.787L55.777,30.131L73.563,28.437 M73.934,27
			c-0.034,0-0.069,0.002-0.103,0.005l-18.888,1.799c-0.899,0.086-1.293,1.18-0.654,1.819l17.089,17.089
			c0.216,0.216,0.485,0.314,0.749,0.314c0.515,0,1.013-0.374,1.07-0.968l1.799-18.888C75.055,27.537,74.555,27,73.934,27L73.934,27z
			"/>
	</g>
	<path style="fill:#472B29;" d="M33.5,60c-0.23,0-0.437-0.16-0.488-0.394c-0.059-0.27,0.113-0.536,0.382-0.595
		c2.382-0.518,3.609-1.593,3.813-1.786c0.04-0.061,0.093-0.113,0.16-0.153c0.169-0.103,0.391-0.099,0.554,0.016
		c0.163,0.114,0.242,0.315,0.203,0.51c-0.091,0.45-1.892,1.82-4.517,2.391C33.57,59.997,33.535,60,33.5,60z"/>
</g>
</svg>
