<?xml version="1.0" encoding="iso-8859-1"?>
<!-- Generator: Adobe Illustrator 22.1.0, SVG Export Plug-In . SVG Version: 6.00 Build 0)  -->
<svg version="1.1" id="Layer_1" xmlns="http://www.w3.org/2000/svg" xmlns:xlink="http://www.w3.org/1999/xlink" x="0px" y="0px"
	 viewBox="0 0 100 100" style="enable-background:new 0 0 100 100;" xml:space="preserve">
<g>
	<g>
		<path style="fill:#C7EDE6;" d="M87.215,56.71C88.35,54.555,89,52.105,89,49.5c0-6.621-4.159-12.257-10.001-14.478
			C78.999,35.015,79,35.008,79,35c0-11.598-9.402-21-21-21c-9.784,0-17.981,6.701-20.313,15.757C36.211,29.272,34.638,29,33,29
			c-7.692,0-14.023,5.793-14.89,13.252C12.906,43.353,9,47.969,9,53.5C9,59.851,14.149,65,20.5,65c0.177,0,0.352-0.012,0.526-0.022
			C21.022,65.153,21,65.324,21,65.5C21,76.822,30.178,86,41.5,86c6.438,0,12.175-2.972,15.934-7.614C59.612,80.611,62.64,82,66,82
			c4.65,0,8.674-2.65,10.666-6.518C77.718,75.817,78.837,76,80,76c6.075,0,11-4.925,11-11C91,61.689,89.53,58.727,87.215,56.71z"/>
		<g>
			<path style="fill:#FDFCEF;" d="M86.445,60.545C86.467,60.364,86.5,60.187,86.5,60c0-2.485-2.015-4.5-4.5-4.5
				c-1.438,0-2.703,0.686-3.527,1.736C78.333,54.6,76.171,52.5,73.5,52.5c-2.761,0-5,2.239-5,5c0,0.446,0.077,0.87,0.187,1.282
				C68.045,58.005,67.086,57.5,66,57.5c-1.781,0-3.234,1.335-3.455,3.055C62.364,60.533,62.187,60.5,62,60.5
				c-2.485,0-4.5,2.015-4.5,4.5s2.015,4.5,4.5,4.5s9.5,0,9.5,0h6V70h3v-0.5c0,0,4.242,0,5.5,0c2.485,0,4.5-2.015,4.5-4.5
				C90.5,62.667,88.718,60.771,86.445,60.545z"/>
			<path style="fill:#472B29;" d="M86.997,60.123C86.999,60.082,87,60.041,87,60c0-2.757-2.243-5-5-5
				c-1.176,0-2.293,0.416-3.183,1.164C78.219,53.76,76.055,52,73.5,52c-3.033,0-5.5,2.467-5.5,5.5c0,0.016,0,0.031,0,0.047
				C67.398,57.192,66.71,57,66,57c-1.831,0-3.411,1.261-3.858,3.005C62.095,60.002,62.048,60,62,60c-2.757,0-5,2.243-5,5
				s2.243,5,5,5h15.5c0.276,0,0.5-0.224,0.5-0.5S77.776,69,77.5,69H62c-2.206,0-4-1.794-4-4s1.794-4,4-4
				c0.117,0,0.23,0.017,0.343,0.032l0.141,0.019c0.021,0.003,0.041,0.004,0.062,0.004c0.246,0,0.462-0.185,0.495-0.437
				C63.232,59.125,64.504,58,66,58c0.885,0,1.723,0.401,2.301,1.1c0.098,0.118,0.241,0.182,0.386,0.182
				c0.077,0,0.156-0.018,0.228-0.056c0.209-0.107,0.314-0.346,0.254-0.573C69.054,58.218,69,57.852,69,57.5
				c0-2.481,2.019-4.5,4.5-4.5c2.381,0,4.347,1.872,4.474,4.263c0.011,0.208,0.15,0.387,0.349,0.45
				c0.05,0.016,0.101,0.024,0.152,0.024c0.15,0,0.296-0.069,0.392-0.192C79.638,56.563,80.779,56,82,56c2.206,0,4,1.794,4,4
				c0,0.117-0.017,0.23-0.032,0.343l-0.019,0.141c-0.016,0.134,0.022,0.268,0.106,0.373s0.207,0.172,0.34,0.185
				C88.451,61.247,90,62.949,90,65c0,2.206-1.794,4-4,4h-5.5c-0.276,0-0.5,0.224-0.5,0.5s0.224,0.5,0.5,0.5H86c2.757,0,5-2.243,5-5
				C91,62.603,89.311,60.587,86.997,60.123z"/>
			<path style="fill:#472B29;" d="M72.818,59.126C72.517,59.04,72.256,59,72,59c-1.403,0-2.609,0.999-2.913,2.341
				C68.72,61.119,68.301,61,67.875,61c-1.202,0-2.198,0.897-2.353,2.068C65.319,63.022,65.126,63,64.938,63
				c-1.529,0-2.811,1.2-2.918,2.732C62.01,65.87,62.114,65.99,62.251,66c0.006,0,0.012,0,0.018,0c0.13,0,0.24-0.101,0.249-0.232
				c0.089-1.271,1.151-2.268,2.419-2.268c0.229,0,0.47,0.042,0.738,0.127c0.022,0.007,0.044,0.01,0.067,0.01
				c0.055,0,0.109-0.02,0.156-0.054C65.962,63.537,66,63.455,66,63.375c0-1.034,0.841-1.875,1.875-1.875
				c0.447,0,0.885,0.168,1.231,0.473c0.047,0.041,0.106,0.063,0.165,0.063c0.032,0,0.064-0.006,0.093-0.019
				c0.088-0.035,0.148-0.117,0.155-0.212C69.623,60.512,70.712,59.5,72,59.5c0.208,0,0.425,0.034,0.682,0.107
				c0.023,0.007,0.047,0.01,0.07,0.01c0.109,0,0.207-0.073,0.239-0.182C73.028,59.302,72.951,59.164,72.818,59.126z"/>
			<path style="fill:#472B29;" d="M86.292,60.534c-0.134-0.018-0.269-0.034-0.408-0.034c-1.326,0-2.508,0.897-2.874,2.182
				c-0.038,0.133,0.039,0.271,0.172,0.309C83.205,62.997,83.228,63,83.25,63c0.109,0,0.209-0.072,0.24-0.182
				C83.795,61.748,84.779,61,85.883,61c0.117,0,0.229,0.014,0.342,0.029c0.012,0.002,0.023,0.003,0.035,0.003
				c0.121,0,0.229-0.092,0.246-0.217C86.524,60.678,86.429,60.552,86.292,60.534z"/>
		</g>
		<g>
			<path style="fill:#FFFFFF;" d="M15.5,51h-10C5.224,51,5,51.224,5,51.5S5.224,52,5.5,52h10c0.277,0,0.5-0.224,0.5-0.5
				S15.776,51,15.5,51z"/>
			<path style="fill:#FFFFFF;" d="M18.5,51h-1c-0.276,0-0.5,0.224-0.5,0.5s0.224,0.5,0.5,0.5h1c0.277,0,0.5-0.224,0.5-0.5
				S18.776,51,18.5,51z"/>
			<path style="fill:#FFFFFF;" d="M23.491,53H14.5c-0.276,0-0.5,0.224-0.5,0.5s0.224,0.5,0.5,0.5h8.991c0.276,0,0.5-0.224,0.5-0.5
				S23.767,53,23.491,53z"/>
			<path style="fill:#FFFFFF;" d="M12.5,53h-1c-0.276,0-0.5,0.224-0.5,0.5s0.224,0.5,0.5,0.5h1c0.277,0,0.5-0.224,0.5-0.5
				S12.776,53,12.5,53z"/>
			<path style="fill:#FFFFFF;" d="M9.5,53h-2C7.224,53,7,53.224,7,53.5S7.224,54,7.5,54h2c0.277,0,0.5-0.224,0.5-0.5
				S9.776,53,9.5,53z"/>
			<path style="fill:#FFFFFF;" d="M15.5,55h-2c-0.276,0-0.5,0.224-0.5,0.5s0.224,0.5,0.5,0.5h2c0.276,0,0.5-0.224,0.5-0.5
				S15.776,55,15.5,55z"/>
			<path style="fill:#FFFFFF;" d="M18.5,47c-0.177,0-0.823,0-1,0c-0.276,0-0.5,0.224-0.5,0.5c0,0.276,0.224,0.5,0.5,0.5
				c0.177,0,0.823,0,1,0c0.276,0,0.5-0.224,0.5-0.5C19,47.224,18.776,47,18.5,47z"/>
			<path style="fill:#FFFFFF;" d="M18.5,49c-0.177,0-4.823,0-5,0c-0.276,0-0.5,0.224-0.5,0.5c0,0.276,0.224,0.5,0.5,0.5
				c0.177,0,4.823,0,5,0c0.276,0,0.5-0.224,0.5-0.5C19,49.224,18.776,49,18.5,49z"/>
			<path style="fill:#FFFFFF;" d="M23.5,51c-0.177,0-2.823,0-3,0c-0.276,0-0.5,0.224-0.5,0.5c0,0.276,0.224,0.5,0.5,0.5
				c0.177,0,2.823,0,3,0c0.276,0,0.5-0.224,0.5-0.5C24,51.224,23.776,51,23.5,51z"/>
		</g>
		<g>
			<path style="fill:#FFFFFF;" d="M72.5,23h-10c-0.276,0-0.5,0.224-0.5,0.5s0.224,0.5,0.5,0.5h10c0.276,0,0.5-0.224,0.5-0.5
				S72.776,23,72.5,23z"/>
			<path style="fill:#FFFFFF;" d="M76.5,23h-2c-0.276,0-0.5,0.224-0.5,0.5s0.224,0.5,0.5,0.5h2c0.276,0,0.5-0.224,0.5-0.5
				S76.776,23,76.5,23z"/>
			<path style="fill:#FFFFFF;" d="M81.5,25h-10c-0.276,0-0.5,0.224-0.5,0.5s0.224,0.5,0.5,0.5h10c0.277,0,0.5-0.224,0.5-0.5
				S81.776,25,81.5,25z"/>
			<path style="fill:#FFFFFF;" d="M69.5,25h-1c-0.276,0-0.5,0.224-0.5,0.5s0.224,0.5,0.5,0.5h1c0.276,0,0.5-0.224,0.5-0.5
				S69.776,25,69.5,25z"/>
			<path style="fill:#FFFFFF;" d="M66.47,25H64.5c-0.276,0-0.5,0.224-0.5,0.5s0.224,0.5,0.5,0.5h1.97c0.276,0,0.5-0.224,0.5-0.5
				S66.746,25,66.47,25z"/>
			<path style="fill:#FFFFFF;" d="M75.5,21h-5c-0.276,0-0.5,0.224-0.5,0.5s0.224,0.5,0.5,0.5h5c0.277,0,0.5-0.224,0.5-0.5
				S75.776,21,75.5,21z"/>
			<path style="fill:#FFFFFF;" d="M72.5,27h-2c-0.276,0-0.5,0.224-0.5,0.5s0.224,0.5,0.5,0.5h2c0.276,0,0.5-0.224,0.5-0.5
				S72.776,27,72.5,27z"/>
		</g>
		<g>
			<path style="fill:#FDFCEF;" d="M40.445,66.545C40.473,66.366,40.5,66.187,40.5,66c0-1.933-1.567-3.5-3.5-3.5
				c-1.032,0-1.95,0.455-2.59,1.165c-0.384-1.808-1.987-3.165-3.91-3.165c-2.209,0-4,1.791-4,4c0,0.191,0.03,0.374,0.056,0.558
				C26.128,64.714,25.592,64.5,25,64.5c-1.228,0-2.245,0.887-2.455,2.055C22.366,66.527,22.187,66.5,22,66.5
				c-1.933,0-3.5,1.567-3.5,3.5s1.567,3.5,3.5,3.5s7.5,0,7.5,0V74h7v-0.5c0,0,1.567,0,3.5,0s3.5-1.567,3.5-3.5
				C43.5,68.219,42.166,66.766,40.445,66.545z"/>
			<path style="fill:#472B29;" d="M41.462,66.667c-0.506-0.137-1.209-0.127-1.244-0.136c-1.223,0-2.218,0.995-2.218,2.218
				c0,0.138,0.112,0.25,0.25,0.25s0.25-0.112,0.25-0.25c0-0.947,0.771-1.718,1.719-1.718c0.013-0.001,0.668-0.001,1.113,0.118
				c0.133,0.037,0.271-0.042,0.306-0.176C41.674,66.84,41.595,66.703,41.462,66.667z"/>
			<circle style="fill:#472B29;" cx="31.5" cy="73.5" r="0.5"/>
			<path style="fill:#472B29;" d="M40.996,66.142C40.999,66.095,41,66.048,41,66c0-2.206-1.794-4-4-4
				c-0.845,0-1.667,0.276-2.347,0.774C33.966,61.127,32.331,60,30.5,60c-2.374,0-4.324,1.847-4.489,4.18
				C25.689,64.061,25.349,64,25,64c-1.289,0-2.412,0.82-2.826,2.006C22.116,66.002,22.059,66,22,66c-2.206,0-4,1.794-4,4
				s1.794,4,4,4h7.5c0.276,0,0.5-0.224,0.5-0.5S29.776,73,29.5,73H22c-1.654,0-3-1.346-3-3s1.346-3,3-3
				c0.16,0,0.314,0.025,0.468,0.049c0.273,0.041,0.521-0.139,0.569-0.405C23.208,65.691,24.034,65,25,65
				c0.449,0,0.878,0.155,1.243,0.448c0.16,0.127,0.377,0.112,0.556,0.01c0.178-0.102,0.271-0.336,0.242-0.54
				C27.021,64.78,27,64.643,27,64.5c0-1.93,1.57-3.5,3.5-3.5c1.641,0,3.08,1.165,3.42,2.769c0.039,0.184,0.178,0.33,0.36,0.379
				c0.179,0.05,0.375-0.009,0.5-0.148c0.582-0.645,1.37-1,2.219-1c1.654,0,3,1.346,3,3c0,0.16-0.025,0.314-0.049,0.468
				c-0.021,0.133,0.013,0.27,0.094,0.377s0.203,0.178,0.336,0.196C41.875,67.232,43,68.504,43,70c0,1.654-1.346,3-3,3h-3.5
				c-0.276,0-0.5,0.224-0.5,0.5s0.224,0.5,0.5,0.5H40c2.206,0,4-1.794,4-4C44,68.169,42.739,66.59,40.996,66.142z"/>
			<path style="fill:#472B29;" d="M34.5,73c-0.159,0-0.841,0-1,0c-0.276,0-0.5,0.224-0.5,0.5c0,0.276,0.224,0.5,0.5,0.5
				c0.159,0,0.841,0,1,0c0.276,0,0.5-0.224,0.5-0.5C35,73.224,34.776,73,34.5,73z"/>
		</g>
	</g>
</g>
<g>
	<path style="fill:#C07853;" d="M75.29,39.8c-0.52-1.42-1.86-2.3-3.29-2.3c-0.4,0-0.81,0.07-1.2,0.21l-1.3,0.47l-0.94,0.34
		l-8.27,2.98H58.5v-1.03l0.17-0.15c1.8-1.61,2.83-3.92,2.83-6.32c0-4.69-3.81-8.5-8.5-8.5s-8.5,3.81-8.5,8.5
		c0,2.4,1.03,4.71,2.83,6.32l0.17,0.15v1.03l-1.97-0.03l-8.1-2.95l-0.94-0.34l-1.29-0.47c-1.82-0.66-3.83,0.28-4.49,2.09
		c-0.66,1.82,0.28,3.83,2.09,4.49l1.3,0.47l0.94,0.34l9.39,3.42l-2.33,16.6l-0.17,1.27l-0.17,1.18l-2.15-0.86
		c-1.53-0.61-3.28,0.14-3.9,1.68c-0.29,0.74-0.28,1.56,0.03,2.29c0.32,0.74,0.9,1.31,1.65,1.61l5,2c1.22,0.49,2.72,0.07,3.51-0.99
		l1.17-1.5l0.62-0.8L53,64.19L58.31,71l0.62,0.8l1.16,1.49c0.8,1.07,2.29,1.49,3.52,1l5-2c0.75-0.3,1.33-0.87,1.65-1.61
		c0.31-0.73,0.32-1.55,0.03-2.29c-0.62-1.54-2.37-2.29-3.91-1.68l-2.14,0.86l-0.17-1.18v-0.01l-0.17-1.26v-0.01l-2.33-16.59
		l9.39-3.41l0.94-0.35l1.3-0.47C75.01,43.63,75.95,41.62,75.29,39.8z"/>
	<polygon style="fill:#F9DAC0;" points="37.431,38.52 35.041,45.1 34.101,44.76 36.491,38.18 	"/>
	<polygon style="fill:#F9DAC0;" points="71.9,44.76 70.96,45.11 68.56,38.52 69.5,38.18 	"/>
	<polygon style="fill:#F9DAC0;" points="47.69,71 47.07,71.8 41.931,66.39 42.101,65.12 	"/>
	<polygon style="fill:#F9DAC0;" points="64.07,66.38 64.07,66.39 58.93,71.8 58.31,71 63.9,65.12 	"/>
	<circle style="fill:#F9DAC0;" cx="50" cy="32" r="1"/>
	<circle style="fill:#F9DAC0;" cx="56" cy="32" r="1"/>
	<path style="fill:#F9DAC0;" d="M53,38c-2.777,0-3.9-2.184-3.947-2.276c-0.123-0.247-0.023-0.547,0.224-0.671
		s0.547-0.023,0.671,0.224C49.983,35.345,50.856,37,53,37c2.166,0,3.044-1.706,3.053-1.724c0.125-0.246,0.424-0.347,0.671-0.224
		c0.247,0.124,0.347,0.424,0.224,0.671C56.901,35.816,55.778,38,53,38z"/>
	<g>
		<circle style="fill:#EE3E54;" cx="53" cy="51" r="1.625"/>
		<path style="fill:#472B29;" d="M53,53c-1.103,0-2-0.897-2-2s0.897-2,2-2s2,0.897,2,2S54.103,53,53,53z M53,49.75
			c-0.689,0-1.25,0.561-1.25,1.25s0.561,1.25,1.25,1.25s1.25-0.561,1.25-1.25S53.69,49.75,53,49.75z"/>
	</g>
	<circle style="fill:#472B29;" cx="53.125" cy="45" r="1"/>
	<g>
		<circle style="fill:#EE3E54;" cx="53" cy="57" r="1.625"/>
		<path style="fill:#472B29;" d="M53,59c-1.103,0-2-0.897-2-2s0.897-2,2-2s2,0.897,2,2S54.103,59,53,59z M53,55.75
			c-0.689,0-1.25,0.561-1.25,1.25s0.561,1.25,1.25,1.25s1.25-0.561,1.25-1.25S53.69,55.75,53,55.75z"/>
	</g>
	<g>
		<path style="fill:#678C26;" d="M49.658,43.394L53,45.016l-3.344,1.59c-0.132,0.063-0.281-0.041-0.281-0.196V43.59
			C49.375,43.434,49.526,43.33,49.658,43.394z"/>
		<path style="fill:#472B29;" d="M49.575,47c-0.105,0-0.21-0.03-0.302-0.089C49.102,46.804,49,46.616,49,46.41v-2.82
			c0-0.208,0.104-0.396,0.276-0.504c0.164-0.102,0.369-0.115,0.545-0.028l3.343,1.622c0.129,0.063,0.212,0.194,0.211,0.339
			c-0.001,0.144-0.084,0.274-0.214,0.337l-3.344,1.59C49.74,46.981,49.658,47,49.575,47z M49.75,43.856v2.29l2.384-1.134
			L49.75,43.856z M49.494,43.731L49.494,43.731L49.494,43.731L49.494,43.731z"/>
	</g>
	<g>
		<path style="fill:#678C26;" d="M56.343,43.394L53,45.016l3.344,1.59c0.132,0.063,0.281-0.041,0.281-0.196V43.59
			C56.625,43.434,56.475,43.33,56.343,43.394z"/>
		<path style="fill:#472B29;" d="M56.425,47c-0.082,0-0.164-0.018-0.241-0.055l-3.345-1.59c-0.13-0.063-0.213-0.193-0.214-0.337
			c-0.001-0.145,0.082-0.276,0.211-0.339l3.343-1.622c0.178-0.087,0.381-0.073,0.545,0.028C56.897,43.194,57,43.382,57,43.59v2.82
			c0,0.206-0.102,0.394-0.272,0.501C56.636,46.97,56.531,47,56.425,47z M53.867,45.013l2.384,1.134v-2.29L53.867,45.013z
			 M56.507,43.731L56.507,43.731L56.507,43.731L56.507,43.731z"/>
	</g>
	<path style="fill:#472B29;" d="M53,26.4L53,26.4c4.19,0,7.599,3.41,7.599,7.6c0,2.148-0.924,4.208-2.535,5.653
		c-0.296,0.266-0.465,0.645-0.465,1.042V41c0,0.773,0.627,1.4,1.4,1.4h1.295c0.163,0,0.325-0.029,0.478-0.084l10.337-3.759
		c0.288-0.105,0.587-0.158,0.889-0.158c1.089,0,2.071,0.688,2.444,1.712c0.237,0.653,0.206,1.359-0.087,1.988
		c-0.294,0.629-0.815,1.106-1.467,1.344L61.64,47.534c-0.621,0.226-1,0.855-0.908,1.51l2.527,18.022
		c0.06,0.426,0.312,0.801,0.684,1.017c0.216,0.125,0.459,0.189,0.702,0.189c0.176,0,0.352-0.033,0.52-0.1l1.552-0.621
		c0.251-0.1,0.514-0.151,0.78-0.151c0.865,0,1.631,0.519,1.952,1.32c0.208,0.521,0.201,1.092-0.02,1.608
		c-0.221,0.516-0.63,0.914-1.15,1.123l-4.999,2c-0.249,0.1-0.511,0.15-0.779,0.15c-0.658,0-1.286-0.314-1.696-0.861l-6.7-8.6
		C53.839,63.799,53.432,63.6,53,63.6s-0.839,0.199-1.104,0.54L45.18,72.76c-0.394,0.526-1.022,0.84-1.68,0.84
		c-0.268,0-0.53-0.05-0.779-0.15l-5-2c-0.521-0.208-0.929-0.607-1.15-1.123c-0.221-0.516-0.228-1.087-0.02-1.607
		c0.321-0.802,1.088-1.321,1.953-1.321c0.266,0,0.529,0.051,0.778,0.15l1.554,0.622c0.167,0.067,0.344,0.1,0.52,0.1
		c0.244,0,0.486-0.064,0.702-0.189c0.372-0.216,0.624-0.591,0.684-1.017l2.527-18.022c0.092-0.655-0.287-1.284-0.908-1.51
		l-11.248-4.091c-0.653-0.237-1.174-0.714-1.467-1.344c-0.294-0.629-0.325-1.335-0.087-1.988c0.372-1.024,1.354-1.711,2.443-1.711
		c0.302,0,0.601,0.053,0.888,0.157l10.338,3.759c0.153,0.056,0.315,0.084,0.478,0.084H47c0.773,0,1.4-0.627,1.4-1.4v-0.305
		c0-0.398-0.169-0.777-0.465-1.042c-1.611-1.445-2.535-3.505-2.535-5.653C45.401,29.81,48.81,26.4,53,26.4 M53,25C53,25,53,25,53,25
		C53,25,53,25,53,25c-4.971,0-9,4.03-9,9c0,2.662,1.163,5.047,3,6.695V41h-1.295l-10.338-3.759C34.917,37.077,34.455,37,34.001,37
		c-1.634,0-3.168,1.008-3.759,2.633c-0.755,2.076,0.315,4.371,2.392,5.126l11.248,4.091l-2.527,18.022L39.8,66.25
		C39.374,66.08,38.935,66,38.503,66c-1.39,0-2.704,0.832-3.252,2.2c-0.718,1.795,0.155,3.832,1.95,4.55l5,2
		C42.624,74.919,43.064,75,43.5,75c1.077,0,2.125-0.498,2.801-1.4L53,65l6.7,8.6c0.676,0.902,1.724,1.4,2.801,1.4
		c0.436,0,0.876-0.081,1.299-0.25l5-2c1.795-0.718,2.668-2.755,1.95-4.55c-0.548-1.368-1.862-2.2-3.252-2.2
		c-0.432,0-0.871,0.08-1.298,0.25l-1.554,0.622l-2.527-18.022l11.248-4.091c2.076-0.755,3.146-3.05,2.392-5.126
		C75.167,38.007,73.633,37,71.999,37c-0.454,0-0.915,0.078-1.367,0.242L60.294,41H59v-0.305c1.837-1.648,3-4.033,3-6.695
		C61.999,29.03,57.97,25,53,25L53,25z"/>
</g>
</svg>
