<?xml version="1.0" encoding="iso-8859-1"?>
<!-- Generator: Adobe Illustrator 22.1.0, SVG Export Plug-In . SVG Version: 6.00 Build 0)  -->
<svg version="1.1" id="Layer_1" xmlns="http://www.w3.org/2000/svg" xmlns:xlink="http://www.w3.org/1999/xlink" x="0px" y="0px"
	 viewBox="0 0 100 100" style="enable-background:new 0 0 100 100;" xml:space="preserve">
<path style="fill:#C7EDE6;" d="M87.215,56.71C88.35,54.555,89,52.105,89,49.5c0-6.621-4.159-12.257-10.001-14.478
	C78.999,35.015,79,35.008,79,35c0-11.598-9.402-21-21-21c-9.784,0-17.981,6.701-20.313,15.757C36.211,29.272,34.638,29,33,29
	c-7.692,0-14.023,5.793-14.89,13.252C12.906,43.353,9,47.969,9,53.5C9,59.851,14.149,65,20.5,65c0.177,0,0.352-0.012,0.526-0.022
	C21.022,65.153,21,65.324,21,65.5C21,76.822,30.178,86,41.5,86c6.437,0,12.175-2.972,15.934-7.614C59.612,80.611,62.64,82,66,82
	c4.65,0,8.674-2.65,10.666-6.518C77.718,75.817,78.837,76,80,76c6.075,0,11-4.925,11-11C91,61.689,89.53,58.727,87.215,56.71z"/>
<g>
	<path style="fill:#FDFCEF;" d="M75.5,60.5V61h3v-0.5c0,0,4.242,0,5.5,0c2.485,0,4.5-2.015,4.5-4.5c0-2.333-1.782-4.229-4.055-4.455
		C84.467,51.364,84.5,51.187,84.5,51c0-2.485-2.015-4.5-4.5-4.5c-1.438,0-2.703,0.686-3.527,1.736
		C76.333,45.6,74.171,43.5,71.5,43.5c-2.761,0-5,2.239-5,5c0,0.446,0.077,0.87,0.187,1.282C66.045,49.005,65.086,48.5,64,48.5
		c-1.781,0-3.234,1.335-3.455,3.055C60.364,51.533,60.187,51.5,60,51.5c-2.485,0-4.5,2.015-4.5,4.5s2.015,4.5,4.5,4.5s9.5,0,9.5,0
		H75.5z"/>
	<path style="fill:#472B29;" d="M71.5,43c-3.033,0-5.5,2.467-5.5,5.5c0,0.016,0,0.031,0,0.047C65.398,48.192,64.71,48,64,48
		c-1.831,0-3.411,1.261-3.858,3.005C60.095,51.002,60.048,51,60,51c-2.757,0-5,2.243-5,5s2.243,5,5,5h15.5
		c0.276,0,0.5-0.224,0.5-0.5S75.776,60,75.5,60H60c-2.206,0-4-1.794-4-4s1.794-4,4-4c0.117,0,0.23,0.017,0.343,0.032l0.141,0.019
		c0.021,0.003,0.041,0.004,0.062,0.004c0.246,0,0.462-0.185,0.495-0.437C61.232,50.125,62.504,49,64,49
		c0.885,0,1.723,0.401,2.301,1.1c0.098,0.118,0.241,0.182,0.386,0.182c0.078,0,0.156-0.018,0.228-0.056
		c0.209-0.107,0.314-0.346,0.254-0.573C67.054,49.218,67,48.852,67,48.5c0-2.481,2.019-4.5,4.5-4.5c2.381,0,4.347,1.872,4.474,4.263
		c0.011,0.208,0.15,0.387,0.349,0.45c0.05,0.016,0.101,0.024,0.152,0.024c0.15,0,0.296-0.069,0.392-0.192
		C77.638,47.563,78.779,47,80,47c2.206,0,4,1.794,4,4c0,0.117-0.017,0.23-0.032,0.343l-0.019,0.141
		c-0.016,0.134,0.022,0.268,0.106,0.373c0.084,0.105,0.207,0.172,0.34,0.185C86.451,52.247,88,53.949,88,56c0,2.206-1.794,4-4,4
		h-5.5c-0.276,0-0.5,0.224-0.5,0.5s0.224,0.5,0.5,0.5H84c2.757,0,5-2.243,5-5c0-2.397-1.689-4.413-4.003-4.877
		C84.999,51.082,85,51.041,85,51c0-2.757-2.243-5-5-5c-1.176,0-2.293,0.416-3.183,1.164C76.219,44.76,74.055,43,71.5,43L71.5,43z"/>
	<path style="fill:#472B29;" d="M70,50c-1.403,0-2.609,0.999-2.913,2.341C66.72,52.119,66.301,52,65.875,52
		c-1.202,0-2.198,0.897-2.353,2.068C63.319,54.022,63.126,54,62.937,54c-1.529,0-2.811,1.2-2.918,2.732
		C60.01,56.87,60.114,56.99,60.251,57c0.006,0,0.012,0,0.018,0c0.13,0,0.24-0.101,0.249-0.232c0.089-1.271,1.151-2.268,2.419-2.268
		c0.229,0,0.47,0.042,0.738,0.127c0.022,0.007,0.045,0.01,0.067,0.01c0.055,0,0.11-0.02,0.156-0.054
		C63.962,54.537,64,54.455,64,54.375c0-1.034,0.841-1.875,1.875-1.875c0.447,0,0.885,0.168,1.231,0.473
		c0.047,0.041,0.106,0.063,0.165,0.063c0.032,0,0.063-0.006,0.093-0.019c0.088-0.035,0.148-0.117,0.155-0.212
		C67.623,51.512,68.712,50.5,70,50.5c0.208,0,0.425,0.034,0.682,0.107c0.023,0.007,0.047,0.01,0.07,0.01
		c0.109,0,0.207-0.073,0.239-0.182c0.038-0.133-0.039-0.271-0.172-0.309C70.517,50.04,70.256,50,70,50L70,50z"/>
	<path style="fill:#472B29;" d="M83.883,51.5c-1.326,0-2.508,0.897-2.874,2.182c-0.038,0.133,0.039,0.271,0.172,0.309
		C81.205,53.997,81.228,54,81.25,54c0.109,0,0.209-0.072,0.24-0.182C81.795,52.748,82.779,52,83.883,52
		c0.117,0,0.23,0.014,0.342,0.029c0.012,0.002,0.023,0.003,0.035,0.003c0.121,0,0.229-0.092,0.246-0.217
		c0.019-0.137-0.077-0.263-0.214-0.281C84.158,51.516,84.022,51.5,83.883,51.5L83.883,51.5z"/>
</g>
<g>
	<path style="fill:#FFFFFF;" d="M15.5,51h-10C5.224,51,5,50.776,5,50.5S5.224,50,5.5,50h10c0.276,0,0.5,0.224,0.5,0.5
		S15.777,51,15.5,51z"/>
	<path style="fill:#FFFFFF;" d="M18.5,51h-1c-0.276,0-0.5-0.224-0.5-0.5s0.224-0.5,0.5-0.5h1c0.276,0,0.5,0.224,0.5,0.5
		S18.777,51,18.5,51z"/>
	<path style="fill:#FFFFFF;" d="M23.491,53H14.5c-0.276,0-0.5-0.224-0.5-0.5s0.224-0.5,0.5-0.5h8.991c0.276,0,0.5,0.224,0.5,0.5
		S23.767,53,23.491,53z"/>
	<path style="fill:#FFFFFF;" d="M12.5,53h-1c-0.276,0-0.5-0.224-0.5-0.5s0.224-0.5,0.5-0.5h1c0.276,0,0.5,0.224,0.5,0.5
		S12.777,53,12.5,53z"/>
	<path style="fill:#FFFFFF;" d="M9.5,53h-2C7.224,53,7,52.776,7,52.5S7.224,52,7.5,52h2c0.276,0,0.5,0.224,0.5,0.5S9.777,53,9.5,53z
		"/>
	<path style="fill:#FFFFFF;" d="M15.5,55h-2c-0.276,0-0.5-0.224-0.5-0.5s0.224-0.5,0.5-0.5h2c0.276,0,0.5,0.224,0.5,0.5
		S15.776,55,15.5,55z"/>
	<path style="fill:#FFFFFF;" d="M18.5,46c-0.177,0-0.823,0-1,0c-0.276,0-0.5,0.224-0.5,0.5c0,0.276,0.224,0.5,0.5,0.5
		c0.177,0,0.823,0,1,0c0.276,0,0.5-0.224,0.5-0.5C19,46.224,18.776,46,18.5,46z"/>
	<path style="fill:#FFFFFF;" d="M18.5,48c-0.177,0-4.823,0-5,0c-0.276,0-0.5,0.224-0.5,0.5c0,0.276,0.224,0.5,0.5,0.5
		c0.177,0,4.823,0,5,0c0.276,0,0.5-0.224,0.5-0.5C19,48.224,18.776,48,18.5,48z"/>
	<path style="fill:#FFFFFF;" d="M23.5,50c-0.177,0-2.823,0-3,0c-0.276,0-0.5,0.224-0.5,0.5c0,0.276,0.224,0.5,0.5,0.5
		c0.177,0,2.823,0,3,0c0.276,0,0.5-0.224,0.5-0.5C24,50.224,23.776,50,23.5,50z"/>
</g>
<g>
	<path style="fill:#FFFFFF;" d="M67.5,20h-10c-0.276,0-0.5-0.224-0.5-0.5s0.224-0.5,0.5-0.5h10c0.276,0,0.5,0.224,0.5,0.5
		S67.776,20,67.5,20z"/>
	<path style="fill:#FFFFFF;" d="M71.5,20h-2c-0.276,0-0.5-0.224-0.5-0.5s0.224-0.5,0.5-0.5h2c0.276,0,0.5,0.224,0.5,0.5
		S71.776,20,71.5,20z"/>
	<path style="fill:#FFFFFF;" d="M76.5,22h-10c-0.276,0-0.5-0.224-0.5-0.5s0.224-0.5,0.5-0.5h10c0.276,0,0.5,0.224,0.5,0.5
		S76.777,22,76.5,22z"/>
	<path style="fill:#FFFFFF;" d="M64.5,22h-1c-0.276,0-0.5-0.224-0.5-0.5s0.224-0.5,0.5-0.5h1c0.276,0,0.5,0.224,0.5,0.5
		S64.776,22,64.5,22z"/>
	<path style="fill:#FFFFFF;" d="M61.47,22H59.5c-0.276,0-0.5-0.224-0.5-0.5s0.224-0.5,0.5-0.5h1.97c0.276,0,0.5,0.224,0.5,0.5
		S61.746,22,61.47,22z"/>
	<path style="fill:#FFFFFF;" d="M70.5,18h-5c-0.276,0-0.5-0.224-0.5-0.5s0.224-0.5,0.5-0.5h5c0.276,0,0.5,0.224,0.5,0.5
		S70.777,18,70.5,18z"/>
	<path style="fill:#FFFFFF;" d="M67.5,24h-2c-0.276,0-0.5-0.224-0.5-0.5s0.224-0.5,0.5-0.5h2c0.276,0,0.5,0.224,0.5,0.5
		S67.776,24,67.5,24z"/>
</g>
<g>
	<g>
		<path style="fill:#E1E0D8;" d="M68.519,71.85H39c-1.571,0-2.85-1.278-2.85-2.85s1.278-2.85,2.85-2.85h29.531l-0.36,0.414
			C67.577,67.248,67.25,68.112,67.25,69c0,0.887,0.324,1.753,0.913,2.437L68.519,71.85z"/>
		<path style="fill:#649ED8;" d="M36.15,66.529V31c0-1.572,1.278-2.85,2.85-2.85h28c1.571,0,2.85,1.278,2.85,2.85v34.25H39
			c-0.895,0-1.737,0.319-2.437,0.922L36.15,66.529z"/>
		<path style="fill:#355CA8;" d="M43,28.15h-4c-1.571,0-2.85,1.278-2.85,2.85v35.529l0.413-0.356
			c0.699-0.604,1.542-0.922,2.437-0.922h4V28.15z"/>
	</g>
	<g>
		<path style="fill:#472B29;" d="M70.599,66.431C70.834,66.394,71,66.181,71,65.944V31c0-2.209-1.791-4-4-4H39c-2.209,0-4,1.791-4,4
			v38c0,0.552,0.112,1.078,0.314,1.557c0.202,0.479,0.495,0.91,0.857,1.271c0.181,0.181,0.379,0.345,0.592,0.488
			c0.426,0.288,0.909,0.495,1.43,0.602C38.454,72.972,38.724,73,39,73c0.087,0,31.235,0,31.3,0c0.386,0,0.699-0.313,0.7-0.699h0
			c0,0,0,0,0-0.001s0,0,0,0c0-0.003-0.002-0.006-0.002-0.009c-0.005-0.375-0.274-0.678-0.639-0.771
			C69.235,71.234,68.4,70.213,68.4,69C68.4,67.703,69.355,66.624,70.599,66.431z M39,28.4h28c1.436,0,2.6,1.164,2.6,2.6v34
			c0,0-28.57,0-30.6,0c-0.998,0-1.899,0.379-2.6,0.983V31C36.4,29.564,37.564,28.4,39,28.4z M39,71.6c-1.434,0-2.6-1.166-2.6-2.6
			s1.166-2.6,2.6-2.6h28.983C67.376,67.098,67,68.001,67,69c0,0.996,0.371,1.9,0.974,2.6H39z"/>
		<path style="fill:#472B29;" d="M42.625,55c-0.207,0-0.375-0.168-0.375-0.375v-26.25c0-0.207,0.168-0.375,0.375-0.375
			S43,28.168,43,28.375v26.25C43,54.832,42.832,55,42.625,55z"/>
		<path style="fill:#472B29;" d="M42.625,60c-0.207,0-0.375-0.168-0.375-0.375v-1.25c0-0.207,0.168-0.375,0.375-0.375
			S43,58.168,43,58.375v1.25C43,59.832,42.832,60,42.625,60z"/>
		<path style="fill:#472B29;" d="M42.625,63c-0.207,0-0.375-0.168-0.375-0.375v-1.25c0-0.207,0.168-0.375,0.375-0.375
			S43,61.168,43,61.375v1.25C43,62.832,42.832,63,42.625,63z"/>
		<path style="fill:#472B29;" d="M67.625,69h-21.25C46.168,69,46,68.832,46,68.625s0.168-0.375,0.375-0.375h21.25
			c0.207,0,0.375,0.168,0.375,0.375S67.832,69,67.625,69z"/>
		<path style="fill:#472B29;" d="M67.625,70.75h-14.25c-0.207,0-0.375-0.168-0.375-0.375S53.168,70,53.375,70h14.25
			C67.832,70,68,70.168,68,70.375S67.832,70.75,67.625,70.75z"/>
		<path style="fill:#472B29;" d="M51.625,70.75h-1.25c-0.207,0-0.375-0.168-0.375-0.375S50.168,70,50.375,70h1.25
			C51.832,70,52,70.168,52,70.375S51.832,70.75,51.625,70.75z"/>
	</g>
	<g>
		<polygon style="fill:#FDF5A9;" points="62,40.375 62,43.625 61.625,44 58,44 58,55.625 57.625,56 54.375,56 54,55.625 54,44 
			50.375,44 50,43.625 50,40.5 50.5,40 54,40 54,35.375 54.375,35 57.625,35 58,35.375 58,40 61.625,40 		"/>
		<path style="fill:#472B29;" d="M57.625,56h-3.25C54.168,56,54,55.832,54,55.625V44h-3.625C50.168,44,50,43.832,50,43.625v-3.25
			C50,40.168,50.168,40,50.375,40H54v-4.625C54,35.168,54.168,35,54.375,35h3.25C57.832,35,58,35.168,58,35.375V40h3.625
			C61.832,40,62,40.168,62,40.375v3.25C62,43.832,61.832,44,61.625,44H58v2.625C58,46.832,57.832,47,57.625,47
			s-0.375-0.168-0.375-0.375v-3c0-0.207,0.168-0.375,0.375-0.375h3.625v-2.5h-3.625c-0.207,0-0.375-0.168-0.375-0.375V35.75h-2.5
			v4.625c0,0.207-0.168,0.375-0.375,0.375H50.75v2.5h3.625c0.207,0,0.375,0.168,0.375,0.375V55.25h2.5v-3.375
			c0-0.207,0.168-0.375,0.375-0.375S58,51.668,58,51.875v3.75C58,55.832,57.832,56,57.625,56z"/>
		<path style="fill:#472B29;" d="M57.625,50c-0.207,0-0.375-0.168-0.375-0.375v-1.25c0-0.207,0.168-0.375,0.375-0.375
			S58,48.168,58,48.375v1.25C58,49.832,57.832,50,57.625,50z"/>
	</g>
</g>
<g>
	<path style="fill:#FDFCEF;" d="M37.5,73.5c0,0,1.567,0,3.5,0s3.5-1.567,3.5-3.5c0-1.781-1.335-3.234-3.055-3.455
		C41.473,66.366,41.5,66.187,41.5,66c0-1.933-1.567-3.5-3.5-3.5c-1.032,0-1.95,0.455-2.59,1.165
		c-0.384-1.808-1.987-3.165-3.91-3.165c-2.209,0-4,1.791-4,4c0,0.191,0.03,0.374,0.056,0.558C27.128,64.714,26.592,64.5,26,64.5
		c-1.228,0-2.245,0.887-2.455,2.055C23.366,66.527,23.187,66.5,23,66.5c-1.933,0-3.5,1.567-3.5,3.5s1.567,3.5,3.5,3.5s7.5,0,7.5,0
		V74h7V73.5z"/>
	<path style="fill:#472B29;" d="M39.25,69C39.112,69,39,68.888,39,68.75c0-1.223,0.995-2.218,2.218-2.218
		c0.034,0.009,0.737-0.001,1.244,0.136c0.133,0.036,0.212,0.173,0.176,0.306c-0.036,0.134-0.173,0.213-0.306,0.176
		c-0.444-0.12-1.1-0.12-1.113-0.118c-0.948,0-1.719,0.771-1.719,1.718C39.5,68.888,39.388,69,39.25,69z"/>
	<circle style="fill:#472B29;" cx="32.5" cy="73.5" r="0.5"/>
	<path style="fill:#472B29;" d="M41,74h-3.5c-0.276,0-0.5-0.224-0.5-0.5s0.224-0.5,0.5-0.5H41c1.654,0,3-1.346,3-3
		c0-1.496-1.125-2.768-2.618-2.959c-0.134-0.018-0.255-0.088-0.336-0.196s-0.115-0.244-0.094-0.377C40.975,66.314,41,66.16,41,66
		c0-1.654-1.346-3-3-3c-0.85,0-1.638,0.355-2.219,1c-0.125,0.139-0.321,0.198-0.5,0.148c-0.182-0.049-0.321-0.195-0.36-0.379
		C34.58,62.165,33.141,61,31.5,61c-1.93,0-3.5,1.57-3.5,3.5c0,0.143,0.021,0.28,0.041,0.418c0.029,0.203-0.063,0.438-0.242,0.54
		c-0.179,0.102-0.396,0.118-0.556-0.01C26.878,65.155,26.449,65,26,65c-0.966,0-1.792,0.691-1.963,1.644
		c-0.048,0.267-0.296,0.446-0.569,0.405C23.314,67.025,23.16,67,23,67c-1.654,0-3,1.346-3,3s1.346,3,3,3h7.5
		c0.276,0,0.5,0.224,0.5,0.5S30.776,74,30.5,74H23c-2.206,0-4-1.794-4-4s1.794-4,4-4c0.059,0,0.116,0.002,0.174,0.006
		C23.588,64.82,24.711,64,26,64c0.349,0,0.689,0.061,1.011,0.18C27.176,61.847,29.126,60,31.5,60c1.831,0,3.466,1.127,4.153,2.774
		C36.333,62.276,37.155,62,38,62c2.206,0,4,1.794,4,4c0,0.048-0.001,0.095-0.004,0.142C43.739,66.59,45,68.169,45,70
		C45,72.206,43.206,74,41,74z"/>
	<path style="fill:#472B29;" d="M35.5,73c-0.159,0-0.841,0-1,0c-0.276,0-0.5,0.224-0.5,0.5c0,0.276,0.224,0.5,0.5,0.5
		c0.159,0,0.841,0,1,0c0.276,0,0.5-0.224,0.5-0.5C36,73.224,35.776,73,35.5,73z"/>
</g>
</svg>
