<?xml version="1.0" encoding="iso-8859-1"?>
<!-- Generator: Adobe Illustrator 22.1.0, SVG Export Plug-In . SVG Version: 6.00 Build 0)  -->
<svg version="1.1" id="Layer_1" xmlns="http://www.w3.org/2000/svg" xmlns:xlink="http://www.w3.org/1999/xlink" x="0px" y="0px"
	 viewBox="0 0 100 100" style="enable-background:new 0 0 100 100;" xml:space="preserve">
<path style="fill:#C7EDE6;" d="M87.215,56.71C88.35,54.555,89,52.105,89,49.5c0-6.621-4.159-12.257-10.001-14.478
	C78.999,35.015,79,35.008,79,35c0-11.598-9.402-21-21-21c-9.784,0-17.981,6.701-20.313,15.757C36.211,29.272,34.638,29,33,29
	c-7.692,0-14.023,5.793-14.89,13.252C12.906,43.353,9,47.969,9,53.5C9,59.851,14.149,65,20.5,65c0.177,0,0.352-0.012,0.526-0.022
	C21.022,65.153,21,65.324,21,65.5C21,76.822,30.178,86,41.5,86c6.437,0,12.175-2.972,15.934-7.614C59.612,80.611,62.64,82,66,82
	c4.65,0,8.674-2.65,10.666-6.518C77.718,75.817,78.837,76,80,76c6.075,0,11-4.925,11-11C91,61.689,89.53,58.727,87.215,56.71z"/>
<g>
	<path style="fill:#FDFCEF;" d="M73.5,70.5V71h3v-0.5c0,0,4.242,0,5.5,0c2.485,0,4.5-2.015,4.5-4.5c0-2.333-1.782-4.229-4.055-4.455
		C82.467,61.364,82.5,61.187,82.5,61c0-2.485-2.015-4.5-4.5-4.5c-1.438,0-2.703,0.686-3.527,1.736
		C74.333,55.6,72.171,53.5,69.5,53.5c-2.761,0-5,2.239-5,5c0,0.446,0.077,0.87,0.187,1.282C64.045,59.005,63.086,58.5,62,58.5
		c-1.781,0-3.234,1.335-3.455,3.055C58.364,61.533,58.187,61.5,58,61.5c-2.485,0-4.5,2.015-4.5,4.5s2.015,4.5,4.5,4.5s9.5,0,9.5,0
		H73.5z"/>
	<path style="fill:#472B29;" d="M69.5,53c-3.033,0-5.5,2.467-5.5,5.5c0,0.016,0,0.031,0,0.047C63.398,58.192,62.71,58,62,58
		c-1.831,0-3.411,1.261-3.858,3.005C58.095,61.002,58.048,61,58,61c-2.757,0-5,2.243-5,5c0,2.757,2.243,5,5,5h15.5
		c0.276,0,0.5-0.224,0.5-0.5S73.776,70,73.5,70H58c-2.206,0-4-1.794-4-4c0-2.206,1.794-4,4-4c0.117,0,0.23,0.017,0.343,0.032
		l0.141,0.019c0.021,0.003,0.041,0.004,0.062,0.004c0.246,0,0.462-0.185,0.495-0.437C59.232,60.125,60.504,59,62,59
		c0.885,0,1.723,0.401,2.301,1.1c0.098,0.118,0.241,0.182,0.386,0.182c0.078,0,0.156-0.018,0.228-0.056
		c0.209-0.107,0.314-0.346,0.254-0.573C65.054,59.218,65,58.852,65,58.5c0-2.481,2.019-4.5,4.5-4.5c2.381,0,4.347,1.872,4.474,4.263
		c0.011,0.208,0.15,0.387,0.349,0.45c0.05,0.016,0.101,0.024,0.152,0.024c0.15,0,0.296-0.069,0.392-0.192
		C75.638,57.563,76.779,57,78,57c2.206,0,4,1.794,4,4c0,0.117-0.017,0.23-0.032,0.343l-0.019,0.141
		c-0.016,0.134,0.022,0.268,0.106,0.373c0.084,0.105,0.207,0.172,0.34,0.185C84.451,62.247,86,63.949,86,66c0,2.206-1.794,4-4,4
		h-5.5c-0.276,0-0.5,0.224-0.5,0.5s0.224,0.5,0.5,0.5H82c2.757,0,5-2.243,5-5c0-2.397-1.689-4.413-4.003-4.877
		C82.999,61.082,83,61.041,83,61c0-2.757-2.243-5-5-5c-1.176,0-2.293,0.416-3.183,1.164C74.219,54.76,72.055,53,69.5,53L69.5,53z"/>
	<path style="fill:#472B29;" d="M68,60c-1.403,0-2.609,0.999-2.913,2.341C64.72,62.119,64.301,62,63.875,62
		c-1.202,0-2.198,0.897-2.353,2.068C61.319,64.022,61.126,64,60.937,64c-1.529,0-2.811,1.2-2.918,2.732
		C58.01,66.87,58.114,66.99,58.251,67c0.006,0,0.012,0,0.018,0c0.13,0,0.24-0.101,0.249-0.232c0.089-1.271,1.151-2.268,2.419-2.268
		c0.229,0,0.47,0.042,0.738,0.127c0.022,0.007,0.045,0.01,0.067,0.01c0.055,0,0.11-0.02,0.156-0.054
		C61.962,64.537,62,64.455,62,64.375c0-1.034,0.841-1.875,1.875-1.875c0.447,0,0.885,0.168,1.231,0.473
		c0.047,0.041,0.106,0.063,0.165,0.063c0.032,0,0.063-0.006,0.093-0.019c0.088-0.035,0.148-0.117,0.155-0.212
		C65.623,61.512,66.712,60.5,68,60.5c0.208,0,0.425,0.034,0.682,0.107c0.023,0.007,0.047,0.01,0.07,0.01
		c0.109,0,0.207-0.073,0.239-0.182c0.038-0.133-0.039-0.271-0.172-0.309C68.517,60.04,68.256,60,68,60L68,60z"/>
	<path style="fill:#472B29;" d="M81.883,61.5c-1.326,0-2.508,0.897-2.874,2.182c-0.038,0.133,0.039,0.271,0.172,0.309
		C79.205,63.997,79.228,64,79.25,64c0.109,0,0.209-0.072,0.24-0.182C79.795,62.748,80.779,62,81.883,62
		c0.117,0,0.23,0.014,0.342,0.029c0.012,0.002,0.023,0.003,0.035,0.003c0.121,0,0.229-0.092,0.246-0.217
		c0.019-0.137-0.077-0.263-0.214-0.281C82.158,61.516,82.022,61.5,81.883,61.5L81.883,61.5z"/>
</g>
<g>
	<path style="fill:#FFFFFF;" d="M16.5,53h-10C6.224,53,6,52.776,6,52.5S6.224,52,6.5,52h10c0.276,0,0.5,0.224,0.5,0.5
		S16.777,53,16.5,53z"/>
	<path style="fill:#FFFFFF;" d="M19.5,53h-1c-0.276,0-0.5-0.224-0.5-0.5s0.224-0.5,0.5-0.5h1c0.276,0,0.5,0.224,0.5,0.5
		S19.777,53,19.5,53z"/>
	<path style="fill:#FFFFFF;" d="M24.491,55H15.5c-0.276,0-0.5-0.224-0.5-0.5s0.224-0.5,0.5-0.5h8.991c0.276,0,0.5,0.224,0.5,0.5
		S24.767,55,24.491,55z"/>
	<path style="fill:#FFFFFF;" d="M13.5,55h-1c-0.276,0-0.5-0.224-0.5-0.5s0.224-0.5,0.5-0.5h1c0.276,0,0.5,0.224,0.5,0.5
		S13.777,55,13.5,55z"/>
	<path style="fill:#FFFFFF;" d="M10.5,55h-2C8.224,55,8,54.776,8,54.5S8.224,54,8.5,54h2c0.276,0,0.5,0.224,0.5,0.5
		S10.777,55,10.5,55z"/>
	<path style="fill:#FFFFFF;" d="M16.5,57h-2c-0.276,0-0.5-0.224-0.5-0.5s0.224-0.5,0.5-0.5h2c0.276,0,0.5,0.224,0.5,0.5
		S16.776,57,16.5,57z"/>
	<path style="fill:#FFFFFF;" d="M19.5,48c-0.177,0-0.823,0-1,0c-0.276,0-0.5,0.224-0.5,0.5c0,0.276,0.224,0.5,0.5,0.5
		c0.177,0,0.823,0,1,0c0.276,0,0.5-0.224,0.5-0.5C20,48.224,19.776,48,19.5,48z"/>
	<path style="fill:#FFFFFF;" d="M19.5,50c-0.177,0-4.823,0-5,0c-0.276,0-0.5,0.224-0.5,0.5c0,0.276,0.224,0.5,0.5,0.5
		c0.177,0,4.823,0,5,0c0.276,0,0.5-0.224,0.5-0.5C20,50.224,19.776,50,19.5,50z"/>
	<path style="fill:#FFFFFF;" d="M24.5,52c-0.177,0-2.823,0-3,0c-0.276,0-0.5,0.224-0.5,0.5c0,0.276,0.224,0.5,0.5,0.5
		c0.177,0,2.823,0,3,0c0.276,0,0.5-0.224,0.5-0.5C25,52.224,24.776,52,24.5,52z"/>
</g>
<g>
	<path style="fill:#FFFFFF;" d="M72.5,24h-10c-0.276,0-0.5-0.224-0.5-0.5s0.224-0.5,0.5-0.5h10c0.276,0,0.5,0.224,0.5,0.5
		S72.776,24,72.5,24z"/>
	<path style="fill:#FFFFFF;" d="M76.5,24h-2c-0.276,0-0.5-0.224-0.5-0.5s0.224-0.5,0.5-0.5h2c0.276,0,0.5,0.224,0.5,0.5
		S76.776,24,76.5,24z"/>
	<path style="fill:#FFFFFF;" d="M81.5,26h-10c-0.276,0-0.5-0.224-0.5-0.5s0.224-0.5,0.5-0.5h10c0.276,0,0.5,0.224,0.5,0.5
		S81.777,26,81.5,26z"/>
	<path style="fill:#FFFFFF;" d="M69.5,26h-1c-0.276,0-0.5-0.224-0.5-0.5s0.224-0.5,0.5-0.5h1c0.276,0,0.5,0.224,0.5,0.5
		S69.776,26,69.5,26z"/>
	<path style="fill:#FFFFFF;" d="M66.47,26H64.5c-0.276,0-0.5-0.224-0.5-0.5s0.224-0.5,0.5-0.5h1.97c0.276,0,0.5,0.224,0.5,0.5
		S66.746,26,66.47,26z"/>
	<path style="fill:#FFFFFF;" d="M75.5,22h-5c-0.276,0-0.5-0.224-0.5-0.5s0.224-0.5,0.5-0.5h5c0.276,0,0.5,0.224,0.5,0.5
		S75.777,22,75.5,22z"/>
	<path style="fill:#FFFFFF;" d="M72.5,28h-2c-0.276,0-0.5-0.224-0.5-0.5s0.224-0.5,0.5-0.5h2c0.276,0,0.5,0.224,0.5,0.5
		S72.776,28,72.5,28z"/>
</g>
<g>
	<g>
		<path style="fill:#C5DEF0;" d="M59.475,63.099l1.642,2.511c1.207-0.768,4.746-2.97,7.615-4.238
			C74.025,59.033,79.5,56.615,79.5,50.75c0-4.709-3.993-7.25-7.75-7.25c-4.659,0-7.098,3.205-7.844,4.397l2.693,1.361
			c0.599-0.865,2.242-2.758,5.15-2.758c1.909,0,4.75,1.132,4.75,4.25c0,3.727-3.245,5.343-8.981,7.878
			C64.434,59.991,60.716,62.307,59.475,63.099z"/>
		<path style="fill:#472B29;" d="M71.75,44c3.515,0,7.25,2.366,7.25,6.75c0,5.539-5.086,7.786-10.471,10.164
			c-2.616,1.156-5.778,3.077-7.264,4.01l-1.095-1.674c1.517-0.954,4.792-2.946,7.55-4.164C72.905,56.794,77,54.984,77,50.75
			c0-3.485-3.14-4.75-5.25-4.75c-2.564,0-4.356,1.403-5.31,2.618l-1.804-0.912C65.583,46.385,67.837,44,71.75,44L71.75,44z
			 M71.75,43c-5.918,0-8.435,4.897-8.539,5.105l3.569,1.805c0.063-0.118,1.564-2.91,4.97-2.91c1.708,0,4.25,0.999,4.25,3.75
			c0,3.417-3.138,4.97-8.684,7.421c-3.738,1.651-8.342,4.653-8.536,4.78l2.189,3.348c0.045-0.029,4.521-2.948,7.964-4.47
			C74.374,59.426,80,56.939,80,50.75C80,45.716,75.749,43,71.75,43L71.75,43z"/>
	</g>
	<g>
		<path style="fill:#F9B7BD;" d="M51.5,30.625c-0.005-0.245-0.1-0.488-0.287-0.675l-4.163-4.163c-0.383-0.383-1.004-0.383-1.387,0
			L36.45,35H51.5C51.501,33.671,51.503,30.815,51.5,30.625z"/>
		<path style="fill:#472B29;" d="M52,35.5H35.243l10.065-10.066c0.578-0.577,1.519-0.577,2.095,0l4.163,4.163
			c0.272,0.272,0.426,0.634,0.434,1.019c0.003,0.167,0.002,2.338,0,3.782V35.5z M37.657,34.5H51v-0.104
			c0.002-1.436,0.004-3.597,0-3.761v0c-0.002-0.125-0.053-0.243-0.142-0.332l-4.162-4.162c-0.189-0.189-0.495-0.187-0.681,0
			L37.657,34.5z"/>
	</g>
	<g>
		<path style="fill:#BEACE5;" d="M66.21,34.46L65.67,35H54.58L58,31.57l2.66-2.66c0.39-0.38,1.01-0.38,1.39,0l4.16,4.16
			C66.6,33.46,66.6,34.08,66.21,34.46z"/>
		<path style="fill:#472B29;" d="M65.877,35.5H53.376l6.931-6.943c0.587-0.574,1.527-0.572,2.097,0l4.16,4.16
			c0.285,0.286,0.441,0.663,0.438,1.062c-0.002,0.393-0.159,0.761-0.44,1.037L65.877,35.5z M55.784,34.5h9.679l0.398-0.398
			c0.09-0.088,0.14-0.206,0.141-0.33c0.001-0.13-0.051-0.254-0.146-0.349l-4.16-4.16c-0.186-0.186-0.495-0.185-0.687,0.004
			L55.784,34.5z"/>
	</g>
	<g>
		<path style="fill:#FDF5A9;" d="M42.74,35h-8.93l-1.2-2.28c-0.25-0.48-0.06-1.08,0.42-1.33l5.25-2.75
			c0.48-0.26,1.08-0.07,1.33,0.41l0.96,1.83l2.02,3.84L42.74,35z"/>
		<path style="fill:#472B29;" d="M43.576,35.5H33.509l-1.341-2.547c-0.184-0.352-0.219-0.754-0.099-1.134
			c0.12-0.38,0.379-0.689,0.73-0.872l5.248-2.75c0.344-0.186,0.746-0.226,1.125-0.109c0.384,0.117,0.696,0.377,0.881,0.731
			L43.576,35.5z M34.112,34.5h7.797l-2.741-5.218c-0.061-0.116-0.162-0.2-0.287-0.238c-0.123-0.038-0.252-0.025-0.362,0.035
			l-5.256,2.753c-0.115,0.06-0.2,0.162-0.239,0.287c-0.04,0.125-0.028,0.256,0.03,0.369L34.112,34.5z"/>
	</g>
	<g>
		<path style="fill:#ABF4F0;" d="M59.8,35h-8.93l-0.15-0.29l-2.11-4.02c-0.25-0.48-0.06-1.08,0.42-1.33l1.04-0.55l4.21-2.2
			c0.48-0.25,1.08-0.06,1.33,0.42L58,31.57L59.8,35z"/>
		<path style="fill:#472B29;" d="M60.627,35.5H50.566l-2.398-4.578c-0.184-0.352-0.219-0.754-0.099-1.134
			c0.12-0.379,0.379-0.689,0.73-0.872l5.249-2.75c0.352-0.183,0.754-0.217,1.133-0.097c0.38,0.12,0.689,0.379,0.872,0.729
			L60.627,35.5z M51.174,34.5h7.799l-3.805-7.237c-0.061-0.116-0.162-0.2-0.287-0.24c-0.126-0.039-0.256-0.028-0.369,0.03
			l-5.248,2.749c-0.116,0.061-0.201,0.163-0.24,0.288c-0.04,0.125-0.028,0.256,0.03,0.37L51.174,34.5z"/>
	</g>
	<path style="fill:#C5DEF0;" d="M30.004,34.5c-0.133,0-0.259,0.053-0.354,0.149c-0.098,0.098-0.15,0.227-0.149,0.362
		c0.102,15.543,3.24,28.263,9.331,37.806l0.282,0.446c0.091,0.147,0.25,0.236,0.425,0.236h18.924c0.175,0,0.334-0.088,0.426-0.236
		l0.281-0.446c6.091-9.543,9.229-22.263,9.331-37.806c0.001-0.136-0.052-0.264-0.149-0.362c-0.096-0.096-0.222-0.149-0.354-0.149
		H30.004z"/>
	<g>
		<path style="fill:#FDFCEF;" d="M68.38,39.38c0,0.13,0,0.25-0.02,0.37c-0.03,0.85-0.08,1.68-0.15,2.5c0,0.12-0.01,0.25-0.03,0.37
			H29.82c-0.02-0.12-0.03-0.25-0.03-0.37c-0.07-0.82-0.12-1.65-0.15-2.5c-0.02-0.12-0.02-0.24-0.02-0.37h23V39h1.76v0.38h2.24V39
			h4.76v0.38H68.38z"/>
		<path style="fill:#472B29;" d="M53,39.38c0,0.2-0.17,0.37-0.38,0.37H29.64c-0.02-0.12-0.02-0.24-0.02-0.37
			c-0.01-0.13-0.02-0.25-0.02-0.38h23.02C52.83,39,53,39.17,53,39.38z"/>
		<path style="fill:#472B29;" d="M68.4,39c0,0.13-0.01,0.25-0.02,0.38c0,0.13,0,0.25-0.02,0.37h-6.98c-0.21,0-0.38-0.17-0.38-0.37
			c0-0.21,0.17-0.38,0.38-0.38H68.4z"/>
		<path style="fill:#472B29;" d="M29.85,43h38.3c0.02-0.13,0.03-0.25,0.03-0.38c0.02-0.12,0.03-0.25,0.03-0.37H29.79
			c0,0.12,0.01,0.25,0.03,0.37L29.85,43z"/>
		<path style="fill:#472B29;" d="M56.625,39.75h-2.25c-0.207,0-0.375-0.168-0.375-0.375S54.168,39,54.375,39h2.25
			C56.832,39,57,39.168,57,39.375S56.832,39.75,56.625,39.75z"/>
	</g>
	<path style="fill:#472B29;" d="M67.597,35.4c-0.15,15.192-3.24,27.616-9.186,36.934c-0.061,0.096-0.118,0.185-0.17,0.266H39.759
		c-0.052-0.081-0.108-0.17-0.17-0.266c-5.946-9.318-9.036-21.742-9.186-36.934H67.597L67.597,35.4z M67.996,34H30.004
		c-0.555,0-1.007,0.46-1.004,1.015c0.162,24.862,8.236,36.163,9.688,38.512C38.871,73.823,39.19,74,39.538,74h18.924
		c0.348,0,0.667-0.177,0.85-0.473c1.451-2.348,9.526-13.649,9.688-38.512C69.004,34.46,68.551,34,67.996,34L67.996,34z"/>
</g>
<g>
	<path style="fill:#FDFCEF;" d="M34.5,75.5c0,0,1.567,0,3.5,0s3.5-1.567,3.5-3.5c0-1.781-1.335-3.234-3.055-3.455
		C38.473,68.366,38.5,68.187,38.5,68c0-1.933-1.567-3.5-3.5-3.5c-1.032,0-1.95,0.455-2.59,1.165
		c-0.384-1.808-1.987-3.165-3.91-3.165c-2.209,0-4,1.791-4,4c0,0.191,0.03,0.374,0.056,0.558C24.128,66.714,23.592,66.5,23,66.5
		c-1.228,0-2.245,0.887-2.455,2.055C20.366,68.527,20.187,68.5,20,68.5c-1.933,0-3.5,1.567-3.5,3.5s1.567,3.5,3.5,3.5s7.5,0,7.5,0
		V76h7V75.5z"/>
	<path style="fill:#472B29;" d="M36.25,71C36.112,71,36,70.888,36,70.75c0-1.223,0.995-2.218,2.218-2.218
		c0.034,0.009,0.737-0.001,1.244,0.136c0.133,0.036,0.212,0.173,0.176,0.306c-0.036,0.134-0.173,0.213-0.306,0.176
		c-0.444-0.12-1.1-0.12-1.113-0.118c-0.948,0-1.719,0.771-1.719,1.718C36.5,70.888,36.388,71,36.25,71z"/>
	<circle style="fill:#472B29;" cx="29.5" cy="75.5" r="0.5"/>
	<path style="fill:#472B29;" d="M38,76h-3.5c-0.276,0-0.5-0.224-0.5-0.5s0.224-0.5,0.5-0.5H38c1.654,0,3-1.346,3-3
		c0-1.496-1.125-2.768-2.618-2.959c-0.134-0.018-0.255-0.088-0.336-0.196s-0.115-0.244-0.094-0.377C37.975,68.314,38,68.16,38,68
		c0-1.654-1.346-3-3-3c-0.85,0-1.638,0.355-2.219,1c-0.125,0.139-0.321,0.198-0.5,0.148c-0.182-0.049-0.321-0.195-0.36-0.379
		C31.58,64.165,30.141,63,28.5,63c-1.93,0-3.5,1.57-3.5,3.5c0,0.143,0.021,0.28,0.041,0.418c0.029,0.203-0.063,0.438-0.242,0.54
		c-0.179,0.102-0.396,0.118-0.556-0.01C23.878,67.155,23.449,67,23,67c-0.966,0-1.792,0.691-1.963,1.644
		c-0.048,0.267-0.296,0.446-0.569,0.405C20.314,69.025,20.16,69,20,69c-1.654,0-3,1.346-3,3s1.346,3,3,3h7.5
		c0.276,0,0.5,0.224,0.5,0.5S27.776,76,27.5,76H20c-2.206,0-4-1.794-4-4s1.794-4,4-4c0.059,0,0.116,0.002,0.174,0.006
		C20.588,66.82,21.711,66,23,66c0.349,0,0.689,0.061,1.011,0.18C24.176,63.847,26.126,62,28.5,62c1.831,0,3.466,1.127,4.153,2.774
		C33.333,64.276,34.155,64,35,64c2.206,0,4,1.794,4,4c0,0.048-0.001,0.095-0.004,0.142C40.739,68.59,42,70.169,42,72
		C42,74.206,40.206,76,38,76z"/>
	<path style="fill:#472B29;" d="M32.5,75c-0.159,0-0.841,0-1,0c-0.276,0-0.5,0.224-0.5,0.5c0,0.276,0.224,0.5,0.5,0.5
		c0.159,0,0.841,0,1,0c0.276,0,0.5-0.224,0.5-0.5C33,75.224,32.776,75,32.5,75z"/>
</g>
</svg>
