<?xml version="1.0" encoding="iso-8859-1"?>
<!-- Generator: Adobe Illustrator 22.1.0, SVG Export Plug-In . SVG Version: 6.00 Build 0)  -->
<svg version="1.1" id="Layer_1" xmlns="http://www.w3.org/2000/svg" xmlns:xlink="http://www.w3.org/1999/xlink" x="0px" y="0px"
	 viewBox="0 0 100 100" style="enable-background:new 0 0 100 100;" xml:space="preserve">
<g>
	<path style="fill:#C7EDE6;" d="M87.215,56.71C88.35,54.555,89,52.105,89,49.5c0-6.621-4.159-12.257-10.001-14.478
		C78.999,35.015,79,35.008,79,35c0-11.598-9.402-21-21-21c-9.784,0-17.981,6.701-20.313,15.757C36.211,29.272,34.638,29,33,29
		c-7.692,0-14.023,5.793-14.89,13.252C12.906,43.353,9,47.969,9,53.5C9,59.851,14.149,65,20.5,65c0.177,0,0.352-0.012,0.526-0.022
		C21.022,65.153,21,65.324,21,65.5C21,76.822,30.178,86,41.5,86c6.437,0,12.175-2.972,15.934-7.614C59.612,80.611,62.64,82,66,82
		c4.65,0,8.674-2.65,10.666-6.518C77.718,75.817,78.837,76,80,76c6.075,0,11-4.925,11-11C91,61.689,89.53,58.727,87.215,56.71z"/>
	<g>
		<path style="fill:#FDFCEF;" d="M77.5,62.5V63h5v-0.5c0,0,2.242,0,3.5,0c2.485,0,4.5-2.015,4.5-4.5
			c0-2.333-1.782-4.229-4.055-4.455C86.467,53.364,86.5,53.187,86.5,53c0-2.485-2.015-4.5-4.5-4.5c-1.438,0-2.703,0.686-3.527,1.736
			C78.333,47.6,76.171,45.5,73.5,45.5c-2.761,0-5,2.239-5,5c0,0.446,0.077,0.87,0.187,1.282C68.045,51.005,67.086,50.5,66,50.5
			c-1.781,0-3.234,1.335-3.455,3.055C62.364,53.533,62.187,53.5,62,53.5c-2.485,0-4.5,2.015-4.5,4.5s2.015,4.5,4.5,4.5s9.5,0,9.5,0
			H77.5z"/>
		<path style="fill:#472B29;" d="M73.5,45c-3.033,0-5.5,2.467-5.5,5.5c0,0.016,0,0.031,0,0.047C67.398,50.192,66.71,50,66,50
			c-1.831,0-3.411,1.261-3.858,3.005C62.095,53.002,62.048,53,62,53c-2.757,0-5,2.243-5,5s2.243,5,5,5h15.5
			c0.276,0,0.5-0.224,0.5-0.5S77.776,62,77.5,62H62c-2.206,0-4-1.794-4-4s1.794-4,4-4c0.117,0,0.23,0.017,0.343,0.032l0.141,0.019
			c0.021,0.003,0.041,0.004,0.062,0.004c0.246,0,0.462-0.185,0.495-0.437C63.232,52.125,64.504,51,66,51
			c0.885,0,1.723,0.401,2.301,1.1c0.098,0.118,0.241,0.182,0.386,0.182c0.078,0,0.156-0.018,0.228-0.056
			c0.209-0.107,0.314-0.346,0.254-0.573C69.054,51.218,69,50.852,69,50.5c0-2.481,2.019-4.5,4.5-4.5
			c2.381,0,4.347,1.872,4.474,4.263c0.011,0.208,0.15,0.387,0.349,0.45c0.05,0.016,0.101,0.024,0.152,0.024
			c0.15,0,0.296-0.069,0.392-0.192C79.638,49.563,80.779,49,82,49c2.206,0,4,1.794,4,4c0,0.117-0.017,0.23-0.032,0.343l-0.019,0.141
			c-0.016,0.134,0.022,0.268,0.106,0.373s0.207,0.172,0.34,0.185C88.451,54.247,90,55.949,90,58c0,2.206-1.794,4-4,4h-3.5
			c-0.276,0-0.5,0.224-0.5,0.5s0.224,0.5,0.5,0.5H86c2.757,0,5-2.243,5-5c0-2.397-1.689-4.413-4.003-4.877
			C86.999,53.082,87,53.041,87,53c0-2.757-2.243-5-5-5c-1.176,0-2.293,0.416-3.183,1.164C78.219,46.76,76.055,45,73.5,45L73.5,45z"
			/>
		<path style="fill:#472B29;" d="M72,52c-1.403,0-2.609,0.999-2.913,2.341C68.72,54.119,68.301,54,67.875,54
			c-1.202,0-2.198,0.897-2.353,2.068C65.319,56.022,65.126,56,64.938,56c-1.529,0-2.811,1.2-2.918,2.732
			C62.01,58.87,62.114,58.99,62.251,59c0.006,0,0.012,0,0.018,0c0.13,0,0.24-0.101,0.249-0.232c0.089-1.271,1.151-2.268,2.419-2.268
			c0.229,0,0.47,0.042,0.738,0.127c0.022,0.007,0.045,0.01,0.067,0.01c0.055,0,0.11-0.02,0.156-0.054
			C65.962,56.537,66,56.455,66,56.375c0-1.034,0.841-1.875,1.875-1.875c0.447,0,0.885,0.168,1.231,0.473
			c0.047,0.041,0.106,0.063,0.165,0.063c0.032,0,0.063-0.006,0.093-0.019c0.088-0.035,0.148-0.117,0.155-0.212
			C69.623,53.512,70.712,52.5,72,52.5c0.208,0,0.425,0.034,0.682,0.107c0.023,0.007,0.047,0.01,0.07,0.01
			c0.109,0,0.207-0.073,0.239-0.182c0.038-0.133-0.039-0.271-0.172-0.309C72.517,52.04,72.256,52,72,52L72,52z"/>
		<path style="fill:#472B29;" d="M85.883,53.5c-1.326,0-2.508,0.897-2.874,2.182c-0.038,0.133,0.039,0.271,0.172,0.309
			C83.205,55.997,83.228,56,83.25,56c0.109,0,0.209-0.072,0.24-0.182C83.795,54.748,84.779,54,85.883,54
			c0.117,0,0.23,0.014,0.342,0.029c0.012,0.002,0.023,0.003,0.035,0.003c0.121,0,0.229-0.092,0.246-0.217
			c0.019-0.137-0.077-0.263-0.214-0.281C86.158,53.516,86.022,53.5,85.883,53.5L85.883,53.5z"/>
	</g>
	<g>
		<path style="fill:#FFFFFF;" d="M15.5,51h-10C5.224,51,5,50.776,5,50.5S5.224,50,5.5,50h10c0.276,0,0.5,0.224,0.5,0.5
			S15.777,51,15.5,51z"/>
		<path style="fill:#FFFFFF;" d="M18.5,51h-1c-0.276,0-0.5-0.224-0.5-0.5s0.224-0.5,0.5-0.5h1c0.276,0,0.5,0.224,0.5,0.5
			S18.777,51,18.5,51z"/>
		<path style="fill:#FFFFFF;" d="M23.491,53H14.5c-0.276,0-0.5-0.224-0.5-0.5s0.224-0.5,0.5-0.5h8.991c0.276,0,0.5,0.224,0.5,0.5
			S23.767,53,23.491,53z"/>
		<path style="fill:#FFFFFF;" d="M12.5,53h-1c-0.276,0-0.5-0.224-0.5-0.5s0.224-0.5,0.5-0.5h1c0.276,0,0.5,0.224,0.5,0.5
			S12.777,53,12.5,53z"/>
		<path style="fill:#FFFFFF;" d="M9.5,53h-2C7.224,53,7,52.776,7,52.5S7.224,52,7.5,52h2c0.276,0,0.5,0.224,0.5,0.5S9.777,53,9.5,53
			z"/>
		<path style="fill:#FFFFFF;" d="M15.5,55h-2c-0.276,0-0.5-0.224-0.5-0.5s0.224-0.5,0.5-0.5h2c0.276,0,0.5,0.224,0.5,0.5
			S15.776,55,15.5,55z"/>
		<path style="fill:#FFFFFF;" d="M18.5,46c-0.177,0-0.823,0-1,0c-0.276,0-0.5,0.224-0.5,0.5s0.224,0.5,0.5,0.5c0.177,0,0.823,0,1,0
			c0.276,0,0.5-0.224,0.5-0.5S18.776,46,18.5,46z"/>
		<path style="fill:#FFFFFF;" d="M18.5,48c-0.177,0-4.823,0-5,0c-0.276,0-0.5,0.224-0.5,0.5s0.224,0.5,0.5,0.5c0.177,0,4.823,0,5,0
			c0.276,0,0.5-0.224,0.5-0.5S18.776,48,18.5,48z"/>
		<path style="fill:#FFFFFF;" d="M23.5,50c-0.177,0-2.823,0-3,0c-0.276,0-0.5,0.224-0.5,0.5s0.224,0.5,0.5,0.5c0.177,0,2.823,0,3,0
			c0.276,0,0.5-0.224,0.5-0.5S23.776,50,23.5,50z"/>
	</g>
	<g>
		<path style="fill:#FFFFFF;" d="M71.5,34h-10c-0.276,0-0.5-0.224-0.5-0.5s0.224-0.5,0.5-0.5h10c0.276,0,0.5,0.224,0.5,0.5
			S71.776,34,71.5,34z"/>
		<path style="fill:#FFFFFF;" d="M75.5,34h-2c-0.276,0-0.5-0.224-0.5-0.5s0.224-0.5,0.5-0.5h2c0.276,0,0.5,0.224,0.5,0.5
			S75.776,34,75.5,34z"/>
		<path style="fill:#FFFFFF;" d="M79.5,34h-2c-0.276,0-0.5-0.224-0.5-0.5s0.224-0.5,0.5-0.5h2c0.276,0,0.5,0.224,0.5,0.5
			S79.776,34,79.5,34z"/>
		<path style="fill:#FFFFFF;" d="M80.5,36h-10c-0.276,0-0.5-0.224-0.5-0.5s0.224-0.5,0.5-0.5h10c0.276,0,0.5,0.224,0.5,0.5
			S80.777,36,80.5,36z"/>
		<path style="fill:#FFFFFF;" d="M68.5,36h-1c-0.276,0-0.5-0.224-0.5-0.5s0.224-0.5,0.5-0.5h1c0.276,0,0.5,0.224,0.5,0.5
			S68.776,36,68.5,36z"/>
		<path style="fill:#FFFFFF;" d="M65.47,36H63.5c-0.276,0-0.5-0.224-0.5-0.5s0.224-0.5,0.5-0.5h1.97c0.276,0,0.5,0.224,0.5,0.5
			S65.746,36,65.47,36z"/>
		<path style="fill:#FFFFFF;" d="M74.5,32h-5c-0.276,0-0.5-0.224-0.5-0.5s0.224-0.5,0.5-0.5h5c0.276,0,0.5,0.224,0.5,0.5
			S74.777,32,74.5,32z"/>
		<path style="fill:#FFFFFF;" d="M81.5,32h-5c-0.276,0-0.5-0.224-0.5-0.5s0.224-0.5,0.5-0.5h5c0.276,0,0.5,0.224,0.5,0.5
			S81.777,32,81.5,32z"/>
		<path style="fill:#FFFFFF;" d="M71.5,38h-2c-0.276,0-0.5-0.224-0.5-0.5s0.224-0.5,0.5-0.5h2c0.276,0,0.5,0.224,0.5,0.5
			S71.776,38,71.5,38z"/>
	</g>
</g>
<g>
	<path style="fill:#B2B0A6;" d="M55.5,35.578c0,1.53-1.15,2.769-2.571,2.769h-3.857c-1.421,0-2.571-1.238-2.571-2.769v-7.074
		c0-2.209,1.791-4,4-4h3c1.105,0,2,0.895,2,2v9.074H55.5z"/>
	<path style="fill:#472B29;" d="M52.929,38.847h-3.857c-1.693,0-3.071-1.466-3.071-3.269v-7.074c0-2.481,2.019-4.5,4.5-4.5h3
		c1.378,0,2.499,1.122,2.499,2.5v9.074C55.999,37.38,54.622,38.847,52.929,38.847z M50.5,25.004c-1.93,0-3.5,1.57-3.5,3.5v7.074
		c0,1.251,0.929,2.269,2.071,2.269h3.857c1.142,0,2.071-1.018,2.071-2.269v-9.074c0-0.827-0.673-1.5-1.5-1.5L50.5,25.004z"/>
	<path style="fill:#B2B0A6;" d="M30.5,74.5h43c3.309,0,6-2.691,6-6c0-3.14-2.425-5.725-5.5-5.979v3.021
		c1.417,0.239,2.5,1.475,2.5,2.958c0,1.654-1.346,3-3,3h-8v-5.967h-4V71.5h-20v-8h-4v8h-7V74.5z"/>
	<path style="fill:#472B29;" d="M74.5,63.091c2.557,0.471,4.5,2.718,4.5,5.409c0,3.033-2.467,5.5-5.5,5.5H31v-2h6
		c0.552,0,1-0.448,1-1v-7h3v7c0,0.552,0.448,1,1,1h19c0.552,0,1-0.448,1-1v-4.967h3V71c0,0.552,0.448,1,1,1h7.5
		c1.93,0,3.5-1.57,3.5-3.5c0-1.583-1.056-2.923-2.5-3.354V63.091 M73.5,62v4c1.378,0,2.5,1.122,2.5,2.5S74.878,71,73.5,71H66v-5.967
		h-5V71H42v-8h-5v8h-7v4h43.5c3.584,0,6.5-2.916,6.5-6.5S77.084,62,73.5,62L73.5,62z"/>
	<path style="fill:#FDFCEF;" d="M44.5,61.419l0.574,0.086c0.823,0.124,1.98,0.641,3.445,1.296c3.292,1.473,8.268,3.698,14.356,3.698
		c6.437,0,12.765-0.625,15.187-0.895c0.25-0.028,0.438-0.241,0.438-0.496v-2.234c-0.001-2.531-0.003-6.356-6.462-7.508
		C55.5,52.419,55.5,46.108,55.5,41.5V31c0-1.969-1.472-2.489-2.25-2.489c-1.092,0-12.887,2.046-17.339,2.834
		c-0.238,0.043-0.411,0.25-0.411,0.492v9.913c0,1.712-0.351,3.275-0.757,5.085C34.189,49.301,33.5,52.37,33.5,57
		c0,2.045,0.605,6.331,0.866,8.078c0.036,0.245,0.244,0.422,0.494,0.422H44c0.276,0,0.5-0.224,0.5-0.5V61.419z"/>
	<path style="fill:#605E60;" d="M78,62.088c-0.091,0.014-0.166,0.026-0.214,0.033C75.408,62.385,69.196,63,62.875,63
		c-5.554,0-10.236-2.094-13.34-3.482c-1.701-0.761-2.931-1.311-4.09-1.484C45.296,58.011,45.147,58,45,58H33.625l0.875,7l9.5,0.125
		c0.099,0,0.526-3.765,0.625-3.75c1.024,0.153,1,0,1.25,0.125c3.112,1.556,10.858,4.875,16.625,4.875
		c6.371,0,11.468-0.357,13.875-0.625c0.086-0.012,1.058-0.054,1.625-0.092V62.088z"/>
	<path style="fill:#472B29;" d="M53.253,29.411C53.484,29.412,54.6,29.493,54.6,31v10.5c0,4.648,0,11.672,17.279,14.753
		c5.717,1.019,5.719,4.126,5.721,6.622v1.876c-2.63,0.284-8.626,0.849-14.725,0.849c-5.896,0-10.766-2.178-13.988-3.62
		c-1.588-0.71-2.735-1.223-3.679-1.365C45.138,60.605,45.069,60.6,45,60.6c-0.333,0-0.658,0.119-0.914,0.339
		C43.778,61.205,43.6,61.592,43.6,62v2.6h-8.395C34.927,62.705,34.4,58.86,34.4,57c0-4.53,0.649-7.419,1.221-9.968
		c0.418-1.862,0.779-3.47,0.779-5.282v-9.578C42.52,31.091,52.23,29.433,53.253,29.411 M53.25,28.011
		c-1.375,0-17.426,2.842-17.426,2.842C35.347,30.938,35,31.353,35,31.837v9.913c0,3.999-2,7.251-2,15.25
		c0,2.066,0.601,6.336,0.871,8.152C33.944,65.642,34.364,66,34.859,66H44c0.552,0,1-0.448,1-1v-3c2.5,0.375,9,5,17.875,5
		c6.518,0,12.946-0.642,15.242-0.897C78.623,66.046,79,65.619,79,65.109v-2.234l0,0c-0.002-2.675-0.12-6.796-6.875-8
		C56,52,56,46,56,41.5c0-2.625,0-10.5,0-10.5C56,28.801,54.375,28.011,53.25,28.011L53.25,28.011z"/>
	<path style="fill:#472B29;" d="M44.25,58.625c0-2.149-0.631-4.239-1.824-6.043c-0.115-0.173-0.067-0.405,0.105-0.52
		c0.174-0.116,0.406-0.067,0.52,0.105C44.326,54.095,45,56.328,45,58.625H44.25z"/>
	<path style="fill:#472B29;" d="M41.324,51c-0.097,0-0.193-0.037-0.266-0.111c-0.297-0.299-0.605-0.578-0.917-0.83
		c-0.162-0.13-0.187-0.366-0.057-0.527c0.13-0.162,0.367-0.187,0.527-0.057c0.334,0.269,0.664,0.566,0.98,0.885
		c0.146,0.147,0.145,0.385-0.002,0.53C41.515,50.964,41.419,51,41.324,51z"/>
	<path style="fill:#472B29;" d="M37.625,48.504c-0.048,0-0.098-0.009-0.145-0.029c-0.972-0.407-1.988-0.671-3.021-0.784
		c-0.206-0.022-0.354-0.208-0.332-0.414s0.204-0.366,0.414-0.332c1.104,0.121,2.19,0.403,3.229,0.838
		c0.191,0.08,0.281,0.3,0.201,0.491C37.911,48.417,37.771,48.504,37.625,48.504z"/>
	<path style="fill:#472B29;" d="M55.125,35H52.5c-0.276,0-0.5-0.224-0.5-0.5s0.224-0.5,0.5-0.5h2.625c0.276,0,0.5,0.224,0.5,0.5
		S55.401,35,55.125,35z"/>
	<path style="fill:#472B29;" d="M55.375,40H52.5c-0.276,0-0.5-0.224-0.5-0.5s0.224-0.5,0.5-0.5h2.875c0.276,0,0.5,0.224,0.5,0.5
		S55.651,40,55.375,40z"/>
	<path style="fill:#472B29;" d="M52.5,45c-0.239,0-0.45-0.171-0.492-0.415c-0.047-0.272,0.135-0.531,0.407-0.578l2.875-0.5
		c0.271-0.046,0.53,0.135,0.578,0.407c0.047,0.272-0.135,0.531-0.407,0.578l-2.875,0.5C52.557,44.998,52.528,45,52.5,45z"/>
	<path style="fill:#472B29;" d="M53.5,49.75c-0.162,0-0.32-0.078-0.417-0.223c-0.153-0.23-0.091-0.54,0.139-0.693l2.625-1.75
		c0.23-0.153,0.54-0.091,0.693,0.139s0.091,0.54-0.139,0.693l-2.625,1.75C53.692,49.723,53.596,49.75,53.5,49.75z"/>
	<path style="fill:#472B29;" d="M56.5,53.5c-0.102,0-0.205-0.031-0.293-0.096c-0.224-0.162-0.273-0.475-0.11-0.698l2-2.75
		c0.162-0.224,0.474-0.273,0.698-0.11c0.224,0.162,0.273,0.475,0.11,0.698l-2,2.75C56.807,53.429,56.654,53.5,56.5,53.5z"/>
	<path style="fill:#472B29;" d="M60.5,55.75c-0.057,0-0.114-0.01-0.171-0.03c-0.259-0.094-0.394-0.381-0.299-0.641l1-2.75
		c0.094-0.259,0.381-0.394,0.641-0.299c0.259,0.094,0.394,0.381,0.299,0.641l-1,2.75C60.896,55.624,60.704,55.75,60.5,55.75z"/>
	<path style="fill:#472B29;" d="M64.875,57c-0.04,0-0.081-0.005-0.122-0.015c-0.268-0.067-0.431-0.338-0.364-0.606l0.625-2.5
		c0.066-0.269,0.337-0.432,0.606-0.364c0.268,0.067,0.431,0.338,0.364,0.606l-0.625,2.5C65.303,56.849,65.1,57,64.875,57z"/>
	<path style="fill:#472B29;" d="M78,62.088c-0.091,0.014-0.166,0.026-0.214,0.033C75.408,62.385,69.196,63,62.875,63
		c-5.554,0-10.236-2.094-13.34-3.482c-1.701-0.761-2.931-1.311-4.09-1.484C45.296,58.011,45.147,58,45,58H33.625v1h11.374
		c0.099,0,0.199,0.007,0.298,0.022c1.024,0.153,2.201,0.68,3.836,1.411C52.309,61.854,57.108,64,62.875,64
		c6.371,0,12.627-0.619,15.034-0.887C77.932,63.11,77.971,63.104,78,63.1V62.088z"/>
</g>
<g>
	<path style="fill:#FDFCEF;" d="M35.5,76.5c0,0,1.567,0,3.5,0s3.5-1.567,3.5-3.5c0-1.781-1.335-3.234-3.055-3.455
		C39.473,69.366,39.5,69.187,39.5,69c0-1.933-1.567-3.5-3.5-3.5c-1.032,0-1.95,0.455-2.59,1.165
		c-0.385-1.808-1.988-3.165-3.91-3.165c-2.209,0-4,1.791-4,4c0,0.191,0.03,0.374,0.056,0.558C25.128,67.714,24.592,67.5,24,67.5
		c-1.228,0-2.245,0.887-2.455,2.055C21.366,69.527,21.187,69.5,21,69.5c-1.933,0-3.5,1.567-3.5,3.5s1.567,3.5,3.5,3.5s7.5,0,7.5,0
		V77h7V76.5z"/>
	<path style="fill:#472B29;" d="M37.25,72C37.112,72,37,71.888,37,71.75c0-1.223,0.995-2.218,2.218-2.218
		c0.034,0.009,0.737-0.001,1.244,0.136c0.133,0.036,0.212,0.173,0.176,0.306c-0.036,0.134-0.173,0.213-0.306,0.176
		c-0.444-0.12-1.1-0.12-1.113-0.118c-0.948,0-1.719,0.771-1.719,1.718C37.5,71.888,37.388,72,37.25,72z"/>
	<circle style="fill:#472B29;" cx="30.5" cy="76.5" r="0.5"/>
	<path style="fill:#472B29;" d="M39,77h-3.5c-0.276,0-0.5-0.224-0.5-0.5s0.224-0.5,0.5-0.5H39c1.654,0,3-1.346,3-3
		c0-1.496-1.125-2.768-2.618-2.959c-0.134-0.018-0.255-0.088-0.336-0.196s-0.115-0.244-0.094-0.377C38.975,69.314,39,69.16,39,69
		c0-1.654-1.346-3-3-3c-0.85,0-1.638,0.355-2.219,1c-0.125,0.139-0.321,0.198-0.5,0.148c-0.182-0.049-0.321-0.195-0.36-0.379
		C32.58,65.165,31.141,64,29.5,64c-1.93,0-3.5,1.57-3.5,3.5c0,0.143,0.021,0.28,0.041,0.418c0.029,0.203-0.063,0.438-0.242,0.54
		s-0.396,0.118-0.556-0.01C24.878,68.155,24.449,68,24,68c-0.966,0-1.792,0.691-1.963,1.644c-0.048,0.267-0.296,0.446-0.569,0.405
		C21.314,70.025,21.16,70,21,70c-1.654,0-3,1.346-3,3s1.346,3,3,3h7.5c0.276,0,0.5,0.224,0.5,0.5S28.776,77,28.5,77H21
		c-2.206,0-4-1.794-4-4s1.794-4,4-4c0.059,0,0.116,0.002,0.174,0.006C21.588,67.82,22.711,67,24,67c0.349,0,0.689,0.061,1.011,0.18
		C25.176,64.847,27.126,63,29.5,63c1.831,0,3.466,1.127,4.153,2.774C34.333,65.276,35.155,65,36,65c2.206,0,4,1.794,4,4
		c0,0.048-0.001,0.095-0.004,0.142C41.739,69.59,43,71.169,43,73C43,75.206,41.206,77,39,77z"/>
	<path style="fill:#472B29;" d="M33.5,76c-0.159,0-0.841,0-1,0c-0.276,0-0.5,0.224-0.5,0.5s0.224,0.5,0.5,0.5c0.159,0,0.841,0,1,0
		c0.276,0,0.5-0.224,0.5-0.5S33.776,76,33.5,76z"/>
</g>
</svg>
