<?xml version="1.0" encoding="iso-8859-1"?>
<!-- Generator: Adobe Illustrator 22.1.0, SVG Export Plug-In . SVG Version: 6.00 Build 0)  -->
<svg version="1.1" id="Layer_1" xmlns="http://www.w3.org/2000/svg" xmlns:xlink="http://www.w3.org/1999/xlink" x="0px" y="0px"
	 viewBox="0 0 100 100" style="enable-background:new 0 0 100 100;" xml:space="preserve">
<path style="fill:#C7EDE6;" d="M87.215,56.71C88.35,54.555,89,52.105,89,49.5c0-6.621-4.159-12.257-10.001-14.478
	C78.999,35.015,79,35.008,79,35c0-11.598-9.402-21-21-21c-9.784,0-17.981,6.701-20.313,15.757C36.211,29.272,34.638,29,33,29
	c-7.692,0-14.023,5.793-14.89,13.252C12.906,43.353,9,47.969,9,53.5C9,59.851,14.149,65,20.5,65c0.177,0,0.352-0.012,0.526-0.022
	C21.022,65.153,21,65.324,21,65.5C21,76.822,30.178,86,41.5,86c6.437,0,12.175-2.972,15.934-7.614C59.612,80.611,62.64,82,66,82
	c4.65,0,8.674-2.65,10.666-6.518C77.718,75.817,78.837,76,80,76c6.075,0,11-4.925,11-11C91,61.689,89.53,58.727,87.215,56.71z"/>
<g>
	<path style="fill:#FDFCEF;" d="M77.5,64.5V65h3v-0.5c0,0,2.242,0,3.5,0c2.485,0,4.5-2.015,4.5-4.5c0-2.333-1.782-4.229-4.055-4.455
		C84.467,55.364,84.5,55.187,84.5,55c0-2.485-2.015-4.5-4.5-4.5c-1.438,0-2.703,0.686-3.527,1.736
		C76.333,49.6,74.171,47.5,71.5,47.5c-2.761,0-5,2.239-5,5c0,0.446,0.077,0.87,0.187,1.282C66.045,53.005,65.086,52.5,64,52.5
		c-1.781,0-3.234,1.335-3.455,3.055C60.364,55.533,60.187,55.5,60,55.5c-2.485,0-4.5,2.015-4.5,4.5s2.015,4.5,4.5,4.5s9.5,0,9.5,0
		H77.5z"/>
	<path style="fill:#472B29;" d="M71.5,47c-3.033,0-5.5,2.467-5.5,5.5c0,0.016,0,0.031,0,0.047C65.398,52.192,64.71,52,64,52
		c-1.831,0-3.411,1.261-3.858,3.005C60.095,55.002,60.048,55,60,55c-2.757,0-5,2.243-5,5s2.243,5,5,5h17.5
		c0.276,0,0.5-0.224,0.5-0.5S77.776,64,77.5,64H60c-2.206,0-4-1.794-4-4s1.794-4,4-4c0.117,0,0.23,0.017,0.343,0.032l0.141,0.019
		c0.021,0.003,0.041,0.004,0.062,0.004c0.246,0,0.462-0.185,0.495-0.437C61.232,54.125,62.504,53,64,53
		c0.885,0,1.723,0.401,2.301,1.1c0.098,0.118,0.241,0.182,0.386,0.182c0.078,0,0.156-0.018,0.228-0.056
		c0.209-0.107,0.314-0.346,0.254-0.573C67.054,53.218,67,52.852,67,52.5c0-2.481,2.019-4.5,4.5-4.5c2.381,0,4.347,1.872,4.474,4.263
		c0.011,0.208,0.15,0.387,0.349,0.45c0.05,0.016,0.101,0.024,0.152,0.024c0.15,0,0.296-0.069,0.392-0.192
		C77.638,51.563,78.779,51,80,51c2.206,0,4,1.794,4,4c0,0.117-0.017,0.23-0.032,0.343l-0.019,0.141
		c-0.016,0.134,0.022,0.268,0.106,0.373c0.084,0.105,0.207,0.172,0.34,0.185C86.451,56.247,88,57.949,88,60c0,2.206-1.794,4-4,4
		h-3.5c-0.276,0-0.5,0.224-0.5,0.5s0.224,0.5,0.5,0.5H84c2.757,0,5-2.243,5-5c0-2.397-1.689-4.413-4.003-4.877
		C84.999,55.082,85,55.041,85,55c0-2.757-2.243-5-5-5c-1.176,0-2.293,0.416-3.183,1.164C76.219,48.76,74.055,47,71.5,47L71.5,47z"/>
	<path style="fill:#472B29;" d="M70,54c-1.403,0-2.609,0.999-2.913,2.341C66.72,56.119,66.301,56,65.875,56
		c-1.202,0-2.198,0.897-2.353,2.068C63.319,58.022,63.126,58,62.937,58c-1.529,0-2.811,1.2-2.918,2.732
		C60.01,60.87,60.114,60.99,60.251,61c0.006,0,0.012,0,0.018,0c0.13,0,0.24-0.101,0.249-0.232c0.089-1.271,1.151-2.268,2.419-2.268
		c0.229,0,0.47,0.042,0.738,0.127c0.022,0.007,0.045,0.01,0.067,0.01c0.055,0,0.11-0.02,0.156-0.054
		C63.962,58.537,64,58.455,64,58.375c0-1.034,0.841-1.875,1.875-1.875c0.447,0,0.885,0.168,1.231,0.473
		c0.047,0.041,0.106,0.063,0.165,0.063c0.032,0,0.063-0.006,0.093-0.019c0.088-0.035,0.148-0.117,0.155-0.212
		C67.623,55.512,68.712,54.5,70,54.5c0.208,0,0.425,0.034,0.682,0.107c0.023,0.007,0.047,0.01,0.07,0.01
		c0.109,0,0.207-0.073,0.239-0.182c0.038-0.133-0.039-0.271-0.172-0.309C70.517,54.04,70.256,54,70,54L70,54z"/>
	<path style="fill:#472B29;" d="M83.883,55.5c-1.326,0-2.508,0.897-2.874,2.182c-0.038,0.133,0.039,0.271,0.172,0.309
		C81.205,57.997,81.228,58,81.25,58c0.109,0,0.209-0.072,0.24-0.182C81.795,56.748,82.779,56,83.883,56
		c0.117,0,0.23,0.014,0.342,0.029c0.012,0.002,0.023,0.003,0.035,0.003c0.121,0,0.229-0.092,0.246-0.217
		c0.019-0.137-0.077-0.263-0.214-0.281C84.158,55.516,84.022,55.5,83.883,55.5L83.883,55.5z"/>
</g>
<g>
	<path style="fill:#FFFFFF;" d="M15.5,51h-10C5.224,51,5,50.776,5,50.5S5.224,50,5.5,50h10c0.276,0,0.5,0.224,0.5,0.5
		S15.777,51,15.5,51z"/>
	<path style="fill:#FFFFFF;" d="M18.5,51h-1c-0.276,0-0.5-0.224-0.5-0.5s0.224-0.5,0.5-0.5h1c0.276,0,0.5,0.224,0.5,0.5
		S18.777,51,18.5,51z"/>
	<path style="fill:#FFFFFF;" d="M23.491,53H14.5c-0.276,0-0.5-0.224-0.5-0.5s0.224-0.5,0.5-0.5h8.991c0.276,0,0.5,0.224,0.5,0.5
		S23.767,53,23.491,53z"/>
	<path style="fill:#FFFFFF;" d="M12.5,53h-1c-0.276,0-0.5-0.224-0.5-0.5s0.224-0.5,0.5-0.5h1c0.276,0,0.5,0.224,0.5,0.5
		S12.777,53,12.5,53z"/>
	<path style="fill:#FFFFFF;" d="M9.5,53h-2C7.224,53,7,52.776,7,52.5S7.224,52,7.5,52h2c0.276,0,0.5,0.224,0.5,0.5S9.777,53,9.5,53z
		"/>
	<path style="fill:#FFFFFF;" d="M15.5,55h-2c-0.276,0-0.5-0.224-0.5-0.5s0.224-0.5,0.5-0.5h2c0.276,0,0.5,0.224,0.5,0.5
		S15.776,55,15.5,55z"/>
	<path style="fill:#FFFFFF;" d="M18.5,46c-0.177,0-0.823,0-1,0c-0.276,0-0.5,0.224-0.5,0.5c0,0.276,0.224,0.5,0.5,0.5
		c0.177,0,0.823,0,1,0c0.276,0,0.5-0.224,0.5-0.5C19,46.224,18.776,46,18.5,46z"/>
	<path style="fill:#FFFFFF;" d="M18.5,48c-0.177,0-4.823,0-5,0c-0.276,0-0.5,0.224-0.5,0.5c0,0.276,0.224,0.5,0.5,0.5
		c0.177,0,4.823,0,5,0c0.276,0,0.5-0.224,0.5-0.5C19,48.224,18.776,48,18.5,48z"/>
	<path style="fill:#FFFFFF;" d="M23.5,50c-0.177,0-2.823,0-3,0c-0.276,0-0.5,0.224-0.5,0.5c0,0.276,0.224,0.5,0.5,0.5
		c0.177,0,2.823,0,3,0c0.276,0,0.5-0.224,0.5-0.5C24,50.224,23.776,50,23.5,50z"/>
</g>
<g>
	<path style="fill:#FFFFFF;" d="M64.5,18h-10c-0.276,0-0.5-0.224-0.5-0.5s0.224-0.5,0.5-0.5h10c0.276,0,0.5,0.224,0.5,0.5
		S64.776,18,64.5,18z"/>
	<path style="fill:#FFFFFF;" d="M71.5,18h-5c-0.276,0-0.5-0.224-0.5-0.5s0.224-0.5,0.5-0.5h5c0.276,0,0.5,0.224,0.5,0.5
		S71.776,18,71.5,18z"/>
	<path style="fill:#FFFFFF;" d="M73.5,20h-10c-0.276,0-0.5-0.224-0.5-0.5s0.224-0.5,0.5-0.5h10c0.276,0,0.5,0.224,0.5,0.5
		S73.777,20,73.5,20z"/>
	<path style="fill:#FFFFFF;" d="M61.5,20h-1c-0.276,0-0.5-0.224-0.5-0.5s0.224-0.5,0.5-0.5h1c0.276,0,0.5,0.224,0.5,0.5
		S61.776,20,61.5,20z"/>
	<path style="fill:#FFFFFF;" d="M58.47,20H56.5c-0.276,0-0.5-0.224-0.5-0.5s0.224-0.5,0.5-0.5h1.97c0.276,0,0.5,0.224,0.5,0.5
		S58.746,20,58.47,20z"/>
	<path style="fill:#FFFFFF;" d="M67.5,16h-5c-0.276,0-0.5-0.224-0.5-0.5s0.224-0.5,0.5-0.5h5c0.276,0,0.5,0.224,0.5,0.5
		S67.777,16,67.5,16z"/>
	<path style="fill:#FFFFFF;" d="M64.5,22h-2c-0.276,0-0.5-0.224-0.5-0.5s0.224-0.5,0.5-0.5h2c0.276,0,0.5,0.224,0.5,0.5
		S64.776,22,64.5,22z"/>
</g>
<g>
	<path style="fill:#FDFCEF;" d="M35.5,72.5c0,0,1.567,0,3.5,0s3.5-1.567,3.5-3.5c0-1.781-1.335-3.234-3.055-3.455
		C39.473,65.366,39.5,65.187,39.5,65c0-1.933-1.567-3.5-3.5-3.5c-1.032,0-1.95,0.455-2.59,1.165
		c-0.384-1.808-1.987-3.165-3.91-3.165c-2.209,0-4,1.791-4,4c0,0.191,0.03,0.374,0.056,0.558C25.128,63.714,24.592,63.5,24,63.5
		c-1.228,0-2.245,0.887-2.455,2.055C21.366,65.527,21.187,65.5,21,65.5c-1.933,0-3.5,1.567-3.5,3.5s1.567,3.5,3.5,3.5s7.5,0,7.5,0
		V73h7V72.5z"/>
	<path style="fill:#472B29;" d="M37.25,68C37.112,68,37,67.888,37,67.75c0-1.223,0.995-2.218,2.218-2.218
		c0.034,0.009,0.737-0.001,1.244,0.136c0.133,0.036,0.212,0.173,0.176,0.306c-0.036,0.134-0.173,0.213-0.306,0.176
		c-0.444-0.12-1.1-0.12-1.113-0.118c-0.948,0-1.719,0.771-1.719,1.718C37.5,67.888,37.388,68,37.25,68z"/>
	<circle style="fill:#472B29;" cx="30.5" cy="72.5" r="0.5"/>
	<path style="fill:#472B29;" d="M39,73h-3.5c-0.276,0-0.5-0.224-0.5-0.5s0.224-0.5,0.5-0.5H39c1.654,0,3-1.346,3-3
		c0-1.496-1.125-2.768-2.618-2.959c-0.134-0.018-0.255-0.088-0.336-0.196s-0.115-0.244-0.094-0.377C38.975,65.314,39,65.16,39,65
		c0-1.654-1.346-3-3-3c-0.85,0-1.638,0.355-2.219,1c-0.125,0.139-0.321,0.198-0.5,0.148c-0.182-0.049-0.321-0.195-0.36-0.379
		C32.58,61.165,31.141,60,29.5,60c-1.93,0-3.5,1.57-3.5,3.5c0,0.143,0.021,0.28,0.041,0.418c0.029,0.203-0.063,0.438-0.242,0.54
		c-0.179,0.102-0.396,0.118-0.556-0.01C24.878,64.155,24.449,64,24,64c-0.966,0-1.792,0.691-1.963,1.644
		c-0.048,0.267-0.296,0.446-0.569,0.405C21.314,66.025,21.16,66,21,66c-1.654,0-3,1.346-3,3s1.346,3,3,3h7.5
		c0.276,0,0.5,0.224,0.5,0.5S28.776,73,28.5,73H21c-2.206,0-4-1.794-4-4s1.794-4,4-4c0.059,0,0.116,0.002,0.174,0.006
		C21.588,63.82,22.711,63,24,63c0.349,0,0.689,0.061,1.011,0.18C25.176,60.847,27.126,59,29.5,59c1.831,0,3.466,1.127,4.153,2.774
		C34.333,61.276,35.155,61,36,61c2.206,0,4,1.794,4,4c0,0.048-0.001,0.095-0.004,0.142C41.739,65.59,43,67.169,43,69
		C43,71.206,41.206,73,39,73z"/>
	<path style="fill:#472B29;" d="M33.5,72c-0.159,0-0.841,0-1,0c-0.276,0-0.5,0.224-0.5,0.5c0,0.276,0.224,0.5,0.5,0.5
		c0.159,0,0.841,0,1,0c0.276,0,0.5-0.224,0.5-0.5C34,72.224,33.776,72,33.5,72z"/>
</g>
<g>
	<g>
		<path style="fill:#678C26;" d="M48.5,28.062C43.068,28.938,37.393,24.5,37.393,24.5s0.877,3.797-2.537,6.068
			c-3.414,2.271-6.822,1.253-6.822,1.253s1.378,6.201-1.535,10.876"/>
		<path style="fill:#88AE45;" d="M48.5,28.062c-2.913,4.675-1.031,11.636-1.031,11.636s-3.153-2.283-6.567-0.012
			c-3.414,2.271-3.799,5.812-3.799,5.812s-5.171-3.678-10.603-2.802"/>
		<path style="fill:#472B29;" d="M26.5,43.198c-0.091,0-0.183-0.024-0.265-0.076c-0.234-0.146-0.306-0.455-0.159-0.69
			c2.767-4.441,1.484-10.444,1.471-10.503c-0.038-0.173,0.019-0.353,0.147-0.474c0.13-0.12,0.314-0.163,0.482-0.114
			c0.032,0.009,3.238,0.916,6.403-1.189c3.073-2.044,2.358-5.397,2.326-5.539c-0.047-0.206,0.041-0.421,0.22-0.534
			c0.179-0.112,0.408-0.102,0.575,0.027c0.055,0.043,5.566,4.288,10.72,3.464c0.264-0.05,0.529,0.141,0.572,0.415
			c0.044,0.273-0.141,0.53-0.414,0.574c-4.346,0.697-8.744-1.795-10.593-3.023c0.007,1.409-0.389,3.812-2.854,5.451
			c-2.622,1.746-5.224,1.658-6.477,1.473c0.275,1.828,0.686,6.625-1.732,10.504C26.829,43.115,26.666,43.198,26.5,43.198z"/>
		<path style="fill:#472B29;" d="M37.103,46c-0.102,0-0.203-0.031-0.289-0.092c-0.051-0.036-5.076-3.549-10.234-2.717
			c-0.267,0.051-0.529-0.141-0.572-0.415c-0.044-0.273,0.141-0.53,0.414-0.573c4.507-0.73,8.761,1.511,10.336,2.475
			c0.314-1.227,1.244-3.662,3.869-5.408c2.464-1.64,4.829-1.071,6.121-0.518c-0.412-2.185-1.001-7.215,1.329-10.954
			c0.146-0.237,0.457-0.306,0.688-0.159c0.234,0.146,0.306,0.455,0.159,0.69c-2.766,4.439-0.99,11.173-0.973,11.241
			c0.056,0.204-0.024,0.422-0.197,0.542c-0.174,0.12-0.405,0.118-0.577-0.004c-0.119-0.085-2.927-2.047-5.998-0.002
			c-3.182,2.117-3.575,5.417-3.579,5.45c-0.02,0.176-0.131,0.329-0.292,0.402C37.242,45.985,37.172,46,37.103,46z"/>
		<path style="fill:#472B29;" d="M26.595,43.134c-0.161,0-0.32-0.078-0.417-0.224c-0.152-0.23-0.09-0.541,0.141-0.694l21.905-14.571
			c0.227-0.151,0.539-0.092,0.693,0.141c0.152,0.23,0.09,0.541-0.141,0.694L26.871,43.051C26.786,43.107,26.69,43.134,26.595,43.134
			z"/>
	</g>
	<g>
		<path style="fill:#678C26;" d="M56.5,28.062c5.432,0.876,11.106-3.562,11.106-3.562s-0.877,3.797,2.537,6.068
			c3.414,2.271,6.822,1.253,6.822,1.253s-1.378,6.201,1.535,10.876"/>
		<path style="fill:#88AE45;" d="M56.5,28.062c2.913,4.675,1.031,11.636,1.031,11.636s3.153-2.283,6.567-0.012
			c3.414,2.271,3.799,5.812,3.799,5.812s5.171-3.678,10.603-2.802"/>
		<path style="fill:#472B29;" d="M78.5,43.198c-0.166,0-0.329-0.083-0.424-0.236c-2.418-3.879-2.008-8.676-1.732-10.504
			c-1.254,0.186-3.853,0.273-6.477-1.474c-2.465-1.638-2.86-4.042-2.853-5.45c-1.85,1.229-6.248,3.718-10.593,3.023
			c-0.273-0.044-0.458-0.301-0.414-0.574c0.043-0.274,0.306-0.465,0.572-0.415c5.157,0.826,10.665-3.421,10.72-3.464
			c0.167-0.129,0.397-0.139,0.575-0.027c0.179,0.113,0.267,0.328,0.22,0.534c-0.032,0.142-0.747,3.495,2.326,5.538
			c3.182,2.119,6.37,1.201,6.402,1.19c0.168-0.048,0.354-0.007,0.483,0.113c0.13,0.121,0.186,0.302,0.147,0.475
			c-0.014,0.06-1.296,6.062,1.471,10.503c0.146,0.235,0.075,0.544-0.159,0.69C78.683,43.173,78.591,43.198,78.5,43.198z"/>
		<path style="fill:#472B29;" d="M67.899,45.999c-0.069,0-0.14-0.014-0.205-0.043c-0.161-0.072-0.272-0.225-0.293-0.401
			c-0.004-0.033-0.414-3.346-3.579-5.452c-3.072-2.041-5.88-0.082-5.998,0.003c-0.171,0.122-0.403,0.124-0.576,0.004
			c-0.174-0.12-0.254-0.337-0.198-0.542c0.018-0.067,1.788-6.809-0.973-11.241c-0.146-0.235-0.075-0.544,0.159-0.69
			c0.233-0.147,0.543-0.077,0.688,0.159c2.33,3.739,1.741,8.769,1.329,10.954c1.292-0.553,3.657-1.121,6.121,0.517
			c2.625,1.747,3.555,4.183,3.869,5.409c1.574-0.962,5.829-3.203,10.336-2.475c0.273,0.043,0.458,0.3,0.414,0.573
			c-0.043,0.274-0.304,0.466-0.572,0.415c-5.17-0.831-10.184,2.681-10.234,2.717C68.101,45.969,68,45.999,67.899,45.999z"/>
		<path style="fill:#472B29;" d="M78.405,43.134c-0.096,0-0.191-0.027-0.276-0.083L56.224,28.48
			c-0.23-0.154-0.293-0.465-0.141-0.694c0.154-0.233,0.466-0.291,0.693-0.141l21.905,14.571c0.23,0.154,0.293,0.465,0.141,0.694
			C78.726,43.056,78.566,43.134,78.405,43.134z"/>
	</g>
	<g>
		<ellipse style="fill:#DB8509;" cx="52.5" cy="71.563" rx="5" ry="4.938"/>
		<path style="fill:#472B29;" d="M52.5,77c-3.032,0-5.5-2.439-5.5-5.438s2.468-5.438,5.5-5.438s5.5,2.439,5.5,5.438
			S55.532,77,52.5,77z M52.5,67.125c-2.481,0-4.5,1.99-4.5,4.438S50.019,76,52.5,76s4.5-1.99,4.5-4.438S54.981,67.125,52.5,67.125z"
			/>
		<path style="fill:#FCC938;" d="M74.42,64.86l-0.01-0.02c-0.22-0.64-0.73-1.53-1.4-2.54c-0.13-0.21-0.27-0.41-0.42-0.63
			c-0.44-0.64-0.93-1.33-1.45-2.04c-0.14-0.2-0.28-0.4-0.44-0.61c-0.08-0.13-0.18-0.25-0.27-0.38c-2.91-4.02-5.93-8.17-5.93-10.77
			v-5.81c0-6.92-5.38-12.56-12-12.56s-12,5.64-12,12.56v5.81c0,2.6-3.02,6.75-5.93,10.77c-0.11,0.15-0.22,0.3-0.32,0.45
			c-0.16,0.21-0.3,0.41-0.45,0.61c-0.52,0.72-1.02,1.42-1.45,2.07c-0.15,0.21-0.29,0.42-0.42,0.62c-0.64,0.97-1.13,1.83-1.34,2.45
			c-0.06,0.17-0.09,0.31-0.09,0.45c0,2.56,8.23,5.21,22,5.21c14.35,0,22-3.03,22-5.21C74.5,65.14,74.47,65.01,74.42,64.86z"/>
		<path style="fill:#FCD98B;" d="M70.924,59.323c-0.952,0.438-2.762,1.146-5.549,1.772l-0.086-0.357l-0.001-0.003
			c-0.83,0.186-1.721,0.36-2.684,0.515v0.001l0.021,0.371c-0.707,0.114-1.454,0.22-2.25,0.314l-0.081-0.365l0-0.002
			c-1.721,0.201-3.619,0.341-5.687,0.399c0,0-0.003,0.004-0.003,0.004l0.021,0.373c-0.687,0.019-1.392,0.031-2.125,0.031
			c-10.827,0-16.515-2.079-18.474-2.982c-0.683,0.945-1.333,1.857-1.886,2.685c4.219,2.194,11.931,3.547,20.361,3.547
			c8.247,0,15.94-1.388,20.301-3.639C72.247,61.162,71.6,60.257,70.924,59.323z"/>
		<path style="fill:#472B29;" d="M73.01,62.3C68.61,64.59,60.77,66,52.5,66c-8.45,0-16.32-1.38-20.57-3.61l0.42-0.62
			c4.16,2.14,11.85,3.48,20.15,3.48c8.11,0,15.78-1.37,20.09-3.58L73.01,62.3z"/>
		<path style="fill:#472B29;" d="M60.375,62.311c-0.188,0-0.35-0.141-0.372-0.331c-0.024-0.206,0.122-0.393,0.328-0.416
			c0.79-0.094,1.532-0.199,2.234-0.313c0.202-0.028,0.397,0.106,0.43,0.311c0.033,0.204-0.105,0.396-0.311,0.43
			c-0.712,0.115-1.464,0.223-2.266,0.316C60.404,62.31,60.39,62.311,60.375,62.311z"/>
		<path style="fill:#472B29;" d="M55,62.33c0.01,0.21-0.16,0.38-0.36,0.39c-0.7,0.02-1.4,0.03-2.14,0.03
			c-10.95,0-16.69-2.11-18.7-3.05c0.15-0.2,0.29-0.4,0.45-0.61C36.33,60.03,41.93,62,52.5,62c0.73,0,1.43-0.01,2.11-0.03
			c0.01,0,0.01,0,0.01,0C54.83,61.97,54.99,62.13,55,62.33z"/>
		<path style="fill:#472B29;" d="M71.14,59.63c-0.88,0.42-2.75,1.17-5.68,1.83c-0.03,0.01-0.06,0.01-0.08,0.01
			c-0.18,0-0.33-0.12-0.37-0.29c-0.05-0.21,0.08-0.41,0.28-0.45c2.74-0.61,4.51-1.3,5.41-1.71L71.14,59.63z"/>
		<path style="fill:#472B29;" d="M52.5,30.4c6.12,0,11.1,5.232,11.1,11.663v5.804c0,2.893,3.103,7.168,6.104,11.303
			c1.692,2.332,3.442,4.742,3.851,5.957l0.011,0.032l0.012,0.031c0.015,0.038,0.022,0.07,0.022,0.095
			c0,0.245-0.917,1.479-5.151,2.617C64.375,68.997,58.711,69.6,52.5,69.6c-15.029,0-21.1-3.045-21.1-4.315
			c0-0.025,0.008-0.057,0.022-0.095l0.012-0.031l0.011-0.031c0.409-1.214,2.158-3.624,3.85-5.955
			c3.001-4.136,6.105-8.413,6.105-11.305v-5.804C41.4,35.632,46.379,30.4,52.5,30.4L52.5,30.4z M52.5,29
			C45.626,29,40,34.849,40,42.063v5.804c0,4.09-8.7,13.306-9.882,16.813C30.041,64.879,30,65.081,30,65.285C30,68.491,39,71,52.5,71
			C66,71,75,68.25,75,65.285c0-0.204-0.041-0.405-0.118-0.604C73.702,61.173,65,51.96,65,47.867v-5.804C65,34.849,59.374,29,52.5,29
			L52.5,29z"/>
	</g>
	<g>
		<circle style="fill:#EE3E54;" cx="56.5" cy="29.5" r="4"/>
		<path style="fill:#472B29;" d="M56.5,34c-2.481,0-4.5-2.019-4.5-4.5s2.019-4.5,4.5-4.5s4.5,2.019,4.5,4.5S58.981,34,56.5,34z
			 M56.5,26c-1.93,0-3.5,1.57-3.5,3.5s1.57,3.5,3.5,3.5s3.5-1.57,3.5-3.5S58.43,26,56.5,26z"/>
	</g>
	<g>
		<circle style="fill:#EE3E54;" cx="48.5" cy="29.5" r="4"/>
		<path style="fill:#472B29;" d="M48.5,34c-2.481,0-4.5-2.019-4.5-4.5s2.019-4.5,4.5-4.5s4.5,2.019,4.5,4.5S50.981,34,48.5,34z
			 M48.5,26c-1.93,0-3.5,1.57-3.5,3.5s1.57,3.5,3.5,3.5s3.5-1.57,3.5-3.5S50.43,26,48.5,26z"/>
	</g>
	<g>
		<circle style="fill:#EE3E54;" cx="52.5" cy="35.5" r="4"/>
		<path style="fill:#472B29;" d="M52.5,40c-2.481,0-4.5-2.019-4.5-4.5s2.019-4.5,4.5-4.5s4.5,2.019,4.5,4.5S54.981,40,52.5,40z
			 M52.5,32c-1.93,0-3.5,1.57-3.5,3.5s1.57,3.5,3.5,3.5s3.5-1.57,3.5-3.5S54.43,32,52.5,32z"/>
	</g>
</g>
</svg>
