<?xml version="1.0" encoding="iso-8859-1"?>
<!-- Generator: Adobe Illustrator 22.1.0, SVG Export Plug-In . SVG Version: 6.00 Build 0)  -->
<svg version="1.1" id="Layer_1" xmlns="http://www.w3.org/2000/svg" xmlns:xlink="http://www.w3.org/1999/xlink" x="0px" y="0px"
	 viewBox="0 0 100 100" style="enable-background:new 0 0 100 100;" xml:space="preserve">
<path style="fill:#C7EDE6;" d="M87.215,56.71C88.35,54.555,89,52.105,89,49.5c0-6.621-4.159-12.257-10.001-14.478
	C78.999,35.015,79,35.008,79,35c0-11.598-9.402-21-21-21c-9.784,0-17.981,6.701-20.313,15.757C36.211,29.272,34.638,29,33,29
	c-7.692,0-14.023,5.793-14.89,13.252C12.906,43.353,9,47.969,9,53.5C9,59.851,14.149,65,20.5,65c0.177,0,0.352-0.012,0.526-0.022
	C21.022,65.153,21,65.324,21,65.5C21,76.822,30.178,86,41.5,86c6.437,0,12.175-2.972,15.934-7.614C59.612,80.611,62.64,82,66,82
	c4.65,0,8.674-2.65,10.666-6.518C77.718,75.817,78.837,76,80,76c6.075,0,11-4.925,11-11C91,61.689,89.53,58.727,87.215,56.71z"/>
<g>
	<path style="fill:#FFFFFF;" d="M21.5,43h-10c-0.276,0-0.5-0.224-0.5-0.5s0.224-0.5,0.5-0.5h10c0.276,0,0.5,0.224,0.5,0.5
		S21.777,43,21.5,43z"/>
	<path style="fill:#FFFFFF;" d="M24.5,43h-1c-0.276,0-0.5-0.224-0.5-0.5s0.224-0.5,0.5-0.5h1c0.276,0,0.5,0.224,0.5,0.5
		S24.777,43,24.5,43z"/>
	<path style="fill:#FFFFFF;" d="M32.491,45H20.5c-0.276,0-0.5-0.224-0.5-0.5s0.224-0.5,0.5-0.5h11.991c0.276,0,0.5,0.224,0.5,0.5
		S32.767,45,32.491,45z"/>
	<path style="fill:#FFFFFF;" d="M18.5,45h-1c-0.276,0-0.5-0.224-0.5-0.5s0.224-0.5,0.5-0.5h1c0.276,0,0.5,0.224,0.5,0.5
		S18.777,45,18.5,45z"/>
	<path style="fill:#FFFFFF;" d="M15.5,45h-2c-0.276,0-0.5-0.224-0.5-0.5s0.224-0.5,0.5-0.5h2c0.276,0,0.5,0.224,0.5,0.5
		S15.777,45,15.5,45z"/>
	<path style="fill:#FFFFFF;" d="M21.5,47h-2c-0.276,0-0.5-0.224-0.5-0.5s0.224-0.5,0.5-0.5h2c0.276,0,0.5,0.224,0.5,0.5
		S21.776,47,21.5,47z"/>
	<path style="fill:#FFFFFF;" d="M24.5,38c-0.177,0-0.823,0-1,0c-0.276,0-0.5,0.224-0.5,0.5c0,0.276,0.224,0.5,0.5,0.5
		c0.177,0,0.823,0,1,0c0.276,0,0.5-0.224,0.5-0.5C25,38.224,24.776,38,24.5,38z"/>
	<path style="fill:#FFFFFF;" d="M24.5,40c-0.177,0-4.823,0-5,0c-0.276,0-0.5,0.224-0.5,0.5c0,0.276,0.224,0.5,0.5,0.5
		c0.177,0,4.823,0,5,0c0.276,0,0.5-0.224,0.5-0.5C25,40.224,24.776,40,24.5,40z"/>
	<path style="fill:#FFFFFF;" d="M29.5,42c-0.177,0-2.823,0-3,0c-0.276,0-0.5,0.224-0.5,0.5c0,0.276,0.224,0.5,0.5,0.5
		c0.177,0,2.823,0,3,0c0.276,0,0.5-0.224,0.5-0.5C30,42.224,29.776,42,29.5,42z"/>
</g>
<g>
	<path style="fill:#FFFFFF;" d="M83.5,44h-10c-0.276,0-0.5-0.224-0.5-0.5s0.224-0.5,0.5-0.5h10c0.276,0,0.5,0.224,0.5,0.5
		S83.776,44,83.5,44z"/>
	<path style="fill:#FFFFFF;" d="M87.5,44h-2c-0.276,0-0.5-0.224-0.5-0.5s0.224-0.5,0.5-0.5h2c0.276,0,0.5,0.224,0.5,0.5
		S87.776,44,87.5,44z"/>
	<path style="fill:#FFFFFF;" d="M92.5,46h-10c-0.276,0-0.5-0.224-0.5-0.5s0.224-0.5,0.5-0.5h10c0.276,0,0.5,0.224,0.5,0.5
		S92.777,46,92.5,46z"/>
	<path style="fill:#FFFFFF;" d="M80.5,46h-1c-0.276,0-0.5-0.224-0.5-0.5s0.224-0.5,0.5-0.5h1c0.276,0,0.5,0.224,0.5,0.5
		S80.776,46,80.5,46z"/>
	<path style="fill:#FFFFFF;" d="M77.47,46H75.5c-0.276,0-0.5-0.224-0.5-0.5s0.224-0.5,0.5-0.5h1.97c0.276,0,0.5,0.224,0.5,0.5
		S77.746,46,77.47,46z"/>
	<path style="fill:#FFFFFF;" d="M86.5,42h-5c-0.276,0-0.5-0.224-0.5-0.5s0.224-0.5,0.5-0.5h5c0.276,0,0.5,0.224,0.5,0.5
		S86.777,42,86.5,42z"/>
	<path style="fill:#FFFFFF;" d="M83.5,48h-2c-0.276,0-0.5-0.224-0.5-0.5s0.224-0.5,0.5-0.5h2c0.276,0,0.5,0.224,0.5,0.5
		S83.776,48,83.5,48z"/>
</g>
<g>
	<path style="fill:#FDFCEF;" d="M38.5,62.5c0,0,1.567,0,3.5,0s3.5-1.567,3.5-3.5c0-1.781-1.335-3.234-3.055-3.455
		C42.473,55.366,42.5,55.187,42.5,55c0-1.933-1.567-3.5-3.5-3.5c-1.032,0-1.95,0.455-2.59,1.165
		c-0.384-1.808-1.987-3.165-3.91-3.165c-2.209,0-4,1.791-4,4c0,0.191,0.03,0.374,0.056,0.558C28.128,53.714,27.592,53.5,27,53.5
		c-1.228,0-2.245,0.887-2.455,2.055C24.366,55.527,24.187,55.5,24,55.5c-1.933,0-3.5,1.567-3.5,3.5s1.567,3.5,3.5,3.5s7.5,0,7.5,0
		V63h7V62.5z"/>
	<path style="fill:#472B29;" d="M40.25,58C40.112,58,40,57.888,40,57.75c0-1.223,0.995-2.218,2.218-2.218
		c0.034,0.009,0.737-0.001,1.244,0.136c0.133,0.036,0.212,0.173,0.176,0.306c-0.036,0.134-0.173,0.213-0.306,0.176
		c-0.444-0.12-1.1-0.12-1.113-0.118c-0.948,0-1.719,0.771-1.719,1.718C40.5,57.888,40.388,58,40.25,58z"/>
	<circle style="fill:#472B29;" cx="33.5" cy="62.5" r="0.5"/>
	<path style="fill:#472B29;" d="M42,63h-3.5c-0.276,0-0.5-0.224-0.5-0.5s0.224-0.5,0.5-0.5H42c1.654,0,3-1.346,3-3
		c0-1.496-1.125-2.768-2.618-2.959c-0.134-0.018-0.255-0.088-0.336-0.196s-0.115-0.244-0.094-0.377C41.975,55.314,42,55.16,42,55
		c0-1.654-1.346-3-3-3c-0.85,0-1.638,0.355-2.219,1c-0.125,0.139-0.321,0.198-0.5,0.148c-0.182-0.049-0.321-0.195-0.36-0.379
		C35.58,51.165,34.141,50,32.5,50c-1.93,0-3.5,1.57-3.5,3.5c0,0.143,0.021,0.28,0.041,0.418c0.029,0.203-0.063,0.438-0.242,0.54
		c-0.179,0.102-0.396,0.118-0.556-0.01C27.878,54.155,27.449,54,27,54c-0.966,0-1.792,0.691-1.963,1.644
		c-0.048,0.267-0.296,0.446-0.569,0.405C24.314,56.025,24.16,56,24,56c-1.654,0-3,1.346-3,3s1.346,3,3,3h7.5
		c0.276,0,0.5,0.224,0.5,0.5S31.776,63,31.5,63H24c-2.206,0-4-1.794-4-4s1.794-4,4-4c0.059,0,0.116,0.002,0.174,0.006
		C24.588,53.82,25.711,53,27,53c0.349,0,0.689,0.061,1.011,0.18C28.176,50.847,30.126,49,32.5,49c1.831,0,3.466,1.127,4.153,2.774
		C37.333,51.276,38.155,51,39,51c2.206,0,4,1.794,4,4c0,0.048-0.001,0.095-0.004,0.142C44.739,55.59,46,57.169,46,59
		C46,61.206,44.206,63,42,63z"/>
	<path style="fill:#472B29;" d="M36.5,62c-0.159,0-0.841,0-1,0c-0.276,0-0.5,0.224-0.5,0.5c0,0.276,0.224,0.5,0.5,0.5
		c0.159,0,0.841,0,1,0c0.276,0,0.5-0.224,0.5-0.5C37,62.224,36.776,62,36.5,62z"/>
</g>
<g>
	<g>
		<path style="fill:#C5DEF0;" d="M60.5,76.5l-9.5-6l-9.5,6H60.5z"/>
		<path style="fill:#472B29;" d="M51,71.565l6.389,4.035H44.611L51,71.565 M51,70c-0.093,0-0.186,0.026-0.267,0.077l-9.5,6
			c-0.188,0.119-0.275,0.348-0.214,0.562C41.082,76.853,41.277,77,41.5,77h19c0.223,0,0.418-0.147,0.48-0.361
			c0.062-0.214-0.025-0.443-0.214-0.562l-9.5-6C51.186,70.026,51.093,70,51,70L51,70z"/>
	</g>
	<g>
		<path style="fill:#C5DEF0;" d="M54.5,68c0,1.925-1.575,3.5-3.5,3.5s-3.5-1.575-3.5-3.5s1.575-3.5,3.5-3.5S54.5,66.075,54.5,68z"/>
		<path style="fill:#472B29;" d="M51,65.4c1.434,0,2.6,1.166,2.6,2.6s-1.166,2.6-2.6,2.6s-2.6-1.166-2.6-2.6S49.566,65.4,51,65.4
			 M51,64c-2.206,0-4,1.794-4,4s1.794,4,4,4s4-1.794,4-4S53.206,64,51,64L51,64z"/>
	</g>
	<g>
		<path style="fill:#C5DEF0;" d="M59.5,46.5v3h8c0.552,0,1,0.448,1,1v1c0,3.314-2.686,6-6,6h-3v3h3c4.971,0,9-4.029,9-9v-1
			c0-2.209-1.791-4-4-4H59.5z"/>
		<path style="fill:#472B29;" d="M62.5,61H59v-4h3.5c3.033,0,5.5-2.467,5.5-5.5v-1c0-0.276-0.224-0.5-0.5-0.5H59v-4h8.5
			c2.481,0,4.5,2.019,4.5,4.5v1C72,56.738,67.738,61,62.5,61z M60,60h2.5c4.687,0,8.5-3.813,8.5-8.5v-1c0-1.93-1.57-3.5-3.5-3.5H60
			v2h7.5c0.827,0,1.5,0.673,1.5,1.5v1c0,3.584-2.916,6.5-6.5,6.5H60V60z"/>
	</g>
	<path style="fill:#DDF2F1;" d="M64.319,39l0.672-6.846C65.077,31.541,64.526,31,63.814,31H51H38.186
		c-0.711,0-1.263,0.541-1.177,1.154L37.681,39H64.319z"/>
	<g>
		<g>
			<circle style="fill:#F47C22;" cx="63.5" cy="32.5" r="10.978"/>
			<path style="fill:#C06134;" d="M52.547,32c-0.008,0.167-0.025,0.331-0.025,0.5c0,6.063,4.915,10.978,10.978,10.978L64,32H52.547z
				"/>
			<path style="fill:#472B29;" d="M63.5,22C69.29,22,74,26.71,74,32.5S69.29,43,63.5,43S53,38.29,53,32.5S57.71,22,63.5,22 M63.5,21
				C57.158,21,52,26.158,52,32.5S57.159,44,63.5,44C69.84,44,75,38.842,75,32.5S69.841,21,63.5,21L63.5,21z"/>
		</g>
		<g>
			<circle style="fill:#F5E690;" cx="63.5" cy="32.5" r="9.5"/>
			<path style="fill:#EDD773;" d="M54.025,32C54.017,32.167,54,32.331,54,32.5c0,5.247,4.253,9.5,9.5,9.5L64,32H54.025z"/>
			<path style="fill:#472B29;" d="M63.5,23.251c5.1,0,9.25,4.15,9.25,9.25s-4.15,9.25-9.25,9.25s-9.25-4.15-9.25-9.25
				S58.399,23.251,63.5,23.251 M63.5,23.001c-5.239,0-9.5,4.261-9.5,9.5s4.261,9.5,9.5,9.5s9.5-4.261,9.5-9.5
				S68.739,23.001,63.5,23.001L63.5,23.001z"/>
		</g>
		<g>
			<path style="fill:#F1BC19;" d="M63.5,32.5v-6.727c0-0.285-0.239-0.525-0.524-0.504c-1.609,0.115-3.073,0.755-4.221,1.749
				c-0.215,0.186-0.214,0.523-0.013,0.724L63.5,32.5z"/>
			<path style="fill:#472B29;" d="M63.75,33.104l-5.185-5.185c-0.149-0.149-0.23-0.355-0.222-0.565
				c0.007-0.206,0.096-0.392,0.249-0.524c1.233-1.068,2.743-1.694,4.367-1.81c0.191-0.014,0.396,0.055,0.548,0.197
				c0.155,0.144,0.243,0.347,0.243,0.557V33.104z M63.009,25.518c-0.005,0-0.01,0-0.016,0c-1.515,0.108-2.924,0.692-4.075,1.689
				c-0.063,0.055-0.075,0.126-0.076,0.164c-0.002,0.073,0.025,0.144,0.076,0.194l4.331,4.331v-6.124
				c0-0.072-0.031-0.142-0.084-0.191C63.14,25.557,63.085,25.518,63.009,25.518z"/>
		</g>
		<g>
			<path style="fill:#F1BC19;" d="M63.5,32.5l-4.757-4.757c-0.201-0.201-0.54-0.202-0.727,0.014
				c-1.056,1.219-1.639,2.707-1.748,4.222c-0.02,0.284,0.219,0.521,0.503,0.521L63.5,32.5z"/>
			<path style="fill:#472B29;" d="M64.104,32.75h-7.332c-0.21,0-0.413-0.088-0.557-0.243c-0.141-0.15-0.21-0.345-0.196-0.546
				c0.117-1.627,0.742-3.137,1.808-4.368c0.133-0.153,0.32-0.242,0.526-0.249c0.212-0.012,0.418,0.074,0.566,0.222L64.104,32.75z
				 M58.38,27.844c-0.003,0-0.006,0-0.009,0c-0.038,0.001-0.111,0.013-0.166,0.077c-0.995,1.148-1.578,2.557-1.687,4.076
				c-0.006,0.083,0.037,0.142,0.063,0.17c0.049,0.053,0.119,0.083,0.191,0.083h6.125l-4.33-4.33
				C58.518,27.871,58.45,27.844,58.38,27.844z"/>
		</g>
		<g>
			<path style="fill:#E2AD17;" d="M63.5,32.5h-6.727c-0.285,0-0.525,0.239-0.504,0.524c0.115,1.609,0.755,3.073,1.749,4.221
				c0.186,0.215,0.523,0.214,0.724,0.013L63.5,32.5z"/>
			<path style="fill:#472B29;" d="M58.38,37.657c-0.009,0-0.018,0-0.027,0c-0.206-0.007-0.392-0.096-0.524-0.249
				c-1.068-1.233-1.694-2.743-1.81-4.367c-0.014-0.203,0.056-0.397,0.197-0.548c0.144-0.155,0.347-0.243,0.557-0.243h7.331
				l-5.185,5.185C58.776,37.577,58.582,37.657,58.38,37.657z M56.773,32.75c-0.072,0-0.142,0.031-0.191,0.084
				c-0.026,0.028-0.069,0.088-0.063,0.172c0.108,1.515,0.692,2.924,1.689,4.075c0.055,0.063,0.126,0.075,0.164,0.076
				c0.069,0.005,0.143-0.025,0.194-0.076l4.331-4.331H56.773z"/>
		</g>
		<g>
			<path style="fill:#E2AD17;" d="M63.5,32.5l-4.757,4.757c-0.201,0.201-0.202,0.54,0.014,0.727
				c1.219,1.056,2.707,1.639,4.222,1.748c0.284,0.02,0.521-0.219,0.521-0.503L63.5,32.5z"/>
			<path style="fill:#472B29;" d="M63.013,39.982c-0.017,0-0.035,0-0.052-0.001c-1.627-0.117-3.137-0.742-4.368-1.808
				c-0.154-0.133-0.242-0.321-0.249-0.527c-0.007-0.211,0.074-0.417,0.222-0.565l5.184-5.184v7.332c0,0.21-0.088,0.413-0.243,0.557
				C63.37,39.914,63.196,39.982,63.013,39.982z M63.25,33.104l-4.33,4.33c-0.051,0.051-0.079,0.122-0.076,0.194
				c0.001,0.039,0.013,0.112,0.077,0.167c1.148,0.995,2.557,1.578,4.076,1.687c0.084,0.006,0.142-0.036,0.17-0.063
				c0.053-0.049,0.083-0.119,0.083-0.191V33.104z"/>
		</g>
		<g>
			<path style="fill:#F1BC19;" d="M63.5,32.5l0,6.727c0,0.285,0.239,0.525,0.524,0.504c1.609-0.115,3.073-0.755,4.221-1.749
				c0.215-0.186,0.214-0.523,0.013-0.724L63.5,32.5z"/>
			<path style="fill:#472B29;" d="M63.99,39.982c-0.184,0-0.358-0.069-0.497-0.198c-0.155-0.144-0.243-0.347-0.243-0.558v-7.331
				l5.184,5.185c0.149,0.149,0.23,0.355,0.223,0.566c-0.008,0.206-0.096,0.392-0.249,0.524c-1.233,1.068-2.743,1.694-4.367,1.81
				C64.024,39.982,64.007,39.982,63.99,39.982z M63.75,33.104v6.124c0,0.072,0.031,0.142,0.084,0.192
				c0.028,0.026,0.082,0.07,0.172,0.063c1.515-0.108,2.924-0.692,4.075-1.689c0.063-0.055,0.074-0.126,0.076-0.164
				c0.003-0.073-0.025-0.144-0.076-0.195L63.75,33.104z"/>
		</g>
		<g>
			<path style="fill:#F1BC19;" d="M63.5,32.5l4.757,4.757c0.201,0.201,0.54,0.202,0.727-0.014c1.056-1.219,1.639-2.707,1.748-4.222
				c0.02-0.284-0.219-0.521-0.503-0.521L63.5,32.5z"/>
			<path style="fill:#472B29;" d="M68.619,37.656c-0.202,0-0.397-0.08-0.539-0.223l-5.184-5.184h7.332
				c0.21,0,0.414,0.088,0.557,0.243c0.141,0.15,0.21,0.345,0.196,0.546c-0.117,1.627-0.743,3.138-1.809,4.368
				c-0.133,0.153-0.319,0.242-0.526,0.249C68.637,37.656,68.628,37.656,68.619,37.656z M64.104,32.75l4.33,4.33
				c0.051,0.051,0.123,0.076,0.195,0.076c0.039-0.001,0.111-0.013,0.166-0.077c0.995-1.148,1.579-2.558,1.688-4.076
				c0.006-0.083-0.037-0.142-0.063-0.17C70.37,32.78,70.3,32.75,70.228,32.75H64.104z"/>
		</g>
		<g>
			<path style="fill:#F1BC19;" d="M63.5,32.5h6.727c0.285,0,0.525-0.239,0.504-0.524c-0.115-1.609-0.755-3.073-1.749-4.221
				c-0.186-0.215-0.523-0.214-0.724-0.013L63.5,32.5z"/>
			<path style="fill:#472B29;" d="M70.227,32.75h-7.331l5.185-5.185c0.149-0.149,0.353-0.229,0.565-0.222
				c0.206,0.007,0.392,0.096,0.524,0.249c1.068,1.233,1.694,2.743,1.81,4.367c0.014,0.203-0.056,0.397-0.197,0.548
				C70.64,32.662,70.437,32.75,70.227,32.75z M64.104,32.25h6.124c0.072,0,0.142-0.031,0.191-0.084
				c0.026-0.028,0.069-0.088,0.063-0.172c-0.108-1.515-0.692-2.924-1.689-4.075c-0.055-0.063-0.126-0.075-0.164-0.076
				c-0.071-0.003-0.143,0.025-0.194,0.076L64.104,32.25z"/>
		</g>
		<g>
			<path style="fill:#F1BC19;" d="M63.5,32.5l4.757-4.757c0.201-0.201,0.202-0.54-0.014-0.727c-1.219-1.057-2.707-1.639-4.222-1.748
				c-0.284-0.02-0.521,0.219-0.521,0.503L63.5,32.5z"/>
			<path style="fill:#472B29;" d="M63.25,33.104v-7.332c0-0.21,0.088-0.413,0.243-0.557c0.15-0.141,0.346-0.204,0.546-0.196
				c1.627,0.117,3.137,0.742,4.368,1.808c0.153,0.133,0.242,0.32,0.249,0.527c0.007,0.211-0.074,0.417-0.222,0.566L63.25,33.104z
				 M63.988,25.518c-0.075,0-0.129,0.039-0.155,0.063C63.78,25.63,63.75,25.7,63.75,25.771v6.125l4.33-4.33
				c0.051-0.051,0.079-0.122,0.076-0.195c-0.001-0.039-0.013-0.111-0.077-0.167c-1.148-0.995-2.557-1.578-4.076-1.687
				C63.999,25.518,63.993,25.518,63.988,25.518z"/>
		</g>
	</g>
	<path style="fill:#D6213F;" d="M37.681,39l1.647,16.78c0.443,5.204,5.17,9.22,10.853,9.22H51h0.819
		c5.683,0,10.41-4.015,10.853-9.22L64.319,39H37.681z"/>
	<path style="fill:#472B29;" d="M63.56,32.4l-2.284,23.261c-0.379,4.452-4.534,7.939-9.458,7.939H51h-0.819
		c-4.924,0-9.079-3.487-9.46-7.957L38.44,32.4H51H63.56 M63.814,31H51H38.186c-0.711,0-1.263,0.541-1.177,1.154l2.319,23.626
		c0.443,5.204,5.17,9.22,10.853,9.22H51h0.819c5.683,0,10.41-4.015,10.853-9.22l2.319-23.626C65.077,31.541,64.526,31,63.814,31
		L63.814,31z"/>
	<path style="fill:#472B29;" d="M63.655,39.75h-15.28c-0.207,0-0.375-0.168-0.375-0.375S48.168,39,48.375,39h15.28
		c0.207,0,0.375,0.168,0.375,0.375S63.862,39.75,63.655,39.75z"/>
	<path style="fill:#472B29;" d="M46.625,39.75h-1.25c-0.207,0-0.375-0.168-0.375-0.375S45.168,39,45.375,39h1.25
		C46.832,39,47,39.168,47,39.375S46.832,39.75,46.625,39.75z"/>
	<path style="fill:#472B29;" d="M41.625,39.75h-3.008c-0.207,0-0.375-0.168-0.375-0.375S38.41,39,38.617,39h3.008
		C41.832,39,42,39.168,42,39.375S41.832,39.75,41.625,39.75z"/>
</g>
<g>
	<path style="fill:#FDFCEF;" d="M77.5,78.5V79h3v-0.5c0,0,4.242,0,5.5,0c2.485,0,4.5-2.015,4.5-4.5c0-2.333-1.782-4.229-4.055-4.455
		C86.467,69.364,86.5,69.187,86.5,69c0-2.485-2.015-4.5-4.5-4.5c-1.438,0-2.703,0.686-3.527,1.736
		C78.333,63.6,76.171,61.5,73.5,61.5c-2.761,0-5,2.239-5,5c0,0.446,0.077,0.87,0.187,1.282C68.045,67.005,67.086,66.5,66,66.5
		c-1.781,0-3.234,1.335-3.455,3.055C62.364,69.533,62.187,69.5,62,69.5c-2.485,0-4.5,2.015-4.5,4.5s2.015,4.5,4.5,4.5s9.5,0,9.5,0
		H77.5z"/>
	<path style="fill:#472B29;" d="M73.5,61c-3.033,0-5.5,2.467-5.5,5.5c0,0.016,0,0.031,0,0.047C67.398,66.192,66.71,66,66,66
		c-1.831,0-3.411,1.261-3.858,3.005C62.095,69.002,62.048,69,62,69c-2.757,0-5,2.243-5,5s2.243,5,5,5h15.5
		c0.276,0,0.5-0.224,0.5-0.5S77.776,78,77.5,78H62c-2.206,0-4-1.794-4-4s1.794-4,4-4c0.117,0,0.23,0.017,0.343,0.032l0.141,0.019
		c0.021,0.003,0.041,0.004,0.062,0.004c0.246,0,0.462-0.185,0.495-0.437C63.232,68.125,64.504,67,66,67
		c0.885,0,1.723,0.401,2.301,1.1c0.098,0.118,0.241,0.182,0.386,0.182c0.078,0,0.156-0.018,0.228-0.056
		c0.209-0.107,0.314-0.346,0.254-0.573C69.054,67.218,69,66.852,69,66.5c0-2.481,2.019-4.5,4.5-4.5c2.381,0,4.347,1.872,4.474,4.263
		c0.011,0.208,0.15,0.387,0.349,0.45c0.05,0.016,0.101,0.024,0.152,0.024c0.15,0,0.296-0.069,0.392-0.192
		C79.638,65.563,80.779,65,82,65c2.206,0,4,1.794,4,4c0,0.117-0.017,0.23-0.032,0.343l-0.019,0.141
		c-0.016,0.134,0.022,0.268,0.106,0.373c0.084,0.105,0.207,0.172,0.34,0.185C88.451,70.247,90,71.949,90,74c0,2.206-1.794,4-4,4
		h-5.5c-0.276,0-0.5,0.224-0.5,0.5s0.224,0.5,0.5,0.5H86c2.757,0,5-2.243,5-5c0-2.397-1.689-4.413-4.003-4.877
		C86.999,69.082,87,69.041,87,69c0-2.757-2.243-5-5-5c-1.176,0-2.293,0.416-3.183,1.164C78.219,62.76,76.055,61,73.5,61L73.5,61z"/>
	<path style="fill:#472B29;" d="M72,68c-1.403,0-2.609,0.999-2.913,2.341C68.72,70.119,68.301,70,67.875,70
		c-1.202,0-2.198,0.897-2.353,2.068C65.319,72.022,65.126,72,64.938,72c-1.529,0-2.811,1.2-2.918,2.732
		C62.01,74.87,62.114,74.99,62.251,75c0.006,0,0.012,0,0.018,0c0.13,0,0.24-0.101,0.249-0.232c0.089-1.271,1.151-2.268,2.419-2.268
		c0.229,0,0.47,0.042,0.738,0.127c0.022,0.007,0.045,0.01,0.067,0.01c0.055,0,0.11-0.02,0.156-0.054
		C65.962,72.537,66,72.455,66,72.375c0-1.034,0.841-1.875,1.875-1.875c0.447,0,0.885,0.168,1.231,0.473
		c0.047,0.041,0.106,0.063,0.165,0.063c0.032,0,0.063-0.006,0.093-0.019c0.088-0.035,0.148-0.117,0.155-0.212
		C69.623,69.512,70.712,68.5,72,68.5c0.208,0,0.425,0.034,0.682,0.107c0.023,0.007,0.047,0.01,0.07,0.01
		c0.109,0,0.207-0.073,0.239-0.182c0.038-0.133-0.039-0.271-0.172-0.309C72.517,68.04,72.256,68,72,68L72,68z"/>
	<path style="fill:#472B29;" d="M85.883,69.5c-1.326,0-2.508,0.897-2.874,2.182c-0.038,0.133,0.039,0.271,0.172,0.309
		C83.205,71.997,83.228,72,83.25,72c0.109,0,0.209-0.072,0.24-0.182C83.795,70.748,84.779,70,85.883,70
		c0.117,0,0.23,0.014,0.342,0.029c0.012,0.002,0.023,0.003,0.035,0.003c0.121,0,0.229-0.092,0.246-0.217
		c0.019-0.137-0.077-0.263-0.214-0.281C86.158,69.516,86.022,69.5,85.883,69.5L85.883,69.5z"/>
</g>
</svg>
