<?xml version="1.0" encoding="iso-8859-1"?>
<!-- Generator: Adobe Illustrator 22.1.0, SVG Export Plug-In . SVG Version: 6.00 Build 0)  -->
<svg version="1.1" id="Layer_1" xmlns="http://www.w3.org/2000/svg" xmlns:xlink="http://www.w3.org/1999/xlink" x="0px" y="0px"
	 viewBox="0 0 100 100" style="enable-background:new 0 0 100 100;" xml:space="preserve">
<path style="fill:#C7EDE6;" d="M87.215,56.71C88.35,54.555,89,52.105,89,49.5c0-6.621-4.159-12.257-10.001-14.478
	C78.999,35.015,79,35.008,79,35c0-11.598-9.402-21-21-21c-9.784,0-17.981,6.701-20.313,15.757C36.211,29.272,34.638,29,33,29
	c-7.692,0-14.023,5.793-14.89,13.252C12.906,43.353,9,47.969,9,53.5C9,59.851,14.149,65,20.5,65c0.177,0,0.352-0.012,0.526-0.022
	C21.022,65.153,21,65.324,21,65.5C21,76.822,30.178,86,41.5,86c6.437,0,12.175-2.972,15.934-7.614C59.612,80.611,62.64,82,66,82
	c4.65,0,8.674-2.65,10.666-6.518C77.718,75.817,78.837,76,80,76c6.075,0,11-4.925,11-11C91,61.689,89.53,58.727,87.215,56.71z"/>
<g>
	<path style="fill:#FDFCEF;" d="M75.5,70.5V71h3v-0.5c0,0,4.242,0,5.5,0c2.485,0,4.5-2.015,4.5-4.5c0-2.333-1.782-4.229-4.055-4.455
		C84.467,61.364,84.5,61.187,84.5,61c0-2.485-2.015-4.5-4.5-4.5c-1.438,0-2.703,0.686-3.527,1.736
		C76.333,55.6,74.171,53.5,71.5,53.5c-2.761,0-5,2.239-5,5c0,0.446,0.077,0.87,0.187,1.282C66.045,59.005,65.086,58.5,64,58.5
		c-1.781,0-3.234,1.335-3.455,3.055C60.364,61.533,60.187,61.5,60,61.5c-2.485,0-4.5,2.015-4.5,4.5s2.015,4.5,4.5,4.5s9.5,0,9.5,0
		H75.5z"/>
	<path style="fill:#472B29;" d="M71.5,53c-3.033,0-5.5,2.467-5.5,5.5c0,0.016,0,0.031,0,0.047C65.398,58.192,64.71,58,64,58
		c-1.831,0-3.411,1.261-3.858,3.005C60.095,61.002,60.048,61,60,61c-2.757,0-5,2.243-5,5c0,2.757,2.243,5,5,5h15.5
		c0.276,0,0.5-0.224,0.5-0.5S75.776,70,75.5,70H60c-2.206,0-4-1.794-4-4c0-2.206,1.794-4,4-4c0.117,0,0.23,0.017,0.343,0.032
		l0.141,0.019c0.021,0.003,0.041,0.004,0.062,0.004c0.246,0,0.462-0.185,0.495-0.437C61.232,60.125,62.504,59,64,59
		c0.885,0,1.723,0.401,2.301,1.1c0.098,0.118,0.241,0.182,0.386,0.182c0.078,0,0.156-0.018,0.228-0.056
		c0.209-0.107,0.314-0.346,0.254-0.573C67.054,59.218,67,58.852,67,58.5c0-2.481,2.019-4.5,4.5-4.5c2.381,0,4.347,1.872,4.474,4.263
		c0.011,0.208,0.15,0.387,0.349,0.45c0.05,0.016,0.101,0.024,0.152,0.024c0.15,0,0.296-0.069,0.392-0.192
		C77.638,57.563,78.779,57,80,57c2.206,0,4,1.794,4,4c0,0.117-0.017,0.23-0.032,0.343l-0.019,0.141
		c-0.016,0.134,0.022,0.268,0.106,0.373c0.084,0.105,0.207,0.172,0.34,0.185C86.451,62.247,88,63.949,88,66c0,2.206-1.794,4-4,4
		h-5.5c-0.276,0-0.5,0.224-0.5,0.5s0.224,0.5,0.5,0.5H84c2.757,0,5-2.243,5-5c0-2.397-1.689-4.413-4.003-4.877
		C84.999,61.082,85,61.041,85,61c0-2.757-2.243-5-5-5c-1.176,0-2.293,0.416-3.183,1.164C76.219,54.76,74.055,53,71.5,53L71.5,53z"/>
	<path style="fill:#472B29;" d="M70,60c-1.403,0-2.609,0.999-2.913,2.341C66.72,62.119,66.301,62,65.875,62
		c-1.202,0-2.198,0.897-2.353,2.068C63.319,64.022,63.126,64,62.937,64c-1.529,0-2.811,1.2-2.918,2.732
		C60.01,66.87,60.114,66.99,60.251,67c0.006,0,0.012,0,0.018,0c0.13,0,0.24-0.101,0.249-0.232c0.089-1.271,1.151-2.268,2.419-2.268
		c0.229,0,0.47,0.042,0.738,0.127c0.022,0.007,0.045,0.01,0.067,0.01c0.055,0,0.11-0.02,0.156-0.054
		C63.962,64.537,64,64.455,64,64.375c0-1.034,0.841-1.875,1.875-1.875c0.447,0,0.885,0.168,1.231,0.473
		c0.047,0.041,0.106,0.063,0.165,0.063c0.032,0,0.063-0.006,0.093-0.019c0.088-0.035,0.148-0.117,0.155-0.212
		C67.623,61.512,68.712,60.5,70,60.5c0.208,0,0.425,0.034,0.682,0.107c0.023,0.007,0.047,0.01,0.07,0.01
		c0.109,0,0.207-0.073,0.239-0.182c0.038-0.133-0.039-0.271-0.172-0.309C70.517,60.04,70.256,60,70,60L70,60z"/>
	<path style="fill:#472B29;" d="M83.883,61.5c-1.326,0-2.508,0.897-2.874,2.182c-0.038,0.133,0.039,0.271,0.172,0.309
		C81.205,63.997,81.228,64,81.25,64c0.109,0,0.209-0.072,0.24-0.182C81.795,62.748,82.779,62,83.883,62
		c0.117,0,0.23,0.014,0.342,0.029c0.012,0.002,0.023,0.003,0.035,0.003c0.121,0,0.229-0.092,0.246-0.217
		c0.019-0.137-0.077-0.263-0.214-0.281C84.158,61.516,84.022,61.5,83.883,61.5L83.883,61.5z"/>
</g>
<g>
	<path style="fill:#FFFFFF;" d="M15.5,51h-10C5.224,51,5,50.776,5,50.5S5.224,50,5.5,50h10c0.276,0,0.5,0.224,0.5,0.5
		S15.777,51,15.5,51z"/>
	<path style="fill:#FFFFFF;" d="M18.5,51h-1c-0.276,0-0.5-0.224-0.5-0.5s0.224-0.5,0.5-0.5h1c0.276,0,0.5,0.224,0.5,0.5
		S18.777,51,18.5,51z"/>
	<path style="fill:#FFFFFF;" d="M23.491,53H14.5c-0.276,0-0.5-0.224-0.5-0.5s0.224-0.5,0.5-0.5h8.991c0.276,0,0.5,0.224,0.5,0.5
		S23.767,53,23.491,53z"/>
	<path style="fill:#FFFFFF;" d="M12.5,53h-1c-0.276,0-0.5-0.224-0.5-0.5s0.224-0.5,0.5-0.5h1c0.276,0,0.5,0.224,0.5,0.5
		S12.777,53,12.5,53z"/>
	<path style="fill:#FFFFFF;" d="M9.5,53h-2C7.224,53,7,52.776,7,52.5S7.224,52,7.5,52h2c0.276,0,0.5,0.224,0.5,0.5S9.777,53,9.5,53z
		"/>
	<path style="fill:#FFFFFF;" d="M15.5,55h-2c-0.276,0-0.5-0.224-0.5-0.5s0.224-0.5,0.5-0.5h2c0.276,0,0.5,0.224,0.5,0.5
		S15.776,55,15.5,55z"/>
	<path style="fill:#FFFFFF;" d="M18.5,46c-0.177,0-0.823,0-1,0c-0.276,0-0.5,0.224-0.5,0.5c0,0.276,0.224,0.5,0.5,0.5
		c0.177,0,0.823,0,1,0c0.276,0,0.5-0.224,0.5-0.5C19,46.224,18.776,46,18.5,46z"/>
	<path style="fill:#FFFFFF;" d="M18.5,48c-0.177,0-4.823,0-5,0c-0.276,0-0.5,0.224-0.5,0.5c0,0.276,0.224,0.5,0.5,0.5
		c0.177,0,4.823,0,5,0c0.276,0,0.5-0.224,0.5-0.5C19,48.224,18.776,48,18.5,48z"/>
	<path style="fill:#FFFFFF;" d="M23.5,50c-0.177,0-2.823,0-3,0c-0.276,0-0.5,0.224-0.5,0.5c0,0.276,0.224,0.5,0.5,0.5
		c0.177,0,2.823,0,3,0c0.276,0,0.5-0.224,0.5-0.5C24,50.224,23.776,50,23.5,50z"/>
</g>
<g>
	<path style="fill:#FFFFFF;" d="M83.5,48h-10c-0.276,0-0.5-0.224-0.5-0.5s0.224-0.5,0.5-0.5h10c0.276,0,0.5,0.224,0.5,0.5
		S83.776,48,83.5,48z"/>
	<path style="fill:#FFFFFF;" d="M87.5,48h-2c-0.276,0-0.5-0.224-0.5-0.5s0.224-0.5,0.5-0.5h2c0.276,0,0.5,0.224,0.5,0.5
		S87.776,48,87.5,48z"/>
	<path style="fill:#FFFFFF;" d="M92.5,50h-10c-0.276,0-0.5-0.224-0.5-0.5s0.224-0.5,0.5-0.5h10c0.276,0,0.5,0.224,0.5,0.5
		S92.777,50,92.5,50z"/>
	<path style="fill:#FFFFFF;" d="M80.5,50h-1c-0.276,0-0.5-0.224-0.5-0.5s0.224-0.5,0.5-0.5h1c0.276,0,0.5,0.224,0.5,0.5
		S80.776,50,80.5,50z"/>
	<path style="fill:#FFFFFF;" d="M77.47,50H75.5c-0.276,0-0.5-0.224-0.5-0.5s0.224-0.5,0.5-0.5h1.97c0.276,0,0.5,0.224,0.5,0.5
		S77.746,50,77.47,50z"/>
	<path style="fill:#FFFFFF;" d="M86.5,46h-5c-0.276,0-0.5-0.224-0.5-0.5s0.224-0.5,0.5-0.5h5c0.276,0,0.5,0.224,0.5,0.5
		S86.777,46,86.5,46z"/>
	<path style="fill:#FFFFFF;" d="M83.5,52h-2c-0.276,0-0.5-0.224-0.5-0.5s0.224-0.5,0.5-0.5h2c0.276,0,0.5,0.224,0.5,0.5
		S83.776,52,83.5,52z"/>
</g>
<g>
	<path style="fill:#FDFCEF;" d="M38.5,73.5c0,0,1.567,0,3.5,0s3.5-1.567,3.5-3.5c0-1.781-1.335-3.234-3.055-3.455
		C42.473,66.366,42.5,66.187,42.5,66c0-1.933-1.567-3.5-3.5-3.5c-1.032,0-1.95,0.455-2.59,1.165
		c-0.384-1.808-1.987-3.165-3.91-3.165c-2.209,0-4,1.791-4,4c0,0.191,0.03,0.374,0.056,0.558C28.128,64.714,27.592,64.5,27,64.5
		c-1.228,0-2.245,0.887-2.455,2.055C24.366,66.527,24.187,66.5,24,66.5c-1.933,0-3.5,1.567-3.5,3.5s1.567,3.5,3.5,3.5s7.5,0,7.5,0
		V74h7V73.5z"/>
	<path style="fill:#472B29;" d="M40.25,69C40.112,69,40,68.888,40,68.75c0-1.223,0.995-2.218,2.218-2.218
		c0.034,0.009,0.737-0.001,1.244,0.136c0.133,0.036,0.212,0.173,0.176,0.306c-0.036,0.134-0.173,0.213-0.306,0.176
		c-0.444-0.12-1.1-0.12-1.113-0.118c-0.948,0-1.719,0.771-1.719,1.718C40.5,68.888,40.388,69,40.25,69z"/>
	<circle style="fill:#472B29;" cx="33.5" cy="73.5" r="0.5"/>
	<path style="fill:#472B29;" d="M42,74h-3.5c-0.276,0-0.5-0.224-0.5-0.5s0.224-0.5,0.5-0.5H42c1.654,0,3-1.346,3-3
		c0-1.496-1.125-2.768-2.618-2.959c-0.134-0.018-0.255-0.088-0.336-0.196s-0.115-0.244-0.094-0.377C41.975,66.314,42,66.16,42,66
		c0-1.654-1.346-3-3-3c-0.85,0-1.638,0.355-2.219,1c-0.125,0.139-0.321,0.198-0.5,0.148c-0.182-0.049-0.321-0.195-0.36-0.379
		C35.58,62.165,34.141,61,32.5,61c-1.93,0-3.5,1.57-3.5,3.5c0,0.143,0.021,0.28,0.041,0.418c0.029,0.203-0.063,0.438-0.242,0.54
		c-0.179,0.102-0.396,0.118-0.556-0.01C27.878,65.155,27.449,65,27,65c-0.966,0-1.792,0.691-1.963,1.644
		c-0.048,0.267-0.296,0.446-0.569,0.405C24.314,67.025,24.16,67,24,67c-1.654,0-3,1.346-3,3s1.346,3,3,3h7.5
		c0.276,0,0.5,0.224,0.5,0.5S31.776,74,31.5,74H24c-2.206,0-4-1.794-4-4s1.794-4,4-4c0.059,0,0.116,0.002,0.174,0.006
		C24.588,64.82,25.711,64,27,64c0.349,0,0.689,0.061,1.011,0.18C28.176,61.847,30.126,60,32.5,60c1.831,0,3.466,1.127,4.153,2.774
		C37.333,62.276,38.155,62,39,62c2.206,0,4,1.794,4,4c0,0.048-0.001,0.095-0.004,0.142C44.739,66.59,46,68.169,46,70
		C46,72.206,44.206,74,42,74z"/>
	<path style="fill:#472B29;" d="M36.5,73c-0.159,0-0.841,0-1,0c-0.276,0-0.5,0.224-0.5,0.5c0,0.276,0.224,0.5,0.5,0.5
		c0.159,0,0.841,0,1,0c0.276,0,0.5-0.224,0.5-0.5C37,73.224,36.776,73,36.5,73z"/>
</g>
<g>
	<path style="fill:#96755F;" d="M26.5,39.5c0,0.15,0.01,0.32,0.03,0.5c0.34,2.78,3.39,8.5,11.57,8.5l0.5-0.45l2.4-2.2l-1.32-3.16
		c-1.86-2.71-4.9-3.18-8.68-3.19C29.62,39.49,28.09,39.5,26.5,39.5z"/>
	<path style="fill:#685446;" d="M26.53,40c0.34,2.78,3.39,8.5,11.57,8.5l0.5-0.45L38,47c-2.73-4.2-4.5-6.67-11.25-7H26.53z"/>
	<path style="fill:#472B29;" d="M37.686,47.204c-2.609-4.021-4.545-6.503-11.204-6.829l0.037-0.75
		c6.883,0.338,9.048,2.935,11.796,7.171L37.686,47.204z"/>
	<path style="fill:#96755F;" d="M75.5,39.5c0,0.15-0.01,0.32-0.03,0.5c-0.34,2.78-3.39,8.5-11.57,8.5l-0.5-0.45l-2.4-2.2l1.32-3.16
		c1.86-2.71,4.9-3.18,8.68-3.19C72.38,39.49,73.91,39.5,75.5,39.5z"/>
	<path style="fill:#685446;" d="M75.47,40c-0.34,2.78-3.39,8.5-11.57,8.5l-0.5-0.45L64,47c2.73-4.2,4.5-6.67,11.25-7H75.47z"/>
	<path style="fill:#472B29;" d="M64.314,47.204l-0.629-0.408c2.748-4.236,4.913-6.833,11.796-7.171l0.037,0.75
		C68.86,40.701,66.923,43.183,64.314,47.204z"/>
	<g>
		<path style="fill:#6D584A;" d="M31.5,20.5c-0.551,0-1,0.448-1,1v3c0,7.458,6.075,14,13,14h15c6.925,0,13-6.542,13-14v-3
			c0-0.552-0.449-1-1-1s-1,0.448-1,1v3c0,4.411-2.627,8.384-6.693,10.12c-0.211,0.092-0.458,0.024-0.597-0.16
			s-0.132-0.439,0.014-0.617c1.468-1.784,2.276-4.036,2.276-6.343v-3c0-0.552-0.449-1-1-1s-1,0.448-1,1v3
			c0,3.284-1.976,6.198-5.034,7.424c-0.194,0.078-0.415,0.026-0.556-0.127c-0.141-0.154-0.17-0.38-0.075-0.565
			c0.441-0.858,0.665-1.777,0.665-2.731v-5c0-0.552-0.449-1-1-1s-1,0.448-1,1v5c0,2.206-1.794,4-4,4h-1c-2.206,0-4-1.794-4-4v-5
			c0-0.552-0.449-1-1-1s-1,0.448-1,1v5c0,0.954,0.224,1.873,0.665,2.731c0.095,0.186,0.065,0.411-0.075,0.565
			c-0.141,0.153-0.362,0.205-0.556,0.127c-3.058-1.226-5.034-4.14-5.034-7.424v-3c0-0.552-0.449-1-1-1s-1,0.448-1,1v3
			c0,2.307,0.808,4.559,2.276,6.343c0.146,0.178,0.152,0.433,0.014,0.617s-0.384,0.253-0.597,0.16
			C35.127,32.884,32.5,28.911,32.5,24.5v-3C32.5,20.948,32.051,20.5,31.5,20.5z"/>
		<path style="fill:#472B29;" d="M70.5,20.75c0.414,0,0.75,0.336,0.75,0.75v3c0,7.325-5.958,13.75-12.75,13.75h-4h-3h-1h-3h-4
			c-6.792,0-12.75-6.425-12.75-13.75v-3c0-0.414,0.336-0.75,0.75-0.75s0.75,0.336,0.75,0.75v3c0,4.512,2.687,8.574,6.845,10.35
			c0.095,0.041,0.195,0.06,0.294,0.06c0.231,0,0.455-0.107,0.6-0.3c0.207-0.277,0.199-0.659-0.021-0.926
			c-1.431-1.739-2.219-3.935-2.219-6.184v-3c0-0.414,0.336-0.75,0.75-0.75s0.75,0.336,0.75,0.75v3c0,3.387,2.038,6.392,5.191,7.656
			c0.091,0.036,0.185,0.054,0.279,0.054c0.207,0,0.41-0.086,0.555-0.245c0.211-0.231,0.256-0.57,0.112-0.848
			c-0.423-0.822-0.637-1.703-0.637-2.617v-5c0-0.414,0.336-0.75,0.75-0.75s0.75,0.336,0.75,0.75v5c0,2.343,1.907,4.25,4.25,4.25h1
			c2.343,0,4.25-1.907,4.25-4.25v-5c0-0.414,0.336-0.75,0.75-0.75s0.75,0.336,0.75,0.75v5c0,0.914-0.214,1.795-0.637,2.617
			c-0.143,0.278-0.098,0.616,0.112,0.848c0.145,0.159,0.348,0.245,0.555,0.245c0.094,0,0.188-0.018,0.279-0.054
			c3.153-1.264,5.191-4.269,5.191-7.656v-3c0-0.414,0.336-0.75,0.75-0.75s0.75,0.336,0.75,0.75v3c0,2.249-0.788,4.445-2.219,6.184
			c-0.22,0.267-0.228,0.65-0.021,0.926c0.145,0.194,0.37,0.3,0.6,0.3c0.099,0,0.199-0.02,0.294-0.06
			c4.158-1.776,6.845-5.839,6.845-10.35v-3C69.75,21.086,70.086,20.75,70.5,20.75 M70.5,20c-0.828,0-1.5,0.672-1.5,1.5v3
			c0,4.332-2.637,8.058-6.39,9.66C64.103,32.347,65,30.027,65,27.5v-3c0-0.828-0.672-1.5-1.5-1.5S62,23.672,62,24.5v3
			c0,3.153-1.958,5.853-4.72,6.96C57.737,33.571,58,32.566,58,31.5v-5c0-0.828-0.672-1.5-1.5-1.5S55,25.672,55,26.5v5
			c0,1.93-1.57,3.5-3.5,3.5h-1c-1.93,0-3.5-1.57-3.5-3.5v-5c0-0.828-0.672-1.5-1.5-1.5S44,25.672,44,26.5v5
			c0,1.066,0.263,2.071,0.72,2.96C41.958,33.353,40,30.653,40,27.5v-3c0-0.828-0.672-1.5-1.5-1.5S37,23.672,37,24.5v3
			c0,2.527,0.897,4.847,2.39,6.66C35.637,32.558,33,28.832,33,24.5v-3c0-0.828-0.672-1.5-1.5-1.5S30,20.672,30,21.5v3
			C30,31.944,36.056,39,43.5,39h4h3h1h3h4C65.944,39,72,31.944,72,24.5v-3C72,20.672,71.328,20,70.5,20L70.5,20z"/>
	</g>
	<path style="fill:#BD977C;" d="M51,38.125c-11.53,0-14.125,6.735-14.125,9.095v2.99c0.264,3.229,1.662,9.109,4.107,14.319
		c1.012,2.147,2.105,3.982,3.249,5.453c1.974,2.544,4.051,3.938,6.175,4.146l1.314-0.004c2.036-0.212,4.079-1.574,6.034-4.047
		c4.358-5.493,7.082-15.174,7.373-20.05l-0.001-2.948C65.125,44.757,62.53,38.125,51,38.125z"/>
	<g>
		<path style="fill:#EDB88C;" d="M44.055,70.366c2.004,2.531,4.128,3.923,6.313,4.136L51.72,74.5
			c2.116-0.218,4.217-1.574,6.199-4.029C57.562,67.605,55.82,64.5,53.8,64.5h-5.6C46.103,64.5,44.377,66.955,44.055,70.366z"/>
		<path style="fill:#472B29;" d="M53.8,64.75c1.866,0,3.486,2.915,3.858,5.646c-1.908,2.335-3.917,3.631-5.977,3.854h-1.323
			c-2.081-0.216-4.113-1.547-6.044-3.96c0.333-3.228,1.941-5.54,3.886-5.54H53.8 M53.8,64h-5.6c-2.57,0-4.38,2.94-4.66,6.52
			c1.94,2.5,4.22,4.23,6.78,4.48h1.4c2.55-0.26,4.8-1.95,6.72-4.38C58.14,67.7,56.34,64,53.8,64L53.8,64z"/>
	</g>
	<path style="fill:#472B29;" d="M61,52c0,1.1-0.9,2-2,2s-2-0.9-2-2s0.9-2,2-2S61,50.9,61,52z"/>
	<path style="fill:#472B29;" d="M45,52c0,1.1-0.9,2-2,2s-2-0.9-2-2s0.9-2,2-2S45,50.9,45,52z"/>
	<g>
		<path style="fill:#685446;" d="M51,62.5c-2.584,0-3.5,0.602-3.5,2.3c0,1.106,2.453,3.7,3.5,3.7s3.5-2.594,3.5-3.7
			C54.5,63.102,53.584,62.5,51,62.5z"/>
		<path style="fill:#472B29;" d="M51,63c2.551,0,3,0.58,3,1.8c0,0.846-2.187,3.178-2.999,3.2C50.187,67.978,48,65.646,48,64.8
			C48,63.58,48.449,63,51,63 M51,62c-2.267,0-4,0.42-4,2.8c0,1.4,2.667,4.2,4,4.2s4-2.8,4-4.2C55,62.42,53.267,62,51,62L51,62z"/>
	</g>
	<path style="fill:#472B29;" d="M51,38.65c4.794,0,8.619,1.221,11.06,3.532l0.938,0.887l0.96-0.863
		c1.414-1.27,3.455-1.793,7.04-1.806h3.484c-0.521,2.262-2.858,6.326-8.66,7.067L64.6,47.623v1.233v1.182
		c-0.299,4.819-2.978,14.319-7.258,19.715c-1.842,2.331-3.758,3.626-5.697,3.848h-1.252c-1.952-0.215-3.885-1.54-5.747-3.94
		c-1.12-1.44-2.193-3.243-3.188-5.355c-2.405-5.124-3.785-10.912-4.057-14.153v-1.297v-1.233l-1.223-0.156
		c-5.802-0.741-8.138-4.805-8.66-7.067l3.479,0c3.596,0.013,5.639,0.538,7.052,1.812l0.963,0.869l0.94-0.894
		C42.383,39.873,46.203,38.65,51,38.65 M51,37.25c-6.013,0-9.765,1.783-12.013,3.923c-1.924-1.735-4.618-2.161-7.985-2.173H26.5
		c-0.276,0-0.5,0.224-0.5,0.5c0,2.331,2.437,8.39,10,9.355c0,0.722,0,1.355,0,1.355c0.28,3.47,1.74,9.47,4.19,14.69
		c0.97,2.06,2.09,4,3.35,5.62c1.94,2.5,4.22,4.23,6.78,4.48h1.4c2.55-0.26,4.8-1.95,6.72-4.38c4.57-5.76,7.27-15.67,7.56-20.54
		c0,0,0-0.527,0-1.225c7.563-0.966,10-7.024,10-9.355c0-0.276-0.224-0.5-0.5-0.5h-4.502c-3.361,0.012-6.052,0.436-7.976,2.165
		C60.775,39.038,57.022,37.25,51,37.25L51,37.25z"/>
	<path style="fill:#472B29;" d="M48,71h-0.5c-0.276,0-0.5-0.224-0.5-0.5s0.224-0.5,0.5-0.5H48c0.783,0,1.531-0.374,2-1l0.6-0.8
		c0.166-0.221,0.479-0.266,0.7-0.101c0.221,0.166,0.265,0.479,0.1,0.7l-0.6,0.8C50.143,70.477,49.096,71,48,71z"/>
	<path style="fill:#472B29;" d="M54.5,71H54c-1.096,0-2.143-0.523-2.8-1.4l-0.6-0.8c-0.166-0.221-0.121-0.534,0.1-0.7
		c0.223-0.165,0.535-0.119,0.7,0.101L52,69c0.469,0.626,1.217,1,2,1h0.5c0.276,0,0.5,0.224,0.5,0.5S54.776,71,54.5,71z"/>
	<circle style="fill:#FFFFFF;" cx="42.5" cy="51.5" r="0.5"/>
	<circle style="fill:#FFFFFF;" cx="58.5" cy="51.5" r="0.5"/>
	<path style="fill:#472B29;" d="M64.6,50.028l-0.001-2.948c0-1.042-0.603-3.33-2.862-5.297l0.492-0.566
		c2.463,2.145,3.12,4.694,3.12,5.863l0.001,2.948H64.6z"/>
	<path style="fill:#472B29;" d="M37.4,50.21h-0.75v-2.99c0-1.201,0.669-3.816,3.18-6.003l0.492,0.566
		c-2.307,2.009-2.922,4.362-2.922,5.437V50.21z"/>
</g>
</svg>
