<?xml version="1.0" encoding="iso-8859-1"?>
<!-- Generator: Adobe Illustrator 22.1.0, SVG Export Plug-In . SVG Version: 6.00 Build 0)  -->
<svg version="1.1" id="Layer_1" xmlns="http://www.w3.org/2000/svg" xmlns:xlink="http://www.w3.org/1999/xlink" x="0px" y="0px"
	 viewBox="0 0 100 100" style="enable-background:new 0 0 100 100;" xml:space="preserve">
<path style="fill:#C7EDE6;" d="M87.215,56.71C88.35,54.555,89,52.105,89,49.5c0-6.621-4.159-12.257-10.001-14.478
	C78.999,35.015,79,35.008,79,35c0-11.598-9.402-21-21-21c-9.784,0-17.981,6.701-20.313,15.757C36.211,29.272,34.638,29,33,29
	c-7.692,0-14.023,5.793-14.89,13.252C12.906,43.353,9,47.969,9,53.5C9,59.851,14.149,65,20.5,65c0.177,0,0.352-0.012,0.526-0.022
	C21.022,65.153,21,65.324,21,65.5C21,76.822,30.178,86,41.5,86c6.437,0,12.175-2.972,15.934-7.614C59.612,80.611,62.64,82,66,82
	c4.65,0,8.674-2.65,10.666-6.518C77.718,75.817,78.837,76,80,76c6.075,0,11-4.925,11-11C91,61.689,89.53,58.727,87.215,56.71z"/>
<g>
	<path style="fill:#FDFCEF;" d="M54.374,57.547c0.078-0.351,0.126-0.672,0.126-1.047c0-2.761-2.239-5-5-5
		c-1.656,0-3.113,0.815-4.022,2.055C45.25,50.726,42.887,48.5,40,48.5c-3.038,0-5.5,2.462-5.5,5.5c0,0.386,0.047,0.759,0.124,1.122
		C34.007,54.733,33.283,54.5,32.5,54.5c-1.898,0-3.479,1.325-3.889,3.098C28.256,57.542,27.887,57.5,27.5,57.5c-2.761,0-5,2.239-5,5
		s2.239,5,5,5s11,0,11,0h4c0,0,8.239,0,11,0s5-2.239,5-5C58.5,60.038,56.717,57.962,54.374,57.547z"/>
	<path style="fill:#472B29;" d="M53.5,68h-26c-3.033,0-5.5-2.467-5.5-5.5s2.467-5.5,5.5-5.5c0.24,0,0.484,0.014,0.75,0.044
		C28.864,55.23,30.552,54,32.5,54c0.514,0,1.022,0.091,1.506,0.266C34.002,54.177,34,54.088,34,54c0-3.309,2.691-6,6-6
		c2.737,0,5.103,1.885,5.792,4.452C46.798,51.52,48.103,51,49.5,51c3.033,0,5.5,2.467,5.5,5.5c0,0.223-0.015,0.437-0.047,0.665
		C57.326,57.813,59,59.981,59,62.5C59,65.533,56.533,68,53.5,68z M27.5,58c-2.481,0-4.5,2.019-4.5,4.5s2.019,4.5,4.5,4.5h26
		c2.481,0,4.5-2.019,4.5-4.5c0-2.204-1.562-4.08-3.714-4.461c-0.134-0.023-0.253-0.101-0.329-0.215
		c-0.076-0.113-0.102-0.253-0.072-0.386C53.967,57.073,54,56.801,54,56.5c0-2.481-2.019-4.5-4.5-4.5
		c-1.437,0-2.756,0.674-3.619,1.851c-0.124,0.169-0.338,0.243-0.54,0.185c-0.201-0.057-0.345-0.233-0.362-0.441
		C44.772,51.018,42.585,49,40,49c-2.757,0-5,2.243-5,5c0,0.327,0.037,0.66,0.113,1.019c0.042,0.197-0.039,0.399-0.204,0.514
		c-0.164,0.115-0.383,0.121-0.552,0.013C33.792,55.188,33.149,55,32.5,55c-1.634,0-3.033,1.115-3.402,2.711
		c-0.059,0.256-0.304,0.426-0.567,0.381C28.14,58.029,27.812,58,27.5,58z"/>
	<path style="fill:#472B29;" d="M28.25,63C28.112,63,28,62.888,28,62.75c0-1.517,1.233-2.75,2.75-2.75
		c0.129,0,0.259,0.011,0.398,0.034C31.536,58.825,32.65,58,33.937,58c0.479,0,0.944,0.115,1.363,0.335
		C35.872,56.926,37.221,56,38.75,56c0.138,0,0.25,0.112,0.25,0.25s-0.112,0.25-0.25,0.25c-1.414,0-2.65,0.917-3.078,2.28
		c-0.024,0.075-0.082,0.135-0.156,0.161c-0.075,0.026-0.157,0.016-0.223-0.028c-0.402-0.271-0.871-0.413-1.356-0.413
		c-1.135,0-2.109,0.774-2.368,1.883c-0.015,0.065-0.056,0.122-0.113,0.156c-0.056,0.036-0.125,0.046-0.19,0.03
		c-0.193-0.047-0.358-0.069-0.517-0.069c-1.241,0-2.25,1.009-2.25,2.25C28.5,62.888,28.388,63,28.25,63z"/>
	<path style="fill:#472B29;" d="M51.25,60C51.112,60,51,59.888,51,59.75c0-1.241,1.29-2.25,2.875-2.25
		c0.367,0,0.799,0.085,1.081,0.165c0.133,0.038,0.21,0.176,0.173,0.309s-0.177,0.209-0.309,0.173C54.582,58.079,54.191,58,53.875,58
		c-1.31,0-2.375,0.785-2.375,1.75C51.5,59.888,51.388,60,51.25,60z"/>
</g>
<g>
	<path style="fill:#FDFCEF;" d="M79.5,76.5H84c1.933,0,3.5-1.567,3.5-3.5c0-1.814-1.385-3.288-3.152-3.465
		C84.437,69.203,84.5,68.86,84.5,68.5c0-2.209-1.791-4-4-4c-1.266,0-2.382,0.6-3.115,1.518C76.936,64.007,75.147,62.5,73,62.5
		c-2.485,0-4.5,2.015-4.5,4.5c0,0.104,0.024,0.202,0.031,0.304C67.996,66.809,67.286,66.5,66.5,66.5c-1.657,0-3,1.343-3,3
		c0,0.127,0.022,0.247,0.037,0.37C63.072,69.641,62.554,69.5,62,69.5c-1.933,0-3.5,1.567-3.5,3.5s1.567,3.5,3.5,3.5s9.5,0,9.5,0V77
		h8V76.5z"/>
	<path style="fill:#472B29;" d="M84,77h-4.5c-0.276,0-0.5-0.224-0.5-0.5s0.224-0.5,0.5-0.5H84c1.654,0,3-1.346,3-3
		c0-1.538-1.162-2.813-2.702-2.967c-0.146-0.015-0.278-0.093-0.362-0.213c-0.083-0.121-0.109-0.272-0.071-0.414
		C83.957,69.063,84,68.775,84,68.5c0-1.93-1.57-3.5-3.5-3.5c-1.057,0-2.049,0.485-2.724,1.331c-0.12,0.15-0.315,0.217-0.503,0.175
		c-0.188-0.043-0.333-0.19-0.375-0.378C76.487,64.286,74.884,63,73,63c-2.206,0-4,1.794-4,4c0,0.037,0.006,0.073,0.012,0.109
		c0.007,0.053,0.014,0.107,0.018,0.162c0.014,0.204-0.099,0.396-0.283,0.484c-0.185,0.088-0.405,0.056-0.555-0.084
		C67.723,67.238,67.123,67,66.5,67c-1.378,0-2.5,1.122-2.5,2.5c0,0.075,0.012,0.146,0.021,0.219
		c0.026,0.183-0.046,0.407-0.197,0.516c-0.149,0.108-0.34,0.166-0.508,0.084C62.888,70.107,62.444,70,62,70c-1.654,0-3,1.346-3,3
		s1.346,3,3,3h9.5c0.276,0,0.5,0.224,0.5,0.5S71.776,77,71.5,77H62c-2.206,0-4-1.794-4-4s1.794-4,4-4
		c0.343,0,0.684,0.046,1.019,0.139C63.2,67.378,64.692,66,66.5,66c0.538,0,1.063,0.126,1.541,0.363C68.354,63.906,70.458,62,73,62
		c2.058,0,3.847,1.227,4.609,3.071C78.416,64.382,79.432,64,80.5,64c2.481,0,4.5,2.019,4.5,4.5c0,0.206-0.017,0.413-0.053,0.631
		C86.722,69.558,88,71.134,88,73C88,75.206,86.206,77,84,77z"/>
	<circle style="fill:#472B29;" cx="73.5" cy="76.5" r="0.5"/>
	<path style="fill:#472B29;" d="M76.5,77h-1c-0.276,0-0.5-0.224-0.5-0.5s0.224-0.5,0.5-0.5h1c0.276,0,0.5,0.224,0.5,0.5
		S76.776,77,76.5,77z"/>
	<path style="fill:#472B29;" d="M81.25,72C81.112,72,81,71.888,81,71.75c0-1.252,1.341-2.232,3.053-2.232
		c0.135,0,0.713,0.039,1.037,0.163c0.129,0.049,0.193,0.194,0.144,0.323c-0.049,0.129-0.194,0.194-0.323,0.144
		c-0.22-0.084-0.707-0.129-0.858-0.129c-1.408,0-2.553,0.777-2.553,1.732C81.5,71.888,81.388,72,81.25,72z"/>
</g>
<g>
	<path style="fill:#FFFFFF;" d="M11.5,51h-2C9.224,51,9,50.776,9,50.5S9.224,50,9.5,50h2c0.276,0,0.5,0.224,0.5,0.5
		S11.776,51,11.5,51z"/>
	<path style="fill:#FFFFFF;" d="M17.5,53h-2c-0.276,0-0.5-0.224-0.5-0.5s0.224-0.5,0.5-0.5h2c0.276,0,0.5,0.224,0.5,0.5
		S17.776,53,17.5,53z"/>
	<path style="fill:#FFFFFF;" d="M17.5,49h-9C8.224,49,8,48.776,8,48.5S8.224,48,8.5,48h9c0.276,0,0.5,0.224,0.5,0.5
		S17.776,49,17.5,49z"/>
	<path style="fill:#FFFFFF;" d="M14.5,51h-1c-0.276,0-0.5-0.224-0.5-0.5s0.224-0.5,0.5-0.5h1c0.276,0,0.5,0.224,0.5,0.5
		S14.776,51,14.5,51z"/>
	<path style="fill:#FFFFFF;" d="M20.5,45h-1c-0.276,0-0.5-0.224-0.5-0.5s0.224-0.5,0.5-0.5h1c0.276,0,0.5,0.224,0.5,0.5
		S20.776,45,20.5,45z"/>
	<path style="fill:#FFFFFF;" d="M20.5,47h-5c-0.276,0-0.5-0.224-0.5-0.5s0.224-0.5,0.5-0.5h5c0.276,0,0.5,0.224,0.5,0.5
		S20.776,47,20.5,47z"/>
	<path style="fill:#FFFFFF;" d="M25.5,49h-3c-0.276,0-0.5-0.224-0.5-0.5s0.224-0.5,0.5-0.5h3c0.276,0,0.5,0.224,0.5,0.5
		S25.776,49,25.5,49z"/>
	<path style="fill:#FFFFFF;" d="M26.5,51h-10c-0.276,0-0.5-0.224-0.5-0.5s0.224-0.5,0.5-0.5h10c0.276,0,0.5,0.224,0.5,0.5
		S26.776,51,26.5,51z"/>
	<path style="fill:#FFFFFF;" d="M20.5,49h-1c-0.276,0-0.5-0.224-0.5-0.5s0.224-0.5,0.5-0.5h1c0.276,0,0.5,0.224,0.5,0.5
		S20.776,49,20.5,49z"/>
</g>
<g>
	<path style="fill:#FFFFFF;" d="M74.5,50h-1c-0.276,0-0.5-0.224-0.5-0.5s0.224-0.5,0.5-0.5h1c0.276,0,0.5,0.224,0.5,0.5
		S74.776,50,74.5,50z"/>
	<path style="fill:#FFFFFF;" d="M77.5,50h-1c-0.276,0-0.5-0.224-0.5-0.5s0.224-0.5,0.5-0.5h1c0.276,0,0.5,0.224,0.5,0.5
		S77.776,50,77.5,50z"/>
	<path style="fill:#FFFFFF;" d="M80.5,52h-2c-0.276,0-0.5-0.224-0.5-0.5s0.224-0.5,0.5-0.5h2c0.276,0,0.5,0.224,0.5,0.5
		S80.776,52,80.5,52z"/>
	<path style="fill:#FFFFFF;" d="M87.5,54h-1c-0.276,0-0.5-0.224-0.5-0.5s0.224-0.5,0.5-0.5h1c0.276,0,0.5,0.224,0.5,0.5
		S87.776,54,87.5,54z"/>
	<path style="fill:#FFFFFF;" d="M91.5,54h-2c-0.276,0-0.5-0.224-0.5-0.5s0.224-0.5,0.5-0.5h2c0.276,0,0.5,0.224,0.5,0.5
		S91.776,54,91.5,54z"/>
	<path style="fill:#FFFFFF;" d="M84.5,54h-10c-0.276,0-0.5-0.224-0.5-0.5s0.224-0.5,0.5-0.5h10c0.276,0,0.5,0.224,0.5,0.5
		S84.776,54,84.5,54z"/>
	<path style="fill:#FFFFFF;" d="M87.5,52h-5c-0.276,0-0.5-0.224-0.5-0.5s0.224-0.5,0.5-0.5h5c0.276,0,0.5,0.224,0.5,0.5
		S87.776,52,87.5,52z"/>
	<path style="fill:#FFFFFF;" d="M89.5,50h-10c-0.276,0-0.5-0.224-0.5-0.5s0.224-0.5,0.5-0.5h10c0.276,0,0.5,0.224,0.5,0.5
		S89.776,50,89.5,50z"/>
</g>
<g>
	<path style="fill:#E55838;" d="M71.5,70.13c-4,3.44-9.98,5.8-16.88,6.28c-0.86,0.06-1.73,0.09-2.62,0.09s-1.76-0.03-2.62-0.09
		c-6.9-0.48-12.88-2.84-16.88-6.29c0,0,1.68-5.73,3.17-6.79c0.94-0.67,6.93-2.64,9.33-3.25h14c2.4,0.61,8.39,2.58,9.33,3.25
		C69.82,64.39,71.5,70.13,71.5,70.13z"/>
	<g>
		<path style="fill:#472B29;" d="M42.241,71.161c-0.023,0-0.047-0.007-0.068-0.021c-0.058-0.037-0.074-0.114-0.036-0.173
			l0.435-0.669c0.036-0.058,0.113-0.074,0.173-0.036c0.058,0.037,0.074,0.114,0.036,0.173l-0.435,0.669
			C42.322,71.141,42.282,71.161,42.241,71.161z"/>
		<path style="fill:#472B29;" d="M40.459,71.407c-0.023,0-0.047-0.007-0.068-0.021c-0.058-0.037-0.074-0.115-0.036-0.173
			l1.131-1.739c0.037-0.058,0.113-0.073,0.173-0.036c0.058,0.037,0.074,0.115,0.036,0.173l-1.131,1.739
			C40.54,71.387,40.5,71.407,40.459,71.407z"/>
		<path style="fill:#472B29;" d="M38.675,71.657c-0.023,0-0.047-0.007-0.068-0.021c-0.058-0.037-0.074-0.114-0.036-0.173
			l1.922-2.957c0.037-0.057,0.114-0.073,0.173-0.036c0.058,0.037,0.074,0.114,0.036,0.173l-1.922,2.957
			C38.756,71.637,38.716,71.657,38.675,71.657z"/>
		<path style="fill:#472B29;" d="M36.979,71.771c-0.023,0-0.047-0.007-0.068-0.021c-0.058-0.037-0.074-0.114-0.036-0.173l2.67-4.107
			c0.037-0.057,0.113-0.074,0.173-0.036c0.058,0.037,0.074,0.114,0.036,0.173l-2.67,4.107C37.06,71.75,37.02,71.771,36.979,71.771z"
			/>
		<path style="fill:#472B29;" d="M35.14,72.104c-0.023,0-0.047-0.007-0.068-0.021c-0.058-0.037-0.074-0.115-0.036-0.173l3.635-5.591
			c0.037-0.057,0.114-0.074,0.173-0.036c0.058,0.037,0.074,0.114,0.036,0.173l-3.635,5.591
			C35.221,72.084,35.181,72.104,35.14,72.104z"/>
		<path style="fill:#472B29;" d="M33.964,71.419c-0.023,0-0.047-0.007-0.068-0.021c-0.058-0.037-0.074-0.114-0.036-0.173
			l3.984-6.131c0.037-0.057,0.113-0.073,0.173-0.036c0.058,0.037,0.074,0.114,0.036,0.173l-3.984,6.131
			C34.045,71.398,34.005,71.419,33.964,71.419z"/>
		<path style="fill:#472B29;" d="M32.944,70.492c-0.023,0-0.047-0.007-0.068-0.021c-0.058-0.037-0.074-0.114-0.036-0.173
			l4.319-6.646c0.037-0.058,0.113-0.073,0.173-0.036c0.058,0.037,0.074,0.114,0.036,0.173l-4.319,6.646
			C33.025,70.472,32.985,70.492,32.944,70.492z"/>
	</g>
	<g>
		<path style="fill:#EFEDDF;" d="M54.62,63.96v12.45c-0.86,0.06-1.73,0.09-2.62,0.09s-1.76-0.03-2.62-0.09V63.96H54.62z"/>
		<path style="fill:#472B29;" d="M52,76.875c-0.886,0-1.776-0.03-2.646-0.091c-0.196-0.014-0.349-0.177-0.349-0.374V63.96
			c0-0.207,0.168-0.375,0.375-0.375h5.24c0.207,0,0.375,0.168,0.375,0.375v12.45c0,0.197-0.152,0.36-0.349,0.374
			C53.776,76.845,52.886,76.875,52,76.875z M49.755,76.059c1.482,0.088,3.008,0.088,4.49,0V64.335h-4.49V76.059z"/>
	</g>
	<g>
		<path style="fill:#EFEDDF;" d="M44.625,59.955c0,0,1.52,3.37,7.75,3.538c0,0-0.705,9.132-4.103,9.132
			c-3.495,0-9.27-3.91-11.397-9.806L44.625,59.955z"/>
		<path style="fill:#472B29;" d="M48.272,73c-3.842,0-9.611-4.129-11.75-10.054l0.705-0.254c2.138,5.922,7.874,9.558,11.045,9.558
			c2.379,0,3.435-5.732,3.694-8.397c-6.063-0.301-7.619-3.6-7.684-3.743l0.683-0.311c0.06,0.129,1.53,3.16,7.419,3.319
			c0.104,0.003,0.2,0.048,0.269,0.124c0.069,0.076,0.104,0.178,0.096,0.28C52.674,64.492,51.912,73,48.272,73z"/>
	</g>
	<g>
		<path style="fill:#EFEDDF;" d="M59.369,59.83c0,0-1.518,3.406-7.744,3.576c0,0,0.704,9.219,4.1,9.219
			c3.493,0,9.263-3.941,11.389-9.9L59.369,59.83z"/>
		<path style="fill:#472B29;" d="M55.725,73c-3.638,0-4.398-8.586-4.474-9.565c-0.008-0.103,0.026-0.203,0.096-0.279
			c0.068-0.076,0.165-0.121,0.268-0.124c5.884-0.161,7.354-3.226,7.413-3.355l0.685,0.307c-0.064,0.146-1.621,3.479-7.68,3.783
			c0.261,2.689,1.315,8.484,3.692,8.484c3.171,0,8.902-3.672,11.035-9.651l0.707,0.252C65.333,68.832,59.566,73,55.725,73z"/>
	</g>
</g>
<g>
	<path style="fill:#EDBC94;" d="M44.82,36c-0.08,0.194-0.279,0.618-0.82,1.75c-0.75,1.57-2,4.13-2,7.75c0.59,3.12,2.79,5.36,5,6.5h5
		h5c2.21-1.14,4.41-3.38,5-6.5c0-3.62-1.25-6.18-2-7.75c-0.541-1.132-0.74-1.556-0.82-1.75H44.82z"/>
	<path style="fill:#472B29;" d="M49.949,40.827l0.426-0.898C48.5,39.375,46.5,39.5,44.75,40.123L45.285,41
		C46.797,40.487,48.408,40.427,49.949,40.827z"/>
	<path style="fill:#512C2B;" d="M54.051,40.827l-0.426-0.898C55.5,39.375,57.5,39.5,59.25,40.123L58.715,41
		C57.203,40.487,55.592,40.427,54.051,40.827z"/>
	<g>
		<path style="fill:#472B29;" d="M47.25,42c-0.47,0-0.875,0.341-1.088,0.84c0.103-0.053,0.215-0.09,0.338-0.09
			c0.414,0,0.75,0.336,0.75,0.75c0,0.414-0.336,0.75-0.75,0.75c-0.169,0-0.317-0.066-0.442-0.16c0.155,0.669,0.627,1.16,1.192,1.16
			c0.69,0,1.25-0.728,1.25-1.625S47.94,42,47.25,42z"/>
		<path style="fill:#472B29;" d="M56.75,42c-0.47,0-0.875,0.341-1.088,0.84c0.103-0.053,0.215-0.09,0.338-0.09
			c0.414,0,0.75,0.336,0.75,0.75c0,0.414-0.336,0.75-0.75,0.75c-0.169,0-0.317-0.066-0.442-0.16c0.155,0.669,0.627,1.16,1.192,1.16
			c0.69,0,1.25-0.728,1.25-1.625S57.44,42,56.75,42z"/>
	</g>
	<path style="fill:#472B29;" d="M53.76,49.007C53.76,49.007,53.76,49.007,53.76,49.007c-0.047-0.047-0.123-0.047-0.17-0.001
		c0,0,0,0,0,0c-0.415,0.428-0.965,0.618-1.59,0.62c-0.625-0.002-1.175-0.192-1.59-0.62c0,0,0,0,0,0c-0.047-0.047-0.123-0.047-0.17,0
		c0,0,0,0,0,0c-0.047,0.047-0.047,0.123,0,0.17C50.687,49.686,51.25,50,52,50c0.75,0,1.313-0.314,1.76-0.823
		C53.807,49.13,53.807,49.054,53.76,49.007z"/>
	<g>
		<path style="fill:#FDFCEE;" d="M64.16,43.5h0.01c0.23-0.71,0.33-1.7,0.33-2.88c0-0.6,0-1.25,0-1.25V36H52v0.75
			c1.286,1.649,4.413,4.367,9.356,4.374C61.723,42.36,62,43.81,62,45.5c-0.59,3.12-2.79,5.36-5,6.5h-5h-5
			c-2.21-1.14-4.41-3.38-5-6.5c0-3.62,1.25-6.18,2-7.75c0.541-1.132,0.74-1.556,0.82-1.75H39.5v3.37c0,0,0,0.65,0,1.25
			c0,1.18,0.1,2.17,0.33,2.88h0.01c0,0-2.34,2.12-2.34,8.5c0,2.896,0.98,6.392,2.868,9.408l0.354-0.011
			c2.445,3.629,6.2,6.347,11.278,6.352c5.098-0.005,8.844-2.779,11.287-6.434c0,0,0.256,0.234,0.334,0.109
			C65.516,58.404,66.5,54.902,66.5,52C66.5,45.62,64.16,43.5,64.16,43.5z"/>
		<path style="fill:#472B29;" d="M61.467,41.078c-0.016-0.038-0.05-0.066-0.094-0.072l-0.183-0.013
			c-5.339-0.076-8.319-3.354-9.11-4.368l-0.158-0.203l-0.197,0.154l0.158,0.203c0.813,1.042,3.881,4.419,9.379,4.466
			c0.351,1.204,0.614,2.612,0.615,4.231c-0.505,2.674-2.339,5.063-4.907,6.398H47.03c-2.568-1.335-4.402-3.725-4.905-6.375
			c0-3.449,1.16-5.96,1.895-7.5h-0.277c-0.745,1.568-1.868,4.073-1.866,7.523c0.521,2.758,2.415,5.221,5.065,6.588L57,52.125
			l0.058-0.014c2.65-1.367,4.544-3.83,5.067-6.611c0-1.664-0.265-3.103-0.623-4.33C61.497,41.155,61.471,41.086,61.467,41.078z"/>
	</g>
	<path style="fill:#472B29;" d="M52,68c-4.807-0.005-8.992-2.434-11.785-6.84l0.422-0.268C43.335,65.148,47.371,67.495,52,67.5
		c4.66,0,8.714-2.372,11.413-6.68l0.424,0.266C61.043,65.544,56.839,68,52,68z"/>
	<path style="fill:#472B29;" d="M52,77c-7.646,0-14.779-2.288-19.568-6.277c-0.31-0.257-0.434-0.673-0.316-1.059
		c0.404-1.325,1.833-5.725,3.266-6.742c0.772-0.548,3.13-1.34,4.285-1.708C37.989,58.355,37,54.957,37,52
		c0-5.411,1.65-7.883,2.273-8.623C39.09,42.675,39,41.769,39,40.62v-1.25h1v1.25c0,1.147,0.097,2.043,0.287,2.666
		c0.005,0.011,0.01,0.022,0.015,0.034c0.074,0.193,0.027,0.412-0.126,0.55C40.156,43.888,38,45.973,38,52
		c0,2.968,1.064,6.42,2.848,9.232c0.084,0.132,0.102,0.295,0.047,0.441c-0.054,0.146-0.174,0.259-0.323,0.305
		c-1.039,0.316-3.895,1.25-4.612,1.759c-0.869,0.617-2.105,3.656-2.887,6.218C37.685,73.796,44.583,76,52,76
		s14.315-2.204,18.928-6.045c-0.781-2.561-2.018-5.6-2.887-6.217c-0.722-0.512-3.545-1.499-4.572-1.836
		c-0.146-0.048-0.262-0.161-0.314-0.305c-0.052-0.145-0.034-0.305,0.047-0.436C64.954,58.365,66,54.94,66,52
		c0-6.019-2.157-8.112-2.179-8.133c-0.15-0.14-0.2-0.359-0.125-0.55c0.007-0.016,0.014-0.031,0.021-0.046
		C63.905,42.649,64,41.757,64,40.62v-1.24h1v1.24c0,1.149-0.09,2.056-0.273,2.757C65.349,44.118,67,46.595,67,52
		c0,2.932-0.975,6.308-2.625,9.151c1.134,0.388,3.473,1.223,4.244,1.771c1.433,1.017,2.861,5.417,3.266,6.741
		c0.117,0.387-0.007,0.803-0.317,1.06C66.779,74.712,59.646,77,52,77z"/>
	<g>
		<path style="fill:#FDFCEE;" d="M47.38,37.125c1.484,1.027,3.492,1.734,4.495,1.75c0,0-0.493-1.072-0.8-2.106
			C49.745,36.811,48.51,36.938,47.38,37.125z"/>
		<path style="fill:#472B29;" d="M51.875,39c-0.001,0-0.001,0-0.002,0c-0.986-0.016-3.011-0.698-4.563-1.772
			c-0.042-0.029-0.062-0.081-0.051-0.13c0.012-0.05,0.052-0.088,0.102-0.096c1.189-0.197,2.438-0.317,3.711-0.357
			c0.001,0,0.003,0,0.004,0c0.055,0,0.104,0.036,0.12,0.089c0.302,1.014,0.788,2.079,0.793,2.089
			c0.019,0.039,0.015,0.084-0.009,0.121C51.957,38.979,51.917,39,51.875,39z M47.716,37.198c1.369,0.88,3.018,1.454,3.962,1.541
			c-0.148-0.341-0.466-1.096-0.694-1.842C49.866,36.936,48.77,37.037,47.716,37.198z"/>
	</g>
	<g>
		<g>
			<path style="fill:#FDFCEE;" d="M52,52.188c0-0.911-0.875-1.688-1.875-1.688c-1.625,0-2.25,0.5-3.875,2
				c-0.459,0.424-1.315,0.875-1.875,0.875c-0.75,0-1.25-0.25-1.25-0.25s1.125,1.75,3.875,1.75C50.75,54.875,52,53.098,52,52.188z"/>
			<path style="fill:#472B29;" d="M47,55c-2.786,0-3.933-1.733-3.98-1.808c-0.03-0.047-0.025-0.108,0.013-0.15
				c0.037-0.042,0.1-0.054,0.148-0.029c0.005,0.003,0.486,0.237,1.194,0.237c0.525,0,1.35-0.436,1.79-0.842
				c1.637-1.511,2.288-2.033,3.96-2.033c1.084,0,2,0.83,2,1.813C52.125,53.105,50.872,55,47,55z M43.511,53.392
				c0.479,0.493,1.59,1.358,3.489,1.358c3.684,0,4.875-1.727,4.875-2.563c0-0.832-0.817-1.563-1.75-1.563
				c-1.584,0-2.172,0.473-3.79,1.967c-0.474,0.437-1.356,0.908-1.96,0.908C44.027,53.5,43.732,53.449,43.511,53.392z"/>
		</g>
		<g>
			<path style="fill:#FDFCEE;" d="M52,52.188c0-0.911,0.875-1.688,1.875-1.688c1.625,0,2.25,0.5,3.875,2
				c0.459,0.424,1.315,0.875,1.875,0.875c0.75,0,1.25-0.25,1.25-0.25s-1.125,1.75-3.875,1.75C53.25,54.875,52,53.098,52,52.188z"/>
			<path style="fill:#472B29;" d="M57,55c-3.872,0-5.125-1.895-5.125-2.813c0-0.982,0.916-1.813,2-1.813
				c1.672,0,2.323,0.522,3.96,2.033c0.44,0.406,1.265,0.842,1.79,0.842c0.712,0,1.189-0.234,1.194-0.236
				c0.051-0.026,0.111-0.013,0.148,0.027c0.038,0.042,0.043,0.104,0.013,0.151C60.933,53.267,59.786,55,57,55z M53.875,50.625
				c-0.933,0-1.75,0.73-1.75,1.563c0,0.836,1.191,2.563,4.875,2.563c1.899,0,3.01-0.865,3.489-1.358
				c-0.222,0.058-0.517,0.108-0.864,0.108c-0.604,0-1.486-0.472-1.96-0.908C56.047,51.098,55.459,50.625,53.875,50.625z"/>
		</g>
	</g>
	<g>
		<g>
			<circle style="fill:#C8EDE6;" cx="49" cy="47" r="1.875"/>
			<path style="fill:#472B29;" d="M49,49c-1.103,0-2-0.897-2-2s0.897-2,2-2s2,0.897,2,2S50.103,49,49,49z M49,45.25
				c-0.965,0-1.75,0.785-1.75,1.75s0.785,1.75,1.75,1.75s1.75-0.785,1.75-1.75S49.965,45.25,49,45.25z"/>
		</g>
		<g>
			<circle style="fill:#C8EDE6;" cx="55" cy="47" r="1.875"/>
			<path style="fill:#472B29;" d="M55,49c-1.103,0-2-0.897-2-2s0.897-2,2-2s2,0.897,2,2S56.103,49,55,49z M55,45.25
				c-0.965,0-1.75,0.785-1.75,1.75s0.785,1.75,1.75,1.75s1.75-0.785,1.75-1.75S55.965,45.25,55,45.25z"/>
		</g>
		<path style="fill:#472B29;" d="M52,46c0.817,0,1.22,0.786,1.236,0.819l-0.223,0.111C53.01,46.925,52.661,46.25,52,46.25
			s-1.01,0.675-1.014,0.681l-0.223-0.111C50.78,46.786,51.183,46,52,46z"/>
		<circle style="fill:#FFFFFF;" cx="48.5" cy="46.5" r="0.5"/>
		<circle style="fill:#FFFFFF;" cx="54.5" cy="46.5" r="0.5"/>
	</g>
</g>
<g>
	<g>
		<path style="fill:#E55838;" d="M70.154,31.955l-1.279,1.795c0,0-5.875,0.25-7.952-3.104L52,22.25
			C62.75,22.25,64.5,30.25,70.154,31.955"/>
		<path style="fill:#472B29;" d="M68.556,34.006c-1.293,0-5.95-0.214-7.828-3.199l-8.898-8.375c-0.075-0.069-0.1-0.179-0.062-0.273
			C51.806,22.063,51.897,22,52,22c6.811,0,10.057,3.157,12.921,5.943c1.666,1.619,3.238,3.149,5.306,3.772
			c0.077,0.023,0.139,0.082,0.164,0.158c0.026,0.076,0.014,0.16-0.033,0.227l-1.279,1.795c-0.044,0.063-0.115,0.101-0.192,0.104
			C68.855,34.001,68.739,34.006,68.556,34.006z M52.641,22.51l8.453,7.955c0.017,0.015,0.03,0.031,0.042,0.05
			c1.816,2.934,6.789,2.98,7.608,2.988l1.009-1.416c-2.02-0.711-3.557-2.206-5.18-3.785C61.868,25.672,58.815,22.702,52.641,22.51z"
			/>
	</g>
	<g>
		<circle style="fill:#EFEDDF;" cx="70.5" cy="32.5" r="2.25"/>
		<path style="fill:#472B29;" d="M70.5,35c-1.379,0-2.5-1.121-2.5-2.5s1.121-2.5,2.5-2.5s2.5,1.121,2.5,2.5S71.879,35,70.5,35z
			 M70.5,30.5c-1.103,0-2,0.897-2,2s0.897,2,2,2s2-0.897,2-2S71.603,30.5,70.5,30.5z"/>
	</g>
	<path style="fill:#EFEDDF;" d="M63.961,33.833C61.438,32.798,57.315,31.5,52,31.5s-9.438,1.298-11.961,2.333
		c-1.198,0.491-1.812,1.732-1.426,2.972l0.872,2.807C40.997,38.711,45.382,36.5,52,36.5s11.003,2.211,12.515,3.112l0.872-2.807
		C65.772,35.565,65.159,34.324,63.961,33.833z"/>
	<path style="fill:#F45834;" d="M40,33.906c2-1.177,6.685-2.406,12-2.406s10,1.229,12,2.406l0.17,0.09
		C62.485,26.526,57.444,22.25,52,22.25c-5.444,0-10.484,4.276-12.17,11.745L40,33.906z"/>
	<path style="fill:#472B29;" d="M39.48,40.112c-0.208,0-0.402-0.13-0.473-0.338C38.904,39.473,38,36.806,38,35.875
		c0-1.323,1.007-2.187,1.432-2.493C41.205,26.461,46.119,22,51.995,22c5.881,0,10.795,4.461,12.568,11.382
		c0.425,0.306,1.432,1.17,1.432,2.493c0,0.931-0.904,3.598-1.008,3.899c-0.089,0.261-0.374,0.398-0.635,0.311
		c-0.261-0.09-0.4-0.374-0.311-0.635c0.368-1.076,0.953-2.999,0.953-3.575c0-1.065-1.115-1.749-1.126-1.756
		c-0.114-0.068-0.198-0.181-0.229-0.31C62.021,27.243,57.453,23,52,23c-5.458,0-10.026,4.243-11.645,10.81
		c-0.031,0.129-0.115,0.241-0.229,0.31C40.115,34.126,39,34.81,39,35.875c0,0.577,0.585,2.499,0.953,3.575
		c0.09,0.261-0.05,0.545-0.311,0.635C39.589,40.104,39.534,40.112,39.48,40.112z"/>
	<path style="fill:#472B29;" d="M63.873,34.121C61.87,32.943,57.148,31.75,52,31.75s-9.87,1.193-11.873,2.371l-0.254-0.431
		c1.999-1.175,6.646-2.44,12.127-2.44s10.128,1.265,12.127,2.44L63.873,34.121z"/>
	<path style="fill:#472B29;" d="M64.515,40.112c-0.044,0-0.088-0.011-0.128-0.035C62.835,39.152,58.521,37,52,37
		s-10.835,2.152-12.387,3.077c-0.118,0.069-0.272,0.032-0.343-0.087c-0.07-0.119-0.032-0.272,0.087-0.343
		C40.944,38.701,45.354,36.5,52,36.5s11.056,2.201,12.643,3.147c0.119,0.071,0.157,0.224,0.087,0.343
		C64.683,40.069,64.6,40.112,64.515,40.112z"/>
</g>
</svg>
