<?xml version="1.0" encoding="iso-8859-1"?>
<!-- Generator: Adobe Illustrator 22.1.0, SVG Export Plug-In . SVG Version: 6.00 Build 0)  -->
<svg version="1.1" id="Layer_1" xmlns="http://www.w3.org/2000/svg" xmlns:xlink="http://www.w3.org/1999/xlink" x="0px" y="0px"
	 viewBox="0 0 100 100" style="enable-background:new 0 0 100 100;" xml:space="preserve">
<path style="fill:#C7EDE6;" d="M87.215,56.71C88.35,54.555,89,52.105,89,49.5c0-6.621-4.159-12.257-10.001-14.478
	C78.999,35.015,79,35.008,79,35c0-11.598-9.402-21-21-21c-9.784,0-17.981,6.701-20.313,15.757C36.211,29.272,34.638,29,33,29
	c-7.692,0-14.023,5.793-14.89,13.252C12.906,43.353,9,47.969,9,53.5C9,59.851,14.149,65,20.5,65c0.177,0,0.352-0.012,0.526-0.022
	C21.022,65.153,21,65.324,21,65.5C21,76.822,30.178,86,41.5,86c6.437,0,12.175-2.972,15.934-7.614C59.612,80.611,62.64,82,66,82
	c4.65,0,8.674-2.65,10.666-6.518C77.718,75.817,78.837,76,80,76c6.075,0,11-4.925,11-11C91,61.689,89.53,58.727,87.215,56.71z"/>
<g>
	<path style="fill:#FDFCEF;" d="M77.5,65.5V66h3v-0.5c0,0,3.905,0,5.5,0c2.485,0,4.5-2.015,4.5-4.5c0-2.333-1.782-4.229-4.055-4.455
		C86.467,56.364,86.5,56.187,86.5,56c0-2.485-2.015-4.5-4.5-4.5c-1.438,0-2.703,0.686-3.527,1.736
		C78.333,50.6,76.171,48.5,73.5,48.5c-2.761,0-5,2.239-5,5c0,0.446,0.077,0.87,0.187,1.282C68.045,54.005,67.086,53.5,66,53.5
		c-1.781,0-3.234,1.335-3.455,3.055C62.364,56.533,62.187,56.5,62,56.5c-2.485,0-4.5,2.015-4.5,4.5s2.015,4.5,4.5,4.5s9.5,0,9.5,0
		H77.5z"/>
	<path style="fill:#472B29;" d="M73.5,48c-3.033,0-5.5,2.467-5.5,5.5c0,0.016,0,0.031,0,0.047C67.398,53.192,66.71,53,66,53
		c-1.831,0-3.411,1.261-3.858,3.005C62.095,56.002,62.048,56,62,56c-2.757,0-5,2.243-5,5s2.243,5,5,5h15.5
		c0.276,0,0.5-0.224,0.5-0.5S77.776,65,77.5,65H62c-2.206,0-4-1.794-4-4s1.794-4,4-4c0.117,0,0.23,0.017,0.343,0.032l0.141,0.019
		c0.021,0.003,0.041,0.004,0.062,0.004c0.246,0,0.462-0.185,0.495-0.437C63.232,55.125,64.504,54,66,54
		c0.885,0,1.723,0.401,2.301,1.1c0.098,0.118,0.241,0.182,0.386,0.182c0.078,0,0.156-0.018,0.228-0.056
		c0.209-0.107,0.314-0.346,0.254-0.573C69.054,54.218,69,53.852,69,53.5c0-2.481,2.019-4.5,4.5-4.5c2.381,0,4.347,1.872,4.474,4.263
		c0.011,0.208,0.15,0.387,0.349,0.45c0.05,0.016,0.101,0.024,0.152,0.024c0.15,0,0.296-0.069,0.392-0.192
		C79.638,52.563,80.779,52,82,52c2.206,0,4,1.794,4,4c0,0.117-0.017,0.23-0.032,0.343l-0.019,0.141
		c-0.016,0.134,0.022,0.268,0.106,0.373c0.084,0.105,0.207,0.172,0.34,0.185C88.451,57.247,90,58.949,90,61c0,2.206-1.794,4-4,4
		h-5.5c-0.276,0-0.5,0.224-0.5,0.5s0.224,0.5,0.5,0.5H86c2.757,0,5-2.243,5-5c0-2.397-1.689-4.413-4.003-4.877
		C86.999,56.082,87,56.041,87,56c0-2.757-2.243-5-5-5c-1.176,0-2.293,0.416-3.183,1.164C78.219,49.76,76.055,48,73.5,48L73.5,48z"/>
	<path style="fill:#472B29;" d="M72,55c-1.403,0-2.609,0.999-2.913,2.341C68.72,57.119,68.301,57,67.875,57
		c-1.202,0-2.198,0.897-2.353,2.068C65.319,59.022,65.126,59,64.937,59c-1.529,0-2.811,1.2-2.918,2.732
		C62.01,61.87,62.114,61.99,62.251,62c0.006,0,0.012,0,0.018,0c0.13,0,0.24-0.101,0.249-0.232c0.089-1.271,1.151-2.268,2.419-2.268
		c0.229,0,0.47,0.042,0.738,0.127c0.022,0.007,0.045,0.01,0.067,0.01c0.055,0,0.11-0.02,0.156-0.054
		C65.962,59.537,66,59.455,66,59.375c0-1.034,0.841-1.875,1.875-1.875c0.447,0,0.885,0.168,1.231,0.473
		c0.047,0.041,0.106,0.063,0.165,0.063c0.032,0,0.063-0.006,0.093-0.019c0.088-0.035,0.148-0.117,0.155-0.212
		C69.623,56.512,70.712,55.5,72,55.5c0.208,0,0.425,0.034,0.682,0.107c0.023,0.007,0.047,0.01,0.07,0.01
		c0.109,0,0.207-0.073,0.239-0.182c0.038-0.133-0.039-0.271-0.172-0.309C72.517,55.04,72.256,55,72,55L72,55z"/>
	<path style="fill:#472B29;" d="M85.883,56.5c-1.326,0-2.508,0.897-2.874,2.182c-0.038,0.133,0.039,0.271,0.172,0.309
		C83.205,58.997,83.228,59,83.25,59c0.109,0,0.209-0.072,0.24-0.182C83.795,57.748,84.779,57,85.883,57
		c0.117,0,0.23,0.014,0.342,0.029c0.012,0.002,0.023,0.003,0.035,0.003c0.121,0,0.229-0.092,0.246-0.217
		c0.019-0.137-0.077-0.263-0.214-0.281C86.158,56.516,86.022,56.5,85.883,56.5L85.883,56.5z"/>
</g>
<g>
	<path style="fill:#FFFFFF;" d="M16.5,53h-10C6.224,53,6,52.776,6,52.5S6.224,52,6.5,52h10c0.276,0,0.5,0.224,0.5,0.5
		S16.777,53,16.5,53z"/>
	<path style="fill:#FFFFFF;" d="M19.5,53h-1c-0.276,0-0.5-0.224-0.5-0.5s0.224-0.5,0.5-0.5h1c0.276,0,0.5,0.224,0.5,0.5
		S19.777,53,19.5,53z"/>
	<path style="fill:#FFFFFF;" d="M24.491,55H15.5c-0.276,0-0.5-0.224-0.5-0.5s0.224-0.5,0.5-0.5h8.991c0.276,0,0.5,0.224,0.5,0.5
		S24.767,55,24.491,55z"/>
	<path style="fill:#FFFFFF;" d="M13.5,55h-1c-0.276,0-0.5-0.224-0.5-0.5s0.224-0.5,0.5-0.5h1c0.276,0,0.5,0.224,0.5,0.5
		S13.777,55,13.5,55z"/>
	<path style="fill:#FFFFFF;" d="M10.5,55h-2C8.224,55,8,54.776,8,54.5S8.224,54,8.5,54h2c0.276,0,0.5,0.224,0.5,0.5
		S10.777,55,10.5,55z"/>
	<path style="fill:#FFFFFF;" d="M16.5,57h-2c-0.276,0-0.5-0.224-0.5-0.5s0.224-0.5,0.5-0.5h2c0.276,0,0.5,0.224,0.5,0.5
		S16.776,57,16.5,57z"/>
	<path style="fill:#FFFFFF;" d="M19.5,48c-0.177,0-0.823,0-1,0c-0.276,0-0.5,0.224-0.5,0.5c0,0.276,0.224,0.5,0.5,0.5
		c0.177,0,0.823,0,1,0c0.276,0,0.5-0.224,0.5-0.5C20,48.224,19.776,48,19.5,48z"/>
	<path style="fill:#FFFFFF;" d="M19.5,50c-0.177,0-4.823,0-5,0c-0.276,0-0.5,0.224-0.5,0.5c0,0.276,0.224,0.5,0.5,0.5
		c0.177,0,4.823,0,5,0c0.276,0,0.5-0.224,0.5-0.5C20,50.224,19.776,50,19.5,50z"/>
	<path style="fill:#FFFFFF;" d="M24.5,52c-0.177,0-2.823,0-3,0c-0.276,0-0.5,0.224-0.5,0.5c0,0.276,0.224,0.5,0.5,0.5
		c0.177,0,2.823,0,3,0c0.276,0,0.5-0.224,0.5-0.5C25,52.224,24.776,52,24.5,52z"/>
</g>
<g>
	<path style="fill:#FFFFFF;" d="M73.5,27h-10c-0.276,0-0.5-0.224-0.5-0.5s0.224-0.5,0.5-0.5h10c0.276,0,0.5,0.224,0.5,0.5
		S73.776,27,73.5,27z"/>
	<path style="fill:#FFFFFF;" d="M77.5,27h-2c-0.276,0-0.5-0.224-0.5-0.5s0.224-0.5,0.5-0.5h2c0.276,0,0.5,0.224,0.5,0.5
		S77.776,27,77.5,27z"/>
	<path style="fill:#FFFFFF;" d="M82.5,29h-10c-0.276,0-0.5-0.224-0.5-0.5s0.224-0.5,0.5-0.5h10c0.276,0,0.5,0.224,0.5,0.5
		S82.777,29,82.5,29z"/>
	<path style="fill:#FFFFFF;" d="M70.5,29h-1c-0.276,0-0.5-0.224-0.5-0.5s0.224-0.5,0.5-0.5h1c0.276,0,0.5,0.224,0.5,0.5
		S70.776,29,70.5,29z"/>
	<path style="fill:#FFFFFF;" d="M67.47,29H65.5c-0.276,0-0.5-0.224-0.5-0.5s0.224-0.5,0.5-0.5h1.97c0.276,0,0.5,0.224,0.5,0.5
		S67.746,29,67.47,29z"/>
	<path style="fill:#FFFFFF;" d="M76.5,25h-5c-0.276,0-0.5-0.224-0.5-0.5s0.224-0.5,0.5-0.5h5c0.276,0,0.5,0.224,0.5,0.5
		S76.777,25,76.5,25z"/>
	<path style="fill:#FFFFFF;" d="M73.5,31h-2c-0.276,0-0.5-0.224-0.5-0.5s0.224-0.5,0.5-0.5h2c0.276,0,0.5,0.224,0.5,0.5
		S73.776,31,73.5,31z"/>
</g>
<g>
	<g>
		<path style="fill:#472B29;" d="M30.5,28c-0.276,0-0.5-0.224-0.5-0.5v-3c0-0.276,0.224-0.5,0.5-0.5s0.5,0.224,0.5,0.5v3
			C31,27.776,30.776,28,30.5,28z"/>
		<path style="fill:#472B29;" d="M33.5,28c-0.276,0-0.5-0.224-0.5-0.5v-3c0-0.276,0.224-0.5,0.5-0.5s0.5,0.224,0.5,0.5v3
			C34,27.776,33.776,28,33.5,28z"/>
		<path style="fill:#472B29;" d="M36.5,28c-0.276,0-0.5-0.224-0.5-0.5v-3c0-0.276,0.224-0.5,0.5-0.5s0.5,0.224,0.5,0.5v3
			C37,27.776,36.776,28,36.5,28z"/>
		<path style="fill:#472B29;" d="M39.5,28c-0.276,0-0.5-0.224-0.5-0.5v-3c0-0.276,0.224-0.5,0.5-0.5s0.5,0.224,0.5,0.5v3
			C40,27.776,39.776,28,39.5,28z"/>
		<path style="fill:#472B29;" d="M42.5,28c-0.276,0-0.5-0.224-0.5-0.5v-3c0-0.276,0.224-0.5,0.5-0.5s0.5,0.224,0.5,0.5v3
			C43,27.776,42.776,28,42.5,28z"/>
		<path style="fill:#472B29;" d="M45.5,28c-0.276,0-0.5-0.224-0.5-0.5v-3c0-0.276,0.224-0.5,0.5-0.5s0.5,0.224,0.5,0.5v3
			C46,27.776,45.776,28,45.5,28z"/>
		<path style="fill:#472B29;" d="M48.5,28c-0.276,0-0.5-0.224-0.5-0.5v-3c0-0.276,0.224-0.5,0.5-0.5s0.5,0.224,0.5,0.5v3
			C49,27.776,48.776,28,48.5,28z"/>
	</g>
	<g>
		<path style="fill:#472B29;" d="M71.5,75c-0.276,0-0.5-0.224-0.5-0.5v-3c0-0.276,0.224-0.5,0.5-0.5s0.5,0.224,0.5,0.5v3
			C72,74.776,71.776,75,71.5,75z"/>
		<path style="fill:#472B29;" d="M74.5,75c-0.276,0-0.5-0.224-0.5-0.5v-3c0-0.276,0.224-0.5,0.5-0.5s0.5,0.224,0.5,0.5v3
			C75,74.776,74.776,75,74.5,75z"/>
		<path style="fill:#472B29;" d="M68.5,75c-0.276,0-0.5-0.224-0.5-0.5v-3c0-0.276,0.224-0.5,0.5-0.5s0.5,0.224,0.5,0.5v3
			C69,74.776,68.776,75,68.5,75z"/>
		<path style="fill:#472B29;" d="M65.5,75c-0.276,0-0.5-0.224-0.5-0.5v-3c0-0.276,0.224-0.5,0.5-0.5s0.5,0.224,0.5,0.5v3
			C66,74.776,65.776,75,65.5,75z"/>
		<path style="fill:#472B29;" d="M62.5,75c-0.276,0-0.5-0.224-0.5-0.5v-3c0-0.276,0.224-0.5,0.5-0.5s0.5,0.224,0.5,0.5v3
			C63,74.776,62.776,75,62.5,75z"/>
		<path style="fill:#472B29;" d="M59.5,75c-0.276,0-0.5-0.224-0.5-0.5v-3c0-0.276,0.224-0.5,0.5-0.5s0.5,0.224,0.5,0.5v3
			C60,74.776,59.776,75,59.5,75z"/>
		<path style="fill:#472B29;" d="M56.5,75c-0.276,0-0.5-0.224-0.5-0.5v-3c0-0.276,0.224-0.5,0.5-0.5s0.5,0.224,0.5,0.5v3
			C57,74.776,56.776,75,56.5,75z"/>
	</g>
	<g>
		<path style="fill:#355CA8;" d="M52.5,37.5c-2.427,0-4.4,1.974-4.4,4.4v15.2c0,2.426,1.974,4.4,4.4,4.4s4.4-1.974,4.4-4.4V41.9
			C56.9,39.474,54.927,37.5,52.5,37.5z"/>
		<path style="fill:#649ED8;" d="M56.5,71.5h18V43c0-3.033-2.468-5.5-5.5-5.5H53.8c1.289,0.798,2.644,2.163,2.689,4.39L56.5,71.5z"
			/>
		<path style="fill:#C6DFF1;" d="M57.5,37.5c2.206,0,4,1.794,4,4v21h4V63h3v-0.5h1v-21c0-2.206-1.794-4-4-4H57.5z"/>
		<path style="fill:#472B29;" d="M69.5,63h-1c-0.276,0-0.5-0.224-0.5-0.5s0.224-0.5,0.5-0.5H69V41.5c0-1.93-1.57-3.5-3.5-3.5
			c-0.276,0-0.5-0.224-0.5-0.5s0.224-0.5,0.5-0.5c2.481,0,4.5,2.019,4.5,4.5v21C70,62.776,69.776,63,69.5,63z"/>
		<path style="fill:#472B29;" d="M65.5,63h-4c-0.276,0-0.5-0.224-0.5-0.5v-21c0-1.93-1.57-3.5-3.5-3.5c-0.276,0-0.5-0.224-0.5-0.5
			s0.224-0.5,0.5-0.5c2.481,0,4.5,2.019,4.5,4.5V62h3.5c0.276,0,0.5,0.224,0.5,0.5S65.776,63,65.5,63z"/>
	</g>
	<g>
		<path style="fill:#649ED8;" d="M30.5,28.5V55c0,3.59,2.91,6.5,6.5,6.5h15v-0.4h0c-1.933,0-3.5-1.567-3.5-3.5V28.5
			c0-0.552-0.448-1-1-1h-16C30.948,27.5,30.5,27.948,30.5,28.5z"/>
		<path style="fill:#C6DFF1;" d="M43.5,57.5v-21h-8v2H35v2h0.5v1H35v2h0.5v3H35v3h0.5v8c0,2.206,1.794,4,4,4h8
			C45.294,61.5,43.5,59.706,43.5,57.5z"/>
		<path style="fill:#472B29;" d="M39.5,62c-2.481,0-4.5-2.019-4.5-4.5v-8c0-0.276,0.224-0.5,0.5-0.5s0.5,0.224,0.5,0.5v8
			c0,1.93,1.57,3.5,3.5,3.5c0.276,0,0.5,0.224,0.5,0.5S39.776,62,39.5,62z"/>
		<path style="fill:#472B29;" d="M35.5,47c-0.276,0-0.5-0.224-0.5-0.5v-3c0-0.276,0.224-0.5,0.5-0.5s0.5,0.224,0.5,0.5v3
			C36,46.776,35.776,47,35.5,47z"/>
		<path style="fill:#472B29;" d="M35.5,42c-0.276,0-0.5-0.224-0.5-0.5v-1c0-0.276,0.224-0.5,0.5-0.5s0.5,0.224,0.5,0.5v1
			C36,41.776,35.776,42,35.5,42z"/>
		<path style="fill:#472B29;" d="M47.5,62c-2.481,0-4.5-2.019-4.5-4.5V37h-7v1.5c0,0.276-0.224,0.5-0.5,0.5S35,38.776,35,38.5v-2
			c0-0.276,0.224-0.5,0.5-0.5h8c0.276,0,0.5,0.224,0.5,0.5v21c0,1.93,1.57,3.5,3.5,3.5c0.276,0,0.5,0.224,0.5,0.5S47.776,62,47.5,62
			z"/>
	</g>
	<path style="fill:#472B29;" d="M69,37H52.375l0.006,0.012c-1.325,0.032-2.518,0.583-3.381,1.466V27.5c0-0.276-0.224-0.5-0.5-0.5
		h-18c-0.276,0-0.5,0.224-0.5,0.5V56c0,3.314,2.686,6,6,6h16.5c1.373,0,2.61-0.568,3.5-1.478V71.5c0,0.276,0.224,0.5,0.5,0.5h18
		c0.276,0,0.5-0.224,0.5-0.5V43C75,39.686,72.314,37,69,37z M36,60.6c-2.536,0-4.6-2.064-4.6-4.6V28.4h16.2v28.7
		c0,1.373,0.568,2.61,1.478,3.5H36z M52.5,60.6c-1.93,0-3.5-1.57-3.5-3.5V41.9h0c0-1.93,1.57-3.5,3.5-3.5c1.93,0,3.5,1.57,3.5,3.5h0
		v15.2C56,59.03,54.43,60.6,52.5,60.6z M73.6,70.6H57.4V41.9c0-1.373-0.568-2.61-1.478-3.5H69c2.536,0,4.6,2.064,4.6,4.6V70.6z"/>
</g>
<g>
	<path style="fill:#FDFCEF;" d="M36.5,71.5c0,0,1.567,0,3.5,0s3.5-1.567,3.5-3.5c0-1.781-1.335-3.234-3.055-3.455
		C40.473,64.366,40.5,64.187,40.5,64c0-1.933-1.567-3.5-3.5-3.5c-1.032,0-1.95,0.455-2.59,1.165
		c-0.384-1.808-1.987-3.165-3.91-3.165c-2.209,0-4,1.791-4,4c0,0.191,0.03,0.374,0.056,0.558C26.128,62.714,25.592,62.5,25,62.5
		c-1.228,0-2.245,0.887-2.455,2.055C22.366,64.527,22.187,64.5,22,64.5c-1.933,0-3.5,1.567-3.5,3.5s1.567,3.5,3.5,3.5s7.5,0,7.5,0
		V72h7V71.5z"/>
	<path style="fill:#472B29;" d="M38.25,67C38.112,67,38,66.888,38,66.75c0-1.223,0.995-2.218,2.218-2.218
		c0.034,0.009,0.737-0.001,1.244,0.136c0.133,0.036,0.212,0.173,0.176,0.306c-0.036,0.134-0.173,0.213-0.306,0.176
		c-0.444-0.12-1.1-0.12-1.113-0.118c-0.948,0-1.719,0.771-1.719,1.718C38.5,66.888,38.388,67,38.25,67z"/>
	<circle style="fill:#472B29;" cx="31.5" cy="71.5" r="0.5"/>
	<path style="fill:#472B29;" d="M40,72h-3.5c-0.276,0-0.5-0.224-0.5-0.5s0.224-0.5,0.5-0.5H40c1.654,0,3-1.346,3-3
		c0-1.496-1.125-2.768-2.618-2.959c-0.134-0.018-0.255-0.088-0.336-0.196s-0.115-0.244-0.094-0.377C39.975,64.314,40,64.16,40,64
		c0-1.654-1.346-3-3-3c-0.85,0-1.638,0.355-2.219,1c-0.125,0.139-0.321,0.198-0.5,0.148c-0.182-0.049-0.321-0.195-0.36-0.379
		C33.58,60.165,32.141,59,30.5,59c-1.93,0-3.5,1.57-3.5,3.5c0,0.143,0.021,0.28,0.041,0.418c0.029,0.203-0.063,0.438-0.242,0.54
		c-0.179,0.102-0.396,0.118-0.556-0.01C25.878,63.155,25.449,63,25,63c-0.966,0-1.792,0.691-1.963,1.644
		c-0.048,0.267-0.296,0.446-0.569,0.405C22.314,65.025,22.16,65,22,65c-1.654,0-3,1.346-3,3s1.346,3,3,3h7.5
		c0.276,0,0.5,0.224,0.5,0.5S29.776,72,29.5,72H22c-2.206,0-4-1.794-4-4s1.794-4,4-4c0.059,0,0.116,0.002,0.174,0.006
		C22.588,62.82,23.711,62,25,62c0.349,0,0.689,0.061,1.011,0.18C26.176,59.847,28.126,58,30.5,58c1.831,0,3.466,1.127,4.153,2.774
		C35.333,60.276,36.155,60,37,60c2.206,0,4,1.794,4,4c0,0.048-0.001,0.095-0.004,0.142C42.739,64.59,44,66.169,44,68
		C44,70.206,42.206,72,40,72z"/>
	<path style="fill:#472B29;" d="M34.5,71c-0.159,0-0.841,0-1,0c-0.276,0-0.5,0.224-0.5,0.5c0,0.276,0.224,0.5,0.5,0.5
		c0.159,0,0.841,0,1,0c0.276,0,0.5-0.224,0.5-0.5C35,71.224,34.776,71,34.5,71z"/>
</g>
</svg>
