<?xml version="1.0" encoding="iso-8859-1"?>
<!-- Generator: Adobe Illustrator 22.1.0, SVG Export Plug-In . SVG Version: 6.00 Build 0)  -->
<svg version="1.1" id="Layer_1" xmlns="http://www.w3.org/2000/svg" xmlns:xlink="http://www.w3.org/1999/xlink" x="0px" y="0px"
	 viewBox="0 0 100 100" style="enable-background:new 0 0 100 100;" xml:space="preserve">
<path style="fill:#C7EDE6;" d="M87.215,56.71C88.35,54.555,89,52.105,89,49.5c0-6.621-4.159-12.257-10.001-14.478
	C78.999,35.015,79,35.008,79,35c0-11.598-9.402-21-21-21c-9.784,0-17.981,6.701-20.313,15.757C36.211,29.272,34.638,29,33,29
	c-7.692,0-14.023,5.793-14.89,13.252C12.906,43.353,9,47.969,9,53.5C9,59.851,14.149,65,20.5,65c0.177,0,0.352-0.012,0.526-0.022
	C21.022,65.153,21,65.324,21,65.5C21,76.822,30.178,86,41.5,86c6.437,0,12.175-2.972,15.934-7.614C59.612,80.611,62.64,82,66,82
	c4.65,0,8.674-2.65,10.666-6.518C77.718,75.817,78.837,76,80,76c6.075,0,11-4.925,11-11C91,61.689,89.53,58.727,87.215,56.71z"/>
<g>
	<path style="fill:#FDFCEF;" d="M70,61h6.5v-0.5c0,0,8.242,0,9.5,0c2.485,0,4.5-2.015,4.5-4.5c0-2.333-1.782-4.229-4.055-4.455
		C86.467,51.364,86.5,51.187,86.5,51c0-2.485-2.015-4.5-4.5-4.5c-1.438,0-2.703,0.686-3.527,1.736
		C78.333,45.6,76.171,43.5,73.5,43.5c-2.761,0-5,2.239-5,5c0,0.446,0.077,0.87,0.187,1.282C68.045,49.005,67.086,48.5,66,48.5
		c-1.781,0-3.234,1.335-3.455,3.055C62.364,51.533,62.187,51.5,62,51.5c-2.485,0-4.5,2.015-4.5,4.5s2.015,4.5,4.5,4.5s8,0,8,0V61z"
		/>
	<path style="fill:#472B29;" d="M73.5,43c-3.033,0-5.5,2.467-5.5,5.5c0,0.016,0,0.031,0,0.047C67.398,48.192,66.71,48,66,48
		c-1.831,0-3.411,1.261-3.858,3.005C62.095,51.002,62.048,51,62,51c-2.757,0-5,2.243-5,5s2.243,5,5,5h8.5c0.276,0,0.5-0.224,0.5-0.5
		S70.776,60,70.5,60H62c-2.206,0-4-1.794-4-4s1.794-4,4-4c0.117,0,0.23,0.017,0.343,0.032l0.141,0.019
		c0.021,0.003,0.041,0.004,0.062,0.004c0.246,0,0.462-0.185,0.495-0.437C63.232,50.125,64.504,49,66,49
		c0.885,0,1.723,0.401,2.301,1.1c0.098,0.118,0.241,0.182,0.386,0.182c0.078,0,0.156-0.018,0.228-0.056
		c0.209-0.107,0.314-0.346,0.254-0.573C69.054,49.218,69,48.852,69,48.5c0-2.481,2.019-4.5,4.5-4.5c2.381,0,4.347,1.872,4.474,4.263
		c0.011,0.208,0.15,0.387,0.349,0.45c0.05,0.016,0.101,0.024,0.152,0.024c0.15,0,0.296-0.069,0.392-0.192
		C79.638,47.563,80.779,47,82,47c2.206,0,4,1.794,4,4c0,0.117-0.017,0.23-0.032,0.343l-0.019,0.141
		c-0.016,0.134,0.022,0.268,0.106,0.373s0.207,0.172,0.34,0.185C88.451,52.247,90,53.949,90,56c0,2.206-1.794,4-4,4h-9.5
		c-0.276,0-0.5,0.224-0.5,0.5s0.224,0.5,0.5,0.5H86c2.757,0,5-2.243,5-5c0-2.397-1.689-4.413-4.003-4.877
		C86.999,51.082,87,51.041,87,51c0-2.757-2.243-5-5-5c-1.176,0-2.293,0.416-3.183,1.164C78.219,44.76,76.055,43,73.5,43L73.5,43z"/>
	<path style="fill:#472B29;" d="M85.883,51.5c-1.326,0-2.508,0.897-2.874,2.182c-0.038,0.133,0.039,0.271,0.172,0.309
		C83.205,53.997,83.228,54,83.25,54c0.109,0,0.209-0.072,0.24-0.182C83.795,52.748,84.779,52,85.883,52
		c0.117,0,0.23,0.014,0.342,0.029c0.012,0.002,0.023,0.003,0.035,0.003c0.121,0,0.229-0.092,0.246-0.217
		c0.019-0.137-0.077-0.263-0.214-0.281C86.158,51.516,86.022,51.5,85.883,51.5L85.883,51.5z"/>
	<path style="fill:#472B29;" d="M70.75,50.309c-0.045,0-0.087,0.012-0.123,0.032c-0.006,0.004-0.042,0.022-0.053,0.028
		c-0.738,0.408-1.294,1.121-1.487,1.972C68.72,52.119,68.301,52,67.875,52c-1.202,0-2.198,0.897-2.353,2.068
		C65.319,54.022,65.126,54,64.938,54c-1.529,0-2.811,1.2-2.918,2.732C62.01,56.87,62.114,56.99,62.251,57c0.006,0,0.012,0,0.018,0
		c0.13,0,0.24-0.101,0.249-0.232c0.089-1.271,1.151-2.268,2.419-2.268c0.229,0,0.47,0.042,0.738,0.127
		c0.022,0.007,0.044,0.01,0.067,0.01c0.055,0,0.109-0.02,0.156-0.054C65.962,54.537,66,54.455,66,54.375
		c0-1.034,0.841-1.875,1.875-1.875c0.447,0,0.885,0.168,1.231,0.473c0.047,0.041,0.106,0.063,0.165,0.063
		c0.032,0,0.064-0.006,0.093-0.019c0.088-0.035,0.148-0.117,0.155-0.212c0.069-0.88,0.596-1.629,1.332-2.019
		c0,0,0.015-0.006,0.022-0.01C70.949,50.733,71,50.652,71,50.559C71,50.421,70.888,50.309,70.75,50.309z"/>
</g>
<g>
	<path style="fill:#FFFFFF;" d="M15.5,51h-10C5.224,51,5,50.776,5,50.5S5.224,50,5.5,50h10c0.276,0,0.5,0.224,0.5,0.5
		S15.777,51,15.5,51z"/>
	<path style="fill:#FFFFFF;" d="M18.5,51h-1c-0.276,0-0.5-0.224-0.5-0.5s0.224-0.5,0.5-0.5h1c0.276,0,0.5,0.224,0.5,0.5
		S18.777,51,18.5,51z"/>
	<path style="fill:#FFFFFF;" d="M23.491,53H14.5c-0.276,0-0.5-0.224-0.5-0.5s0.224-0.5,0.5-0.5h8.991c0.276,0,0.5,0.224,0.5,0.5
		S23.767,53,23.491,53z"/>
	<path style="fill:#FFFFFF;" d="M12.5,53h-1c-0.276,0-0.5-0.224-0.5-0.5s0.224-0.5,0.5-0.5h1c0.276,0,0.5,0.224,0.5,0.5
		S12.777,53,12.5,53z"/>
	<path style="fill:#FFFFFF;" d="M9.5,53h-2C7.224,53,7,52.776,7,52.5S7.224,52,7.5,52h2c0.276,0,0.5,0.224,0.5,0.5S9.777,53,9.5,53z
		"/>
	<path style="fill:#FFFFFF;" d="M15.5,55h-2c-0.276,0-0.5-0.224-0.5-0.5s0.224-0.5,0.5-0.5h2c0.276,0,0.5,0.224,0.5,0.5
		S15.776,55,15.5,55z"/>
	<path style="fill:#FFFFFF;" d="M18.5,46c-0.177,0-0.823,0-1,0c-0.276,0-0.5,0.224-0.5,0.5s0.224,0.5,0.5,0.5c0.177,0,0.823,0,1,0
		c0.276,0,0.5-0.224,0.5-0.5S18.776,46,18.5,46z"/>
	<path style="fill:#FFFFFF;" d="M18.5,48c-0.177,0-4.823,0-5,0c-0.276,0-0.5,0.224-0.5,0.5s0.224,0.5,0.5,0.5c0.177,0,4.823,0,5,0
		c0.276,0,0.5-0.224,0.5-0.5S18.776,48,18.5,48z"/>
	<path style="fill:#FFFFFF;" d="M23.5,50c-0.177,0-2.823,0-3,0c-0.276,0-0.5,0.224-0.5,0.5s0.224,0.5,0.5,0.5c0.177,0,2.823,0,3,0
		c0.276,0,0.5-0.224,0.5-0.5S23.776,50,23.5,50z"/>
</g>
<g>
	<path style="fill:#FFFFFF;" d="M66.5,19h-10c-0.276,0-0.5-0.224-0.5-0.5s0.224-0.5,0.5-0.5h10c0.276,0,0.5,0.224,0.5,0.5
		S66.776,19,66.5,19z"/>
	<path style="fill:#FFFFFF;" d="M72.5,19h-4c-0.276,0-0.5-0.224-0.5-0.5s0.224-0.5,0.5-0.5h4c0.276,0,0.5,0.224,0.5,0.5
		S72.776,19,72.5,19z"/>
	<path style="fill:#FFFFFF;" d="M75.5,21h-10c-0.276,0-0.5-0.224-0.5-0.5s0.224-0.5,0.5-0.5h10c0.276,0,0.5,0.224,0.5,0.5
		S75.777,21,75.5,21z"/>
	<path style="fill:#FFFFFF;" d="M63.5,21h-1c-0.276,0-0.5-0.224-0.5-0.5s0.224-0.5,0.5-0.5h1c0.276,0,0.5,0.224,0.5,0.5
		S63.776,21,63.5,21z"/>
	<path style="fill:#FFFFFF;" d="M60.47,21H58.5c-0.276,0-0.5-0.224-0.5-0.5s0.224-0.5,0.5-0.5h1.97c0.276,0,0.5,0.224,0.5,0.5
		S60.746,21,60.47,21z"/>
	<path style="fill:#FFFFFF;" d="M69.5,17h-5c-0.276,0-0.5-0.224-0.5-0.5s0.224-0.5,0.5-0.5h5c0.276,0,0.5,0.224,0.5,0.5
		S69.777,17,69.5,17z"/>
	<path style="fill:#FFFFFF;" d="M66.5,23h-2c-0.276,0-0.5-0.224-0.5-0.5s0.224-0.5,0.5-0.5h2c0.276,0,0.5,0.224,0.5,0.5
		S66.776,23,66.5,23z"/>
</g>
<g>
	<path style="fill:#FDFCEF;" d="M36.5,73.5c0,0,1.567,0,3.5,0s3.5-1.567,3.5-3.5c0-1.781-1.335-3.234-3.055-3.455
		C40.473,66.366,40.5,66.187,40.5,66c0-1.933-1.567-3.5-3.5-3.5c-1.032,0-1.95,0.455-2.59,1.165
		c-0.384-1.808-1.987-3.165-3.91-3.165c-2.209,0-4,1.791-4,4c0,0.191,0.03,0.374,0.056,0.558C26.128,64.714,25.592,64.5,25,64.5
		c-1.228,0-2.245,0.887-2.455,2.055C22.366,66.527,22.187,66.5,22,66.5c-1.933,0-3.5,1.567-3.5,3.5s1.567,3.5,3.5,3.5s5.5,0,5.5,0
		V74h9V73.5z"/>
	<path style="fill:#472B29;" d="M38.25,69C38.112,69,38,68.888,38,68.75c0-1.223,0.995-2.218,2.218-2.218
		c0.034,0.009,0.737-0.001,1.244,0.136c0.133,0.036,0.212,0.173,0.176,0.306c-0.036,0.134-0.173,0.213-0.306,0.176
		c-0.444-0.12-1.1-0.12-1.113-0.118c-0.948,0-1.719,0.771-1.719,1.718C38.5,68.888,38.388,69,38.25,69z"/>
	<path style="fill:#472B29;" d="M40,74h-3.5c-0.276,0-0.5-0.224-0.5-0.5s0.224-0.5,0.5-0.5H40c1.654,0,3-1.346,3-3
		c0-1.496-1.125-2.768-2.618-2.959c-0.134-0.018-0.255-0.088-0.336-0.196s-0.115-0.244-0.094-0.377C39.975,66.314,40,66.16,40,66
		c0-1.654-1.346-3-3-3c-0.85,0-1.638,0.355-2.219,1c-0.125,0.139-0.321,0.198-0.5,0.148c-0.182-0.049-0.321-0.195-0.36-0.379
		C33.58,62.165,32.141,61,30.5,61c-1.93,0-3.5,1.57-3.5,3.5c0,0.143,0.021,0.28,0.041,0.418c0.029,0.203-0.063,0.438-0.242,0.54
		s-0.396,0.118-0.556-0.01C25.878,65.155,25.449,65,25,65c-0.966,0-1.792,0.691-1.963,1.644c-0.048,0.267-0.296,0.446-0.569,0.405
		C22.314,67.025,22.16,67,22,67c-1.654,0-3,1.346-3,3s1.346,3,3,3h5.5c0.276,0,0.5,0.224,0.5,0.5S27.776,74,27.5,74H22
		c-2.206,0-4-1.794-4-4s1.794-4,4-4c0.059,0,0.116,0.002,0.174,0.006C22.588,64.82,23.711,64,25,64c0.349,0,0.689,0.061,1.011,0.18
		C26.176,61.847,28.126,60,30.5,60c1.831,0,3.466,1.127,4.153,2.774C35.333,62.276,36.155,62,37,62c2.206,0,4,1.794,4,4
		c0,0.048-0.001,0.095-0.004,0.142C42.739,66.59,44,68.169,44,70C44,72.206,42.206,74,40,74z"/>
	<path style="fill:#472B29;" d="M34.5,73c-0.159,0-0.841,0-1,0c-0.276,0-0.5,0.224-0.5,0.5s0.224,0.5,0.5,0.5c0.159,0,0.841,0,1,0
		c0.276,0,0.5-0.224,0.5-0.5S34.776,73,34.5,73z"/>
</g>
<g>
	<g>
		<path style="fill:#EE3E54;" d="M31.5,26.5c0-0.552-0.448-1-1-1s-1,0.448-1,1c0,0.481,0,10.521,0,11c0,0.552,0.448,1,1,1
			s1-0.448,1-1C31.5,37.021,31.5,26.981,31.5,26.5z"/>
		<path style="fill:#472B29;" d="M30.5,39c-0.827,0-1.5-0.673-1.5-1.5v-11c0-0.827,0.673-1.5,1.5-1.5s1.5,0.673,1.5,1.5v11
			C32,38.327,31.327,39,30.5,39z M30.5,26c-0.275,0-0.5,0.225-0.5,0.5v11c0,0.275,0.225,0.5,0.5,0.5s0.5-0.225,0.5-0.5v-11
			C31,26.225,30.775,26,30.5,26z"/>
		<path style="fill:#472B29;" d="M24,35.999c-0.512,0-1.024-0.195-1.414-0.585c-0.779-0.779-0.779-2.049,0-2.828
			c0.606-0.606,6.027-4.108,6.643-4.506c0.199-0.128,0.458-0.101,0.625,0.066c0.167,0.166,0.194,0.427,0.066,0.625
			c-0.397,0.615-3.899,6.036-4.506,6.643C25.024,35.804,24.512,35.999,24,35.999z M27.793,30.207
			c-2.035,1.335-4.203,2.789-4.5,3.086c-0.39,0.39-0.39,1.024,0,1.414c0.391,0.391,1.023,0.391,1.414,0
			C25.004,34.41,26.458,32.242,27.793,30.207z"/>
		<path style="fill:#472B29;" d="M30.5,76c-0.276,0-0.5-0.224-0.5-0.5v-37c0-0.276,0.224-0.5,0.5-0.5s0.5,0.224,0.5,0.5v37
			C31,75.776,30.776,76,30.5,76z"/>
		<path style="fill:#472B29;" d="M33.5,72h-6c-0.276,0-0.5-0.224-0.5-0.5s0.224-0.5,0.5-0.5h6c0.276,0,0.5,0.224,0.5,0.5
			S33.776,72,33.5,72z"/>
		<path style="fill:#EE3E54;" d="M32.5,70.5c0,0.411,0,1,0,1h-4c0,0,0,0.105,0-1s0.895-2,2-2S32.5,69.395,32.5,70.5z"/>
		<path style="fill:#472B29;" d="M28.5,72c-0.276,0-0.5-0.222-0.5-0.497V70.5c0-1.379,1.121-2.5,2.5-2.5s2.5,1.121,2.5,2.5v1
			c0,0.276-0.224,0.5-0.5,0.5h-3.964C28.524,72.001,28.513,72,28.5,72z M29,71h3v-0.5c0-0.827-0.673-1.5-1.5-1.5S29,69.673,29,70.5
			V71z"/>
	</g>
	<g>
		<path style="fill:#472B29;" d="M73.5,76c-0.276,0-0.5-0.224-0.5-0.5v-37c0-0.276,0.224-0.5,0.5-0.5s0.5,0.224,0.5,0.5v37
			C74,75.776,73.776,76,73.5,76z"/>
		<path style="fill:#472B29;" d="M76.5,72h-6c-0.276,0-0.5-0.224-0.5-0.5s0.224-0.5,0.5-0.5h6c0.276,0,0.5,0.224,0.5,0.5
			S76.776,72,76.5,72z"/>
		<path style="fill:#EE3E54;" d="M72.5,26.5c0-0.552,0.448-1,1-1s1,0.448,1,1c0,0.481,0,10.521,0,11c0,0.552-0.448,1-1,1
			s-1-0.448-1-1C72.5,37.021,72.5,26.981,72.5,26.5z"/>
		<path style="fill:#472B29;" d="M73.5,39c-0.827,0-1.5-0.673-1.5-1.5v-11c0-0.827,0.673-1.5,1.5-1.5s1.5,0.673,1.5,1.5v11
			C75,38.327,74.327,39,73.5,39z M73.5,26c-0.275,0-0.5,0.225-0.5,0.5v11c0,0.275,0.225,0.5,0.5,0.5s0.5-0.225,0.5-0.5v-11
			C74,26.225,73.775,26,73.5,26z"/>
		<path style="fill:#472B29;" d="M80,35.999c-0.512,0-1.024-0.195-1.414-0.585c-0.606-0.606-4.108-6.027-4.506-6.643
			c-0.128-0.198-0.101-0.459,0.066-0.625c0.167-0.167,0.425-0.194,0.625-0.066c0.615,0.397,6.036,3.899,6.643,4.506
			c0.779,0.779,0.779,2.049,0,2.828C81.024,35.804,80.512,35.999,80,35.999z M76.207,30.207c1.335,2.035,2.789,4.203,3.086,4.5
			c0.391,0.391,1.023,0.391,1.414,0c0.39-0.39,0.39-1.024,0-1.414C80.41,32.996,78.242,31.542,76.207,30.207z"/>
		<path style="fill:#EE3E54;" d="M71.5,70.5c0,0.411,0,1,0,1h4v-1c0-1.105-0.895-2-2-2S71.5,69.395,71.5,70.5z"/>
		<path style="fill:#472B29;" d="M75.5,72h-4c-0.276,0-0.5-0.224-0.5-0.5v-1c0-1.379,1.121-2.5,2.5-2.5s2.5,1.121,2.5,2.5v1
			C76,71.776,75.776,72,75.5,72z M72,71h3v-0.5c0-0.827-0.673-1.5-1.5-1.5S72,69.673,72,70.5V71z"/>
	</g>
	<g>
		<path style="fill:#E8A370;" d="M43.5,24.5c-1.239,0-4,4.432-4,6.946c0,0.303,0.048,1.02,0.115,2.01
			c0.198,2.955,0.567,8.454,0.577,15.737c0.01,7.606-0.373,14.889-0.579,18.801c-0.067,1.279-0.113,2.141-0.113,2.448
			c0,2.224,1.794,4.032,4,4.032s4-1.809,4-4.032c0-0.308-0.046-1.169-0.113-2.448c-0.206-3.912-0.589-11.194-0.579-18.801
			c0.01-7.283,0.379-12.782,0.577-15.737c0.067-0.99,0.115-1.707,0.115-2.01C47.5,28.932,44.739,24.5,43.5,24.5z"/>
		<path style="fill:#472B29;" d="M43.41,25.39L43.41,25.39L43.41,25.39L43.41,25.39 M43.5,25.427c0.974,0.49,3.1,4.079,3.1,6.019
			c0,0.273-0.05,1.014-0.113,1.951c-0.199,2.965-0.57,8.483-0.58,15.795c-0.01,7.63,0.374,14.928,0.58,18.849
			c0.063,1.188,0.112,2.127,0.112,2.401c0,1.727-1.391,3.132-3.1,3.132s-3.1-1.405-3.1-3.132c0-0.274,0.049-1.213,0.112-2.401
			c0.206-3.921,0.59-11.219,0.58-18.849c-0.01-7.312-0.38-12.83-0.58-15.795C40.45,32.46,40.4,31.719,40.4,31.446
			C40.4,29.506,42.526,25.917,43.5,25.427 M43.5,24c-1.731,0-4.5,4.943-4.5,7.446c0,1.22,0.679,7.899,0.692,17.748
			C39.706,59.382,39,69.222,39,70.442c0,2.503,2.015,4.532,4.5,4.532s4.5-2.029,4.5-4.532c0-1.22-0.706-11.061-0.692-21.248
			C47.321,39.345,48,32.666,48,31.446C48,28.943,45.231,24,43.5,24L43.5,24z"/>
		<path style="fill:#C6DFF1;" d="M48.5,50.5h-10l0.002-2.123c0-1.589,1.288-2.877,2.877-2.877h4.245
			c1.589,0,2.877,1.288,2.877,2.877L48.5,50.5L48.5,50.5z"/>
		<path style="fill:#472B29;" d="M48.5,51h-10c-0.133,0-0.26-0.053-0.354-0.146S38,50.632,38,50.5l0.002-2.123
			c0-1.862,1.515-3.377,3.377-3.377h4.244C47.485,45,49,46.515,49,48.377V50.5C49,50.776,48.776,51,48.5,51z M39,50h9v-1.623
			C48,47.066,46.934,46,45.623,46h-4.244c-1.311,0-2.377,1.066-2.377,2.377L39,50z"/>
		<polygon style="fill:#C6DFF1;" points="42.375,59.375 44.625,59.375 44.375,63.625 42.625,63.625 		"/>
		<path style="fill:#472B29;" d="M44.375,64h-1.75c-0.198,0-0.362-0.154-0.374-0.353l-0.25-4.25
			c-0.007-0.104,0.03-0.204,0.102-0.279C42.173,59.043,42.271,59,42.375,59h2.25c0.104,0,0.202,0.043,0.272,0.118
			c0.071,0.075,0.108,0.176,0.102,0.279l-0.25,4.25C44.737,63.846,44.573,64,44.375,64z M42.979,63.25h1.043l0.206-3.5h-1.455
			L42.979,63.25z"/>
		<path style="fill:#472B29;" d="M43.5,58c-0.276,0-0.5-0.224-0.5-0.5v-5c0-0.276,0.224-0.5,0.5-0.5s0.5,0.224,0.5,0.5v5
			C44,57.776,43.776,58,43.5,58z"/>
	</g>
	<g>
		<path style="fill:#E8A370;" d="M60.5,24.5c-1.239,0-4,4.432-4,6.946c0,0.303,0.048,1.02,0.115,2.01
			c0.198,2.955,0.567,8.454,0.577,15.737c0.01,7.606-0.373,14.889-0.579,18.801c-0.067,1.279-0.113,2.141-0.113,2.448
			c0,2.224,1.794,4.032,4,4.032s4-1.809,4-4.032c0-0.308-0.046-1.169-0.113-2.448c-0.206-3.912-0.589-11.194-0.579-18.801
			c0.01-7.283,0.379-12.782,0.577-15.737c0.067-0.99,0.115-1.707,0.115-2.01C64.5,28.932,61.739,24.5,60.5,24.5z"/>
		<path style="fill:#472B29;" d="M60.41,25.39L60.41,25.39L60.41,25.39L60.41,25.39 M60.5,25.427c0.974,0.49,3.1,4.079,3.1,6.019
			c0,0.273-0.05,1.014-0.113,1.951c-0.199,2.965-0.57,8.483-0.58,15.795c-0.01,7.63,0.374,14.928,0.58,18.849
			c0.063,1.188,0.112,2.127,0.112,2.401c0,1.727-1.391,3.132-3.1,3.132s-3.1-1.405-3.1-3.132c0-0.274,0.049-1.213,0.112-2.401
			c0.206-3.921,0.59-11.219,0.58-18.849c-0.01-7.312-0.38-12.83-0.58-15.795C57.45,32.46,57.4,31.719,57.4,31.446
			C57.4,29.506,59.526,25.917,60.5,25.427 M60.5,24c-1.731,0-4.5,4.943-4.5,7.446c0,1.22,0.679,7.899,0.692,17.748
			C56.706,59.382,56,69.222,56,70.442c0,2.503,2.015,4.532,4.5,4.532s4.5-2.029,4.5-4.532c0-1.22-0.706-11.061-0.692-21.248
			C64.321,39.345,65,32.666,65,31.446C65,28.943,62.231,24,60.5,24L60.5,24z"/>
		<path style="fill:#C6DFF1;" d="M55.5,50.5h10l-0.002-2.123c0-1.589-1.288-2.877-2.877-2.877h-4.245
			c-1.589,0-2.877,1.288-2.877,2.877L55.5,50.5L55.5,50.5z"/>
		<path style="fill:#472B29;" d="M65.5,51h-10c-0.276,0-0.5-0.224-0.5-0.5v-2.123C55,46.515,56.515,45,58.377,45h4.244
			c1.862,0,3.377,1.515,3.377,3.377L66,50.5c0,0.132-0.053,0.26-0.146,0.354S65.633,51,65.5,51z M56,50h9l-0.002-1.623
			c0-1.311-1.066-2.377-2.377-2.377h-4.244C57.066,46,56,47.066,56,48.377V50z"/>
		<polygon style="fill:#C6DFF1;" points="61.625,59.375 59.375,59.375 59.625,63.625 61.375,63.625 		"/>
		<path style="fill:#472B29;" d="M61.375,64h-1.75c-0.198,0-0.362-0.154-0.374-0.353l-0.25-4.25
			c-0.007-0.104,0.03-0.204,0.102-0.279C59.173,59.043,59.271,59,59.375,59h2.25c0.104,0,0.202,0.043,0.272,0.118
			c0.071,0.075,0.108,0.176,0.102,0.279l-0.25,4.25C61.737,63.846,61.573,64,61.375,64z M59.979,63.25h1.043l0.206-3.5h-1.455
			L59.979,63.25z"/>
		<path style="fill:#472B29;" d="M60.5,58c-0.276,0-0.5-0.224-0.5-0.5v-5c0-0.276,0.224-0.5,0.5-0.5s0.5,0.224,0.5,0.5v5
			C61,57.776,60.776,58,60.5,58z"/>
	</g>
</g>
</svg>
