<?xml version="1.0" encoding="iso-8859-1"?>
<!-- Generator: Adobe Illustrator 22.1.0, SVG Export Plug-In . SVG Version: 6.00 Build 0)  -->
<svg version="1.1" id="Layer_1" xmlns="http://www.w3.org/2000/svg" xmlns:xlink="http://www.w3.org/1999/xlink" x="0px" y="0px"
	 viewBox="0 0 100 100" style="enable-background:new 0 0 100 100;" xml:space="preserve">
<path style="fill:#C7EDE6;" d="M87.215,56.71C88.35,54.555,89,52.105,89,49.5c0-6.621-4.159-12.257-10.001-14.478
	C78.999,35.015,79,35.008,79,35c0-11.598-9.402-21-21-21c-9.784,0-17.981,6.701-20.313,15.757C36.211,29.272,34.638,29,33,29
	c-7.692,0-14.023,5.793-14.89,13.252C12.906,43.353,9,47.969,9,53.5C9,59.851,14.149,65,20.5,65c0.177,0,0.352-0.012,0.526-0.022
	C21.022,65.153,21,65.324,21,65.5C21,76.822,30.178,86,41.5,86c6.437,0,12.175-2.972,15.934-7.614C59.612,80.611,62.64,82,66,82
	c4.65,0,8.674-2.65,10.666-6.518C77.718,75.817,78.837,76,80,76c6.075,0,11-4.925,11-11C91,61.689,89.53,58.727,87.215,56.71z"/>
<g>
	<path style="fill:#FDFCEF;" d="M77.5,58.5V59h3v-0.5c0,0,4.242,0,5.5,0c2.485,0,4.5-2.015,4.5-4.5c0-2.333-1.782-4.229-4.055-4.455
		C86.467,49.364,86.5,49.187,86.5,49c0-2.485-2.015-4.5-4.5-4.5c-1.438,0-2.703,0.686-3.527,1.736
		C78.333,43.6,76.171,41.5,73.5,41.5c-2.761,0-5,2.239-5,5c0,0.446,0.077,0.87,0.187,1.282C68.045,47.005,67.086,46.5,66,46.5
		c-1.781,0-3.234,1.335-3.455,3.055C62.364,49.533,62.187,49.5,62,49.5c-2.485,0-4.5,2.015-4.5,4.5s2.015,4.5,4.5,4.5s9.5,0,9.5,0
		H77.5z"/>
	<path style="fill:#472B29;" d="M73.5,41c-3.033,0-5.5,2.467-5.5,5.5c0,0.016,0,0.031,0,0.047C67.398,46.192,66.71,46,66,46
		c-1.831,0-3.411,1.261-3.858,3.005C62.095,49.002,62.048,49,62,49c-2.757,0-5,2.243-5,5s2.243,5,5,5h15.5
		c0.276,0,0.5-0.224,0.5-0.5S77.776,58,77.5,58H62c-2.206,0-4-1.794-4-4s1.794-4,4-4c0.117,0,0.23,0.017,0.343,0.032l0.141,0.019
		c0.021,0.003,0.041,0.004,0.062,0.004c0.246,0,0.462-0.185,0.495-0.437C63.232,48.125,64.504,47,66,47
		c0.885,0,1.723,0.401,2.301,1.1c0.098,0.118,0.241,0.182,0.386,0.182c0.078,0,0.156-0.018,0.228-0.056
		c0.209-0.107,0.314-0.346,0.254-0.573C69.054,47.218,69,46.852,69,46.5c0-2.481,2.019-4.5,4.5-4.5c2.381,0,4.347,1.872,4.474,4.263
		c0.011,0.208,0.15,0.387,0.349,0.45c0.05,0.016,0.101,0.024,0.152,0.024c0.15,0,0.296-0.069,0.392-0.192
		C79.638,45.563,80.779,45,82,45c2.206,0,4,1.794,4,4c0,0.117-0.017,0.23-0.032,0.343l-0.019,0.141
		c-0.016,0.134,0.022,0.268,0.106,0.373c0.084,0.105,0.207,0.172,0.34,0.185C88.451,50.247,90,51.949,90,54c0,2.206-1.794,4-4,4
		h-5.5c-0.276,0-0.5,0.224-0.5,0.5s0.224,0.5,0.5,0.5H86c2.757,0,5-2.243,5-5c0-2.397-1.689-4.413-4.003-4.877
		C86.999,49.082,87,49.041,87,49c0-2.757-2.243-5-5-5c-1.176,0-2.293,0.416-3.183,1.164C78.219,42.76,76.055,41,73.5,41L73.5,41z"/>
	<path style="fill:#472B29;" d="M72,48c-1.403,0-2.609,0.999-2.913,2.341C68.72,50.119,68.301,50,67.875,50
		c-1.202,0-2.198,0.897-2.353,2.068C65.319,52.022,65.126,52,64.938,52c-1.529,0-2.811,1.2-2.918,2.732
		C62.01,54.87,62.114,54.99,62.251,55c0.006,0,0.012,0,0.018,0c0.13,0,0.24-0.101,0.249-0.232c0.089-1.271,1.151-2.268,2.419-2.268
		c0.229,0,0.47,0.042,0.738,0.127c0.022,0.007,0.045,0.01,0.067,0.01c0.055,0,0.11-0.02,0.156-0.054
		C65.962,52.537,66,52.455,66,52.375c0-1.034,0.841-1.875,1.875-1.875c0.447,0,0.885,0.168,1.231,0.473
		c0.047,0.041,0.106,0.063,0.165,0.063c0.032,0,0.063-0.006,0.093-0.019c0.088-0.035,0.148-0.117,0.155-0.212
		C69.623,49.512,70.712,48.5,72,48.5c0.208,0,0.425,0.034,0.682,0.107c0.023,0.007,0.047,0.01,0.07,0.01
		c0.109,0,0.207-0.073,0.239-0.182c0.038-0.133-0.039-0.271-0.172-0.309C72.517,48.04,72.256,48,72,48L72,48z"/>
	<path style="fill:#472B29;" d="M85.883,49.5c-1.326,0-2.508,0.897-2.874,2.182c-0.038,0.133,0.039,0.271,0.172,0.309
		C83.205,51.997,83.228,52,83.25,52c0.109,0,0.209-0.072,0.24-0.182C83.795,50.748,84.779,50,85.883,50
		c0.117,0,0.23,0.014,0.342,0.029c0.012,0.002,0.023,0.003,0.035,0.003c0.121,0,0.229-0.092,0.246-0.217
		c0.019-0.137-0.077-0.263-0.214-0.281C86.158,49.516,86.022,49.5,85.883,49.5L85.883,49.5z"/>
</g>
<g>
	<path style="fill:#FFFFFF;" d="M15.5,51h-10C5.224,51,5,50.776,5,50.5S5.224,50,5.5,50h10c0.276,0,0.5,0.224,0.5,0.5
		S15.777,51,15.5,51z"/>
	<path style="fill:#FFFFFF;" d="M18.5,51h-1c-0.276,0-0.5-0.224-0.5-0.5s0.224-0.5,0.5-0.5h1c0.276,0,0.5,0.224,0.5,0.5
		S18.777,51,18.5,51z"/>
	<path style="fill:#FFFFFF;" d="M23.491,53H14.5c-0.276,0-0.5-0.224-0.5-0.5s0.224-0.5,0.5-0.5h8.991c0.276,0,0.5,0.224,0.5,0.5
		S23.767,53,23.491,53z"/>
	<path style="fill:#FFFFFF;" d="M12.5,53h-1c-0.276,0-0.5-0.224-0.5-0.5s0.224-0.5,0.5-0.5h1c0.276,0,0.5,0.224,0.5,0.5
		S12.777,53,12.5,53z"/>
	<path style="fill:#FFFFFF;" d="M9.5,53h-2C7.224,53,7,52.776,7,52.5S7.224,52,7.5,52h2c0.276,0,0.5,0.224,0.5,0.5S9.777,53,9.5,53z
		"/>
	<path style="fill:#FFFFFF;" d="M15.5,55h-2c-0.276,0-0.5-0.224-0.5-0.5s0.224-0.5,0.5-0.5h2c0.276,0,0.5,0.224,0.5,0.5
		S15.776,55,15.5,55z"/>
	<path style="fill:#FFFFFF;" d="M18.5,46c-0.177,0-0.823,0-1,0c-0.276,0-0.5,0.224-0.5,0.5c0,0.276,0.224,0.5,0.5,0.5
		c0.177,0,0.823,0,1,0c0.276,0,0.5-0.224,0.5-0.5C19,46.224,18.776,46,18.5,46z"/>
	<path style="fill:#FFFFFF;" d="M18.5,48c-0.177,0-4.823,0-5,0c-0.276,0-0.5,0.224-0.5,0.5c0,0.276,0.224,0.5,0.5,0.5
		c0.177,0,4.823,0,5,0c0.276,0,0.5-0.224,0.5-0.5C19,48.224,18.776,48,18.5,48z"/>
	<path style="fill:#FFFFFF;" d="M23.5,50c-0.177,0-2.823,0-3,0c-0.276,0-0.5,0.224-0.5,0.5c0,0.276,0.224,0.5,0.5,0.5
		c0.177,0,2.823,0,3,0c0.276,0,0.5-0.224,0.5-0.5C24,50.224,23.776,50,23.5,50z"/>
</g>
<g>
	<path style="fill:#FFFFFF;" d="M68.5,26h-10c-0.276,0-0.5-0.224-0.5-0.5s0.224-0.5,0.5-0.5h10c0.276,0,0.5,0.224,0.5,0.5
		S68.776,26,68.5,26z"/>
	<path style="fill:#FFFFFF;" d="M78.5,26h-8c-0.276,0-0.5-0.224-0.5-0.5s0.224-0.5,0.5-0.5h8c0.276,0,0.5,0.224,0.5,0.5
		S78.776,26,78.5,26z"/>
	<path style="fill:#FFFFFF;" d="M79.5,28h-12c-0.276,0-0.5-0.224-0.5-0.5s0.224-0.5,0.5-0.5h12c0.276,0,0.5,0.224,0.5,0.5
		S79.777,28,79.5,28z"/>
	<path style="fill:#FFFFFF;" d="M65.5,28h-1c-0.276,0-0.5-0.224-0.5-0.5s0.224-0.5,0.5-0.5h1c0.276,0,0.5,0.224,0.5,0.5
		S65.776,28,65.5,28z"/>
	<path style="fill:#FFFFFF;" d="M62.47,28H60.5c-0.276,0-0.5-0.224-0.5-0.5s0.224-0.5,0.5-0.5h1.97c0.276,0,0.5,0.224,0.5,0.5
		S62.746,28,62.47,28z"/>
	<path style="fill:#FFFFFF;" d="M72.5,24h-6c-0.276,0-0.5-0.224-0.5-0.5s0.224-0.5,0.5-0.5h6c0.276,0,0.5,0.224,0.5,0.5
		S72.777,24,72.5,24z"/>
	<path style="fill:#FFFFFF;" d="M68.5,30h-2c-0.276,0-0.5-0.224-0.5-0.5s0.224-0.5,0.5-0.5h2c0.276,0,0.5,0.224,0.5,0.5
		S68.776,30,68.5,30z"/>
</g>
<g>
	<g>
		<path style="fill:#472B29;" d="M75.5,65c-1.379,0-2.5-1.121-2.5-2.5s1.121-2.5,2.5-2.5s2.5,1.121,2.5,2.5S76.879,65,75.5,65z
			 M75.5,61c-0.827,0-1.5,0.673-1.5,1.5s0.673,1.5,1.5,1.5s1.5-0.673,1.5-1.5S76.327,61,75.5,61z"/>
		<path style="fill:#472B29;" d="M75.5,60c-0.276,0-0.5,0.224-0.5,0.5s0.224,0.5,0.5,0.5c2.733,0,4.5,1.767,4.5,4.5
			c0,2.481-2.019,4.5-4.5,4.5h-47c-0.276,0-0.5,0.224-0.5,0.5s0.224,0.5,0.5,0.5h47c3.032,0,5.5-2.468,5.5-5.5
			C81,62.21,78.79,60,75.5,60z"/>
		<path style="fill:#472B29;" d="M52.875,69c-1.103,0-2-0.897-2-2s0.897-2,2-2s2,0.897,2,2S53.978,69,52.875,69z M52.875,66
			c-0.552,0-1,0.448-1,1s0.448,1,1,1s1-0.448,1-1S53.427,66,52.875,66z"/>
		<path style="fill:#472B29;" d="M29.875,70c-0.276,0-0.5,0.224-0.5,0.5s0.224,0.5,0.5,0.5c7.661,0,13-5.995,13-11.375h-1
			C41.875,64.532,36.947,70,29.875,70z"/>
		<path style="fill:#472B29;" d="M75,70c-5.421,0-11.236-3.928-12.027-10.375H61.96C62.755,66.691,69.095,71,75,71
			c0.276,0,0.5-0.224,0.5-0.5S75.276,70,75,70z"/>
		<path style="fill:#472B29;" d="M34.5,70.5c-0.276,0-0.5-0.224-0.5-0.5s0.224-0.5,0.5-0.5c6.909,0,9.884-3.01,12.508-5.665
			C48.958,61.863,50.799,60,53.875,60c2.757,0,5,2.243,5,5c0,2.897-1.945,5-4.625,5c-1.677,0-3.375-1.03-3.375-3
			c0-0.276,0.224-0.5,0.5-0.5s0.5,0.224,0.5,0.5c0,1.382,1.192,2,2.375,2c2.101,0,3.625-1.683,3.625-4c0-2.206-1.794-4-4-4
			c-2.658,0-4.202,1.562-6.155,3.538C45.094,67.194,41.827,70.5,34.5,70.5z"/>
	</g>
	<g>
		<path style="fill:#EE3E54;" d="M74.842,39.5c-0.694,0-1.328,0.352-1.696,0.94l-2.65,4.24c-1.104,1.766-3.006,2.819-5.087,2.819
			H55.047c-2.321,0-4.455-1.359-5.437-3.463l-4.307-9.229c-0.654-1.402-2.077-2.309-3.625-2.309H27.5v8.301
			c0,10.66,7.445,18.699,17.317,18.699h17.336c5.599,0,10.624-3.549,12.507-8.83l3.984-11.17H74.842z"/>
		<path style="fill:#472B29;" d="M77.688,39.5l-3.875,10.868c-1.755,4.924-6.44,8.232-11.659,8.232H44.817
			c-9.359,0-16.417-7.652-16.417-17.799V32.5H27v8.301C27,51.747,34.66,60,44.817,60h17.336c5.809,0,11.025-3.682,12.978-9.162
			L79.174,39.5H77.688z"/>
	</g>
	<g>
		<path style="fill:#FDFCEF;" d="M65.283,47.5H54.922c-2.321,0-4.455-1.359-5.437-3.463l-4.307-9.229
			c-0.654-1.402-2.077-2.309-3.625-2.309H26.5c-1.104,0-2-0.896-2-2s0.896-2,2-2h15.054c3.095,0,5.94,1.813,7.25,4.617l4.307,9.229
			c0.327,0.701,1.039,1.154,1.812,1.154h10.361c0.694,0,1.328-0.352,1.696-0.94l2.65-4.24c1.104-1.766,3.006-2.819,5.087-2.819H79.5
			c1.104,0,2,0.896,2,2s-0.896,2-2,2h-4.783c-0.694,0-1.328,0.352-1.696,0.94l-2.65,4.24C69.267,46.446,67.365,47.5,65.283,47.5z"/>
		<path style="fill:#472B29;" d="M65.283,48H54.922c-2.515,0-4.826-1.473-5.89-3.752l-4.308-9.228
			C44.152,33.793,42.907,33,41.554,33H26.5c-1.379,0-2.5-1.121-2.5-2.5s1.121-2.5,2.5-2.5h15.054c3.288,0,6.312,1.926,7.702,4.906
			l4.308,9.228C53.809,42.66,54.342,43,54.922,43h10.361c0.521,0,0.996-0.264,1.271-0.705l2.65-4.24
			C70.401,36.142,72.462,35,74.717,35H79.5c1.379,0,2.5,1.121,2.5,2.5S80.879,40,79.5,40h-4.783c-0.521,0-0.996,0.264-1.271,0.705
			l-2.65,4.24C69.599,46.858,67.538,48,65.283,48z M26.5,29c-0.827,0-1.5,0.673-1.5,1.5s0.673,1.5,1.5,1.5h15.054
			c1.74,0,3.341,1.02,4.077,2.598l4.308,9.228C50.838,45.754,52.794,47,54.922,47h10.361c1.908,0,3.651-0.966,4.664-2.585
			l2.65-4.239C73.057,39.439,73.849,39,74.717,39H79.5c0.827,0,1.5-0.673,1.5-1.5S80.327,36,79.5,36h-4.783
			c-1.908,0-3.651,0.966-4.664,2.585l-2.65,4.239C66.943,43.561,66.151,44,65.283,44H54.922c-0.967,0-1.855-0.566-2.265-1.443
			l-4.308-9.228C47.123,30.699,44.455,29,41.554,29H26.5z"/>
	</g>
	<g>
		<path style="fill:#472B29;" d="M67.498,54c-0.116,0-0.23-0.054-0.304-0.155c-0.121-0.168-0.084-0.402,0.084-0.523
			c0.511-0.37,0.967-0.773,1.354-1.199c0.141-0.152,0.377-0.163,0.53-0.024c0.152,0.14,0.164,0.377,0.024,0.53
			c-0.423,0.463-0.917,0.901-1.47,1.301C67.651,53.977,67.574,54,67.498,54z"/>
		<path style="fill:#472B29;" d="M63.5,55.647c-0.183,0-0.343-0.134-0.371-0.319c-0.03-0.205,0.11-0.396,0.315-0.427
			c0.735-0.11,1.462-0.317,2.157-0.617c0.192-0.08,0.41,0.006,0.493,0.196c0.082,0.19-0.006,0.411-0.196,0.493
			c-0.755,0.324-1.544,0.55-2.343,0.67C63.537,55.646,63.518,55.647,63.5,55.647z"/>
		<path style="fill:#472B29;" d="M60.75,55.75H44.817c-7.861,0-13.567-6.287-13.567-14.949v-0.426c0-0.207,0.168-0.375,0.375-0.375
			S32,40.168,32,40.375v0.426C32,49.028,37.391,55,44.817,55H60.75c0.207,0,0.375,0.168,0.375,0.375S60.957,55.75,60.75,55.75z"/>
		<path style="fill:#472B29;" d="M31.625,38c-0.207,0-0.375-0.168-0.375-0.375v-1.25c0-0.207,0.168-0.375,0.375-0.375h6
			C37.832,36,38,36.168,38,36.375s-0.168,0.375-0.375,0.375H32v0.875C32,37.832,31.832,38,31.625,38z"/>
	</g>
</g>
<g>
	<path style="fill:#FDFCEF;" d="M36.5,75.5c0,0,1.567,0,3.5,0s3.5-1.567,3.5-3.5c0-1.781-1.335-3.234-3.055-3.455
		C40.473,68.366,40.5,68.187,40.5,68c0-1.933-1.567-3.5-3.5-3.5c-1.032,0-1.95,0.455-2.59,1.165
		c-0.384-1.808-1.987-3.165-3.91-3.165c-2.209,0-4,1.791-4,4c0,0.191,0.03,0.374,0.056,0.558C26.128,66.714,25.592,66.5,25,66.5
		c-1.228,0-2.245,0.887-2.455,2.055C22.366,68.527,22.187,68.5,22,68.5c-1.933,0-3.5,1.567-3.5,3.5s1.567,3.5,3.5,3.5s7.5,0,7.5,0
		V76h7V75.5z"/>
	<path style="fill:#472B29;" d="M38.25,71C38.112,71,38,70.888,38,70.75c0-1.223,0.995-2.218,2.218-2.218
		c0.034,0.009,0.737-0.001,1.244,0.136c0.133,0.036,0.212,0.173,0.176,0.306c-0.036,0.134-0.173,0.213-0.306,0.176
		c-0.444-0.12-1.1-0.12-1.113-0.118c-0.948,0-1.719,0.771-1.719,1.718C38.5,70.888,38.388,71,38.25,71z"/>
	<circle style="fill:#472B29;" cx="31.5" cy="75.5" r="0.5"/>
	<path style="fill:#472B29;" d="M40,76h-3.5c-0.276,0-0.5-0.224-0.5-0.5s0.224-0.5,0.5-0.5H40c1.654,0,3-1.346,3-3
		c0-1.496-1.125-2.768-2.618-2.959c-0.134-0.018-0.255-0.088-0.336-0.196s-0.115-0.244-0.094-0.377C39.975,68.314,40,68.16,40,68
		c0-1.654-1.346-3-3-3c-0.85,0-1.638,0.355-2.219,1c-0.125,0.139-0.321,0.198-0.5,0.148c-0.182-0.049-0.321-0.195-0.36-0.379
		C33.58,64.165,32.141,63,30.5,63c-1.93,0-3.5,1.57-3.5,3.5c0,0.143,0.021,0.28,0.041,0.418c0.029,0.203-0.063,0.438-0.242,0.54
		c-0.179,0.102-0.396,0.118-0.556-0.01C25.878,67.155,25.449,67,25,67c-0.966,0-1.792,0.691-1.963,1.644
		c-0.048,0.267-0.296,0.446-0.569,0.405C22.314,69.025,22.16,69,22,69c-1.654,0-3,1.346-3,3s1.346,3,3,3h7.5
		c0.276,0,0.5,0.224,0.5,0.5S29.776,76,29.5,76H22c-2.206,0-4-1.794-4-4s1.794-4,4-4c0.059,0,0.116,0.002,0.174,0.006
		C22.588,66.82,23.711,66,25,66c0.349,0,0.689,0.061,1.011,0.18C26.176,63.847,28.126,62,30.5,62c1.831,0,3.466,1.127,4.153,2.774
		C35.333,64.276,36.155,64,37,64c2.206,0,4,1.794,4,4c0,0.048-0.001,0.095-0.004,0.142C42.739,68.59,44,70.169,44,72
		C44,74.206,42.206,76,40,76z"/>
	<path style="fill:#472B29;" d="M34.5,75c-0.159,0-0.841,0-1,0c-0.276,0-0.5,0.224-0.5,0.5c0,0.276,0.224,0.5,0.5,0.5
		c0.159,0,0.841,0,1,0c0.276,0,0.5-0.224,0.5-0.5C35,75.224,34.776,75,34.5,75z"/>
</g>
</svg>
