<?xml version="1.0" encoding="iso-8859-1"?>
<!-- Generator: Adobe Illustrator 22.1.0, SVG Export Plug-In . SVG Version: 6.00 Build 0)  -->
<svg version="1.1" id="Layer_1" xmlns="http://www.w3.org/2000/svg" xmlns:xlink="http://www.w3.org/1999/xlink" x="0px" y="0px"
	 viewBox="0 0 100 100" style="enable-background:new 0 0 100 100;" xml:space="preserve">
<path style="fill:#C7EDE6;" d="M87.215,56.71C88.35,54.555,89,52.105,89,49.5c0-6.621-4.159-12.257-10.001-14.478
	C78.999,35.015,79,35.008,79,35c0-11.598-9.402-21-21-21c-9.784,0-17.981,6.701-20.313,15.757C36.211,29.272,34.638,29,33,29
	c-7.692,0-14.023,5.793-14.89,13.252C12.906,43.353,9,47.969,9,53.5C9,59.851,14.149,65,20.5,65c0.177,0,0.352-0.012,0.526-0.022
	C21.022,65.153,21,65.324,21,65.5C21,76.822,30.178,86,41.5,86c6.437,0,12.175-2.972,15.934-7.614C59.612,80.611,62.64,82,66,82
	c4.65,0,8.674-2.65,10.666-6.518C77.718,75.817,78.837,76,80,76c6.075,0,11-4.925,11-11C91,61.689,89.53,58.727,87.215,56.71z"/>
<g>
	<path style="fill:#FDFCEF;" d="M77.5,60.5V61h3v-0.5c0,0,4.242,0,5.5,0c2.485,0,4.5-2.015,4.5-4.5c0-2.333-1.782-4.229-4.055-4.455
		C86.467,51.364,86.5,51.187,86.5,51c0-2.485-2.015-4.5-4.5-4.5c-1.438,0-2.703,0.686-3.527,1.736
		C78.333,45.6,76.171,43.5,73.5,43.5c-2.761,0-5,2.239-5,5c0,0.446,0.077,0.87,0.187,1.282C68.045,49.005,67.086,48.5,66,48.5
		c-1.781,0-3.234,1.335-3.455,3.055C62.364,51.533,62.187,51.5,62,51.5c-2.485,0-4.5,2.015-4.5,4.5s2.015,4.5,4.5,4.5s9.5,0,9.5,0
		H77.5z"/>
	<path style="fill:#472B29;" d="M73.5,43c-3.033,0-5.5,2.467-5.5,5.5c0,0.016,0,0.031,0,0.047C67.398,48.192,66.71,48,66,48
		c-1.831,0-3.411,1.261-3.858,3.005C62.095,51.002,62.048,51,62,51c-2.757,0-5,2.243-5,5s2.243,5,5,5h15.5
		c0.276,0,0.5-0.224,0.5-0.5S77.776,60,77.5,60H62c-2.206,0-4-1.794-4-4s1.794-4,4-4c0.117,0,0.23,0.017,0.343,0.032l0.141,0.019
		c0.021,0.003,0.041,0.004,0.062,0.004c0.246,0,0.462-0.185,0.495-0.437C63.232,50.125,64.504,49,66,49
		c0.885,0,1.723,0.401,2.301,1.1c0.098,0.118,0.241,0.182,0.386,0.182c0.078,0,0.156-0.018,0.228-0.056
		c0.209-0.107,0.314-0.346,0.254-0.573C69.054,49.218,69,48.852,69,48.5c0-2.481,2.019-4.5,4.5-4.5c2.381,0,4.347,1.872,4.474,4.263
		c0.011,0.208,0.15,0.387,0.349,0.45c0.05,0.016,0.101,0.024,0.152,0.024c0.15,0,0.296-0.069,0.392-0.192
		C79.638,47.563,80.779,47,82,47c2.206,0,4,1.794,4,4c0,0.117-0.017,0.23-0.032,0.343l-0.019,0.141
		c-0.016,0.134,0.022,0.268,0.106,0.373c0.084,0.105,0.207,0.172,0.34,0.185C88.451,52.247,90,53.949,90,56c0,2.206-1.794,4-4,4
		h-5.5c-0.276,0-0.5,0.224-0.5,0.5s0.224,0.5,0.5,0.5H86c2.757,0,5-2.243,5-5c0-2.397-1.689-4.413-4.003-4.877
		C86.999,51.082,87,51.041,87,51c0-2.757-2.243-5-5-5c-1.176,0-2.293,0.416-3.183,1.164C78.219,44.76,76.055,43,73.5,43L73.5,43z"/>
	<path style="fill:#472B29;" d="M72,50c-1.403,0-2.609,0.999-2.913,2.341C68.72,52.119,68.301,52,67.875,52
		c-1.202,0-2.198,0.897-2.353,2.068C65.319,54.022,65.126,54,64.937,54c-1.529,0-2.811,1.2-2.918,2.732
		C62.01,56.87,62.114,56.99,62.251,57c0.006,0,0.012,0,0.018,0c0.13,0,0.24-0.101,0.249-0.232c0.089-1.271,1.151-2.268,2.419-2.268
		c0.229,0,0.47,0.042,0.738,0.127c0.022,0.007,0.045,0.01,0.067,0.01c0.055,0,0.11-0.02,0.156-0.054
		C65.962,54.537,66,54.455,66,54.375c0-1.034,0.841-1.875,1.875-1.875c0.447,0,0.885,0.168,1.231,0.473
		c0.047,0.041,0.106,0.063,0.165,0.063c0.032,0,0.063-0.006,0.093-0.019c0.088-0.035,0.148-0.117,0.155-0.212
		C69.623,51.512,70.712,50.5,72,50.5c0.208,0,0.425,0.034,0.682,0.107c0.023,0.007,0.047,0.01,0.07,0.01
		c0.109,0,0.207-0.073,0.239-0.182c0.038-0.133-0.039-0.271-0.172-0.309C72.517,50.04,72.256,50,72,50L72,50z"/>
	<path style="fill:#472B29;" d="M85.883,51.5c-1.326,0-2.508,0.897-2.874,2.182c-0.038,0.133,0.039,0.271,0.172,0.309
		C83.205,53.997,83.228,54,83.25,54c0.109,0,0.209-0.072,0.24-0.182C83.795,52.748,84.779,52,85.883,52
		c0.117,0,0.23,0.014,0.342,0.029c0.012,0.002,0.023,0.003,0.035,0.003c0.121,0,0.229-0.092,0.246-0.217
		c0.019-0.137-0.077-0.263-0.214-0.281C86.158,51.516,86.022,51.5,85.883,51.5L85.883,51.5z"/>
</g>
<g>
	<path style="fill:#FFFFFF;" d="M15.5,51h-10C5.224,51,5,50.776,5,50.5S5.224,50,5.5,50h10c0.276,0,0.5,0.224,0.5,0.5
		S15.777,51,15.5,51z"/>
	<path style="fill:#FFFFFF;" d="M18.5,51h-1c-0.276,0-0.5-0.224-0.5-0.5s0.224-0.5,0.5-0.5h1c0.276,0,0.5,0.224,0.5,0.5
		S18.777,51,18.5,51z"/>
	<path style="fill:#FFFFFF;" d="M23.491,53H14.5c-0.276,0-0.5-0.224-0.5-0.5s0.224-0.5,0.5-0.5h8.991c0.276,0,0.5,0.224,0.5,0.5
		S23.767,53,23.491,53z"/>
	<path style="fill:#FFFFFF;" d="M12.5,53h-1c-0.276,0-0.5-0.224-0.5-0.5s0.224-0.5,0.5-0.5h1c0.276,0,0.5,0.224,0.5,0.5
		S12.777,53,12.5,53z"/>
	<path style="fill:#FFFFFF;" d="M9.5,53h-2C7.224,53,7,52.776,7,52.5S7.224,52,7.5,52h2c0.276,0,0.5,0.224,0.5,0.5S9.777,53,9.5,53z
		"/>
	<path style="fill:#FFFFFF;" d="M15.5,55h-2c-0.276,0-0.5-0.224-0.5-0.5s0.224-0.5,0.5-0.5h2c0.276,0,0.5,0.224,0.5,0.5
		S15.776,55,15.5,55z"/>
	<path style="fill:#FFFFFF;" d="M18.5,46c-0.177,0-0.823,0-1,0c-0.276,0-0.5,0.224-0.5,0.5c0,0.276,0.224,0.5,0.5,0.5
		c0.177,0,0.823,0,1,0c0.276,0,0.5-0.224,0.5-0.5C19,46.224,18.776,46,18.5,46z"/>
	<path style="fill:#FFFFFF;" d="M18.5,48c-0.177,0-4.823,0-5,0c-0.276,0-0.5,0.224-0.5,0.5c0,0.276,0.224,0.5,0.5,0.5
		c0.177,0,4.823,0,5,0c0.276,0,0.5-0.224,0.5-0.5C19,48.224,18.776,48,18.5,48z"/>
	<path style="fill:#FFFFFF;" d="M24.5,50c-0.177,0-3.823,0-4,0c-0.276,0-0.5,0.224-0.5,0.5c0,0.276,0.224,0.5,0.5,0.5
		c0.177,0,3.823,0,4,0c0.276,0,0.5-0.224,0.5-0.5C25,50.224,24.776,50,24.5,50z"/>
</g>
<g>
	<path style="fill:#FFFFFF;" d="M72.5,24h-10c-0.276,0-0.5-0.224-0.5-0.5s0.224-0.5,0.5-0.5h10c0.276,0,0.5,0.224,0.5,0.5
		S72.776,24,72.5,24z"/>
	<path style="fill:#FFFFFF;" d="M76.5,24h-2c-0.276,0-0.5-0.224-0.5-0.5s0.224-0.5,0.5-0.5h2c0.276,0,0.5,0.224,0.5,0.5
		S76.776,24,76.5,24z"/>
	<path style="fill:#FFFFFF;" d="M81.5,26h-10c-0.276,0-0.5-0.224-0.5-0.5s0.224-0.5,0.5-0.5h10c0.276,0,0.5,0.224,0.5,0.5
		S81.777,26,81.5,26z"/>
	<path style="fill:#FFFFFF;" d="M69.5,26h-1c-0.276,0-0.5-0.224-0.5-0.5s0.224-0.5,0.5-0.5h1c0.276,0,0.5,0.224,0.5,0.5
		S69.776,26,69.5,26z"/>
	<path style="fill:#FFFFFF;" d="M66.47,26H64.5c-0.276,0-0.5-0.224-0.5-0.5s0.224-0.5,0.5-0.5h1.97c0.276,0,0.5,0.224,0.5,0.5
		S66.746,26,66.47,26z"/>
	<path style="fill:#FFFFFF;" d="M75.5,22h-5c-0.276,0-0.5-0.224-0.5-0.5s0.224-0.5,0.5-0.5h5c0.276,0,0.5,0.224,0.5,0.5
		S75.777,22,75.5,22z"/>
	<path style="fill:#FFFFFF;" d="M72.5,28h-2c-0.276,0-0.5-0.224-0.5-0.5s0.224-0.5,0.5-0.5h2c0.276,0,0.5,0.224,0.5,0.5
		S72.776,28,72.5,28z"/>
</g>
<g>
	<circle style="fill:#C6DFF1;" cx="52.5" cy="49.5" r="23.479"/>
	<path style="fill:#472B29;" d="M52.499,26.4C65.237,26.4,75.6,36.762,75.6,49.499C75.6,62.237,65.237,72.6,52.499,72.6
		C39.762,72.6,29.4,62.237,29.4,49.5S39.762,26.4,52.499,26.4 M52.499,25C38.99,25,28,35.991,28,49.5S38.99,74,52.499,74
		C66.009,74,77,63.008,77,49.499S66.009,25,52.499,25L52.499,25z"/>
	<g>
		<polygon style="fill:#FDFCEF;" points="52.503,41 49.799,44.834 45.143,45.252 45.14,45.248 47.108,49.506 45.143,53.748 
			45.137,53.748 49.81,54.172 52.5,57.995 52.497,58 55.201,54.166 59.857,53.748 59.86,53.752 57.892,49.494 59.857,45.252 
			59.863,45.252 55.19,44.828 52.5,41.005 		"/>
		<path style="fill:#472B29;" d="M52.5,50c-0.276,0-0.5-0.224-0.5-0.5V34.75c0-0.276,0.224-0.5,0.5-0.5s0.5,0.224,0.5,0.5V49.5
			C53,49.776,52.776,50,52.5,50z"/>
		<path style="fill:#472B29;" d="M52.5,40.125L48.2,36.9c-0.221-0.166-0.266-0.479-0.101-0.7c0.167-0.222,0.48-0.265,0.7-0.1
			l3.7,2.775l3.7-2.775c0.22-0.165,0.533-0.122,0.7,0.1c0.165,0.221,0.12,0.534-0.101,0.7L52.5,40.125z"/>
		<path style="fill:#472B29;" d="M52.5,50c-0.085,0-0.171-0.021-0.25-0.067l-13.856-8c-0.239-0.138-0.321-0.444-0.183-0.683
			c0.138-0.24,0.444-0.32,0.683-0.183l13.856,8c0.239,0.138,0.321,0.444,0.183,0.683C52.841,49.911,52.672,50,52.5,50z"/>
		<path style="fill:#472B29;" d="M39.241,46.964c-0.194,0-0.379-0.114-0.46-0.304c-0.108-0.254,0.01-0.548,0.264-0.656l4.254-1.816
			l-0.554-4.591c-0.033-0.274,0.162-0.523,0.437-0.557c0.252-0.037,0.522,0.162,0.556,0.437l0.644,5.336l-4.943,2.111
			C39.374,46.951,39.307,46.964,39.241,46.964z"/>
		<path style="fill:#472B29;" d="M38.644,58c-0.172,0-0.341-0.089-0.433-0.25c-0.139-0.239-0.057-0.545,0.183-0.683l13.856-8
			c0.239-0.138,0.545-0.058,0.683,0.183c0.139,0.239,0.057,0.545-0.183,0.683l-13.856,8C38.814,57.979,38.729,58,38.644,58z"/>
		<path style="fill:#472B29;" d="M43.242,59.964c-0.021,0-0.04-0.001-0.061-0.003c-0.274-0.033-0.47-0.282-0.437-0.557l0.554-4.591
			l-4.254-1.816c-0.254-0.108-0.372-0.402-0.264-0.656c0.107-0.254,0.4-0.372,0.656-0.264l4.943,2.111l-0.644,5.336
			C43.707,59.777,43.491,59.964,43.242,59.964z"/>
		<path style="fill:#472B29;" d="M52.5,66c-0.276,0-0.5-0.224-0.5-0.5v-16c0-0.276,0.224-0.5,0.5-0.5s0.5,0.224,0.5,0.5v16
			C53,65.776,52.776,66,52.5,66z"/>
		<path style="fill:#472B29;" d="M56.5,63c-0.104,0-0.21-0.033-0.3-0.1l-3.7-2.775L48.8,62.9c-0.221,0.165-0.533,0.123-0.7-0.1
			c-0.165-0.221-0.12-0.534,0.101-0.7l4.3-3.225l4.3,3.225c0.221,0.166,0.266,0.479,0.101,0.7C56.802,62.931,56.651,63,56.5,63z"/>
		<path style="fill:#472B29;" d="M66.356,58c-0.085,0-0.171-0.021-0.25-0.067l-13.856-8c-0.239-0.138-0.321-0.444-0.183-0.683
			c0.137-0.24,0.443-0.32,0.683-0.183l13.856,8c0.239,0.138,0.321,0.444,0.183,0.683C66.697,57.911,66.528,58,66.356,58z"/>
		<path style="fill:#472B29;" d="M61.758,59.964c-0.249,0-0.465-0.187-0.495-0.44l-0.644-5.336l4.943-2.111
			c0.251-0.108,0.548,0.01,0.656,0.264s-0.01,0.548-0.264,0.656l-4.254,1.816l0.554,4.591c0.033,0.274-0.162,0.523-0.437,0.557
			C61.799,59.963,61.778,59.964,61.758,59.964z"/>
		<path style="fill:#472B29;" d="M52.5,50c-0.172,0-0.341-0.089-0.433-0.25c-0.139-0.239-0.057-0.545,0.183-0.683l13.856-8
			c0.238-0.139,0.545-0.058,0.683,0.183c0.139,0.239,0.057,0.545-0.183,0.683l-13.856,8C52.671,49.979,52.585,50,52.5,50z"/>
		<path style="fill:#472B29;" d="M65.759,46.964c-0.065,0-0.132-0.013-0.196-0.04l-4.943-2.111l0.644-5.336
			c0.033-0.274,0.292-0.468,0.556-0.437c0.274,0.033,0.47,0.282,0.437,0.557l-0.554,4.591l4.254,1.816
			c0.254,0.108,0.372,0.402,0.264,0.656C66.138,46.85,65.953,46.964,65.759,46.964z"/>
		<path style="fill:#472B29;" d="M59.862,45.627c-0.011,0-0.022,0-0.034-0.001l-4.845-0.44l-2.79-3.965
			c-0.119-0.169-0.078-0.403,0.091-0.522c0.168-0.119,0.402-0.08,0.522,0.091l2.591,3.681l4.499,0.409
			c0.206,0.019,0.358,0.201,0.339,0.408C60.218,45.481,60.055,45.627,59.862,45.627z"/>
		<path style="fill:#472B29;" d="M45.143,45.627c-0.192,0-0.356-0.146-0.373-0.341c-0.019-0.207,0.133-0.389,0.34-0.407l4.483-0.403
			l2.604-3.692c0.12-0.17,0.355-0.207,0.522-0.09c0.17,0.12,0.21,0.354,0.091,0.523l-2.805,3.976l-4.829,0.434
			C45.165,45.627,45.153,45.627,45.143,45.627z"/>
		<path style="fill:#472B29;" d="M45.143,54.123c-0.053,0-0.106-0.011-0.157-0.035c-0.188-0.087-0.271-0.31-0.183-0.498l1.893-4.084
			L44.8,45.405c-0.087-0.188-0.005-0.411,0.184-0.498c0.186-0.088,0.411-0.006,0.498,0.183l2.04,4.417l-2.039,4.398
			C45.419,54.042,45.284,54.123,45.143,54.123z"/>
		<path style="fill:#472B29;" d="M52.5,58.37c-0.117,0-0.233-0.055-0.307-0.159l-2.591-3.681l-4.499-0.409
			c-0.206-0.019-0.358-0.201-0.339-0.408c0.019-0.205,0.185-0.351,0.407-0.339l4.845,0.44l2.79,3.965
			c0.119,0.169,0.078,0.403-0.091,0.522C52.65,58.348,52.575,58.37,52.5,58.37z"/>
		<path style="fill:#472B29;" d="M52.497,58.375c-0.075,0-0.15-0.022-0.216-0.068c-0.17-0.12-0.21-0.354-0.091-0.523l2.805-3.976
			l4.829-0.434c0.211-0.011,0.389,0.134,0.406,0.34c0.019,0.207-0.133,0.389-0.34,0.407l-4.483,0.403l-2.604,3.692
			C52.73,58.32,52.614,58.375,52.497,58.375z"/>
		<path style="fill:#472B29;" d="M59.859,54.127c-0.142,0-0.277-0.081-0.341-0.218l-2.04-4.417l2.039-4.398
			c0.088-0.188,0.312-0.268,0.497-0.183c0.188,0.087,0.271,0.31,0.183,0.498l-1.893,4.084l1.896,4.101
			c0.087,0.188,0.005,0.411-0.184,0.498C59.966,54.116,59.912,54.127,59.859,54.127z"/>
		<g>
			<circle style="fill:#FDFCEF;" cx="52.5" cy="33.5" r="1.125"/>
			<path style="fill:#472B29;" d="M52.5,35c-0.827,0-1.5-0.673-1.5-1.5s0.673-1.5,1.5-1.5s1.5,0.673,1.5,1.5S53.327,35,52.5,35z
				 M52.5,32.75c-0.413,0-0.75,0.336-0.75,0.75s0.337,0.75,0.75,0.75s0.75-0.336,0.75-0.75S52.913,32.75,52.5,32.75z"/>
		</g>
		<g>
			<circle style="fill:#FDFCEF;" cx="38.644" cy="41.5" r="1.125"/>
			<path style="fill:#472B29;" d="M38.642,43c-0.261,0-0.517-0.068-0.748-0.202c-0.717-0.414-0.963-1.333-0.55-2.049
				c0.201-0.347,0.524-0.595,0.911-0.699c0.39-0.105,0.791-0.051,1.139,0.15l0,0c0.717,0.414,0.963,1.333,0.55,2.049
				c-0.201,0.347-0.524,0.595-0.911,0.699C38.902,42.983,38.771,43,38.642,43z M38.645,40.75c-0.065,0-0.131,0.009-0.195,0.026
				c-0.193,0.052-0.355,0.176-0.455,0.35c-0.101,0.173-0.127,0.375-0.075,0.569c0.052,0.194,0.176,0.355,0.35,0.456
				c0.173,0.101,0.377,0.126,0.569,0.075c0.193-0.052,0.355-0.176,0.455-0.35c0.101-0.173,0.127-0.375,0.075-0.569
				c-0.052-0.194-0.176-0.355-0.35-0.456l0,0C38.903,40.784,38.774,40.75,38.645,40.75z"/>
		</g>
		<g>
			<circle style="fill:#FDFCEF;" cx="38.644" cy="57.5" r="1.125"/>
			<path style="fill:#472B29;" d="M38.646,59c-0.13,0-0.261-0.017-0.391-0.052c-0.387-0.104-0.71-0.352-0.911-0.699
				c-0.413-0.716-0.167-1.635,0.55-2.049c0.347-0.201,0.747-0.254,1.139-0.15c0.387,0.104,0.71,0.352,0.911,0.699
				c0.413,0.716,0.167,1.635-0.55,2.049C39.162,58.933,38.906,59,38.646,59z M38.643,56.75c-0.13,0-0.258,0.034-0.374,0.101l0,0
				c-0.174,0.1-0.298,0.262-0.35,0.456c-0.052,0.193-0.025,0.396,0.075,0.569c0.1,0.173,0.262,0.298,0.455,0.35
				c0.191,0.05,0.395,0.025,0.569-0.075c0.174-0.1,0.298-0.262,0.35-0.456c0.052-0.193,0.025-0.396-0.075-0.569
				c-0.1-0.173-0.262-0.298-0.455-0.35C38.773,56.758,38.708,56.75,38.643,56.75z M38.081,56.526h0.01H38.081z"/>
		</g>
		<g>
			<circle style="fill:#FDFCEF;" cx="52.5" cy="65.5" r="1.125"/>
			<path style="fill:#472B29;" d="M52.5,67c-0.827,0-1.5-0.673-1.5-1.5s0.673-1.5,1.5-1.5s1.5,0.673,1.5,1.5S53.327,67,52.5,67z
				 M52.5,64.75c-0.413,0-0.75,0.336-0.75,0.75s0.337,0.75,0.75,0.75s0.75-0.336,0.75-0.75S52.913,64.75,52.5,64.75z"/>
		</g>
		<g>
			<circle style="fill:#FDFCEF;" cx="66.356" cy="57.5" r="1.125"/>
			<path style="fill:#472B29;" d="M66.354,59c-0.261,0-0.517-0.068-0.748-0.202l0,0c-0.717-0.414-0.963-1.333-0.55-2.049
				c0.201-0.347,0.524-0.595,0.911-0.699c0.39-0.104,0.791-0.051,1.139,0.15c0.717,0.414,0.963,1.333,0.55,2.049
				c-0.201,0.347-0.524,0.595-0.911,0.699C66.615,58.983,66.484,59,66.354,59z M66.357,56.75c-0.065,0-0.131,0.009-0.195,0.026
				c-0.193,0.052-0.355,0.176-0.455,0.35c-0.101,0.173-0.127,0.375-0.075,0.569c0.052,0.194,0.176,0.355,0.35,0.456l0,0
				c0.174,0.1,0.377,0.126,0.569,0.075c0.193-0.052,0.355-0.176,0.455-0.35c0.101-0.173,0.127-0.375,0.075-0.569
				c-0.052-0.194-0.176-0.355-0.35-0.456C66.616,56.784,66.487,56.75,66.357,56.75z"/>
		</g>
		<g>
			<circle style="fill:#FDFCEF;" cx="66.356" cy="41.5" r="1.125"/>
			<path style="fill:#472B29;" d="M66.358,43c-0.13,0-0.261-0.017-0.391-0.052c-0.387-0.104-0.71-0.352-0.911-0.699
				c-0.413-0.716-0.167-1.635,0.55-2.049c0.346-0.201,0.747-0.255,1.139-0.15c0.387,0.104,0.71,0.352,0.911,0.699
				c0.413,0.716,0.167,1.635-0.55,2.049C66.875,42.933,66.619,43,66.358,43z M66.355,40.75c-0.13,0-0.258,0.034-0.374,0.101
				c-0.174,0.1-0.298,0.262-0.35,0.456c-0.052,0.193-0.025,0.396,0.075,0.569c0.1,0.173,0.262,0.298,0.455,0.35
				c0.192,0.051,0.394,0.025,0.569-0.075l0,0c0.174-0.1,0.298-0.262,0.35-0.456c0.052-0.193,0.025-0.396-0.075-0.569
				c-0.1-0.173-0.262-0.298-0.455-0.35C66.486,40.758,66.421,40.75,66.355,40.75z"/>
		</g>
	</g>
</g>
<g>
	<path style="fill:#FDFCEF;" d="M36.5,73.5c0,0,1.567,0,3.5,0s3.5-1.567,3.5-3.5c0-1.781-1.335-3.234-3.055-3.455
		C40.473,66.366,40.5,66.187,40.5,66c0-1.933-1.567-3.5-3.5-3.5c-1.032,0-1.95,0.455-2.59,1.165
		c-0.384-1.808-1.987-3.165-3.91-3.165c-2.209,0-4,1.791-4,4c0,0.191,0.03,0.374,0.056,0.558C26.128,64.714,25.592,64.5,25,64.5
		c-1.228,0-2.245,0.887-2.455,2.055C22.366,66.527,22.187,66.5,22,66.5c-1.933,0-3.5,1.567-3.5,3.5s1.567,3.5,3.5,3.5s7.5,0,7.5,0
		V74h7V73.5z"/>
	<path style="fill:#472B29;" d="M38.25,69C38.112,69,38,68.888,38,68.75c0-1.223,0.995-2.218,2.218-2.218
		c0.034,0.009,0.737-0.001,1.244,0.136c0.133,0.036,0.212,0.173,0.176,0.306c-0.036,0.134-0.173,0.213-0.306,0.176
		c-0.444-0.12-1.1-0.12-1.113-0.118c-0.948,0-1.719,0.771-1.719,1.718C38.5,68.888,38.388,69,38.25,69z"/>
	<circle style="fill:#472B29;" cx="31.5" cy="73.5" r="0.5"/>
	<path style="fill:#472B29;" d="M40,74h-3.5c-0.276,0-0.5-0.224-0.5-0.5s0.224-0.5,0.5-0.5H40c1.654,0,3-1.346,3-3
		c0-1.496-1.125-2.768-2.618-2.959c-0.134-0.018-0.255-0.088-0.336-0.196s-0.115-0.244-0.094-0.377C39.975,66.314,40,66.16,40,66
		c0-1.654-1.346-3-3-3c-0.85,0-1.638,0.355-2.219,1c-0.125,0.139-0.321,0.198-0.5,0.148c-0.182-0.049-0.321-0.195-0.36-0.379
		C33.58,62.165,32.141,61,30.5,61c-1.93,0-3.5,1.57-3.5,3.5c0,0.143,0.021,0.28,0.041,0.418c0.029,0.203-0.063,0.438-0.242,0.54
		c-0.179,0.102-0.396,0.118-0.556-0.01C25.878,65.155,25.449,65,25,65c-0.966,0-1.792,0.691-1.963,1.644
		c-0.048,0.267-0.296,0.446-0.569,0.405C22.314,67.025,22.16,67,22,67c-1.654,0-3,1.346-3,3s1.346,3,3,3h7.5
		c0.276,0,0.5,0.224,0.5,0.5S29.776,74,29.5,74H22c-2.206,0-4-1.794-4-4s1.794-4,4-4c0.059,0,0.116,0.002,0.174,0.006
		C22.588,64.82,23.711,64,25,64c0.349,0,0.689,0.061,1.011,0.18C26.176,61.847,28.126,60,30.5,60c1.831,0,3.466,1.127,4.153,2.774
		C35.333,62.276,36.155,62,37,62c2.206,0,4,1.794,4,4c0,0.048-0.001,0.095-0.004,0.142C42.739,66.59,44,68.169,44,70
		C44,72.206,42.206,74,40,74z"/>
	<path style="fill:#472B29;" d="M34.5,73c-0.159,0-0.841,0-1,0c-0.276,0-0.5,0.224-0.5,0.5c0,0.276,0.224,0.5,0.5,0.5
		c0.159,0,0.841,0,1,0c0.276,0,0.5-0.224,0.5-0.5C35,73.224,34.776,73,34.5,73z"/>
</g>
</svg>
