<?xml version="1.0" encoding="iso-8859-1"?>
<!-- Generator: Adobe Illustrator 22.1.0, SVG Export Plug-In . SVG Version: 6.00 Build 0)  -->
<svg version="1.1" id="Layer_1" xmlns="http://www.w3.org/2000/svg" xmlns:xlink="http://www.w3.org/1999/xlink" x="0px" y="0px"
	 viewBox="0 0 100 100" style="enable-background:new 0 0 100 100;" xml:space="preserve">
<path style="fill:#C7EDE6;" d="M87.215,56.71C88.35,54.555,89,52.105,89,49.5c0-6.621-4.159-12.257-10.001-14.478
	C78.999,35.015,79,35.008,79,35c0-11.598-9.402-21-21-21c-9.784,0-17.981,6.701-20.313,15.757C36.211,29.272,34.638,29,33,29
	c-7.692,0-14.023,5.793-14.89,13.252C12.906,43.353,9,47.969,9,53.5C9,59.851,14.149,65,20.5,65c0.177,0,0.352-0.012,0.526-0.022
	C21.022,65.153,21,65.324,21,65.5C21,76.822,30.178,86,41.5,86c6.437,0,12.175-2.972,15.934-7.614C59.612,80.611,62.64,82,66,82
	c4.65,0,8.674-2.65,10.666-6.518C77.718,75.817,78.837,76,80,76c6.075,0,11-4.925,11-11C91,61.689,89.53,58.727,87.215,56.71z"/>
<g>
	<path style="fill:#FDFCEF;" d="M79.5,68.5V69h3v-0.5c0,0,4.242,0,5.5,0c2.485,0,4.5-2.015,4.5-4.5c0-2.333-1.782-4.229-4.055-4.455
		C88.467,59.364,88.5,59.187,88.5,59c0-2.485-2.015-4.5-4.5-4.5c-1.438,0-2.703,0.686-3.527,1.736
		C80.333,53.6,78.171,51.5,75.5,51.5c-2.761,0-5,2.239-5,5c0,0.446,0.077,0.87,0.187,1.282C70.045,57.005,69.086,56.5,68,56.5
		c-1.781,0-3.234,1.335-3.455,3.055C64.364,59.533,64.187,59.5,64,59.5c-2.485,0-4.5,2.015-4.5,4.5s2.015,4.5,4.5,4.5s9.5,0,9.5,0
		H79.5z"/>
	<path style="fill:#472B29;" d="M75.5,51c-3.033,0-5.5,2.467-5.5,5.5c0,0.016,0,0.031,0,0.047C69.398,56.192,68.71,56,68,56
		c-1.831,0-3.411,1.261-3.858,3.005C64.095,59.002,64.048,59,64,59c-2.757,0-5,2.243-5,5c0,2.757,2.243,5,5,5h15.5
		c0.276,0,0.5-0.224,0.5-0.5S79.776,68,79.5,68H64c-2.206,0-4-1.794-4-4c0-2.206,1.794-4,4-4c0.117,0,0.23,0.017,0.343,0.032
		l0.141,0.019c0.021,0.003,0.041,0.004,0.062,0.004c0.246,0,0.462-0.185,0.495-0.437C65.232,58.125,66.504,57,68,57
		c0.885,0,1.723,0.401,2.301,1.1c0.098,0.118,0.241,0.182,0.386,0.182c0.078,0,0.156-0.018,0.228-0.056
		c0.209-0.107,0.314-0.346,0.254-0.573C71.054,57.218,71,56.852,71,56.5c0-2.481,2.019-4.5,4.5-4.5c2.381,0,4.347,1.872,4.474,4.263
		c0.011,0.208,0.15,0.387,0.349,0.45c0.05,0.016,0.101,0.024,0.152,0.024c0.15,0,0.296-0.069,0.392-0.192
		C81.638,55.563,82.779,55,84,55c2.206,0,4,1.794,4,4c0,0.117-0.017,0.23-0.032,0.343l-0.019,0.141
		c-0.016,0.134,0.022,0.268,0.106,0.373c0.084,0.105,0.207,0.172,0.34,0.185C90.451,60.247,92,61.949,92,64c0,2.206-1.794,4-4,4
		h-5.5c-0.276,0-0.5,0.224-0.5,0.5s0.224,0.5,0.5,0.5H88c2.757,0,5-2.243,5-5c0-2.397-1.689-4.413-4.003-4.877
		C88.999,59.082,89,59.041,89,59c0-2.757-2.243-5-5-5c-1.176,0-2.293,0.416-3.183,1.164C80.219,52.76,78.055,51,75.5,51L75.5,51z"/>
	<path style="fill:#472B29;" d="M74,58c-1.403,0-2.609,0.999-2.913,2.341C70.72,60.119,70.301,60,69.875,60
		c-1.202,0-2.198,0.897-2.353,2.068C67.319,62.022,67.126,62,66.938,62c-1.529,0-2.811,1.2-2.918,2.732
		C64.01,64.87,64.114,64.99,64.251,65c0.006,0,0.012,0,0.018,0c0.13,0,0.24-0.101,0.249-0.232c0.089-1.271,1.151-2.268,2.419-2.268
		c0.229,0,0.47,0.042,0.738,0.127c0.022,0.007,0.045,0.01,0.067,0.01c0.055,0,0.11-0.02,0.156-0.054
		C67.962,62.537,68,62.455,68,62.375c0-1.034,0.841-1.875,1.875-1.875c0.447,0,0.885,0.168,1.231,0.473
		c0.047,0.041,0.106,0.063,0.165,0.063c0.032,0,0.063-0.006,0.093-0.019c0.088-0.035,0.148-0.117,0.155-0.212
		C71.623,59.512,72.712,58.5,74,58.5c0.208,0,0.425,0.034,0.682,0.107c0.023,0.007,0.047,0.01,0.07,0.01
		c0.109,0,0.207-0.073,0.239-0.182c0.038-0.133-0.039-0.271-0.172-0.309C74.517,58.04,74.256,58,74,58L74,58z"/>
	<path style="fill:#472B29;" d="M87.883,59.5c-1.326,0-2.508,0.897-2.874,2.182c-0.038,0.133,0.039,0.271,0.172,0.309
		C85.205,61.997,85.228,62,85.25,62c0.109,0,0.209-0.072,0.24-0.182C85.795,60.748,86.779,60,87.883,60
		c0.117,0,0.23,0.014,0.342,0.029c0.012,0.002,0.023,0.003,0.035,0.003c0.121,0,0.229-0.092,0.246-0.217
		c0.019-0.137-0.077-0.263-0.214-0.281C88.158,59.516,88.022,59.5,87.883,59.5L87.883,59.5z"/>
</g>
<g>
	<path style="fill:#FFFFFF;" d="M15.5,51h-10C5.224,51,5,50.776,5,50.5S5.224,50,5.5,50h10c0.276,0,0.5,0.224,0.5,0.5
		S15.777,51,15.5,51z"/>
	<path style="fill:#FFFFFF;" d="M18.5,51h-1c-0.276,0-0.5-0.224-0.5-0.5s0.224-0.5,0.5-0.5h1c0.276,0,0.5,0.224,0.5,0.5
		S18.777,51,18.5,51z"/>
	<path style="fill:#FFFFFF;" d="M23.491,53H14.5c-0.276,0-0.5-0.224-0.5-0.5s0.224-0.5,0.5-0.5h8.991c0.276,0,0.5,0.224,0.5,0.5
		S23.767,53,23.491,53z"/>
	<path style="fill:#FFFFFF;" d="M12.5,53h-1c-0.276,0-0.5-0.224-0.5-0.5s0.224-0.5,0.5-0.5h1c0.276,0,0.5,0.224,0.5,0.5
		S12.777,53,12.5,53z"/>
	<path style="fill:#FFFFFF;" d="M9.5,53h-2C7.224,53,7,52.776,7,52.5S7.224,52,7.5,52h2c0.276,0,0.5,0.224,0.5,0.5S9.777,53,9.5,53z
		"/>
	<path style="fill:#FFFFFF;" d="M15.5,55h-2c-0.276,0-0.5-0.224-0.5-0.5s0.224-0.5,0.5-0.5h2c0.276,0,0.5,0.224,0.5,0.5
		S15.776,55,15.5,55z"/>
	<path style="fill:#FFFFFF;" d="M18.5,46c-0.177,0-0.823,0-1,0c-0.276,0-0.5,0.224-0.5,0.5c0,0.276,0.224,0.5,0.5,0.5
		c0.177,0,0.823,0,1,0c0.276,0,0.5-0.224,0.5-0.5C19,46.224,18.776,46,18.5,46z"/>
	<path style="fill:#FFFFFF;" d="M18.5,48c-0.177,0-4.823,0-5,0c-0.276,0-0.5,0.224-0.5,0.5c0,0.276,0.224,0.5,0.5,0.5
		c0.177,0,4.823,0,5,0c0.276,0,0.5-0.224,0.5-0.5C19,48.224,18.776,48,18.5,48z"/>
	<path style="fill:#FFFFFF;" d="M23.5,50c-0.177,0-2.823,0-3,0c-0.276,0-0.5,0.224-0.5,0.5c0,0.276,0.224,0.5,0.5,0.5
		c0.177,0,2.823,0,3,0c0.276,0,0.5-0.224,0.5-0.5C24,50.224,23.776,50,23.5,50z"/>
</g>
<g>
	<path style="fill:#FFFFFF;" d="M72.5,24h-10c-0.276,0-0.5-0.224-0.5-0.5s0.224-0.5,0.5-0.5h10c0.276,0,0.5,0.224,0.5,0.5
		S72.776,24,72.5,24z"/>
	<path style="fill:#FFFFFF;" d="M76.5,24h-2c-0.276,0-0.5-0.224-0.5-0.5s0.224-0.5,0.5-0.5h2c0.276,0,0.5,0.224,0.5,0.5
		S76.776,24,76.5,24z"/>
	<path style="fill:#FFFFFF;" d="M81.5,26h-10c-0.276,0-0.5-0.224-0.5-0.5s0.224-0.5,0.5-0.5h10c0.276,0,0.5,0.224,0.5,0.5
		S81.777,26,81.5,26z"/>
	<path style="fill:#FFFFFF;" d="M69.5,26h-1c-0.276,0-0.5-0.224-0.5-0.5s0.224-0.5,0.5-0.5h1c0.276,0,0.5,0.224,0.5,0.5
		S69.776,26,69.5,26z"/>
	<path style="fill:#FFFFFF;" d="M66.47,26H64.5c-0.276,0-0.5-0.224-0.5-0.5s0.224-0.5,0.5-0.5h1.97c0.276,0,0.5,0.224,0.5,0.5
		S66.746,26,66.47,26z"/>
	<path style="fill:#FFFFFF;" d="M75.5,22h-5c-0.276,0-0.5-0.224-0.5-0.5s0.224-0.5,0.5-0.5h5c0.276,0,0.5,0.224,0.5,0.5
		S75.777,22,75.5,22z"/>
	<path style="fill:#FFFFFF;" d="M72.5,28h-2c-0.276,0-0.5-0.224-0.5-0.5s0.224-0.5,0.5-0.5h2c0.276,0,0.5,0.224,0.5,0.5
		S72.776,28,72.5,28z"/>
</g>
<g>
	<path style="fill:#472B29;" d="M40.625,55.125c-0.128,0-0.256-0.049-0.354-0.146L30.146,44.854c-0.195-0.195-0.195-0.512,0-0.707
		s0.512-0.195,0.707,0l10.125,10.125c0.195,0.195,0.195,0.512,0,0.707C40.881,55.076,40.753,55.125,40.625,55.125z"/>
	<path style="fill:#472B29;" d="M35.5,50c-0.276,0-0.5-0.224-0.5-0.5v-7c0-0.276,0.224-0.5,0.5-0.5s0.5,0.224,0.5,0.5v7
		C36,49.776,35.776,50,35.5,50z"/>
	<path style="fill:#472B29;" d="M62.5,55c-0.128,0-0.256-0.049-0.354-0.146c-0.195-0.195-0.195-0.512,0-0.707l10-10
		c0.195-0.195,0.512-0.195,0.707,0s0.195,0.512,0,0.707l-10,10C62.756,54.951,62.628,55,62.5,55z"/>
	<path style="fill:#472B29;" d="M67.5,50c-0.276,0-0.5-0.224-0.5-0.5v-7c0-0.276,0.224-0.5,0.5-0.5s0.5,0.224,0.5,0.5v7
		C68,49.776,67.776,50,67.5,50z"/>
	<g>
		<path style="fill:#FDFCEF;" d="M52,46.5c-7.995,0-14.5,6.505-14.5,14.5S44.005,75.5,52,75.5S66.5,68.995,66.5,61
			S59.995,46.5,52,46.5z"/>
		<path style="fill:#472B29;" d="M52,47.4c7.499,0,13.6,6.101,13.6,13.6S59.499,74.6,52,74.6S38.4,68.499,38.4,61
			S44.501,47.4,52,47.4 M52,46c-8.284,0-15,6.716-15,15s6.716,15,15,15s15-6.716,15-15S60.284,46,52,46L52,46z"/>
	</g>
	<g>
		<path style="fill:#FDFCEF;stroke:#FDFCEF;stroke-miterlimit:10;" d="M52,28.5c-5.79,0-10.5,4.71-10.5,10.5S46.21,49.5,52,49.5
			S62.5,44.79,62.5,39S57.79,28.5,52,28.5z"/>
		<path style="fill:#472B29;" d="M52,29.4c5.293,0,9.6,4.307,9.6,9.6s-4.307,9.6-9.6,9.6s-9.6-4.307-9.6-9.6S46.707,29.4,52,29.4
			 M52,28c-6.075,0-11,4.925-11,11s4.925,11,11,11s11-4.925,11-11S58.075,28,52,28L52,28z"/>
	</g>
	<circle style="fill:#472B29;" cx="48" cy="38" r="1"/>
	<circle style="fill:#472B29;" cx="56" cy="38" r="1"/>
	<g>
		<path style="fill:#D82745;" d="M49.5,61.5V62V61.5C49.5,61.5,49.5,61.5,49.5,61.5z M46.5,48.5V52c0,0.771-0.199,1.278-0.614,2.264
			c-0.585,1.388-1.386,3.289-1.386,6.611V61.5h5v-0.625c0-2.313,0.482-3.458,0.993-4.67C50.966,55.083,51.5,53.813,51.5,52v-3.5
			H46.5z"/>
		<path style="fill:#472B29;" d="M51,49v3c0,1.713-0.491,2.88-0.968,4.011C49.501,57.271,49,58.461,49,60.875V61h-4v-0.125
			c0-3.222,0.746-4.993,1.346-6.418C46.74,53.523,47,52.906,47,52v-3H51 M52,48h-6v4c0,0.675-0.176,1.122-0.575,2.069
			C44.824,55.496,44,57.451,44,60.875V61.5c0,0.276,0.224,0.5,0.5,0.5h5c0.276,0,0.5-0.224,0.5-0.5v-0.625
			c0-2.212,0.442-3.262,0.954-4.477C51.444,55.234,52,53.916,52,52V48L52,48z"/>
	</g>
	<g>
		<path style="fill:#EE3E54;" d="M59.5,51.5h-15c-0.552,0-1-0.448-1-1v-3c0-0.552,0.448-1,1-1h15c0.552,0,1,0.448,1,1v3
			C60.5,51.052,60.052,51.5,59.5,51.5z"/>
		<path style="fill:#472B29;" d="M59.5,52h-15c-0.827,0-1.5-0.673-1.5-1.5v-3c0-0.827,0.673-1.5,1.5-1.5h15
			c0.827,0,1.5,0.673,1.5,1.5v3C61,51.327,60.327,52,59.5,52z M44.5,47c-0.276,0-0.5,0.225-0.5,0.5v3c0,0.275,0.224,0.5,0.5,0.5h15
			c0.276,0,0.5-0.225,0.5-0.5v-3c0-0.275-0.224-0.5-0.5-0.5H44.5z"/>
	</g>
	<g>
		<path style="fill:#678C26;" d="M57.5,22.5h-11c-1.105,0-2,0.895-2,2v6.332c0,1.105,0.895,2,2,2l11,0c1.105,0,2-0.895,2-2V24.5
			C59.5,23.395,58.605,22.5,57.5,22.5z"/>
		<path style="fill:#472B29;" d="M57.5,33.332h-11c-1.378,0-2.5-1.121-2.5-2.5V24.5c0-1.379,1.122-2.5,2.5-2.5h11
			c1.378,0,2.5,1.121,2.5,2.5v6.332C60,32.211,58.878,33.332,57.5,33.332z M46.5,23c-0.827,0-1.5,0.673-1.5,1.5v6.332
			c0,0.827,0.673,1.5,1.5,1.5h11c0.827,0,1.5-0.673,1.5-1.5V24.5c0-0.827-0.673-1.5-1.5-1.5H46.5z"/>
	</g>
	<g>
		<path style="fill:#88AE45;" d="M61.5,29.5c-1.105,0-17.895,0-19,0s-2,0.895-2,2c0,1.105,0.895,2,2,2c0.634,0,18.366,0,19,0
			c1.105,0,2-0.895,2-2C63.5,30.395,62.605,29.5,61.5,29.5z"/>
		<path style="fill:#472B29;" d="M61.5,34h-19c-1.378,0-2.5-1.121-2.5-2.5s1.122-2.5,2.5-2.5h19c1.378,0,2.5,1.121,2.5,2.5
			S62.878,34,61.5,34z M42.5,30c-0.827,0-1.5,0.673-1.5,1.5s0.673,1.5,1.5,1.5h19c0.827,0,1.5-0.673,1.5-1.5S62.327,30,61.5,30H42.5
			z"/>
	</g>
	<path style="fill:#472B29;" d="M53.5,27.75h-9c-0.207,0-0.375-0.168-0.375-0.375S44.293,27,44.5,27h9
		c0.207,0,0.375,0.168,0.375,0.375S53.707,27.75,53.5,27.75z"/>
	<path style="fill:#472B29;" d="M59.375,27.75H56.5c-0.207,0-0.375-0.168-0.375-0.375S56.293,27,56.5,27h2.875
		c0.207,0,0.375,0.168,0.375,0.375S59.582,27.75,59.375,27.75z"/>
	<g>
		<path style="fill:#FF991F;" d="M57.625,41.5c0,0-4.612,2.125-6.125,2.125c-1.167,0-2.125-0.951-2.125-2.125
			s0.958-2.125,2.125-2.125C53.013,39.375,57.625,41.5,57.625,41.5z"/>
		<path style="fill:#472B29;" d="M51.5,44c-1.378,0-2.5-1.121-2.5-2.5s1.122-2.5,2.5-2.5c1.577,0,6.09,2.071,6.282,2.159
			C57.915,41.221,58,41.354,58,41.5s-0.085,0.279-0.218,0.341C57.59,41.929,53.077,44,51.5,44z M51.5,39.75
			c-0.965,0-1.75,0.785-1.75,1.75s0.785,1.75,1.75,1.75c0.985,0,3.635-1.064,5.206-1.75C55.135,40.814,52.485,39.75,51.5,39.75z"/>
	</g>
	<path style="fill:#472B29;" d="M52.375,70.976c-0.2,0-0.366-0.158-0.374-0.36c-0.008-0.207,0.153-0.381,0.36-0.39
		c1.469-0.057,2.843-0.432,4.084-1.114c0.18-0.101,0.409-0.033,0.509,0.148c0.1,0.182,0.034,0.409-0.148,0.51
		c-1.344,0.738-2.83,1.145-4.416,1.206C52.385,70.976,52.38,70.976,52.375,70.976z"/>
	<path style="fill:#472B29;" d="M59.798,67c-0.076,0-0.153-0.023-0.219-0.071c-0.168-0.121-0.206-0.355-0.084-0.523
		c1.148-1.588,1.755-3.457,1.755-5.405c0-2.372-0.91-4.633-2.563-6.366c-0.143-0.149-0.137-0.387,0.013-0.53
		c0.149-0.144,0.387-0.138,0.53,0.013C61.016,55.989,62,58.434,62,61c0,2.106-0.656,4.128-1.897,5.845
		C60.029,66.946,59.915,67,59.798,67z"/>
</g>
<g>
	<path style="fill:#FDFCEF;" d="M36.5,74.5c0,0,1.567,0,3.5,0s3.5-1.567,3.5-3.5c0-1.781-1.335-3.234-3.055-3.455
		C40.473,67.366,40.5,67.187,40.5,67c0-1.933-1.567-3.5-3.5-3.5c-1.032,0-1.95,0.455-2.59,1.165
		c-0.384-1.808-1.987-3.165-3.91-3.165c-2.209,0-4,1.791-4,4c0,0.191,0.03,0.374,0.056,0.558C26.128,65.714,25.592,65.5,25,65.5
		c-1.228,0-2.245,0.887-2.455,2.055C22.366,67.527,22.187,67.5,22,67.5c-1.933,0-3.5,1.567-3.5,3.5s1.567,3.5,3.5,3.5s7.5,0,7.5,0
		V75h7V74.5z"/>
	<path style="fill:#472B29;" d="M38.25,70C38.112,70,38,69.888,38,69.75c0-1.223,0.995-2.218,2.218-2.218
		c0.034,0.009,0.737-0.001,1.244,0.136c0.133,0.036,0.212,0.173,0.176,0.306c-0.036,0.134-0.173,0.213-0.306,0.176
		c-0.444-0.12-1.1-0.12-1.113-0.118c-0.948,0-1.719,0.771-1.719,1.718C38.5,69.888,38.388,70,38.25,70z"/>
	<circle style="fill:#472B29;" cx="31.5" cy="74.5" r="0.5"/>
	<path style="fill:#472B29;" d="M40,75h-3.5c-0.276,0-0.5-0.224-0.5-0.5s0.224-0.5,0.5-0.5H40c1.654,0,3-1.346,3-3
		c0-1.496-1.125-2.768-2.618-2.959c-0.134-0.018-0.255-0.088-0.336-0.196s-0.115-0.244-0.094-0.377C39.975,67.314,40,67.16,40,67
		c0-1.654-1.346-3-3-3c-0.85,0-1.638,0.355-2.219,1c-0.125,0.139-0.321,0.198-0.5,0.148c-0.182-0.049-0.321-0.195-0.36-0.379
		C33.58,63.165,32.141,62,30.5,62c-1.93,0-3.5,1.57-3.5,3.5c0,0.143,0.021,0.28,0.041,0.418c0.029,0.203-0.063,0.438-0.242,0.54
		c-0.179,0.102-0.396,0.118-0.556-0.01C25.878,66.155,25.449,66,25,66c-0.966,0-1.792,0.691-1.963,1.644
		c-0.048,0.267-0.296,0.446-0.569,0.405C22.314,68.025,22.16,68,22,68c-1.654,0-3,1.346-3,3s1.346,3,3,3h7.5
		c0.276,0,0.5,0.224,0.5,0.5S29.776,75,29.5,75H22c-2.206,0-4-1.794-4-4s1.794-4,4-4c0.059,0,0.116,0.002,0.174,0.006
		C22.588,65.82,23.711,65,25,65c0.349,0,0.689,0.061,1.011,0.18C26.176,62.847,28.126,61,30.5,61c1.831,0,3.466,1.127,4.153,2.774
		C35.333,63.276,36.155,63,37,63c2.206,0,4,1.794,4,4c0,0.048-0.001,0.095-0.004,0.142C42.739,67.59,44,69.169,44,71
		C44,73.206,42.206,75,40,75z"/>
	<path style="fill:#472B29;" d="M34.5,74c-0.159,0-0.841,0-1,0c-0.276,0-0.5,0.224-0.5,0.5c0,0.276,0.224,0.5,0.5,0.5
		c0.159,0,0.841,0,1,0c0.276,0,0.5-0.224,0.5-0.5C35,74.224,34.776,74,34.5,74z"/>
</g>
</svg>
