<?xml version="1.0" encoding="iso-8859-1"?>
<!-- Generator: Adobe Illustrator 22.1.0, SVG Export Plug-In . SVG Version: 6.00 Build 0)  -->
<svg version="1.1" id="Layer_1" xmlns="http://www.w3.org/2000/svg" xmlns:xlink="http://www.w3.org/1999/xlink" x="0px" y="0px"
	 viewBox="0 0 100 100" style="enable-background:new 0 0 100 100;" xml:space="preserve">
<g>
	<path style="fill:#C7EDE6;" d="M87.215,56.71C88.35,54.555,89,52.105,89,49.5c0-6.621-4.159-12.257-10.001-14.478
		C78.999,35.015,79,35.008,79,35c0-11.598-9.402-21-21-21c-9.784,0-17.981,6.701-20.313,15.757C36.211,29.272,34.638,29,33,29
		c-7.692,0-14.023,5.793-14.89,13.252C12.906,43.353,9,47.969,9,53.5C9,59.851,14.149,65,20.5,65c0.177,0,0.352-0.012,0.526-0.022
		C21.022,65.153,21,65.324,21,65.5C21,76.822,30.178,86,41.5,86c6.437,0,12.175-2.972,15.934-7.614C59.612,80.611,62.64,82,66,82
		c4.65,0,8.674-2.65,10.666-6.518C77.718,75.817,78.837,76,80,76c6.075,0,11-4.925,11-11C91,61.689,89.53,58.727,87.215,56.71z"/>
	<g>
		<path style="fill:#FDFCEF;" d="M74.5,72.5V73h3v-0.5c0,0,4.242,0,5.5,0c2.485,0,4.5-2.015,4.5-4.5
			c0-2.333-1.782-4.229-4.055-4.455C83.467,63.364,83.5,63.187,83.5,63c0-2.485-2.015-4.5-4.5-4.5c-1.438,0-2.703,0.686-3.527,1.736
			C75.333,57.6,73.171,55.5,70.5,55.5c-2.761,0-5,2.239-5,5c0,0.446,0.077,0.87,0.187,1.282C65.045,61.005,64.086,60.5,63,60.5
			c-1.781,0-3.234,1.335-3.455,3.055C59.364,63.533,59.187,63.5,59,63.5c-2.485,0-4.5,2.015-4.5,4.5s2.015,4.5,4.5,4.5s9.5,0,9.5,0
			H74.5z"/>
		<path style="fill:#472B29;" d="M70.5,55c-3.033,0-5.5,2.467-5.5,5.5c0,0.016,0,0.031,0,0.047C64.398,60.192,63.71,60,63,60
			c-1.831,0-3.411,1.261-3.858,3.005C59.095,63.002,59.048,63,59,63c-2.757,0-5,2.243-5,5s2.243,5,5,5h15.5
			c0.276,0,0.5-0.224,0.5-0.5S74.776,72,74.5,72H59c-2.206,0-4-1.794-4-4s1.794-4,4-4c0.117,0,0.23,0.017,0.343,0.032l0.141,0.019
			c0.021,0.003,0.041,0.004,0.062,0.004c0.246,0,0.462-0.185,0.495-0.437C60.232,62.125,61.504,61,63,61
			c0.885,0,1.723,0.401,2.301,1.1c0.098,0.118,0.241,0.182,0.386,0.182c0.078,0,0.156-0.018,0.228-0.056
			c0.209-0.107,0.314-0.346,0.254-0.573C66.054,61.218,66,60.852,66,60.5c0-2.481,2.019-4.5,4.5-4.5
			c2.381,0,4.347,1.872,4.474,4.263c0.011,0.208,0.15,0.387,0.349,0.45c0.05,0.016,0.101,0.024,0.152,0.024
			c0.15,0,0.296-0.069,0.392-0.192C76.638,59.563,77.779,59,79,59c2.206,0,4,1.794,4,4c0,0.117-0.017,0.23-0.032,0.343l-0.019,0.141
			c-0.016,0.134,0.022,0.268,0.106,0.373c0.084,0.105,0.207,0.172,0.34,0.185C85.451,64.247,87,65.949,87,68c0,2.206-1.794,4-4,4
			h-5.5c-0.276,0-0.5,0.224-0.5,0.5s0.224,0.5,0.5,0.5H83c2.757,0,5-2.243,5-5c0-2.397-1.689-4.413-4.003-4.877
			C83.999,63.082,84,63.041,84,63c0-2.757-2.243-5-5-5c-1.176,0-2.293,0.416-3.183,1.164C75.219,56.76,73.055,55,70.5,55L70.5,55z"
			/>
		<path style="fill:#472B29;" d="M69,62c-1.403,0-2.609,0.999-2.913,2.341C65.72,64.119,65.301,64,64.875,64
			c-1.202,0-2.198,0.897-2.353,2.068C62.319,66.022,62.126,66,61.937,66c-1.529,0-2.811,1.2-2.918,2.732
			C59.01,68.87,59.114,68.99,59.251,69c0.006,0,0.012,0,0.018,0c0.13,0,0.24-0.101,0.249-0.232c0.089-1.271,1.151-2.268,2.419-2.268
			c0.229,0,0.47,0.042,0.738,0.127c0.022,0.007,0.045,0.01,0.067,0.01c0.055,0,0.11-0.02,0.156-0.054
			C62.962,66.537,63,66.455,63,66.375c0-1.034,0.841-1.875,1.875-1.875c0.447,0,0.885,0.168,1.231,0.473
			c0.047,0.041,0.106,0.063,0.165,0.063c0.032,0,0.063-0.006,0.093-0.019c0.088-0.035,0.148-0.117,0.155-0.212
			C66.623,63.512,67.712,62.5,69,62.5c0.208,0,0.425,0.034,0.682,0.107c0.023,0.007,0.047,0.01,0.07,0.01
			c0.109,0,0.207-0.073,0.239-0.182c0.038-0.133-0.039-0.271-0.172-0.309C69.517,62.04,69.256,62,69,62L69,62z"/>
		<path style="fill:#472B29;" d="M82.883,63.5c-1.326,0-2.508,0.897-2.874,2.182c-0.038,0.133,0.039,0.271,0.172,0.309
			C80.205,65.997,80.228,66,80.25,66c0.109,0,0.209-0.072,0.24-0.182C80.795,64.748,81.779,64,82.883,64
			c0.117,0,0.23,0.014,0.342,0.029c0.012,0.002,0.023,0.003,0.035,0.003c0.121,0,0.229-0.092,0.246-0.217
			c0.019-0.137-0.077-0.263-0.214-0.281C83.158,63.516,83.022,63.5,82.883,63.5L82.883,63.5z"/>
	</g>
	<g>
		<path style="fill:#FFFFFF;" d="M22.5,43h-10c-0.276,0-0.5-0.224-0.5-0.5s0.224-0.5,0.5-0.5h10c0.276,0,0.5,0.224,0.5,0.5
			S22.777,43,22.5,43z"/>
		<path style="fill:#FFFFFF;" d="M25.5,43h-1c-0.276,0-0.5-0.224-0.5-0.5s0.224-0.5,0.5-0.5h1c0.276,0,0.5,0.224,0.5,0.5
			S25.777,43,25.5,43z"/>
		<path style="fill:#FFFFFF;" d="M30.491,45H21.5c-0.276,0-0.5-0.224-0.5-0.5s0.224-0.5,0.5-0.5h8.991c0.276,0,0.5,0.224,0.5,0.5
			S30.767,45,30.491,45z"/>
		<path style="fill:#FFFFFF;" d="M19.5,45h-1c-0.276,0-0.5-0.224-0.5-0.5s0.224-0.5,0.5-0.5h1c0.276,0,0.5,0.224,0.5,0.5
			S19.777,45,19.5,45z"/>
		<path style="fill:#FFFFFF;" d="M16.5,45h-4c-0.276,0-0.5-0.224-0.5-0.5s0.224-0.5,0.5-0.5h4c0.276,0,0.5,0.224,0.5,0.5
			S16.777,45,16.5,45z"/>
		<path style="fill:#FFFFFF;" d="M22.5,47h-2c-0.276,0-0.5-0.224-0.5-0.5s0.224-0.5,0.5-0.5h2c0.276,0,0.5,0.224,0.5,0.5
			S22.776,47,22.5,47z"/>
		<path style="fill:#FFFFFF;" d="M25.5,38c-0.177,0-0.823,0-1,0c-0.276,0-0.5,0.224-0.5,0.5c0,0.276,0.224,0.5,0.5,0.5
			c0.177,0,0.823,0,1,0c0.276,0,0.5-0.224,0.5-0.5C26,38.224,25.776,38,25.5,38z"/>
		<path style="fill:#FFFFFF;" d="M25.5,40c-0.177,0-4.823,0-5,0c-0.276,0-0.5,0.224-0.5,0.5c0,0.276,0.224,0.5,0.5,0.5
			c0.177,0,4.823,0,5,0c0.276,0,0.5-0.224,0.5-0.5C26,40.224,25.776,40,25.5,40z"/>
		<path style="fill:#FFFFFF;" d="M29.5,42c-0.177,0-1.823,0-2,0c-0.276,0-0.5,0.224-0.5,0.5c0,0.276,0.224,0.5,0.5,0.5
			c0.177,0,1.823,0,2,0c0.276,0,0.5-0.224,0.5-0.5C30,42.224,29.776,42,29.5,42z"/>
	</g>
	<g>
		<path style="fill:#FFFFFF;" d="M72.5,24h-10c-0.276,0-0.5-0.224-0.5-0.5s0.224-0.5,0.5-0.5h10c0.276,0,0.5,0.224,0.5,0.5
			S72.776,24,72.5,24z"/>
		<path style="fill:#FFFFFF;" d="M76.5,24h-2c-0.276,0-0.5-0.224-0.5-0.5s0.224-0.5,0.5-0.5h2c0.276,0,0.5,0.224,0.5,0.5
			S76.776,24,76.5,24z"/>
		<path style="fill:#FFFFFF;" d="M81.5,26h-10c-0.276,0-0.5-0.224-0.5-0.5s0.224-0.5,0.5-0.5h10c0.276,0,0.5,0.224,0.5,0.5
			S81.777,26,81.5,26z"/>
		<path style="fill:#FFFFFF;" d="M69.5,26h-1c-0.276,0-0.5-0.224-0.5-0.5s0.224-0.5,0.5-0.5h1c0.276,0,0.5,0.224,0.5,0.5
			S69.776,26,69.5,26z"/>
		<path style="fill:#FFFFFF;" d="M66.47,26H64.5c-0.276,0-0.5-0.224-0.5-0.5s0.224-0.5,0.5-0.5h1.97c0.276,0,0.5,0.224,0.5,0.5
			S66.746,26,66.47,26z"/>
		<path style="fill:#FFFFFF;" d="M75.5,22h-5c-0.276,0-0.5-0.224-0.5-0.5s0.224-0.5,0.5-0.5h5c0.276,0,0.5,0.224,0.5,0.5
			S75.777,22,75.5,22z"/>
		<path style="fill:#FFFFFF;" d="M72.5,28h-2c-0.276,0-0.5-0.224-0.5-0.5s0.224-0.5,0.5-0.5h2c0.276,0,0.5,0.224,0.5,0.5
			S72.776,28,72.5,28z"/>
	</g>
	<g>
		<path style="fill:#FDFCEF;" d="M30.5,65.5c0,0,1.567,0,3.5,0s3.5-1.567,3.5-3.5c0-1.781-1.335-3.234-3.055-3.455
			C34.473,58.366,34.5,58.187,34.5,58c0-1.933-1.567-3.5-3.5-3.5c-1.032,0-1.95,0.455-2.59,1.165
			c-0.384-1.808-1.987-3.165-3.91-3.165c-2.209,0-4,1.791-4,4c0,0.191,0.03,0.374,0.056,0.558C20.128,56.714,19.592,56.5,19,56.5
			c-1.228,0-2.245,0.887-2.455,2.055C16.366,58.527,16.187,58.5,16,58.5c-1.933,0-3.5,1.567-3.5,3.5s1.567,3.5,3.5,3.5s7.5,0,7.5,0
			V66h7V65.5z"/>
		<path style="fill:#472B29;" d="M32.25,61C32.112,61,32,60.888,32,60.75c0-1.223,0.995-2.218,2.218-2.218
			c0.034,0.009,0.737-0.001,1.244,0.136c0.133,0.036,0.212,0.173,0.176,0.306c-0.036,0.134-0.173,0.213-0.306,0.176
			c-0.444-0.12-1.1-0.12-1.113-0.118c-0.948,0-1.719,0.771-1.719,1.718C32.5,60.888,32.388,61,32.25,61z"/>
		<circle style="fill:#472B29;" cx="25.5" cy="65.5" r="0.5"/>
		<path style="fill:#472B29;" d="M34,66h-3.5c-0.276,0-0.5-0.224-0.5-0.5s0.224-0.5,0.5-0.5H34c1.654,0,3-1.346,3-3
			c0-1.496-1.125-2.768-2.618-2.959c-0.134-0.018-0.255-0.088-0.336-0.196s-0.115-0.244-0.094-0.377C33.975,58.314,34,58.16,34,58
			c0-1.654-1.346-3-3-3c-0.85,0-1.638,0.355-2.219,1c-0.125,0.139-0.321,0.198-0.5,0.148c-0.182-0.049-0.321-0.195-0.36-0.379
			C27.58,54.165,26.141,53,24.5,53c-1.93,0-3.5,1.57-3.5,3.5c0,0.143,0.021,0.28,0.041,0.418c0.029,0.203-0.063,0.438-0.242,0.54
			c-0.179,0.102-0.396,0.118-0.556-0.01C19.878,57.155,19.449,57,19,57c-0.966,0-1.792,0.691-1.963,1.644
			c-0.048,0.267-0.296,0.446-0.569,0.405C16.314,59.025,16.16,59,16,59c-1.654,0-3,1.346-3,3s1.346,3,3,3h7.5
			c0.276,0,0.5,0.224,0.5,0.5S23.776,66,23.5,66H16c-2.206,0-4-1.794-4-4s1.794-4,4-4c0.059,0,0.116,0.002,0.174,0.006
			C16.588,56.82,17.711,56,19,56c0.349,0,0.689,0.061,1.011,0.18C20.176,53.847,22.126,52,24.5,52c1.831,0,3.466,1.127,4.153,2.774
			C29.333,54.276,30.155,54,31,54c2.206,0,4,1.794,4,4c0,0.048-0.001,0.095-0.004,0.142C36.739,58.59,38,60.169,38,62
			C38,64.206,36.206,66,34,66z"/>
		<path style="fill:#472B29;" d="M28.5,65c-0.159,0-0.841,0-1,0c-0.276,0-0.5,0.224-0.5,0.5c0,0.276,0.224,0.5,0.5,0.5
			c0.159,0,0.841,0,1,0c0.276,0,0.5-0.224,0.5-0.5C29,65.224,28.776,65,28.5,65z"/>
	</g>
</g>
<g>
	<path style="fill:#DDF2F1;" d="M71.37,45c-0.57-2-1.18-3.94-1.78-5.73c-1.45-4.34-2.83-7.84-3.49-9.46
		c-0.07-0.18-0.25-0.3-0.44-0.3c-0.05,0-0.09,0.01-0.14,0.02l-10.66,3.12c-0.25,0.07-0.4,0.31-0.35,0.56
		c0.29,1.72,0.97,5.42,2.04,9.87c0.44,1.83,0.95,3.8,1.52,5.8c1.21,4.25,3.1,7.18,5.44,8.48c1.48,0.81,3.15,0.98,4.84,0.49
		c2.72-0.8,4.08-2.96,4.08-6.46C72.43,49.6,72.07,47.47,71.37,45z"/>
	<path style="fill:#DEE0E2;" d="M66.871,58.024l1.825,6.411c0.236,0.827-0.077,1.711-0.78,2.199l-3.98,2.77l0.313,1.098
		l14.253-4.164l-0.316-1.097l-4.823-0.196c-0.855-0.036-1.59-0.616-1.827-1.444l-1.823-6.406L66.871,58.024z"/>
	<path style="fill:#472B29;" d="M78.98,66.197l-0.313-1.095c-0.059-0.207-0.243-0.352-0.455-0.361l-4.828-0.198
		c-0.638-0.026-1.189-0.462-1.366-1.082l-1.832-6.407l-1.344,0.392l1.83,6.399c0.344,1.203,1.411,2.045,2.655,2.096l2.905,0.119
		l-10.195,2.977l2.394-1.666c1.019-0.709,1.473-1.989,1.131-3.186l-1.834-6.414l-1.344,0.392l1.832,6.407
		c0.177,0.62-0.058,1.286-0.584,1.652l-3.98,2.769c-0.175,0.122-0.254,0.344-0.195,0.551l0.313,1.095
		C63.831,70.858,64.029,71,64.244,71c0.045,0,0.092-0.006,0.138-0.02l14.261-4.164C78.905,66.74,79.056,66.463,78.98,66.197z"/>
	<path style="fill:#FDF5A9;" d="M71.37,45c-0.545-1.914-0.92-3.275-1.495-5H55.75c0.427,1.763,1.774,6.966,2.32,8.88
		c1.21,4.25,3.1,7.18,5.44,8.48c1.48,0.81,3.15,0.98,4.84,0.49c2.72-0.8,4.08-2.96,4.08-6.46C72.43,49.6,72.07,47.47,71.37,45z"/>
	<path style="fill:#472B29;" d="M65.412,30.501c1.006,2.491,3.234,8.251,5.091,14.742c2.914,10.19-1.089,11.359-2.405,11.743
		c-0.547,0.16-1.095,0.241-1.629,0.241c-3.275,0-5.951-3.05-7.535-8.589c-1.859-6.502-3.016-12.588-3.478-15.23L65.412,30.501
		 M65.659,29.012c-0.092,0-0.186,0.013-0.278,0.04l-10.664,3.114c-0.485,0.142-0.788,0.623-0.702,1.125
		c0.395,2.298,1.59,8.795,3.573,15.731c2.047,7.159,5.57,9.605,8.881,9.605c0.688,0,1.367-0.106,2.022-0.297
		c3.803-1.11,5.831-4.825,3.359-13.472c-1.983-6.936-4.402-13.076-5.281-15.233C66.412,29.245,66.049,29.012,65.659,29.012
		L65.659,29.012z"/>
	<g>
		<circle style="fill:#FDFCEF;" cx="63" cy="48" r="0.75"/>
		<path style="fill:#472B29;" d="M63,49c-0.551,0-1-0.449-1-1s0.449-1,1-1s1,0.449,1,1S63.551,49,63,49z M63,47.5
			c-0.276,0-0.5,0.224-0.5,0.5s0.224,0.5,0.5,0.5s0.5-0.224,0.5-0.5S63.276,47.5,63,47.5z"/>
	</g>
	<g>
		<circle style="fill:#FDFCEF;" cx="68" cy="49" r="0.75"/>
		<path style="fill:#472B29;" d="M68,50c-0.551,0-1-0.449-1-1s0.449-1,1-1s1,0.449,1,1S68.551,50,68,50z M68,48.5
			c-0.276,0-0.5,0.224-0.5,0.5s0.224,0.5,0.5,0.5s0.5-0.224,0.5-0.5S68.276,48.5,68,48.5z"/>
	</g>
	<g>
		<circle style="fill:#FDFCEF;" cx="68" cy="54" r="0.75"/>
		<path style="fill:#472B29;" d="M68,55c-0.551,0-1-0.449-1-1s0.449-1,1-1s1,0.449,1,1S68.551,55,68,55z M68,53.5
			c-0.276,0-0.5,0.224-0.5,0.5s0.224,0.5,0.5,0.5s0.5-0.224,0.5-0.5S68.276,53.5,68,53.5z"/>
	</g>
	<g>
		<circle style="fill:#FDFCEF;" cx="67" cy="44" r="0.75"/>
		<path style="fill:#472B29;" d="M67,45c-0.551,0-1-0.449-1-1s0.449-1,1-1s1,0.449,1,1S67.551,45,67,45z M67,43.5
			c-0.276,0-0.5,0.224-0.5,0.5s0.224,0.5,0.5,0.5s0.5-0.224,0.5-0.5S67.276,43.5,67,43.5z"/>
	</g>
	<path style="fill:#472B29;" d="M62.75,40.5H56.5c-0.138,0-0.25-0.112-0.25-0.25S56.362,40,56.5,40h6.25
		c0.138,0,0.25,0.112,0.25,0.25S62.888,40.5,62.75,40.5z"/>
	<path style="fill:#472B29;" d="M65.75,40.5h-1.5c-0.138,0-0.25-0.112-0.25-0.25S64.112,40,64.25,40h1.5
		c0.138,0,0.25,0.112,0.25,0.25S65.888,40.5,65.75,40.5z"/>
	<path style="fill:#472B29;" d="M69.375,40.5H67.25c-0.138,0-0.25-0.112-0.25-0.25S67.112,40,67.25,40h2.125
		c0.138,0,0.25,0.112,0.25,0.25S69.513,40.5,69.375,40.5z"/>
</g>
<g>
	<path style="fill:#DDF2F1;" d="M55.21,29.2l-10.2-4.65c-0.07-0.03-0.14-0.05-0.21-0.05c-0.17,0-0.33,0.09-0.42,0.24
		c-0.9,1.49-2.8,4.73-4.89,8.79c-0.85,1.68-1.75,3.49-2.62,5.38c-1.83,3.98-2.31,7.42-1.37,9.93c0.59,1.6,1.77,2.84,3.4,3.59
		c0.8,0.37,1.59,0.55,2.36,0.55c3.01,0,5.81-2.77,8.34-8.27c0.86-1.89,1.66-3.74,2.37-5.48c1.73-4.23,2.95-7.78,3.5-9.43
		C55.55,29.56,55.44,29.31,55.21,29.2z"/>
	<g>
		<path style="fill:#FDF5A9;" d="M38.25,36c-0.626,1.256-0.754,1.551-1.38,2.91c-1.83,3.98-2.31,7.42-1.37,9.93
			c0.59,1.6,1.77,2.84,3.4,3.59c0.8,0.37,1.59,0.55,2.36,0.55c3.01,0,5.81-2.77,8.34-8.27c0.824-1.811,2.775-6.71,3.525-8.71H38.25z
			"/>
	</g>
	<path style="fill:#DEE0E2;" d="M27.975,58.248L27.5,59.279L41.133,65.5l0.476-1.031l-3.567-3.316
		c-0.631-0.588-0.813-1.508-0.453-2.289l2.787-6.058l-2.76-1.247l-2.755,6.063c-0.359,0.781-1.183,1.242-2.033,1.151L27.975,58.248z
		"/>
	<path style="fill:#472B29;" d="M41.95,64.106l-3.567-3.32c-0.472-0.439-0.608-1.129-0.339-1.714l2.778-6.038l-0.454-0.207
		l-0.819-0.374l-2.776,6.034c-0.523,1.136-0.258,2.472,0.658,3.324l2.127,1.979l-9.716-4.436l2.893,0.312
		c0.105,0.011,0.209,0.017,0.313,0.017c1.129,0,2.163-0.662,2.635-1.686l2.78-6.042l-1.274-0.581l-2.778,6.038
		c-0.246,0.535-0.782,0.872-1.363,0.872c-0.054,0-0.108-0.003-0.162-0.009l-4.854-0.524c-0.018-0.002-0.036-0.003-0.054-0.003
		c-0.194,0-0.372,0.112-0.454,0.291l-0.475,1.032c-0.115,0.25-0.005,0.546,0.246,0.66l13.634,6.224
		C40.993,65.985,41.064,66,41.134,66c0.189,0,0.371-0.108,0.455-0.291l0.475-1.032C42.153,64.483,42.108,64.253,41.95,64.106z"/>
	<path style="fill:#472B29;" d="M44.961,25.513l9.542,4.356c-0.855,2.54-2.908,8.352-5.722,14.469
		c-1.627,3.536-4.247,7.751-7.488,7.751c-0.644,0-1.324-0.161-2.02-0.479c-1.426-0.651-2.413-1.689-2.931-3.086
		c-0.848-2.283-0.382-5.478,1.349-9.24C40.509,33.158,43.591,27.812,44.961,25.513 M44.799,24c-0.339,0-0.666,0.172-0.851,0.48
		c-1.197,1.994-4.522,7.681-7.53,14.218c-3.749,8.149-1.363,12.525,2.273,14.184c0.851,0.388,1.72,0.605,2.601,0.605
		c2.883,0,5.889-2.324,8.76-8.566c3.008-6.537,5.162-12.759,5.897-14.964c0.161-0.482-0.071-1.001-0.535-1.213l-10.196-4.654
		C45.083,24.03,44.94,24,44.799,24L44.799,24z"/>
	<g>
		<circle style="fill:#FDFCEF;" cx="41" cy="42" r="0.75"/>
		<path style="fill:#472B29;" d="M41,43c-0.551,0-1-0.449-1-1s0.449-1,1-1s1,0.449,1,1S41.551,43,41,43z M41,41.5
			c-0.276,0-0.5,0.224-0.5,0.5s0.224,0.5,0.5,0.5s0.5-0.224,0.5-0.5S41.276,41.5,41,41.5z"/>
	</g>
	<g>
		<circle style="fill:#FDFCEF;" cx="46" cy="40" r="0.75"/>
		<path style="fill:#472B29;" d="M46,41c-0.551,0-1-0.449-1-1s0.449-1,1-1s1,0.449,1,1S46.551,41,46,41z M46,39.5
			c-0.276,0-0.5,0.224-0.5,0.5s0.224,0.5,0.5,0.5s0.5-0.224,0.5-0.5S46.276,39.5,46,39.5z"/>
	</g>
	<g>
		<circle style="fill:#FDFCEF;" cx="45" cy="45" r="0.75"/>
		<path style="fill:#472B29;" d="M45,46c-0.551,0-1-0.449-1-1s0.449-1,1-1s1,0.449,1,1S45.551,46,45,46z M45,44.5
			c-0.276,0-0.5,0.224-0.5,0.5s0.224,0.5,0.5,0.5s0.5-0.224,0.5-0.5S45.276,44.5,45,44.5z"/>
	</g>
	<g>
		<circle style="fill:#FDFCEF;" cx="41" cy="49" r="0.75"/>
		<path style="fill:#472B29;" d="M41,50c-0.551,0-1-0.449-1-1s0.449-1,1-1s1,0.449,1,1S41.551,50,41,50z M41,48.5
			c-0.276,0-0.5,0.224-0.5,0.5s0.224,0.5,0.5,0.5s0.5-0.224,0.5-0.5S41.276,48.5,41,48.5z"/>
	</g>
	<path style="fill:#472B29;" d="M52.75,36.5h-8.5c-0.138,0-0.25-0.112-0.25-0.25S44.112,36,44.25,36h8.5
		c0.138,0,0.25,0.112,0.25,0.25S52.888,36.5,52.75,36.5z"/>
	<path style="fill:#472B29;" d="M41.75,36.5h-3.625c-0.138,0-0.25-0.112-0.25-0.25S37.987,36,38.125,36h3.625
		c0.138,0,0.25,0.112,0.25,0.25S41.888,36.5,41.75,36.5z"/>
</g>
</svg>
